<svg width="16" height="16" viewBox="0 0 8 8" fill="none" xmlns="http://www.w3.org/2000/svg">
    <path
        d="M2.87596 4.22453H2.72298C2.2284 4.22453 1.98111 4.22453 1.8757 4.06147C1.7703 3.89843 1.87073 3.67127 2.0716 3.21694L2.67548 1.85108C2.85811 1.438 2.94942 1.23146 3.12657 1.11573C3.30372 1 3.52855 1 3.97825 1H4.67472C5.22098 1 5.49412 1 5.59712 1.17845C5.70015 1.3569 5.56465 1.59529 5.29362 2.07208L4.93632 2.70063C4.80158 2.93765 4.73422 3.05616 4.73515 3.15317C4.73638 3.27925 4.80342 3.3954 4.91172 3.459C4.99505 3.50797 5.13082 3.50797 5.40238 3.50797C5.74568 3.50797 5.91735 3.50797 6.00675 3.5674C6.12288 3.6446 6.18368 3.78273 6.16238 3.92107C6.14598 4.02753 6.03052 4.1552 5.79958 4.41057L3.95455 6.45077C3.59215 6.8515 3.41095 7.05187 3.28927 6.98847C3.16759 6.92503 3.22603 6.66073 3.34288 6.13207L3.57182 5.09653C3.66078 4.694 3.70528 4.49273 3.59828 4.35863C3.49128 4.22453 3.28617 4.22453 2.87596 4.22453Z"
        stroke="#007DFC" stroke-width="0.5" stroke-linejoin="round" />
</svg>