<svg width="14" height="14" viewBox="0 0 14 14" fill="none" xmlns="http://www.w3.org/2000/svg">
    <g id="list-view">
        <path id="Vector"
            d="M1.1665 6.64967C1.1665 5.974 1.30751 5.83301 1.98317 5.83301H12.0165C12.6922 5.83301 12.8332 5.974 12.8332 6.64967V7.34967C12.8332 8.02535 12.6922 8.16634 12.0165 8.16634H1.98317C1.30751 8.16634 1.1665 8.02535 1.1665 7.34967V6.64967Z"
            stroke="#344054" stroke-width="0.875" stroke-linecap="round" />
        <path id="Vector_2"
            d="M1.1665 1.98366C1.1665 1.308 1.30751 1.16699 1.98317 1.16699H12.0165C12.6922 1.16699 12.8332 1.308 12.8332 1.98366V2.68366C12.8332 3.35932 12.6922 3.50033 12.0165 3.50033H1.98317C1.30751 3.50033 1.1665 3.35932 1.1665 2.68366V1.98366Z"
            stroke="#344054" stroke-width="0.875" stroke-linecap="round" />
        <path id="Vector_3"
            d="M1.1665 11.3167C1.1665 10.641 1.30751 10.5 1.98317 10.5H12.0165C12.6922 10.5 12.8332 10.641 12.8332 11.3167V12.0167C12.8332 12.6923 12.6922 12.8333 12.0165 12.8333H1.98317C1.30751 12.8333 1.1665 12.6923 1.1665 12.0167V11.3167Z"
            stroke="#344054" stroke-width="0.875" stroke-linecap="round" />
    </g>
</svg>