<svg preserveAspectRatio="xMidYMid meet" viewBox="0 0 18 22" fill="none" xmlns="http://www.w3.org/2000/svg">
<path d="M1 16.9808V8.70753C1 5.07416 1 3.25748 2.17157 2.12874C3.34315 1 5.22876 1 9 1C12.7712 1 14.6569 1 15.8284 2.12874C17 3.25748 17 5.07416 17 8.70753V16.9808C17 19.2867 17 20.4396 16.2272 20.8523C14.7305 21.6514 11.9232 18.9852 10.59 18.1824C9.8168 17.7168 9.4302 17.484 9 17.484C8.5698 17.484 8.1832 17.7168 7.41 18.1824C6.0768 18.9852 3.26947 21.6514 1.77285 20.8523C1 20.4396 1 19.2867 1 16.9808Z" stroke="#6B7280" stroke-width="1.5" stroke-linecap="round" stroke-linejoin="round"/>
</svg>
