<svg width="16" height="16" viewBox="0 0 16 16" fill="none" xmlns="http://www.w3.org/2000/svg">
<g id="bubble-chat">
<path id="Vector" d="M14.6667 7.71178C14.6667 11.2339 11.6815 14.0896 8.00001 14.0896C7.56714 14.0902 7.13548 14.0501 6.71028 13.9703C6.40423 13.9128 6.2512 13.8841 6.14436 13.9004C6.03752 13.9167 5.88613 13.9972 5.58334 14.1583C4.72677 14.6138 3.72798 14.7747 2.76742 14.596C3.1325 14.1469 3.38184 13.6081 3.49186 13.0305C3.55853 12.6772 3.39334 12.334 3.14594 12.0827C2.02223 10.9417 1.33334 9.40405 1.33334 7.71178C1.33334 4.1897 4.31853 1.33398 8.00001 1.33398C11.6815 1.33398 14.6667 4.1897 14.6667 7.71178Z" stroke="white" stroke-width="1.5" stroke-linejoin="round"/>
<path id="Vector_2" d="M7.99701 8H8.00301M10.6607 8H10.6667M5.33334 8H5.33932" stroke="white" stroke-width="2" stroke-linecap="round" stroke-linejoin="round"/>
</g>
</svg>
