<svg preserveAspectRatio="xMidYMid meet" viewBox="0 0 17 18" fill="none" xmlns="http://www.w3.org/2000/svg">
<path d="M13.4 1V2.6M3.79999 1V2.6" stroke="#6B7280" stroke-width="1.2" stroke-linecap="round" stroke-linejoin="round"/>
<path d="M1.40002 5.7998H15.8" stroke="#6B7280" stroke-width="1.2" stroke-linecap="round" stroke-linejoin="round"/>
<path d="M1 9.19437C1 5.70856 1 3.96563 2.0017 2.88272C3.00339 1.7998 4.61559 1.7998 7.84 1.7998H9.36C12.5844 1.7998 14.1966 1.7998 15.1983 2.88272C16.2 3.96563 16.2 5.70856 16.2 9.19437V9.60524C16.2 13.0911 16.2 14.834 15.1983 15.9169C14.1966 16.9998 12.5844 16.9998 9.36 16.9998H7.84C4.61559 16.9998 3.00339 16.9998 2.0017 15.9169C1 14.834 1 13.0911 1 9.60524V9.19437Z" stroke="#6B7280" stroke-width="1.2" stroke-linecap="round" stroke-linejoin="round"/>
<path d="M6.20001 11.3999H11" stroke="#6B7280" stroke-width="1.2" stroke-linecap="round" stroke-linejoin="round"/>
</svg>
