<svg width="16" height="16" viewBox="0 0 16 16" fill="none" xmlns="http://www.w3.org/2000/svg">
<g id="call-02">
<path id="Vector" d="M6.10563 3.80815L5.83719 3.20417C5.66167 2.80925 5.57391 2.61179 5.44266 2.46067C5.27817 2.27129 5.06377 2.13196 4.82391 2.05857C4.63251 2 4.41643 2 3.98426 2C3.35206 2 3.03596 2 2.77061 2.12153C2.45803 2.26468 2.17575 2.57552 2.06327 2.9004C1.96779 3.17619 1.99515 3.45962 2.04984 4.02647C2.63206 10.0601 5.94 13.3681 11.9736 13.9503C12.5405 14.005 12.824 14.0323 13.0997 13.9369C13.4246 13.8244 13.7354 13.5421 13.8786 13.2295C14.0001 12.9641 14.0001 12.6481 14.0001 12.0159C14.0001 11.5837 14.0001 11.3676 13.9416 11.1762C13.8682 10.9363 13.7288 10.7219 13.5394 10.5575C13.3884 10.4262 13.1909 10.3385 12.796 10.1629L12.192 9.89447C11.7643 9.7044 11.5504 9.6094 11.3332 9.58873C11.1252 9.56893 10.9155 9.59813 10.7208 9.67393C10.5174 9.75313 10.3377 9.90293 9.97809 10.2025C9.62023 10.5008 9.44129 10.6499 9.22263 10.7298C9.02876 10.8006 8.77249 10.8269 8.56836 10.7967C8.33803 10.7628 8.16169 10.6686 7.80896 10.4801C6.71163 9.89367 6.10647 9.28853 5.52003 8.19113C5.33155 7.83847 5.23731 7.66207 5.20337 7.4318C5.17328 7.2276 5.19951 6.97133 5.27032 6.77753C5.3502 6.55885 5.49933 6.37991 5.79758 6.022C6.0972 5.66245 6.24701 5.48268 6.32622 5.27927C6.40202 5.08463 6.4312 4.87493 6.41142 4.66699C6.39075 4.44968 6.29571 4.23584 6.10563 3.80815Z" stroke="#141B34" stroke-width="1.5" stroke-linecap="round"/>
</g>
</svg>
