<svg preserveAspectRatio="xMidYMid meet" viewBox="0 0 32 32" fill="none" xmlns="http://www.w3.org/2000/svg">
<path d="M9.25 16H18.25M9.25 9.99998H13.75" stroke="url(#paint0_linear_1_274)" stroke-width="2" stroke-linecap="round" stroke-linejoin="round"/>
<path d="M10.75 28C12.3256 29.3045 14.2217 30.1357 16.3952 30.2782C18.1078 30.3905 19.8956 30.3904 21.6047 30.2782C22.1932 30.2396 22.8347 30.101 23.3872 29.8765C24.0017 29.6267 24.3092 29.5018 24.4655 29.5207C24.6217 29.5396 24.8483 29.7046 25.3016 30.0344C26.1008 30.616 27.1076 31.0337 28.6007 30.9979C29.3557 30.9797 29.7332 30.9706 29.9021 30.6863C30.0712 30.4019 29.8607 30.0083 29.4397 29.2211C28.8559 28.1293 28.486 26.8793 29.0465 25.8778C30.0119 24.4472 30.8318 22.7531 30.9517 20.9234C31.016 19.9403 31.016 18.9221 30.9517 17.939C30.8719 16.7198 30.5759 15.5609 30.1018 14.5" stroke="url(#paint1_linear_1_274)" stroke-width="2" stroke-linecap="round" stroke-linejoin="round"/>
<path d="M16.5175 24.2302C21.8509 23.8789 26.0992 19.6103 26.4487 14.2516C26.5171 13.2029 26.5171 12.1169 26.4487 11.0683C26.0992 5.70953 21.8509 1.44101 16.5175 1.08977C14.698 0.969955 12.7983 0.970195 10.9825 1.08977C5.64914 1.44101 1.40087 5.70953 1.0513 11.0683C0.9829 12.1169 0.9829 13.2029 1.0513 14.2516C1.17862 16.2034 2.04988 18.0104 3.07558 19.5364C3.67114 20.6045 3.27809 21.9379 2.65777 23.1025C2.2105 23.9422 1.98686 24.362 2.16643 24.6653C2.34598 24.9686 2.74708 24.9784 3.54926 24.9977C5.13567 25.036 6.20541 24.5903 7.05456 23.9701C7.53615 23.6182 7.77696 23.4422 7.94292 23.4221C8.10888 23.4019 8.43549 23.5351 9.0886 23.8016C9.6756 24.0412 10.3572 24.1889 10.9825 24.2302C12.7983 24.3497 14.698 24.3499 16.5175 24.2302Z" stroke="url(#paint2_linear_1_274)" stroke-width="2" stroke-linejoin="round"/>
<defs>
<linearGradient id="paint0_linear_1_274" x1="9.25" y1="13" x2="18.25" y2="13" gradientUnits="userSpaceOnUse">
<stop stop-color="#198BD8"/>
<stop offset="1" stop-color="#F03DCE"/>
</linearGradient>
<linearGradient id="paint1_linear_1_274" x1="10.75" y1="22.75" x2="30.9999" y2="22.75" gradientUnits="userSpaceOnUse">
<stop stop-color="#198BD8"/>
<stop offset="1" stop-color="#F03DCE"/>
</linearGradient>
<linearGradient id="paint2_linear_1_274" x1="1" y1="13" x2="26.5" y2="13" gradientUnits="userSpaceOnUse">
<stop stop-color="#198BD8"/>
<stop offset="1" stop-color="#F03DCE"/>
</linearGradient>
</defs>
</svg>
