<svg width="28" height="28" viewBox="0 0 28 28" fill="none" xmlns="http://www.w3.org/2000/svg">
<g id="city-01">
<path id="Vector" d="M16.3334 9.33398H11.6667C8.77108 9.33398 8.16675 9.93832 8.16675 12.834V25.6673H19.8334V12.834C19.8334 9.93832 19.2291 9.33398 16.3334 9.33398Z" stroke="#171718" stroke-width="1.5" stroke-linejoin="round"/>
<path id="Vector_2" d="M12.8333 14H15.1666M12.8333 17.5H15.1666M12.8333 21H15.1666" stroke="#171718" stroke-width="1.5" stroke-linecap="round" stroke-linejoin="round"/>
<path id="Vector_3" d="M24.5001 25.6673V9.55057C24.5001 8.11756 24.5001 7.40105 24.1516 6.82526C23.8031 6.24946 23.1756 5.92904 21.9205 5.28817L16.8551 2.70191C15.5013 2.01063 15.1667 2.25426 15.1667 3.76751V8.98807" stroke="#171718" stroke-width="1.5" stroke-linecap="round" stroke-linejoin="round"/>
<path id="Vector_4" d="M3.5 25.6667V15.1667C3.5 14.2015 3.70145 14 4.66667 14H8.16667" stroke="#171718" stroke-width="1.5" stroke-linecap="round" stroke-linejoin="round"/>
<path id="Vector_5" d="M25.6666 25.666H2.33325" stroke="#171718" stroke-width="1.5" stroke-linecap="round" stroke-linejoin="round"/>
</g>
</svg>
