<svg width="20" height="20" viewBox="0 0 20 20" fill="none" xmlns="http://www.w3.org/2000/svg">
<g id="city-01">
<path id="Vector" d="M11.6666 6.66602H8.33325C6.26492 6.66602 5.83325 7.09768 5.83325 9.16602V18.3327H14.1666V9.16602C14.1666 7.09768 13.7349 6.66602 11.6666 6.66602Z" stroke="#9DB2CE" stroke-width="1.5" stroke-linejoin="round"/>
<path id="Vector_2" d="M9.16675 10H10.8334M9.16675 12.5H10.8334M9.16675 15H10.8334" stroke="#9DB2CE" stroke-width="1.5" stroke-linecap="round" stroke-linejoin="round"/>
<path id="Vector_3" d="M17.4999 18.3327V6.82072C17.4999 5.79714 17.4999 5.28535 17.251 4.87407C17.0021 4.46278 16.5538 4.23391 15.6573 3.77615L12.0393 1.92882C11.0723 1.43505 10.8333 1.60907 10.8333 2.68996V6.41893" stroke="#9DB2CE" stroke-width="1.5" stroke-linecap="round" stroke-linejoin="round"/>
<path id="Vector_4" d="M2.5 18.3333V10.8333C2.5 10.1439 2.64389 10 3.33333 10H5.83333" stroke="#9DB2CE" stroke-width="1.5" stroke-linecap="round" stroke-linejoin="round"/>
<path id="Vector_5" d="M18.3334 18.334H1.66675" stroke="#9DB2CE" stroke-width="1.5" stroke-linecap="round" stroke-linejoin="round"/>
</g>
</svg>
