<svg width="20" height="20" viewBox="0 0 20 20" fill="none" xmlns="http://www.w3.org/2000/svg">
<g id="city-01">
<path id="Vector" d="M11.6667 6.66602H8.33337C6.26504 6.66602 5.83337 7.09768 5.83337 9.16602V18.3327H14.1667V9.16602C14.1667 7.09768 13.735 6.66602 11.6667 6.66602Z" stroke="white" stroke-width="1.5" stroke-linejoin="round"/>
<path id="Vector_2" d="M9.16663 10H10.8333M9.16663 12.5H10.8333M9.16663 15H10.8333" stroke="white" stroke-width="1.5" stroke-linecap="round" stroke-linejoin="round"/>
<path id="Vector_3" d="M17.5 18.3327V6.82072C17.5 5.79714 17.5 5.28535 17.2511 4.87407C17.0022 4.46278 16.554 4.23391 15.6575 3.77615L12.0394 1.92882C11.0724 1.43505 10.8334 1.60907 10.8334 2.68996V6.41893" stroke="white" stroke-width="1.5" stroke-linecap="round" stroke-linejoin="round"/>
<path id="Vector_4" d="M2.5 18.3333V10.8333C2.5 10.1439 2.64389 10 3.33333 10H5.83333" stroke="white" stroke-width="1.5" stroke-linecap="round" stroke-linejoin="round"/>
<path id="Vector_5" d="M18.3333 18.334H1.66663" stroke="white" stroke-width="1.5" stroke-linecap="round" stroke-linejoin="round"/>
</g>
</svg>
