<svg width="295" height="260" viewBox="0 0 295 260" fill="none" xmlns="http://www.w3.org/2000/svg">
    <path fill-rule="evenodd" clip-rule="evenodd"
        d="M164.173 240.51C182.366 240.51 197.114 244.873 197.114 250.255C197.114 255.636 182.366 260 164.173 260C145.979 260 131.232 255.636 131.232 250.255C131.232 244.873 145.98 240.51 164.173 240.51Z"
        fill="#DBEAFE" />
    <path fill-rule="evenodd" clip-rule="evenodd"
        d="M146.137 219.126C146.137 219.126 143.686 221.19 144.028 223.525C144.37 225.86 142.156 236.921 140.73 244.01C139.304 251.099 157.889 255.327 157.193 241.54C156.497 227.752 158.468 225.504 157.571 223.889C156.674 222.274 151.658 218.38 146.136 219.129L146.137 219.126Z"
        fill="#322269" />
    <path fill-rule="evenodd" clip-rule="evenodd"
        d="M144.995 205.141C144.995 205.141 145.455 218.288 145.533 221.831C145.533 221.831 147.452 224.256 150.37 224.256C153.287 224.256 153.979 222.391 153.979 222.391C153.979 222.391 153.825 215.865 153.979 209.803C154.134 203.741 145.533 202.25 144.995 205.141Z"
        fill="#EF4444" />
    <path fill-rule="evenodd" clip-rule="evenodd"
        d="M173.3 188.744L161.823 186.917C161.823 186.917 156.442 205.294 164.453 206.818C172.822 207.123 173.303 188.744 173.303 188.744H173.3Z"
        fill="#322269" />
    <path fill-rule="evenodd" clip-rule="evenodd"
        d="M170.392 172.085C170.392 172.085 160.68 173.172 160.729 183.262C160.747 186.879 162.479 191.142 165.269 191.664C170.128 192.571 176.053 189.477 177.279 180.472C179.005 167.785 170.392 172.085 170.392 172.085Z"
        fill="#5A36D1" />
    <path fill-rule="evenodd" clip-rule="evenodd"
        d="M157.628 142.242C156.88 151.046 156.243 164.098 157.743 174.224C158.763 181.112 146.472 187.763 140.141 172.753C133.81 157.742 134.891 126.985 142.303 124.336C147.085 122.628 154.18 123.064 157.533 125.802C160.625 123.037 167.539 122.62 172.456 124.386C180.187 127.17 184.986 159.434 180.468 175.182C175.951 190.93 163.407 184.15 163.045 176.725C162.454 164.626 160.459 151.432 158.932 142.717C158.574 142.237 158.143 142.02 157.628 142.247V142.242Z"
        fill="#926BFF" />
    <path fill-rule="evenodd" clip-rule="evenodd"
        d="M137.288 133.504C138.338 128.632 140.02 125.151 142.303 124.336C147.085 122.626 154.18 123.063 157.533 125.801C160.626 123.037 167.538 122.619 172.456 124.386C175.017 125.305 177.256 129.463 178.94 135.182C174.273 139.49 164.825 144.873 150.129 138.412C144.163 135.787 140.11 134.235 137.289 133.504H137.288Z"
        fill="#5A36D1" />
    <path fill-rule="evenodd" clip-rule="evenodd"
        d="M155.056 217.906C153.436 204.78 163.345 192.955 158.021 175.814C152.696 158.673 142.745 159.657 140.112 172.69C137.479 185.722 144.587 210.843 144.552 217.613C144.552 217.613 149.206 219.82 155.056 217.906Z"
        fill="#926BFF" />
    <path fill-rule="evenodd" clip-rule="evenodd"
        d="M140.247 172.054C140.201 172.261 140.155 172.471 140.112 172.684C139.499 175.718 139.416 179.407 139.644 183.367C143.213 185.637 147.518 183.091 145.492 180.98C142.641 178.013 140.255 172.072 140.247 172.05V172.054Z"
        fill="#5A36D1" />
    <path fill-rule="evenodd" clip-rule="evenodd"
        d="M153.598 145.998C153.598 145.998 155.126 151.094 149.316 166.488C143.505 181.881 160.427 167.813 153.598 145.998Z"
        fill="#5A36D1" />
    <path fill-rule="evenodd" clip-rule="evenodd"
        d="M160.156 143.411C160.156 143.411 164.846 169.907 165.549 175.065C166.252 180.223 171.369 153.344 160.156 143.411Z"
        fill="#5A36D1" />
    <path fill-rule="evenodd" clip-rule="evenodd"
        d="M174.694 186.844C174.694 186.844 173.612 190.343 169.265 191.502C164.918 192.662 164.23 190.873 164.23 190.873C164.23 190.873 170.495 190.653 174.694 186.844Z"
        fill="#926BFF" />
    <path fill-rule="evenodd" clip-rule="evenodd"
        d="M200.715 96.4029C200.715 96.4029 193.336 91.218 185.946 79.8331C178.555 68.4481 174.488 85.9328 177.131 92.0315C179.774 98.1302 185.772 102.502 189.431 104.739C193.09 106.976 201.528 104.938 200.715 96.4029H200.715Z"
        fill="#EF4444" />
    <path fill-rule="evenodd" clip-rule="evenodd"
        d="M191.477 85.9786C191.477 85.9786 185.866 79.4086 184.454 72.9648C183.042 66.521 181.272 63.8729 178.275 64.932C175.278 65.991 170.949 86.3814 178.628 96.6208C178.628 96.6208 187.858 93.6574 191.477 85.9806V85.9786Z"
        fill="#201547" />
    <path fill-rule="evenodd" clip-rule="evenodd"
        d="M205.985 78.8516L211.626 80.6902C211.626 80.6902 212.396 102.368 200.353 105.728C189.731 108.697 189.207 101.469 192.775 94.9232C196.332 88.3979 203.962 82.5627 205.985 78.8506V78.8516Z"
        fill="url(#paint0_linear_1139_527)" />
    <path fill-rule="evenodd" clip-rule="evenodd"
        d="M150.966 50.8113C150.966 50.8113 149.374 48.8563 147.485 51.0012C145.596 53.1461 125.894 66.2395 125.894 66.2395C125.894 66.2395 141.281 102.605 135.878 125.296C135.878 125.296 138.039 140.113 156.562 138.573C175.086 137.032 178.174 129.928 178.174 129.928C178.174 129.928 171.596 112.343 176.031 85.6136C180.467 58.8839 185.37 69.3888 168.795 55.7316C152.22 42.0744 150.963 50.8123 150.963 50.8123L150.966 50.8113Z"
        fill="#322269" />
    <path fill-rule="evenodd" clip-rule="evenodd"
        d="M159.082 138.318C163.144 137.833 166.366 137.069 168.917 136.194C168.387 123.235 171.707 109.871 174.537 101.048C174.58 99.4899 174.658 97.8813 174.774 96.2219C164.291 111.177 153.334 118.686 152.785 126.75C152.333 133.413 156.768 136.94 159.082 138.315V138.318Z"
        fill="#201547" />
    <path fill-rule="evenodd" clip-rule="evenodd"
        d="M133.429 88.989C136.619 99.8459 139.178 112.718 137.735 123.18C141.225 121.299 145.229 117.151 144.578 108.042C143.452 92.3034 133.457 87.2358 133.457 87.2358L133.429 88.989Z"
        fill="#201547" />
    <path fill-rule="evenodd" clip-rule="evenodd"
        d="M147.063 41.6584C147.063 41.6584 147.398 50.267 147.597 52.8693C147.597 52.8693 153.003 64.8818 157.407 64.2812C161.812 63.6805 162.813 55.0053 160.011 47.1972C157.208 39.3891 157.008 35.0515 157.008 35.0515L147.063 41.6584Z"
        fill="#EF4444" />
    <path fill-rule="evenodd" clip-rule="evenodd"
        d="M126.941 108.836C126.941 108.836 133.822 90.7718 132.256 82.1125C130.689 73.4532 123.089 74.1861 120.143 81.1977C117.196 88.2092 114.053 102.942 114.532 107.109C114.532 107.109 117.474 112.392 126.941 108.836Z"
        fill="#EF4444" />
    <path fill-rule="evenodd" clip-rule="evenodd"
        d="M115.896 93.1192C115.896 93.1192 117.232 72.4047 126.108 66.2394C134.984 60.074 136.102 83.5779 130.935 97.8894C130.935 97.8894 115.666 94.7431 115.896 93.1192Z"
        fill="#322269" />
    <path fill-rule="evenodd" clip-rule="evenodd"
        d="M115.418 103.51C115.418 103.51 118.55 97.6486 130.86 100.848C143.17 104.047 153.845 104.259 153.845 104.259C153.845 104.259 156.762 106.335 154.628 112.066C154.628 112.066 134.276 117.926 121.752 115.111C109.228 112.297 115.419 103.51 115.419 103.51H115.418Z"
        fill="#FEE2E2" />
    <path fill-rule="evenodd" clip-rule="evenodd"
        d="M175.697 106.979L176.073 107.354C176.073 107.354 176.132 109.85 172.891 109.65C169.65 109.449 167.62 107.513 167.62 107.513L172.628 105.576L175.7 106.979H175.697Z"
        fill="#EF4444" />
    <path fill-rule="evenodd" clip-rule="evenodd"
        d="M173.387 110.939L173.99 111.687C173.99 111.687 172.853 114.413 168.946 112.88C165.039 111.348 166.141 109.541 166.408 109.541C166.676 109.541 169.379 109.074 173.387 110.943V110.939Z"
        fill="#EF4444" />
    <path fill-rule="evenodd" clip-rule="evenodd"
        d="M172.066 102.373L174.303 101.173C174.303 101.173 175.348 102.143 174.985 103.88C174.622 105.617 170.33 105.444 170.33 105.444C170.33 105.444 168.978 100.809 172.066 102.373Z"
        fill="#EF4444" />
    <path fill-rule="evenodd" clip-rule="evenodd"
        d="M153.267 107.188L151.746 104.163C155.205 103.814 157.033 99.1714 160.568 98.8254C164.103 98.4793 169.196 99.773 170.863 97.5843C172.529 95.3957 166.268 105.051 166.268 105.051C166.268 105.051 160.082 109.834 153.267 107.187V107.188Z"
        fill="#EF4444" />
    <path fill-rule="evenodd" clip-rule="evenodd"
        d="M201.128 79.8456C201.128 79.8456 202.759 72.9176 203.923 70.9377C205.088 68.9578 211.666 66.5126 212.077 62.6702C212.489 58.8278 220.52 61.5366 217.049 70.3868C213.579 79.237 205.734 83.9784 201.139 79.8456H201.128Z"
        fill="#EF4444" />
    <path fill-rule="evenodd" clip-rule="evenodd"
        d="M222.322 75.2269L221.721 76.4103C221.721 76.4103 221.342 78.3742 216.437 76.4103C211.533 74.4463 214.25 72.8374 214.25 72.8374C214.25 72.8374 217.796 72.2347 222.322 75.2239V75.2269Z"
        fill="#EF4444" />
    <path fill-rule="evenodd" clip-rule="evenodd"
        d="M214.935 83.3332L215.512 84.5463C215.512 84.5463 213.639 86.8265 209.148 84.7313C204.657 82.6361 206.886 78.5103 214.935 83.3391V83.3332Z"
        fill="#EF4444" />
    <path fill-rule="evenodd" clip-rule="evenodd"
        d="M217.62 78.5156L218.802 80.3642C218.802 80.3642 216.267 82.711 211.189 81.3019C206.11 79.8928 211.197 75.1883 217.62 78.5176V78.5156Z"
        fill="#EF4444" />
    <path fill-rule="evenodd" clip-rule="evenodd"
        d="M206.004 32.5161C192.614 23.5535 173.094 29.5328 162.406 45.8809C151.796 62.1047 153.879 82.4374 167.01 91.5004L167.784 91.8882C169.923 93.523 155.261 112.991 150.263 120.229C150.263 120.229 149.731 124.368 150.679 127.026L156.024 126.33L171.591 93.7955L173.075 94.5393C185.844 98.8371 201.665 92.451 210.898 78.3304C221.586 61.9873 219.395 41.4737 206.005 32.5111L206.004 32.5161ZM200.049 41.6219C190.779 35.4177 177.267 39.5605 169.867 50.8699C162.467 62.1793 163.984 76.3854 173.254 82.5915C182.524 88.7976 196.037 84.6539 203.436 73.3435C210.836 62.0331 209.319 47.829 200.049 41.6219Z"
        fill="url(#paint1_linear_1139_527)" />
    <path fill-rule="evenodd" clip-rule="evenodd"
        d="M214.289 72.0724C220.835 57.1344 217.754 40.5159 206.16 32.6243C200.704 34.6608 192.704 37.4143 187.013 36.8913C185.281 36.7322 184.942 37.6928 185.51 39.3355C190.582 38.0995 195.768 38.7558 200.049 41.6227C209.317 47.8268 210.834 62.0279 203.43 73.3443C201.856 75.7624 199.93 77.9316 197.716 79.7801C197.66 81.4378 198.895 81.8873 202.489 79.8487C207.958 76.7482 211.718 74.5784 214.281 72.0754L214.289 72.0724Z"
        fill="url(#paint2_linear_1139_527)" />
    <path fill-rule="evenodd" clip-rule="evenodd"
        d="M211.843 34.0901C198.707 25.1285 179.018 31.1069 167.867 47.4549C156.798 63.6797 158.307 84.0124 171.181 93.0754C166.799 99.3829 157.306 113.547 150.679 127.028C150.679 127.028 150.967 131.58 156.797 134.627C162.627 137.674 164.766 134.947 164.766 134.947C164.766 134.947 168.832 111.777 177.159 96.1143C189.806 100.412 205.808 94.0261 215.445 79.9055C226.591 63.5663 224.98 43.0527 211.843 34.0901ZM205.63 43.1969C196.536 36.9928 182.906 41.1345 175.187 52.4449C167.468 63.7553 168.583 77.9604 177.673 84.1665C186.763 90.3726 200.397 86.2289 208.116 74.9185C215.835 63.6081 214.725 49.401 205.63 43.1969Z"
        fill="url(#paint3_linear_1139_527)" />
    <path fill-rule="evenodd" clip-rule="evenodd"
        d="M207.528 88.7053C210.551 86.1456 213.213 83.187 215.439 79.9108C218.966 74.7398 221.214 69.1552 222.227 63.6482C221.995 63.7287 221.754 63.8182 221.504 63.9197C218.208 65.2631 215.085 65.285 212.571 64.8574C211.724 68.4578 210.215 71.8691 208.12 74.9168C206.44 77.3887 204.403 79.5972 202.075 81.47C202.519 81.5883 202.995 81.7166 203.509 81.8578C207.96 83.0779 208.103 86.3326 207.527 88.7043L207.528 88.7053Z"
        fill="#5A36D1" />
    <path fill-rule="evenodd" clip-rule="evenodd"
        d="M165.412 101.654C160.806 108.722 155.104 118.027 150.68 127.029C150.68 127.029 150.968 131.58 156.798 134.627C162.628 137.674 164.767 134.947 164.767 134.947C164.767 134.947 167.352 120.219 172.618 106.308C170.735 104.774 167.991 102.753 165.412 101.65V101.654Z"
        fill="#BAA1FF" />
    <path fill-rule="evenodd" clip-rule="evenodd"
        d="M197.867 29.8518C194.762 29.8518 192.245 30.9725 192.245 32.3537C192.245 33.735 194.762 34.8547 197.867 34.8547C200.973 34.8547 203.49 33.735 203.49 32.3537C203.49 30.9725 200.972 29.8518 197.867 29.8518Z"
        fill="#BAA1FF" />
    <path fill-rule="evenodd" clip-rule="evenodd"
        d="M163.388 64.8442C163.388 64.8442 161.875 85.1013 178.665 93.5618C178.665 93.5618 157.191 94.1216 163.388 64.8442Z"
        fill="#5A36D1" />
    <path fill-rule="evenodd" clip-rule="evenodd"
        d="M168.951 116.992C168.951 116.992 165.778 127.334 165.32 132.368C164.861 137.401 161.134 136.454 157.2 134.295C157.2 134.295 163.084 136.139 163.998 131.871C164.912 127.603 166.59 121.203 168.95 116.992H168.951Z"
        fill="#E5E7EB" />
    <path fill-rule="evenodd" clip-rule="evenodd"
        d="M223.168 68.109C223.168 68.109 217.565 64.9209 213.568 64.8473C213.568 64.8473 212.984 64.7688 212.176 66.8292C211.369 68.8896 213.659 69.4683 215.494 70.1972C217.328 70.9261 220.519 72.3332 221.827 72.0309C223.135 71.7286 224.317 68.6639 223.168 68.109Z"
        fill="#FEE2E2" />
    <path fill-rule="evenodd" clip-rule="evenodd"
        d="M222.024 72.8224C222.024 72.8224 214.904 68.7752 210.907 68.7016C210.907 68.7016 210.322 68.622 209.515 70.6834C208.708 72.7448 210.998 73.3216 212.832 74.0505C214.667 74.7794 219.23 76.5833 220.682 76.7443C222.134 76.9054 223.694 74.2146 222.024 72.8224Z"
        fill="#FEE2E2" />
    <path fill-rule="evenodd" clip-rule="evenodd"
        d="M219.22 76.701C219.22 76.701 213.247 73.0127 209.25 72.9381C208.179 72.6696 204.739 75.7294 211.179 78.2881C213.013 79.017 216.429 80.4618 217.881 80.6229C219.333 80.784 220.889 78.0941 219.22 76.701Z"
        fill="#FEE2E2" />
    <path fill-rule="evenodd" clip-rule="evenodd"
        d="M215.893 80.9022C215.893 80.9022 211.641 77.8633 207.64 77.7897C206.568 77.5212 203.128 80.581 209.568 83.1396C211.403 83.8685 213.098 84.663 214.55 84.8241C216.002 84.9852 217.558 82.2944 215.888 80.9022H215.893Z"
        fill="#FEE2E2" />
    <path fill-rule="evenodd" clip-rule="evenodd"
        d="M151.118 106.699L151.746 104.163C151.746 104.163 161.983 99.8595 165.65 99.7352C169.318 99.6109 169.199 107.033 166.588 112.323C163.977 117.614 154.628 112.066 154.628 112.066C154.628 112.066 150.515 109.779 151.118 106.696V106.699Z"
        fill="#FEE2E2" />
    <path fill-rule="evenodd" clip-rule="evenodd"
        d="M164.128 102.84L166.165 99.595C166.165 99.595 171.137 100.674 173.465 100.782C175.51 100.882 174.276 104.343 171.467 103.996C168.658 103.649 164.127 102.84 164.127 102.84H164.128Z"
        fill="#FEE2E2" />
    <path fill-rule="evenodd" clip-rule="evenodd"
        d="M165.015 105.708L166.041 103.038C166.041 103.038 171.049 103.117 174.483 104.578C177.917 106.039 176.221 109.915 170.747 107.882C165.273 105.85 165.015 105.708 165.015 105.708Z"
        fill="#FEE2E2" />
    <path fill-rule="evenodd" clip-rule="evenodd"
        d="M165.341 106.632L166.678 106.357C166.678 106.357 170.743 107.878 173.315 108.644C175.767 109.377 174.982 113.569 169.527 112.185C164.073 110.801 162.057 110.223 162.057 110.223C162.057 110.223 163.143 105.737 165.341 106.632Z"
        fill="#FEE2E2" />
    <path fill-rule="evenodd" clip-rule="evenodd"
        d="M163.659 111.921L165.16 111.066C165.16 111.066 170.558 112.117 171.466 112.47C172.375 112.823 172.651 115.886 169.875 115.71C167.1 115.534 164.145 114.861 162.363 113.848C162.246 110.529 163.798 111.627 163.661 111.921H163.659Z"
        fill="#FEE2E2" />
    <path fill-rule="evenodd" clip-rule="evenodd"
        d="M132.801 20.9031C132.801 20.9031 132.11 25.7946 136.257 30.5797C140.405 35.3648 138.331 16.4392 138.331 16.4392L132.802 20.9051L132.801 20.9031Z"
        fill="#201547" />
    <path fill-rule="evenodd" clip-rule="evenodd"
        d="M134.442 21.3299L135.779 32.0148C135.779 32.0148 134.654 39.6071 135.779 42.2075C136.903 44.8079 141.403 50.7843 144.566 51.2059C147.73 51.6275 157.078 46.3552 157.855 43.6862C158.631 41.0172 158.627 39.6091 158.627 39.6091C158.627 39.6091 162.845 42.3507 164.462 35.7429C166.08 29.135 160.103 28.2212 158.557 32.5796L157.218 20.4857C157.218 20.4857 149.35 10.5475 134.446 21.3289L134.442 21.3299Z"
        fill="#FEE2E2" />
    <path fill-rule="evenodd" clip-rule="evenodd"
        d="M158.625 39.6091C158.625 39.6091 162.843 42.3507 164.46 35.7428C164.531 35.4545 164.585 35.178 164.628 34.9115C164.336 33.7739 163.573 33.045 162.662 33.1574C160.634 33.408 159.679 35.529 159.679 35.529C162.065 34.3059 161.338 39.6061 158.625 39.6061V39.6091Z"
        fill="#EF4444" />
    <path fill-rule="evenodd" clip-rule="evenodd"
        d="M147.637 29.4814C147.321 29.4814 147.017 29.6072 146.793 29.831C146.569 30.0547 146.444 30.3583 146.444 30.6747V31.515C146.444 31.8315 146.569 32.135 146.793 32.3588C147.017 32.5826 147.321 32.7083 147.637 32.7083C147.953 32.7083 148.257 32.5826 148.481 32.3588C148.705 32.135 148.83 31.8315 148.83 31.515V30.6747C148.83 30.3583 148.705 30.0547 148.481 29.831C148.257 29.6072 147.953 29.4814 147.637 29.4814Z"
        fill="#322269" />
    <path fill-rule="evenodd" clip-rule="evenodd"
        d="M138.24 29.4814C137.923 29.4814 137.62 29.6072 137.396 29.831C137.172 30.0547 137.046 30.3583 137.046 30.6747V31.515C137.046 31.8315 137.172 32.135 137.396 32.3588C137.62 32.5826 137.923 32.7083 138.24 32.7083C138.556 32.7083 138.86 32.5826 139.083 32.3588C139.307 32.135 139.433 31.8315 139.433 31.515V30.6747C139.433 30.3583 139.307 30.0547 139.083 29.831C138.86 29.6072 138.556 29.4814 138.24 29.4814Z"
        fill="#322269" />
    <path fill-rule="evenodd" clip-rule="evenodd"
        d="M150.47 27.5263C150.47 27.5263 146.654 26.6811 145.315 26.8203C143.977 26.9595 145.436 24.2259 147.788 24.6067C150.141 24.9876 151.06 27.2847 150.47 27.5263Z"
        fill="#322269" />
    <path fill-rule="evenodd" clip-rule="evenodd"
        d="M135.703 28.4907C135.703 28.4907 139.523 27.6683 140.862 27.8155C142.2 27.9627 140.756 25.2201 138.401 25.587C136.045 25.954 135.113 28.2451 135.703 28.4907Z"
        fill="#322269" />
    <path
        d="M139.326 42.1727C139.285 42.1533 139.241 42.1424 139.196 42.1407C139.151 42.139 139.106 42.1464 139.064 42.1626C139.022 42.1788 138.984 42.2034 138.952 42.2348C138.92 42.2663 138.894 42.304 138.877 42.3456C138.86 42.3872 138.851 42.4319 138.852 42.4769C138.853 42.5219 138.863 42.5663 138.881 42.6074C138.9 42.6484 138.926 42.6853 138.959 42.7157C138.993 42.7461 139.032 42.7694 139.074 42.7842C139.088 42.7902 144.002 44.8397 148.194 41.6725C148.261 41.6186 148.304 41.5408 148.314 41.4556C148.325 41.3704 148.302 41.2845 148.25 41.2159C148.199 41.1473 148.123 41.1014 148.038 41.0879C147.953 41.0744 147.866 41.0943 147.796 41.1435C143.906 44.0829 139.344 42.1777 139.327 42.1727H139.326Z"
        fill="#322269" />
    <path fill-rule="evenodd" clip-rule="evenodd"
        d="M145.565 44.6895C145.565 44.6895 143.22 44.946 141.761 44.8884C140.302 44.8307 142.439 46.8145 144.001 46.4665C145.564 46.1185 145.565 44.6875 145.565 44.6875V44.6895Z"
        fill="#EF4444" />
    <path fill-rule="evenodd" clip-rule="evenodd"
        d="M145.309 36.7991C145.309 36.7991 144.568 38.8715 142.732 39.0724C140.897 39.2732 140.293 36.6321 140.293 36.6321C140.293 36.6321 141.877 39.3737 145.309 36.7981V36.7991Z"
        fill="#EF4444" />
    <path
        d="M142.298 31.6372C142.325 31.6014 142.345 31.5604 142.355 31.5168C142.366 31.4732 142.368 31.4279 142.361 31.3835C142.354 31.3392 142.337 31.2968 142.313 31.259C142.289 31.2211 142.257 31.1885 142.22 31.1633C142.183 31.138 142.141 31.1206 142.097 31.112C142.053 31.1035 142.008 31.104 141.964 31.1135C141.92 31.1231 141.878 31.1414 141.842 31.1675C141.805 31.1936 141.774 31.2269 141.751 31.2653C141.741 31.2802 138.12 36.5684 140.915 37.8701C143.571 39.1082 145.534 37.0358 145.54 37.0308C145.57 36.9995 145.593 36.9625 145.609 36.922C145.625 36.8815 145.633 36.8383 145.632 36.7948C145.631 36.7513 145.622 36.7084 145.604 36.6686C145.587 36.6287 145.562 36.5926 145.531 36.5625C145.499 36.5323 145.462 36.5086 145.422 36.4927C145.381 36.4769 145.338 36.4691 145.295 36.4699C145.251 36.4708 145.208 36.4802 145.168 36.4976C145.129 36.515 145.092 36.5401 145.062 36.5714C145.062 36.5714 143.42 38.3047 141.195 37.2675C139.107 36.296 142.289 31.6501 142.298 31.6362V31.6372Z"
        fill="#322269" />
    <path fill-rule="evenodd" clip-rule="evenodd"
        d="M134.442 21.3301L134.692 23.3339C135.388 23.1648 135.458 22.4807 135.458 22.4807C138.971 25.5285 141.424 20.8946 142.541 19.1872C143.657 17.4798 145.178 21.006 145.178 21.006C144.714 19.1474 147.878 16.7966 152.232 18.8869C156.587 20.9771 152.317 23.4472 152.317 23.4472C158.511 25.5792 157.437 32.7887 157.437 32.7887L158.295 30.243L157.218 20.4869C157.218 20.4869 149.349 10.5488 134.446 21.3301H134.442Z"
        fill="#EF4444" />
    <path fill-rule="evenodd" clip-rule="evenodd"
        d="M159.537 32.9471C159.537 32.9471 160.068 29.8107 161.556 23.1124C163.045 16.4141 160.177 10.6565 154.862 11.4003C154.862 11.4003 154.282 8.24501 151.838 7.5539C149.394 6.86278 153.693 10.9836 153.693 10.9836C153.693 10.9836 145.715 4.6552 140.612 7.90094C135.509 11.1467 133.055 16.774 131.894 15.7518C130.734 14.7295 132.737 13.0162 133.187 14.5197C133.187 14.5197 133.192 11.3157 129.734 13.5392C126.674 15.5072 130.173 22.1021 132.769 22.3169C135.366 22.5317 135.931 20.3012 135.931 20.3012C135.931 20.3012 136.185 22.6878 139.145 22.4581C142.106 22.2284 142.038 17.1718 145.968 16.9888C145.968 16.9888 142.593 19.4858 144.488 20.8263C144.488 20.8263 143.98 17.6362 148.834 17.4055C153.688 17.1748 156.601 21.936 152.902 22.7683C152.902 22.7683 157.576 25.311 157.433 31.9169C157.433 31.9169 156.416 33.4423 159.532 32.9481L159.537 32.9471Z"
        fill="#322269" />
    <path fill-rule="evenodd" clip-rule="evenodd"
        d="M159.536 32.9467C159.536 32.9467 160.063 29.8342 161.539 23.1905C160.971 23.29 160.221 22.9091 159.23 21.7079C159.23 21.7079 159.037 25.2758 155.431 20.9412C153.998 19.2179 152.832 18.3378 151.878 17.947C154.697 19.189 155.737 22.1235 152.908 22.7619C152.908 22.7619 157.576 25.3047 157.438 31.9105C157.438 31.9105 156.421 33.4359 159.536 32.9417V32.9467Z"
        fill="#201547" />
    <path fill-rule="evenodd" clip-rule="evenodd"
        d="M140.411 20.7157C140.411 20.7157 140.044 14.7125 144.914 14.3117C149.785 13.911 150.618 16.4795 150.618 16.4795C150.618 16.4795 144.467 14.3664 140.411 20.7157Z"
        fill="#201547" />
    <path fill-rule="evenodd" clip-rule="evenodd"
        d="M255.392 98.9463C233.768 98.9463 216.238 116.476 216.238 138.099C216.238 159.723 233.768 177.251 255.392 177.251C277.016 177.251 294.545 159.722 294.545 138.099C294.545 116.477 277.016 98.9463 255.392 98.9463Z"
        fill="url(#paint4_linear_1139_527)" />
    <path fill-rule="evenodd" clip-rule="evenodd"
        d="M228.317 166.38C232.688 170.572 237.973 173.692 243.755 175.493C244.532 165.234 246.007 148.52 246.007 148.52L241.043 144.17C240.665 143.838 230.315 161.05 228.315 166.38H228.317Z"
        fill="#201547" />
    <path fill-rule="evenodd" clip-rule="evenodd"
        d="M247.078 139.526C247.078 139.526 246.996 135.804 246.935 133.958C246.935 133.958 247.306 130.786 252.833 129.475C258.359 128.163 258.448 129.543 258.448 129.543L254.017 137.187L247.081 139.526H247.078Z"
        fill="#926BFF" />
    <path fill-rule="evenodd" clip-rule="evenodd"
        d="M260.706 128.259C260.706 128.259 266.89 130.455 265.995 133.384L265.344 135.987C265.344 135.987 274.131 140.87 276.246 144.937C277.936 148.179 278.894 163.198 279.215 169.168C272.773 174.107 264.955 176.923 256.843 177.224C248.731 177.525 240.725 175.298 233.935 170.85C234.803 166.665 238.994 146.785 240.691 144.612C242.588 142.185 247.036 137.614 247.036 137.614L253.058 133.465L260.706 128.258V128.259Z"
        fill="url(#paint5_linear_1139_527)" />
    <path fill-rule="evenodd" clip-rule="evenodd"
        d="M260.665 128.827C260.665 128.827 270.592 132.407 262.374 135.174C254.156 137.94 250.983 139.649 250.983 139.649L250.414 142.252C250.414 142.252 248.42 137.976 247.648 134.483C247.648 134.483 247.322 128.218 260.665 128.827Z"
        fill="#201547" />
    <path fill-rule="evenodd" clip-rule="evenodd"
        d="M283.582 165.265C281.82 157.436 278.251 145.02 273.218 144.244C267.695 143.392 269.602 163.734 270.916 174.05C275.677 171.989 279.982 169.002 283.581 165.265H283.582Z"
        fill="#322269" />
    <path fill-rule="evenodd" clip-rule="evenodd"
        d="M250.919 123.456C250.919 123.456 251.898 130.733 251.269 135.985C252.561 137.938 257.309 136.98 260.031 135.985C260.761 135.728 261.541 135.458 262.374 135.178C262.507 135.134 262.632 135.09 262.75 135.047C262.438 132.577 261.836 125.678 263.864 119.82C266.384 112.543 250.569 114.083 250.919 123.46V123.456Z"
        fill="#FEE2E2" />
    <path fill-rule="evenodd" clip-rule="evenodd"
        d="M250.919 123.456C250.919 123.456 251.587 127.073 251.47 130.964C255.898 132.281 261.631 125.927 261.631 125.927L260.295 119.261L258.365 115.368C254.725 115.965 250.741 118.701 250.918 123.46L250.919 123.456Z"
        fill="#EF4444" />
    <path fill-rule="evenodd" clip-rule="evenodd"
        d="M266.988 118.576C266.988 118.576 270.536 111.054 273.109 108.52C275.681 105.986 272.601 103.608 270.886 103.881C270.886 103.881 270.172 95.5 265.687 93.2317C261.203 90.9635 267.698 99.5214 267.698 99.5214C267.698 99.5214 263.471 92.7683 253.47 94.4688C253.232 94.5095 253.002 94.5553 252.774 94.604C252.774 94.604 245.149 95.8878 242.055 102.478C240.464 105.871 241.794 106.058 243.459 105.436C243.259 107.615 243.405 109.812 243.891 111.946C245.327 118.339 261.308 121.018 266.991 118.577L266.988 118.576Z"
        fill="#201547" />
    <path fill-rule="evenodd" clip-rule="evenodd"
        d="M245.327 104.942C245.327 104.942 237.869 123.173 249.84 127.531C258.28 130.604 263.189 126.58 265.618 121.046C270.002 122.737 273.207 115.907 271.426 113.964C269.645 112.021 268.334 112.863 267.464 113.342C267.867 105.236 255.986 98.4663 245.327 104.943V104.942Z"
        fill="#FEE2E2" />
    <path fill-rule="evenodd" clip-rule="evenodd"
        d="M245.327 104.942C244.739 106.462 244.258 108.022 243.889 109.61C246.024 108.995 248.899 107.734 252.772 105.418C252.772 105.418 251.918 105.742 252.12 107.857C252.12 107.857 259.717 104.863 264.282 108.589C264.907 109.101 265.674 109.235 266.527 109.087C263.544 103.196 254.03 99.6517 245.327 104.94V104.942Z"
        fill="#EF4444" />
    <path fill-rule="evenodd" clip-rule="evenodd"
        d="M265.618 121.041C267.873 121.91 269.926 120.708 271.087 118.978C271.989 117.3 271.646 115.486 270.165 115.305C268.228 115.069 267.633 116.781 267.505 117.262C269.356 116.765 269.726 120.703 266.328 119.857L265.614 121.041H265.618Z"
        fill="#EF4444" />
    <path fill-rule="evenodd" clip-rule="evenodd"
        d="M248.805 100.338C248.434 100.921 247.952 101.773 247.536 102.525C236.563 105.234 238.921 110.862 248.704 106.915C255.863 104.026 256.996 104.579 256.996 104.579C256.996 104.579 253.869 104.718 252.487 106.915C252.487 106.915 257.908 105.595 263.008 107.639C263.008 107.639 265.529 109.577 264.813 113.705C264.097 117.832 264.098 117.843 264.098 117.843C264.098 117.843 265.35 113.965 267.644 113.269C267.644 113.269 268.241 111.634 267.28 109.661C267.514 109.5 267.67 109.031 267.634 108.011C267.517 104.697 267.517 101.852 264.788 101.306C262.059 100.76 248.805 100.332 248.805 100.332V100.338Z"
        fill="#201547" />
    <path fill-rule="evenodd" clip-rule="evenodd"
        d="M259.259 106.106L259.44 106.173L262.441 107.286C262.441 107.286 262.225 103.759 256.837 104.342C256.837 104.342 256.269 100.431 250.147 103.237C250.147 103.237 247.639 100.751 244.469 104.447L244.961 105.576C244.961 105.576 256.555 101.897 259.259 106.105V106.106Z"
        fill="#201547" />
    <path fill-rule="evenodd" clip-rule="evenodd"
        d="M248.713 117.238C248.713 117.238 249.831 118.845 252.012 117.194C251.41 120.031 248.494 119.46 248.713 117.238Z"
        fill="#EF4444" />
    <path fill-rule="evenodd" clip-rule="evenodd"
        d="M248.05 120.946C248.05 120.946 255.445 118.621 256.542 121.311C257.638 124.002 253.886 126.736 250.376 125.587C246.867 124.439 247.18 121.315 248.05 120.946Z"
        fill="#EF4444" />
    <path fill-rule="evenodd" clip-rule="evenodd"
        d="M248.575 121.022C248.575 121.022 253.232 119.795 254.681 120.474C256.131 121.154 253.979 122.503 252.185 122.538C250.392 122.573 248.427 122.369 248.575 121.022Z"
        fill="white" />
    <path fill-rule="evenodd" clip-rule="evenodd"
        d="M246.536 112.045C246.843 112.046 247.137 112.168 247.355 112.386C247.572 112.603 247.694 112.897 247.695 113.204V113.411C247.694 113.718 247.572 114.013 247.355 114.23C247.137 114.447 246.843 114.57 246.536 114.571C246.229 114.57 245.934 114.447 245.717 114.23C245.5 114.013 245.378 113.718 245.376 113.411V113.204C245.378 112.897 245.5 112.603 245.717 112.386C245.934 112.168 246.229 112.046 246.536 112.045Z"
        fill="#201547" />
    <path fill-rule="evenodd" clip-rule="evenodd"
        d="M256.561 112.045C256.868 112.046 257.162 112.168 257.38 112.386C257.597 112.603 257.719 112.897 257.72 113.204V113.411C257.719 113.718 257.597 114.013 257.38 114.23C257.162 114.447 256.868 114.57 256.561 114.571C256.254 114.57 255.959 114.448 255.742 114.23C255.525 114.013 255.402 113.719 255.401 113.411V113.204C255.402 112.897 255.525 112.603 255.742 112.385C255.959 112.168 256.254 112.046 256.561 112.045Z"
        fill="#201547" />
    <path fill-rule="evenodd" clip-rule="evenodd"
        d="M244.889 110.2C244.889 110.2 247.809 110.356 248.098 110.2C248.388 110.044 248.297 108.663 246.739 108.729C245.181 108.796 244.511 110.089 244.889 110.2Z"
        fill="#201547" />
    <path fill-rule="evenodd" clip-rule="evenodd"
        d="M258.124 110.51C258.124 110.51 255.206 110.667 254.916 110.51C254.627 110.354 254.717 108.973 256.276 109.041C257.834 109.108 258.504 110.396 258.124 110.51Z"
        fill="#201547" />
    <path fill-rule="evenodd" clip-rule="evenodd"
        d="M81.2343 156.591C102.857 156.591 120.387 174.119 120.387 195.744C120.387 217.368 102.862 234.896 81.2343 234.896C59.6063 234.896 42.0803 217.366 42.0803 195.744C42.0803 174.121 59.6103 156.591 81.2343 156.591Z"
        fill="url(#paint6_linear_1139_527)" />
    <path fill-rule="evenodd" clip-rule="evenodd"
        d="M78.4619 156.687C78.4619 156.687 67.1333 153.988 64.1828 167.794C61.2323 181.601 55.7162 191.709 73.3475 193.875C90.9789 196.041 96.8819 192.16 95.4837 186.294C94.0856 180.428 90.9014 167.846 90.9014 167.846C90.9014 167.846 83.4431 157.693 78.4629 156.687H78.4619Z"
        fill="#201547" />
    <path fill-rule="evenodd" clip-rule="evenodd"
        d="M95.0592 171.526C99.5847 164.605 93.2991 152.273 82.6002 156.026C61.1846 146.352 56.4334 193.781 82.1448 184.873C95.1855 180.356 94.4218 173.391 95.0582 171.526H95.0592Z"
        fill="#322269" />
    <path fill-rule="evenodd" clip-rule="evenodd"
        d="M67.3529 161.007C61.3625 171.494 64.9056 190.847 82.1447 184.873C82.9342 184.6 83.6744 184.317 84.3652 184.026C84.2071 177.552 83.8083 171.616 83.8083 171.616C67.325 176.62 67.3519 161.15 67.3529 161.007Z"
        fill="#201547" />
    <path fill-rule="evenodd" clip-rule="evenodd"
        d="M105.024 226.839C99.6578 230.956 93.3118 233.606 86.6106 234.526C85.6341 226.884 84.4229 207.863 85.4989 202.833C86.8294 196.637 90.2024 195.772 93.489 200.088C95.9332 203.297 102.052 219.007 105.024 226.839Z"
        fill="#DBEAFE" />
    <path fill-rule="evenodd" clip-rule="evenodd"
        d="M81.0227 190.531L88.3915 196.075C88.3915 196.075 91.8829 199.288 97.8178 207.466C102.339 213.696 101.037 218.941 97.5373 220.481L98.9236 230.681C93.9767 233.179 88.5567 234.602 83.0205 234.855C77.4843 235.107 71.9572 234.185 66.8032 232.148C67.6982 224.754 70.1843 204.797 71.0902 201.728C72.21 197.949 76.7794 196.075 76.7794 196.075L81.0267 190.532L81.0227 190.531Z"
        fill="#322269" />
    <path fill-rule="evenodd" clip-rule="evenodd"
        d="M85.0617 234.712C83.8021 234.834 82.5253 234.896 81.2312 234.897C76.289 234.903 71.3905 233.971 66.7964 232.148C67.2319 228.569 68.0374 222.047 68.8558 215.92C69.6244 217.206 70.5559 218.389 71.6272 219.437L73.9661 209.264C73.3615 214.941 74.7855 224.081 82.5578 222.411C82.5578 222.411 77.5728 231.609 85.0617 234.713V234.712Z"
        fill="#201547" />
    <path fill-rule="evenodd" clip-rule="evenodd"
        d="M72.4515 228.385C72.4515 228.385 78.047 201.87 72.0657 200.608C67.1374 199.568 60.4311 220.136 58.2175 227.416C62.1588 230.288 66.6037 232.396 71.3218 233.629L72.4515 228.385Z"
        fill="white" />
    <path fill-rule="evenodd" clip-rule="evenodd"
        d="M72.4515 228.384C72.4515 228.384 72.8224 226.625 73.2709 223.994C67.205 228.797 60.6359 225.566 60.7533 219.629C59.6763 222.711 58.7933 225.518 58.2166 227.416C62.1579 230.288 66.6033 232.396 71.3219 233.629L72.4515 228.385V228.384Z"
        fill="#DBEAFE" />
    <path fill-rule="evenodd" clip-rule="evenodd"
        d="M88.7409 183.548C88.7409 183.548 87.7614 190.826 88.3919 196.078H76.7742C76.7742 196.078 78.3135 187.191 75.7947 179.914C73.2759 172.637 89.0899 174.175 88.7399 183.552L88.7409 183.548Z"
        fill="#FEE2E2" />
    <path fill-rule="evenodd" clip-rule="evenodd"
        d="M88.7411 183.549C88.7411 183.549 88.0728 187.166 88.1892 191.058C83.7621 192.374 78.0283 186.02 78.0283 186.02L79.3648 179.35L81.2949 175.457C84.9345 176.054 88.9191 178.791 88.7411 183.549Z"
        fill="#EF4444" />
    <path fill-rule="evenodd" clip-rule="evenodd"
        d="M76.2644 193.189C76.2644 193.189 88.4409 192.454 88.8934 192.804C89.3459 193.155 88.7184 197.279 88.7184 197.279L75.7732 197.104C75.7732 197.104 75.2859 193.084 76.2644 193.189Z"
        fill="#322269" />
    <path fill-rule="evenodd" clip-rule="evenodd"
        d="M93.4286 164.248C93.4286 164.248 102.158 181.909 90.5309 187.1C82.33 190.763 77.1482 187.1 74.333 181.75C70.0789 183.746 66.0297 177.88 68.0374 175.097C69.2247 173.451 70.7611 173.663 71.9494 174.232C70.9729 166.177 82.34 158.542 93.4286 164.248Z"
        fill="#FEE2E2" />
    <path fill-rule="evenodd" clip-rule="evenodd"
        d="M74.3302 181.749C72.1425 182.776 70.0085 181.723 68.7257 180.079C67.7065 178.469 67.9213 176.636 69.386 176.351C71.3003 175.977 72.0152 177.644 72.1763 178.114C70.2949 177.752 70.2054 181.703 73.5357 180.618L74.3312 181.749H74.3302Z"
        fill="#EF4444" />
    <path fill-rule="evenodd" clip-rule="evenodd"
        d="M92.3535 177.214C92.3535 177.214 91.8911 179.735 88.3252 177.765C89.0511 181.034 92.8627 180.626 92.3535 177.214Z"
        fill="#EF4444" />
    <path fill-rule="evenodd" clip-rule="evenodd"
        d="M91.0389 182.63C91.0389 182.63 88.1113 184.065 85.8291 182.261C86.1782 181.869 85.5378 181.404 85.1569 181.712C84.7164 182.069 85.0296 182.722 85.5935 182.433C86.1175 183.572 88.2247 185.534 91.0389 182.632V182.63Z"
        fill="#EF4444" />
    <path fill-rule="evenodd" clip-rule="evenodd"
        d="M85.9919 184.156C85.9919 184.156 86.7954 185.199 88.5525 184.852C88.5525 184.847 86.5806 186.476 85.9919 184.156Z"
        fill="#EF4444" />
    <path fill-rule="evenodd" clip-rule="evenodd"
        d="M93.4287 164.248C93.4287 164.248 93.5937 164.582 93.8483 165.171C92.8748 164.039 90.7756 163.147 86.2411 164.574C86.2411 164.574 85.9895 179.263 72.1523 175.434C72.0946 175.144 72.0409 174.855 71.9942 174.568C70.6498 166.388 82.1819 158.459 93.4297 164.244L93.4287 164.248Z"
        fill="#EF4444" />
    <path fill-rule="evenodd" clip-rule="evenodd"
        d="M94.6883 167.302C92.5593 160.762 85.3836 164.056 85.3836 164.056C85.3836 164.056 84.3554 175.325 72.164 175.507C72.164 175.507 71.1695 174.082 69.4492 173.451C69.4492 173.451 70.554 161.94 81.6069 160.539C92.6597 159.138 95.1656 164.633 94.6883 167.301V167.302Z"
        fill="#322269" />
    <path fill-rule="evenodd" clip-rule="evenodd"
        d="M79.9217 169.514C79.5428 171.494 76.5496 175.258 72.1653 175.507C72.1653 175.507 71.1709 174.082 69.4505 173.451C68.7346 173.144 68.3945 171.242 70.432 169.606C72.2518 172.131 76.5864 172.17 79.9227 169.514H79.9217Z"
        fill="#201547" />
    <path fill-rule="evenodd" clip-rule="evenodd"
        d="M95.6645 170.433C95.7931 170.156 95.9076 169.871 96.0075 169.582C97.1541 159.894 88.1279 156.922 85.3843 164.056C85.3843 164.056 92.0856 160.982 94.4573 166.676C94.9254 167.906 95.3283 169.16 95.6645 170.433Z"
        fill="#201547" />
    <path fill-rule="evenodd" clip-rule="evenodd"
        d="M92.3216 166.466C93.1321 166.649 93.683 167.267 93.5517 167.846C93.4204 168.425 92.6567 168.741 91.8473 168.561C91.0378 168.381 90.4859 167.759 90.6172 167.181C90.7485 166.602 91.5062 166.282 92.3216 166.466Z"
        fill="#201547" />
    <path fill-rule="evenodd" clip-rule="evenodd"
        d="M83.9033 167.224C83.1436 167.562 82.7239 168.275 82.9646 168.815C83.2052 169.355 84.0157 169.522 84.7754 169.184C85.5351 168.845 85.9558 168.133 85.7141 167.593C85.4725 167.053 84.664 166.886 83.9033 167.224Z"
        fill="#201547" />
    <path fill-rule="evenodd" clip-rule="evenodd"
        d="M92.9727 172.023C93.2306 172.035 93.4736 172.148 93.6485 172.338C93.8235 172.527 93.9162 172.779 93.9065 173.037L93.8836 173.583C93.8722 173.841 93.7593 174.084 93.5695 174.258C93.3796 174.433 93.1283 174.526 92.8703 174.516C92.6121 174.505 92.3689 174.392 92.1939 174.202C92.0188 174.012 91.9263 173.76 91.9366 173.502L91.9584 172.956C91.9701 172.698 92.0832 172.455 92.2733 172.281C92.4633 172.106 92.7148 172.013 92.9727 172.023Z"
        fill="#201547" />
    <path fill-rule="evenodd" clip-rule="evenodd"
        d="M85.438 172.164C85.6959 172.175 85.9387 172.288 86.1135 172.478C86.2882 172.668 86.3808 172.919 86.3708 173.177L86.3489 173.723C86.3375 173.981 86.2246 174.224 86.0348 174.399C85.8449 174.574 85.5936 174.667 85.3356 174.657C85.0775 174.646 84.8344 174.533 84.6595 174.343C84.4845 174.152 84.3919 173.901 84.4019 173.643L84.4247 173.098C84.4361 172.84 84.5492 172.597 84.7392 172.422C84.9293 172.247 85.1809 172.154 85.439 172.164H85.438Z"
        fill="#201547" />
    <path
        d="M88.988 172.911L91.7723 172.923C91.8406 172.483 92.0122 172.065 92.2733 171.704C92.5343 171.342 92.8773 171.048 93.274 170.845C93.6707 170.642 94.1099 170.536 94.5556 170.536C95.0013 170.535 95.4407 170.641 95.8378 170.843C96.2349 171.045 96.5784 171.339 96.8401 171.699C97.1018 172.06 97.2742 172.478 97.3433 172.918C97.4123 173.358 97.376 173.809 97.2374 174.232C97.0987 174.656 96.8616 175.04 96.5455 175.354L96.5305 175.368C96.1374 175.753 95.6404 176.014 95.1008 176.119C94.5611 176.225 94.0023 176.17 93.4934 175.962C92.9844 175.754 92.5474 175.402 92.2363 174.948C91.9252 174.495 91.7535 173.96 91.7425 173.41L89.0158 173.398C88.9955 174.122 88.6971 174.81 88.1825 175.32L88.1676 175.333C87.7727 175.719 87.2729 175.981 86.7303 176.086C86.1877 176.191 85.6263 176.133 85.1159 175.921C84.6056 175.709 84.1688 175.352 83.8601 174.894C83.5513 174.435 83.3842 173.896 83.3795 173.344C81.867 173.321 75.6738 173.221 73.5667 173.198C71.4595 173.174 71.2696 174.637 71.2696 174.641C71.257 174.702 71.2216 174.756 71.1707 174.792C71.1198 174.827 71.0571 174.842 70.9956 174.833C70.9341 174.824 70.8784 174.792 70.8398 174.743C70.8013 174.694 70.7828 174.633 70.7883 174.571C70.7883 174.571 71.0379 172.681 73.5726 172.713C75.6808 172.737 81.9913 172.838 83.4173 172.859C83.5282 172.197 83.8717 171.597 84.386 171.165C84.9003 170.734 85.5516 170.5 86.2229 170.506C86.8941 170.512 87.5412 170.758 88.0477 171.198C88.5542 171.639 88.8869 172.245 88.986 172.909L88.988 172.911ZM96.2163 171.711C95.892 171.385 95.4783 171.161 95.0274 171.07C94.5765 170.978 94.1085 171.022 93.6824 171.196C93.2563 171.369 92.8912 171.665 92.6331 172.046C92.375 172.427 92.2355 172.876 92.232 173.336C92.2285 173.796 92.3614 174.247 92.6137 174.632C92.8661 175.017 93.2267 175.318 93.6501 175.499C94.0735 175.679 94.5408 175.73 94.993 175.645C95.4453 175.56 95.8623 175.343 96.1915 175.021L96.2024 175.009C96.42 174.794 96.5929 174.537 96.7113 174.255C96.8298 173.972 96.8914 173.669 96.8927 173.363C96.894 173.057 96.8349 172.753 96.7189 172.47C96.6028 172.186 96.432 171.928 96.2163 171.711ZM87.8543 171.675C87.5512 171.369 87.1693 171.154 86.751 171.051C86.3327 170.949 85.8944 170.965 85.4844 171.097C85.0745 171.228 84.709 171.471 84.4284 171.797C84.1478 172.124 83.963 172.522 83.8946 172.947C83.886 173.001 83.879 173.06 83.8737 173.126C83.8737 173.184 83.8668 173.244 83.8658 173.308C83.8641 173.768 83.9983 174.218 84.2516 174.601C84.5048 174.985 84.8658 175.286 85.2892 175.465C85.7125 175.644 86.1795 175.694 86.6312 175.609C87.083 175.524 87.4995 175.307 87.8285 174.986L87.8394 174.974C88.2784 174.538 88.5266 173.946 88.5294 173.327C88.5322 172.709 88.2894 172.115 87.8543 171.675Z"
        fill="white" />
    <path fill-rule="evenodd" clip-rule="evenodd"
        d="M73.5595 16.399C95.1835 16.399 112.713 33.9274 112.713 55.5508C112.713 77.1743 95.1835 94.6997 73.5595 94.6997C51.9354 94.6997 34.4065 77.1703 34.4065 55.5469C34.4065 33.9235 51.9354 16.395 73.5595 16.395V16.399Z"
        fill="url(#paint7_linear_1139_527)" />
    <path fill-rule="evenodd" clip-rule="evenodd"
        d="M99.4143 84.9542C95.8076 88.1305 91.6474 90.6161 87.1413 92.2869C86.0594 84.1646 83.3625 60.9631 88.3952 64.1641C92.2347 66.6043 96.6677 77.1988 99.4143 84.9542Z"
        fill="#EF4444" />
    <path fill-rule="evenodd" clip-rule="evenodd"
        d="M73.7137 52.9163L78.1161 55.4271C78.1161 55.4271 87.2043 59.3372 90.3338 66.0971C93.0307 71.9244 95.4144 81.8197 96.7101 87.1259C89.891 92.1255 81.6366 94.7832 73.1814 94.7014C64.7262 94.6197 56.5246 91.8029 49.8035 86.6724C51.0396 80.2933 53.8369 67.1542 56.4225 63.982C59.8781 59.7508 65.6837 54.9458 65.6837 54.9458L73.7107 52.9163H73.7137Z"
        fill="#322269" />
    <path fill-rule="evenodd" clip-rule="evenodd"
        d="M78.0309 43.7857C78.0309 43.7857 77.0514 51.0627 77.6809 56.3152C76.3882 58.2682 71.6399 57.3096 68.9182 56.3152C68.1889 56.058 67.408 55.7888 66.5753 55.5078C66.4451 55.464 66.3208 55.4202 66.1994 55.3765C66.5117 52.9064 67.1133 46.0082 65.0857 40.1501C62.5669 32.873 78.381 34.4124 78.0309 43.7896V43.7857Z"
        fill="#FEE2E2" />
    <path fill-rule="evenodd" clip-rule="evenodd"
        d="M78.0309 43.7856C78.0309 43.7856 77.3626 47.4032 77.479 51.2944C73.0519 52.6109 67.3181 46.2567 67.3181 46.2567L68.6536 39.5872L70.5838 35.6951C74.2233 36.2917 78.2079 39.0283 78.0299 43.7866L78.0309 43.7856Z"
        fill="#EF4444" />
    <path fill-rule="evenodd" clip-rule="evenodd"
        d="M78.3121 59.1277C78.3121 59.1277 77.8238 54.612 78.1888 52.0495C78.1888 52.0495 78.2614 51.5343 77.4758 51.5035V52.8311C76.8065 53.1115 76.5619 53.5679 73.4723 52.5327C70.3827 51.4976 67.4064 49.278 65.2545 49.4819C63.1026 49.6857 65.336 54.974 65.7845 57.821C65.7845 57.821 77.0124 63.6791 78.3141 59.1227L78.3121 59.1277Z"
        fill="#322269" />
    <path fill-rule="evenodd" clip-rule="evenodd"
        d="M63.9561 93.5151C63.8417 85.2386 63.2013 65.431 59.7189 62.5701C56.5149 59.9389 51.4882 76.627 48.9634 86.0113C53.3582 89.569 58.4739 92.1291 63.9561 93.5141V93.5151Z"
        fill="url(#paint8_linear_1139_527)" />
    <path fill-rule="evenodd" clip-rule="evenodd"
        d="M60.9052 35.3241C61.303 34.3625 60.42 31.427 58.5475 26.6727C58.5475 26.6727 57.3731 24.857 58.4162 24.1867C59.4594 23.5165 60.6288 25.0817 60.6288 25.0817C60.6288 25.0817 61.6232 17.4148 64.2365 16.3985C66.8498 15.3822 63.8805 20.2519 63.8805 20.2519C67.2615 17.3681 71.3963 11.0576 83.1621 15.1664C91.4087 18.0502 91.9129 22.6185 89.8306 26.2372C89.4189 32.3031 85.0843 33.5759 85.0843 33.5759L84.0978 32.4493C87.8637 26.4053 62.7906 33.8504 60.9052 35.3201V35.3241Z"
        fill="#322269" />
    <path fill-rule="evenodd" clip-rule="evenodd"
        d="M85.7376 27.005C85.7376 27.005 90.4869 46.1215 78.016 48.708C69.2214 50.5327 64.9435 45.8431 63.3375 40.0169C58.7553 41.057 56.5686 33.8376 58.6101 32.172C60.6516 30.5063 61.828 31.5276 62.6206 32.1272C63.3902 24.0487 76.1226 19.0607 85.7376 27.006V27.005Z"
        fill="#FEE2E2" />
    <path fill-rule="evenodd" clip-rule="evenodd"
        d="M63.9973 28.2916C67.6676 22.7169 77.7728 20.4228 85.738 27.0048C82.3342 29.2303 68.9176 26.607 68.9176 26.607C67.9321 31.3961 63.9456 35.9336 63.9456 35.9336C64.5064 34.5504 64.3274 31.2698 64.0012 28.2945L63.9973 28.2916Z"
        fill="#EF4444" />
    <path fill-rule="evenodd" clip-rule="evenodd"
        d="M63.3379 40.0166C58.6134 40.9802 56.2408 33.6066 59.6586 33.6852C61.6086 33.7299 61.9507 35.5109 62.0073 36.0052C60.2472 35.2494 59.3145 39.0878 62.8029 38.7418L63.3379 40.0166Z"
        fill="#EF4444" />
    <path fill-rule="evenodd" clip-rule="evenodd"
        d="M61.8999 29.6313C61.9447 29.8848 62.6208 32.1262 62.6208 32.1262C62.6208 32.1262 63.7465 33.8883 63.9424 35.9309C63.9424 35.9309 67.8803 31.3407 67.8465 24.7994C67.8465 24.7994 85.9447 28.9461 87.1638 26.2453C89.3515 21.3727 72.023 20.2679 70.3524 20.7084C68.0434 21.318 64.2736 24.0576 64.0876 24.4822C63.9016 24.9068 61.8999 29.6313 61.8999 29.6313Z"
        fill="#322269" />
    <path fill-rule="evenodd" clip-rule="evenodd"
        d="M81.7972 42.4581C81.7972 42.4581 78.9054 44.1883 74.5837 42.1011C74.5837 42.1011 77.6227 46.4268 81.7972 42.4581Z"
        fill="#EF4444" />
    <path fill-rule="evenodd" clip-rule="evenodd"
        d="M75.1245 41.7292C75.212 41.8864 74.9813 42.9424 74.3986 42.6829C73.4012 42.2384 74.868 41.2688 75.1245 41.7292Z"
        fill="#EF4444" />
    <path fill-rule="evenodd" clip-rule="evenodd"
        d="M76.2979 44.3823C76.4212 44.4718 77.7089 45.1908 79.3368 44.5872C79.3368 44.5812 77.4543 46.7371 76.2979 44.3823Z"
        fill="#EF4444" />
    <path fill-rule="evenodd" clip-rule="evenodd"
        d="M81.0141 38.3108C80.9425 38.454 80.2186 40.1524 77.2354 38.3108C77.3646 41.119 81.0499 41.2115 81.0141 38.3108Z"
        fill="#EF4444" />
    <path fill-rule="evenodd" clip-rule="evenodd"
        d="M72.6837 28.8358C73.7099 28.7483 74.583 29.1769 74.6347 29.7924C74.6864 30.408 73.8989 30.9778 72.8726 31.0643C71.8464 31.1508 70.9733 30.7222 70.9216 30.1077C70.8699 29.4931 71.6584 28.9223 72.6837 28.8358Z"
        fill="#201547" />
    <path fill-rule="evenodd" clip-rule="evenodd"
        d="M83.4571 28.8358C82.4309 28.7483 81.5578 29.1769 81.5061 29.7924C81.4544 30.408 82.2419 30.9778 83.2682 31.0643C84.2944 31.1508 85.1675 30.7222 85.2192 30.1077C85.2709 29.4931 84.4823 28.9223 83.4571 28.8358Z"
        fill="#201547" />
    <path fill-rule="evenodd" clip-rule="evenodd"
        d="M72.7309 33.127C73.0366 33.1277 73.3296 33.2495 73.5457 33.4657C73.7619 33.6818 73.8836 33.9748 73.8844 34.2805V34.9248C73.8836 35.2306 73.7619 35.5237 73.5458 35.74C73.3296 35.9563 73.0367 36.0783 72.7309 36.0794C72.425 36.0786 72.1318 35.9567 71.9154 35.7403C71.6991 35.524 71.5772 35.2308 71.5764 34.9248V34.2805C71.5775 33.9747 71.6995 33.6817 71.9158 33.4656C72.1321 33.2495 72.4251 33.1277 72.7309 33.127Z"
        fill="#201547" />
    <path fill-rule="evenodd" clip-rule="evenodd"
        d="M82.9807 33.127C83.2863 33.1277 83.5793 33.2495 83.7955 33.4657C84.0116 33.6818 84.1334 33.9748 84.1342 34.2805V34.9248C84.1334 35.2306 84.0116 35.5237 83.7955 35.74C83.5794 35.9563 83.2864 36.0783 82.9807 36.0794C82.6749 36.0783 82.3819 35.9563 82.1658 35.74C81.9497 35.5237 81.8279 35.2306 81.8271 34.9248V34.2805C81.8279 33.9748 81.9497 33.6818 82.1659 33.4657C82.382 33.2495 82.675 33.1277 82.9807 33.127Z"
        fill="#201547" />
    <path fill-rule="evenodd" clip-rule="evenodd"
        d="M27.9914 102.07C12.5319 102.07 0 114.6 0 130.062C0 145.524 12.5299 158.053 27.9914 158.053C43.453 158.053 55.9839 145.524 55.9839 130.062C55.9839 114.6 43.451 102.07 27.9914 102.07Z"
        fill="#DBEAFE" />
    <path fill-rule="evenodd" clip-rule="evenodd"
        d="M7.43701 143.835C9.66832 147.252 12.7162 150.058 16.305 152.001C19.8938 153.943 23.9102 154.961 27.9911 154.961C32.0719 154.961 36.0883 153.943 39.6771 152.001C43.2659 150.058 46.3138 147.252 48.5451 143.835C46.6791 139.969 43.7606 136.708 40.1249 134.426C36.4892 132.144 32.2837 130.934 27.9911 130.934C23.6984 130.934 19.4929 132.144 15.8572 134.426C12.2215 136.708 9.30305 139.969 7.43701 143.835Z"
        fill="white" />
    <path fill-rule="evenodd" clip-rule="evenodd"
        d="M27.9911 110.889C29.7358 110.889 31.4413 111.406 32.892 112.376C34.3427 113.345 35.4733 114.723 36.141 116.335C36.8087 117.946 36.9833 119.72 36.643 121.431C36.3026 123.142 35.4624 124.714 34.2287 125.948C32.995 127.182 31.4232 128.022 29.712 128.362C28.0009 128.703 26.2272 128.528 24.6153 127.86C23.0034 127.193 21.6257 126.062 20.6564 124.611C19.687 123.161 19.1697 121.455 19.1697 119.71C19.1697 117.371 20.0991 115.127 21.7534 113.473C23.4077 111.818 25.6515 110.889 27.9911 110.889Z"
        fill="white" />
    <path fill-rule="evenodd" clip-rule="evenodd"
        d="M216.614 186.484C201.155 186.484 188.623 199.013 188.623 214.474C188.623 229.935 201.153 242.466 216.614 242.466C232.076 242.466 244.607 229.936 244.607 214.474C244.607 199.012 232.075 186.484 216.614 186.484Z"
        fill="#DBEAFE" />
    <path fill-rule="evenodd" clip-rule="evenodd"
        d="M196.06 228.249C198.292 231.665 201.34 234.472 204.929 236.414C208.517 238.356 212.534 239.374 216.614 239.374C220.695 239.374 224.711 238.356 228.3 236.414C231.889 234.472 234.937 231.665 237.168 228.249C235.302 224.383 232.384 221.122 228.748 218.84C225.113 216.558 220.907 215.347 216.614 215.347C212.322 215.347 208.116 216.558 204.48 218.84C200.845 221.122 197.926 224.383 196.06 228.249Z"
        fill="white" />
    <path fill-rule="evenodd" clip-rule="evenodd"
        d="M216.614 195.304C218.359 195.304 220.064 195.822 221.515 196.791C222.966 197.76 224.096 199.138 224.764 200.75C225.432 202.362 225.606 204.135 225.266 205.847C224.926 207.558 224.085 209.13 222.852 210.363C221.618 211.597 220.046 212.437 218.335 212.778C216.624 213.118 214.85 212.943 213.238 212.276C211.626 211.608 210.249 210.477 209.279 209.027C208.31 207.576 207.793 205.87 207.793 204.126C207.793 201.786 208.722 199.542 210.376 197.888C212.031 196.234 214.274 195.304 216.614 195.304Z"
        fill="white" />
    <path fill-rule="evenodd" clip-rule="evenodd"
        d="M261.506 24.6741C246.046 24.6741 233.514 37.2036 233.514 52.6657C233.514 68.1277 246.044 80.6563 261.506 80.6563C276.969 80.6563 289.498 68.1267 289.498 52.6657C289.498 37.2046 276.966 24.6741 261.506 24.6741Z"
        fill="#DBEAFE" />
    <path fill-rule="evenodd" clip-rule="evenodd"
        d="M240.952 66.439C243.183 69.8557 246.231 72.6623 249.82 74.6048C253.409 76.5474 257.425 77.5647 261.506 77.5647C265.587 77.5647 269.603 76.5474 273.192 74.6048C276.781 72.6623 279.829 69.8557 282.06 66.439C280.194 62.5734 277.276 59.3123 273.64 57.0302C270.004 54.7481 265.799 53.5376 261.506 53.5376C257.214 53.5376 253.008 54.7481 249.372 57.0302C245.737 59.3123 242.818 62.5734 240.952 66.439Z"
        fill="white" />
    <path fill-rule="evenodd" clip-rule="evenodd"
        d="M261.506 33.4917C263.251 33.4917 264.956 34.0091 266.407 34.9784C267.858 35.9477 268.988 37.3254 269.656 38.9373C270.324 40.5492 270.498 42.3229 270.158 44.0341C269.817 45.7453 268.977 47.3171 267.744 48.5508C266.51 49.7845 264.938 50.6246 263.227 50.965C261.516 51.3054 259.742 51.1307 258.13 50.463C256.518 49.7953 255.141 48.6647 254.171 47.214C253.202 45.7633 252.685 44.0578 252.685 42.3131C252.685 39.9735 253.614 37.7298 255.268 36.0754C256.923 34.4211 259.166 33.4917 261.506 33.4917Z"
        fill="white" />
    <path fill-rule="evenodd" clip-rule="evenodd"
        d="M106.895 239.485C107.111 239.485 107.323 239.549 107.503 239.67C107.682 239.79 107.823 239.961 107.905 240.161C107.988 240.36 108.01 240.58 107.968 240.793C107.925 241.005 107.821 241.2 107.668 241.353C107.515 241.506 107.32 241.61 107.108 241.652C106.896 241.694 106.676 241.673 106.476 241.59C106.276 241.507 106.106 241.367 105.985 241.187C105.865 241.007 105.801 240.796 105.801 240.579C105.801 240.289 105.916 240.011 106.121 239.806C106.327 239.601 106.605 239.485 106.895 239.485Z"
        fill="#DBEAFE" />
    <path fill-rule="evenodd" clip-rule="evenodd"
        d="M95.1684 0C95.3558 1.03164e-07 95.539 0.0555555 95.6948 0.159643C95.8506 0.263731 95.9721 0.411679 96.0438 0.584785C96.1156 0.757892 96.1344 0.948384 96.0979 1.13219C96.0614 1.31599 95.9713 1.48485 95.8388 1.61742C95.7064 1.75 95.5376 1.84033 95.3539 1.87701C95.1701 1.91369 94.9796 1.89506 94.8064 1.82349C94.6332 1.75192 94.4851 1.63061 94.3809 1.47489C94.2766 1.31918 94.2209 1.13606 94.2207 0.948667C94.2207 0.697237 94.3205 0.456091 94.4982 0.27821C94.6759 0.100329 94.9169 0.000263553 95.1684 0Z"
        fill="#DBEAFE" />
    <defs>
        <linearGradient id="paint0_linear_1139_527" x1="192.391" y1="102.744" x2="204.276" y2="79.0937"
            gradientUnits="userSpaceOnUse">
            <stop stop-color="#FFB797" />
            <stop offset="1" stop-color="#E15852" />
        </linearGradient>
        <linearGradient id="paint1_linear_1139_527" x1="183.321" y1="59.0098" x2="166.342" y2="124.13"
            gradientUnits="userSpaceOnUse">
            <stop stop-color="#D38FFB" />
            <stop offset="1" stop-color="#5A36D1" />
        </linearGradient>
        <linearGradient id="paint2_linear_1139_527" x1="198.982" y1="53.7844" x2="206.965" y2="75.4381"
            gradientUnits="userSpaceOnUse">
            <stop stop-color="#FF79F8" />
            <stop offset="1" stop-color="#D38FFB" />
        </linearGradient>
        <linearGradient id="paint3_linear_1139_527" x1="200.729" y1="37.2249" x2="171.626" y2="94.4093"
            gradientUnits="userSpaceOnUse">
            <stop stop-color="#926BFF" />
            <stop offset="1" stop-color="#5A36D1" />
        </linearGradient>
        <linearGradient id="paint4_linear_1139_527" x1="249.438" y1="108.5" x2="249.439" y2="177.234"
            gradientUnits="userSpaceOnUse">
            <stop stop-color="#FFC824" />
            <stop offset="1" stop-color="#FC5F40" />
        </linearGradient>
        <linearGradient id="paint5_linear_1139_527" x1="250.588" y1="140.368" x2="250.589" y2="173.681"
            gradientUnits="userSpaceOnUse">
            <stop stop-color="#926BFF" />
            <stop offset="1" stop-color="#5A36D1" />
        </linearGradient>
        <linearGradient id="paint6_linear_1139_527" x1="80.1177" y1="172.001" x2="80.1186" y2="220.501"
            gradientUnits="userSpaceOnUse">
            <stop stop-color="#FC5F40" />
            <stop offset="1" stop-color="#FF146E" />
        </linearGradient>
        <linearGradient id="paint7_linear_1139_527" x1="72.6564" y1="86.1733" x2="72.6569" y2="15.0101"
            gradientUnits="userSpaceOnUse">
            <stop stop-color="#3887FF" />
            <stop offset="1" stop-color="#69D0FF" />
        </linearGradient>
        <linearGradient id="paint8_linear_1139_527" x1="56.0317" y1="65.6252" x2="56.0322" y2="92.3129"
            gradientUnits="userSpaceOnUse">
            <stop stop-color="#FFC824" />
            <stop offset="1" stop-color="#FC5F40" />
        </linearGradient>
    </defs>
</svg>