<svg preserveAspectRatio="xMidYMid meet" viewBox="0 0 20 20" fill="none" xmlns="http://www.w3.org/2000/svg">
    <path
        d="M17.5 0H8.75C7.37109 0 6.25 1.11914 6.25 2.5V11.25C6.25 12.6309 7.36914 13.75 8.75 13.75H17.5C18.8809 13.75 20 12.6309 20 11.25V2.5C20 1.11914 18.8789 0 17.5 0ZM18.125 11.25C18.125 11.5946 17.8446 11.875 17.5 11.875H8.75C8.40625 11.875 8.125 11.5938 8.125 11.25V2.5C8.125 2.15539 8.40539 1.875 8.75 1.875H17.5C17.8446 1.875 18.125 2.15539 18.125 2.5V11.25ZM11.875 17.5C11.875 17.8446 11.5946 18.125 11.25 18.125H2.5C2.15539 18.125 1.875 17.8446 1.875 17.5V8.75C1.875 8.40539 2.15539 8.125 2.5 8.125H5V6.25H2.5C1.11914 6.25 0 7.37109 0 8.75V17.5C0 18.8809 1.11914 20 2.5 20H11.25C12.6309 20 13.75 18.8809 13.75 17.5V15H11.875V17.5Z"
        fill="#6B7280" />
</svg>