<svg preserveAspectRatio="xMidYMid meet" viewBox="0 0 16 22" fill="none" xmlns="http://www.w3.org/2000/svg">
<path d="M5.14339 9.69098L5.35031 9.48409C7.329 7.50531 10.5372 7.50531 12.5159 9.48409C14.4947 11.4628 14.4947 14.671 12.5159 16.6497L9.6497 19.5159C7.671 21.4947 4.46279 21.4947 2.48405 19.5159C0.505317 17.5372 0.505317 14.329 2.48405 12.3503L2.9484 11.886" stroke="#6B7280" stroke-width="1.5" stroke-linecap="round"/>
<path d="M13.0516 10.114L13.5159 9.6497C15.4947 7.67095 15.4947 4.46279 13.5159 2.48405C11.5372 0.505317 8.329 0.505317 6.3503 2.48405L3.48405 5.35031C1.50532 7.32904 1.50532 10.5372 3.48405 12.5159C5.46279 14.4947 8.671 14.4947 10.6497 12.5159L10.8566 12.309" stroke="#6B7280" stroke-width="1.5" stroke-linecap="round"/>
</svg>
