<svg width="12" height="12" viewBox="0 0 12 12" fill="none" xmlns="http://www.w3.org/2000/svg">
    <path
        d="M4.5 7.5C4.5 6.0858 4.5 5.3787 4.93934 4.93934C5.3787 4.5 6.0858 4.5 7.5 4.5H8C9.4142 4.5 10.1213 4.5 10.5606 4.93934C11 5.3787 11 6.0858 11 7.5V8C11 9.4142 11 10.1213 10.5606 10.5606C10.1213 11 9.4142 11 8 11H7.5C6.0858 11 5.3787 11 4.93934 10.5606C4.5 10.1213 4.5 9.4142 4.5 8V7.5Z"
        stroke="#6B7280" stroke-width="0.75" stroke-linecap="round" stroke-linejoin="round" />
    <path
        d="M8.49995 4.5C8.49875 3.02146 8.4764 2.2556 8.046 1.73122C7.9629 1.62995 7.87005 1.53709 7.7688 1.45398C7.2156 1 6.39375 1 4.75 1C3.10626 1 2.28439 1 1.73122 1.45398C1.62995 1.53708 1.53709 1.62995 1.45398 1.73122C1 2.28439 1 3.10626 1 4.75C1 6.39375 1 7.2156 1.45398 7.7688C1.53708 7.87005 1.62995 7.9629 1.73122 8.046C2.2556 8.4764 3.02146 8.49875 4.5 8.49995"
        stroke="#6B7280" stroke-width="0.75" stroke-linecap="round" stroke-linejoin="round" />
</svg>