<svg preserveAspectRatio="xMidYMid meet" viewBox="0 0 16 18" fill="none" xmlns="http://www.w3.org/2000/svg">
<path d="M15.3542 12.8683C14.8291 9.70928 13.1946 7.3569 11.7736 5.9752C11.3601 5.57314 11.1534 5.3721 10.6966 5.18606C10.2399 5 9.84736 5 9.06224 5H7.33776C6.55265 5 6.16008 5 5.70337 5.18606C5.24667 5.3721 5.03993 5.57314 4.62643 5.9752C3.20545 7.3569 1.57089 9.70928 1.04581 12.8683C0.655142 15.2187 2.82341 17 5.24665 17H11.1534C13.5766 17 15.7449 15.2187 15.3542 12.8683Z" stroke="#6B7280" stroke-width="1.1" stroke-linecap="round" stroke-linejoin="round"/>
<path d="M4.40531 2.9543C4.24026 2.71406 4.00104 2.38799 4.4952 2.31364C5.00315 2.23721 5.53058 2.58491 6.04685 2.57777C6.51391 2.5713 6.75185 2.36415 7.00713 2.06838C7.27593 1.75694 7.69217 1 8.20001 1C8.70785 1 9.12409 1.75694 9.39289 2.06838C9.64817 2.36415 9.88609 2.5713 10.3531 2.57777C10.8695 2.58491 11.3969 2.23721 11.9048 2.31364C12.399 2.38799 12.1598 2.71406 11.9947 2.9543L11.2484 4.04051C10.9292 4.50517 10.7696 4.7375 10.4355 4.86875C10.1015 5 9.66985 5 8.80657 5H7.59345C6.73017 5 6.29849 5 5.96446 4.86875C5.63043 4.7375 5.47081 4.50517 5.15157 4.04051L4.40531 2.9543Z" stroke="#6B7280" stroke-width="1.1" stroke-linejoin="round"/>
<path d="M9.50139 9.73506C9.32843 9.09658 8.44811 8.52042 7.39139 8.95146C6.33466 9.38242 6.1668 10.7692 7.76523 10.9166C8.48763 10.9831 8.95867 10.8393 9.38987 11.2463C9.82115 11.6531 9.90123 12.7848 8.79883 13.0898C7.69643 13.3947 6.60483 12.9183 6.48596 12.2415M8.07339 8.19434V8.80266M8.07339 13.1836V13.7943" stroke="#6B7280" stroke-width="1.1" stroke-linecap="round" stroke-linejoin="round"/>
</svg>
