<svg width="16" height="16" viewBox="0 0 16 16" fill="none" xmlns="http://www.w3.org/2000/svg">
<g id="dots-horizontal">
<g id="Icon">
<path d="M7.99999 8.66732C8.36818 8.66732 8.66666 8.36884 8.66666 8.00065C8.66666 7.63246 8.36818 7.33398 7.99999 7.33398C7.6318 7.33398 7.33332 7.63246 7.33332 8.00065C7.33332 8.36884 7.6318 8.66732 7.99999 8.66732Z" stroke="white" stroke-width="2" stroke-linecap="round" stroke-linejoin="round"/>
<path d="M12.6667 8.66732C13.0348 8.66732 13.3333 8.36884 13.3333 8.00065C13.3333 7.63246 13.0348 7.33398 12.6667 7.33398C12.2985 7.33398 12 7.63246 12 8.00065C12 8.36884 12.2985 8.66732 12.6667 8.66732Z" stroke="white" stroke-width="2" stroke-linecap="round" stroke-linejoin="round"/>
<path d="M3.33332 8.66732C3.70151 8.66732 3.99999 8.36884 3.99999 8.00065C3.99999 7.63246 3.70151 7.33398 3.33332 7.33398C2.96513 7.33398 2.66666 7.63246 2.66666 8.00065C2.66666 8.36884 2.96513 8.66732 3.33332 8.66732Z" stroke="white" stroke-width="2" stroke-linecap="round" stroke-linejoin="round"/>
</g>
</g>
</svg>
