<svg width="32" height="32" viewBox="0 0 32 32" fill="none" xmlns="http://www.w3.org/2000/svg">
    <path
        d="M16.0001 29.3327C8.63628 29.3327 2.66675 23.3631 2.66675 15.9993C2.66675 12.276 4.19295 8.90904 6.65391 6.49004M16.0001 29.3327C14.7161 28.3812 14.921 27.2733 15.5651 26.1656C16.5555 24.4625 16.5555 24.4625 16.5555 22.1919C16.5555 19.9212 17.9049 18.8565 22.6667 19.8088C24.8063 20.2368 26.3655 17.2805 29.1431 18.2567M16.0001 29.3327C22.5945 29.3327 28.0707 24.5455 29.1431 18.2567M6.65391 6.49004C7.78629 6.60955 8.42031 7.2162 9.47336 8.3289C11.4726 10.4414 13.4718 10.6176 14.8047 9.91348C16.8039 8.85726 15.1239 7.14642 17.4703 6.21666C18.9089 5.6467 19.183 4.154 18.5022 2.9004M6.65391 6.49004C9.06001 4.12496 12.3597 2.66602 16.0001 2.66602C16.8553 2.66602 17.6917 2.74654 18.5022 2.9004M29.1431 18.2567C29.2682 17.5229 29.3334 16.7688 29.3334 15.9993C29.3334 9.49078 24.6699 4.07142 18.5022 2.9004"
        stroke="#171718" stroke-width="1.5" stroke-linejoin="round" />
</svg>