<svg preserveAspectRatio="xMidYMid meet" viewBox="0 0 18 16" fill="none" xmlns="http://www.w3.org/2000/svg">
    <path d="M0.764694 3.05859L6.45777 6.28433C8.5566 7.47353 9.44338 7.47353 11.5422 6.28433L17.2353 3.05859"
        stroke-width="1.5" stroke-linejoin="round" />
    <path
        d="M0.777681 9.2152C0.831515 11.7398 0.858437 13.002 1.78996 13.9372C2.72147 14.8722 4.01791 14.9047 6.61079 14.9699C8.20882 15.01 9.79115 15.01 11.3892 14.9699C13.9821 14.9047 15.2785 14.8722 16.2101 13.9372C17.1416 13.002 17.1685 11.7398 17.2223 9.2152C17.2396 8.40345 17.2396 7.59655 17.2223 6.7848C17.1685 4.26024 17.1416 2.99796 16.2101 2.0629C15.2785 1.12784 13.9821 1.09527 11.3892 1.03012C9.79115 0.989962 8.20882 0.989962 6.61078 1.03011C4.01791 1.09525 2.72147 1.12782 1.78995 2.06289C0.858428 2.99795 0.831515 4.26023 0.777673 6.7848C0.760362 7.59655 0.760371 8.40345 0.777681 9.2152Z"
        stroke-width="1.5" stroke-linejoin="round" />
</svg>