<svg width="32" height="32" viewBox="0 0 32 32" fill="none" xmlns="http://www.w3.org/2000/svg">
    <path
        d="M26.327 17.3327C27.3815 15.8209 27.9999 13.9823 27.9999 11.9993C27.9999 6.8447 23.8213 2.66602 18.6666 2.66602C13.5119 2.66602 9.33325 6.84468 9.33325 11.9993C9.33325 13.4308 9.65551 14.7869 10.2314 15.9993"
        stroke="#171718" stroke-width="2" stroke-linecap="round" stroke-linejoin="round" />
    <path
        d="M18.6667 7.99935C17.1939 7.99935 16 8.89478 16 9.99935C16 11.1039 17.1939 11.9993 18.6667 11.9993C20.1395 11.9993 21.3333 12.8948 21.3333 13.9993C21.3333 15.1039 20.1395 15.9993 18.6667 15.9993M18.6667 7.99935C19.8277 7.99935 20.8155 8.55588 21.1816 9.33268M18.6667 7.99935V6.66602M18.6667 15.9993C17.5056 15.9993 16.5179 15.4428 16.1517 14.666M18.6667 15.9993V17.3327"
        stroke="#171718" stroke-width="2" stroke-linecap="round" />
    <path
        d="M4 18.666H7.19309C7.58529 18.666 7.97211 18.7544 8.32289 18.9241L11.0455 20.2415C11.3963 20.4112 11.7831 20.4995 12.1753 20.4995H13.5655C14.91 20.4995 16 21.5543 16 22.8553C16 22.9079 15.964 22.9541 15.9117 22.9685L12.5238 23.9053C11.9161 24.0733 11.2653 24.0148 10.7 23.7412L7.78948 22.3331M16 21.9993L22.1237 20.1179C23.2093 19.7796 24.3828 20.1807 25.0628 21.1224C25.5545 21.8032 25.3543 22.7783 24.638 23.1916L14.6172 28.9733C13.9799 29.3411 13.2279 29.4308 12.5269 29.2228L4 26.6925"
        stroke="#171718" stroke-width="2" stroke-linecap="round" stroke-linejoin="round" />
</svg>