<svg width="121" height="120" viewBox="0 0 121 120" fill="none" xmlns="http://www.w3.org/2000/svg">
    <path
        d="M46.25 23.5312L45.3125 22.5938C44.0938 21.375 42.5 20.7188 40.8125 20.7188H21.6875C18.2188 20.7188 15.3125 23.5312 15.3125 27.0937V93C15.3125 96.4688 18.125 99.375 21.6875 99.375H110.469C113.938 99.375 116.844 96.5625 116.844 93V31.6875C116.844 28.2187 114.031 25.3125 110.469 25.3125H50.75C49.0625 25.4062 47.4688 24.75 46.25 23.5312Z"
        fill="url(#paint0_linear_1343_1836)" />
    <path
        d="M46.25 23.5312L45.3125 22.5938C44.0938 21.375 42.5 20.7188 40.8125 20.7188H21.6875C18.2188 20.7188 15.3125 23.5312 15.3125 27.0937V93C15.3125 96.4688 18.125 99.375 21.6875 99.375H110.469C113.938 99.375 116.844 96.5625 116.844 93V31.6875C116.844 28.2187 114.031 25.3125 110.469 25.3125H50.75C49.0625 25.4062 47.4688 24.75 46.25 23.5312Z"
        fill="url(#paint1_linear_1343_1836)" />
    <path
        d="M110.375 100.219H21.6875C17.6563 100.219 14.375 96.9375 14.375 92.9062V27C14.375 22.9687 17.6563 19.6875 21.6875 19.6875H40.8125C42.7813 19.6875 44.5625 20.4375 45.9688 21.8437L46.9063 22.7812C47.9375 23.8125 49.25 24.375 50.75 24.375H110.469C114.5 24.375 117.781 27.6562 117.781 31.6875V92.9062C117.688 96.9375 114.406 100.219 110.375 100.219ZM21.6875 21.6563C18.6875 21.6563 16.25 24.0937 16.25 27.0937V93C16.25 96 18.6875 98.4375 21.6875 98.4375H110.469C113.469 98.4375 115.906 96 115.906 93V31.6875C115.906 28.6875 113.469 26.25 110.469 26.25H50.75C48.7812 26.25 47 25.5 45.5938 24.0938L44.6563 23.1563C43.625 22.125 42.3125 21.5625 40.8125 21.5625H21.6875V21.6563Z"
        fill="#9CA3AF" />
    <path
        d="M24.875 30.0938H107.281C110.75 30.0938 113.656 32.9063 113.656 36.4688V89.1563C113.656 92.625 110.844 95.5313 107.281 95.5313H24.875C21.4062 95.5313 18.5 92.7188 18.5 89.1563V36.4688C18.5 33 21.3125 30.0938 24.875 30.0938Z"
        fill="white" />
    <path
        d="M107.281 96.4688H24.875C20.8437 96.4688 17.5625 93.1875 17.5625 89.1563V36.4688C17.5625 32.4375 20.8437 29.1562 24.875 29.1562H107.281C111.312 29.1562 114.594 32.4375 114.594 36.4688V89.1563C114.5 93.1875 111.219 96.4688 107.281 96.4688ZM24.875 31.0312C21.875 31.0312 19.4375 33.4688 19.4375 36.4688V89.1563C19.4375 92.1563 21.875 94.5938 24.875 94.5938H107.281C110.281 94.5938 112.719 92.1563 112.719 89.1563V36.4688C112.719 33.4688 110.281 31.0312 107.281 31.0312H24.875Z"
        fill="#9CA3AF" />
    <path
        d="M18.5 98.0625L14 42.0938C13.7188 38.4375 16.625 35.25 20.2813 35.25H102.688C105.969 35.25 108.781 37.7813 108.969 41.0625L113.563 98.0625"
        fill="white" />
    <path
        d="M113.562 99C113.094 99 112.625 98.625 112.625 98.1562L108.031 41.1563C107.844 38.3438 105.406 36.1875 102.687 36.1875H20.2812C18.7812 36.1875 17.3749 36.8437 16.3437 37.9687C15.3124 39.0937 14.8437 40.5 14.9374 42.0938L19.4374 98.0625C19.4374 98.5312 19.0624 99 18.5937 99.0938C18.1249 99.0938 17.6562 98.7188 17.5624 98.25L13.0624 42.2812C12.8749 40.2187 13.6249 38.25 14.9374 36.75C16.3437 35.25 18.2187 34.4062 20.2812 34.4062H102.687C106.437 34.4062 109.625 37.3125 109.906 41.0625L114.5 98.0625C114.594 98.4375 114.125 98.9062 113.562 99Z"
        fill="#9CA3AF" />
    <path d="M18.5 99.2813L10.9062 37.7812L18.5 99.2813Z" fill="#171718" />
    <path
        d="M18.5 98.0625L8.56252 47.8125C7.81252 43.875 10.8125 40.3125 14.8438 40.3125H96.9688C99.9688 40.3125 102.594 42.4687 103.156 45.4687L113.563 98.1562"
        fill="white" />
    <path
        d="M113.562 99C113.094 99 112.719 98.7188 112.625 98.25L102.219 45.5625C101.75 43.0312 99.5 41.25 96.875 41.25H14.8437C13.25 41.25 11.6562 42 10.625 43.2187C9.59371 44.4375 9.21871 46.125 9.49996 47.7188L19.4375 97.875C19.5312 98.3437 19.25 98.9062 18.6875 99C18.2187 99.0937 17.6562 98.8125 17.5625 98.25L7.62496 48C7.15621 45.8438 7.71871 43.6875 9.12496 42C10.5312 40.3125 12.5937 39.375 14.75 39.375H96.875C100.344 39.375 103.344 41.8125 104 45.2812L114.406 97.9687C114.5 98.4375 114.219 99 113.656 99.0937C113.656 99 113.656 99 113.562 99Z"
        fill="#9CA3AF" />
    <path
        d="M10.625 43.5H100.625C103.625 43.5 106.156 45.5625 106.812 48.4687L116.563 91.5937C117.5 95.5312 114.406 99.375 110.375 99.375H20.375C17.375 99.375 14.8438 97.3125 14.1875 94.4062L4.4375 51.2812C3.5 47.25 6.5 43.5 10.625 43.5Z"
        fill="url(#paint2_linear_1343_1836)" />
    <path
        d="M110.375 100.219H20.375C17 100.219 14 97.875 13.25 94.5938L3.5 51.4688C3.03125 49.3125 3.5 47.0625 4.90625 45.2812C6.3125 43.5 8.375 42.5625 10.625 42.5625H100.625C104 42.5625 107 44.9062 107.75 48.1875L117.5 91.3125C117.969 93.4688 117.5 95.7188 116.094 97.5C114.688 99.2812 112.625 100.219 110.375 100.219ZM10.625 44.4375C8.9375 44.4375 7.4375 45.1875 6.40625 46.5C5.375 47.8125 5 49.5 5.375 51.0937L15.125 94.2188C15.6875 96.6562 17.8438 98.4375 20.375 98.4375H110.375C112.063 98.4375 113.563 97.6875 114.594 96.375C115.625 95.0625 116 93.375 115.625 91.7812L105.875 48.6562C105.313 46.2188 103.156 44.4375 100.625 44.4375H10.625Z"
        fill="#9CA3AF" />
    <defs>
        <linearGradient id="paint0_linear_1343_1836" x1="15.3125" y1="60.0469" x2="116.844" y2="60.0469"
            gradientUnits="userSpaceOnUse">
            <stop stop-color="#198BD8" />
            <stop offset="1" stop-color="#F03DCE" />
        </linearGradient>
        <linearGradient id="paint1_linear_1343_1836" x1="15.3125" y1="60.0469" x2="116.844" y2="60.0469"
            gradientUnits="userSpaceOnUse">
            <stop stop-color="#198BD8" />
            <stop offset="1" stop-color="#F03DCE" />
        </linearGradient>
        <linearGradient id="paint2_linear_1343_1836" x1="4.26501" y1="71.4375" x2="116.731" y2="71.4375"
            gradientUnits="userSpaceOnUse">
            <stop stop-color="#198BD8" />
            <stop offset="1" stop-color="#F03DCE" />
        </linearGradient>
    </defs>
</svg>