<svg width="360" height="260" viewBox="0 0 360 260" fill="none" xmlns="http://www.w3.org/2000/svg">
    <path
        d="M297.82 141.118L297.365 141.064C302.672 96.5383 298.64 70.6938 285.383 64.2497C276.703 60.0281 263.575 63.389 246.95 67.638C232.299 71.386 214.072 76.0494 193.309 76.8509C186.11 77.1333 180.297 75.1933 176.044 71.09C166.171 61.5811 166.41 42.595 166.567 30.0302C166.599 27.6257 166.622 25.5444 166.576 23.7775C166.35 15.0518 160.09 6.25783 151.363 2.3914C141.339 -2.04885 129.795 2.24111 123.59 4.54093C121.16 5.44264 119.378 6.32614 118.044 7.16865C119.622 8.75803 120.907 10.443 121.846 12.0142C124.069 15.7304 124.759 19.2552 123.742 21.6871C123.006 23.4496 121.141 25.0253 118.877 25.7995C116.999 26.4416 115.222 26.4188 114.002 25.7357C112.898 25.1164 112.088 23.8776 111.669 22.1471C110.794 18.5493 111.742 13.7174 113.97 10.3975C114.647 9.39105 115.581 8.27985 117.316 7.10034C114.14 4.03087 109.846 1.3986 104.847 0.852111C99.0433 0.214537 92.8479 2.49614 89.0598 6.66315C88.374 7.41913 87.458 8.57131 86.6801 10.0559C89.4786 10.8893 92.1114 12.4332 93.3036 14.8514C93.4739 15.1975 94.933 18.3125 93.2852 20.4621C92.5993 21.3592 91.4348 21.9604 90.0908 22.1152C88.6409 22.2837 87.2048 21.9103 86.2336 21.1224C84.5214 19.7243 84.5996 17.3562 84.6503 15.785C84.7193 13.7083 85.2901 11.8685 86.0265 10.3337C83.9368 9.7827 81.7965 9.62786 80.1533 9.7827C74.1973 10.3565 67.0859 16.6184 62.4555 25.3714C56.9367 35.8094 56.3522 46.8303 60.8906 54.8592C67.7349 66.964 83.7527 68.9268 86.8964 69.1955L86.855 69.6509C83.6745 69.3777 67.4496 67.3875 60.4855 55.0823C55.8735 46.9214 56.4535 35.7365 62.0459 25.1619C66.7407 16.2768 73.9994 9.91477 80.1073 9.32729C81.8149 9.16335 84.0519 9.3364 86.229 9.92388C87.0391 8.36182 88.0011 7.14588 88.7192 6.35347C92.6039 2.08172 98.9512 -0.25909 104.903 0.392146C110.053 0.956855 114.467 3.67565 117.712 6.8362C119.084 5.95726 120.916 5.04189 123.429 4.11285C129.693 1.7857 141.352 -2.54069 151.552 1.97242C160.44 5.90716 166.806 14.8651 167.041 23.7638C167.087 25.5399 167.059 27.6257 167.031 30.0348C166.875 42.5221 166.64 61.3898 176.37 70.7621C180.531 74.7697 186.221 76.6642 193.3 76.3955C214.008 75.594 232.212 70.9397 246.844 67.1963C263.557 62.92 276.758 59.5408 285.595 63.8399C291.57 66.7454 295.749 73.4946 298.014 83.9007C300.849 96.971 300.789 116.226 297.82 141.118ZM117.652 7.42823C115.931 8.58498 115.015 9.66885 114.357 10.648C112.194 13.8723 111.273 18.5539 112.12 22.0378C112.511 23.6408 113.238 24.7839 114.233 25.3395C115.323 25.9498 117.003 25.9589 118.729 25.3714C120.87 24.6382 122.628 23.1627 123.318 21.5186C124.267 19.2552 123.567 15.7941 121.45 12.251C120.515 10.689 119.231 9.00851 117.652 7.42823ZM86.473 10.4613C85.7411 11.9596 85.175 13.763 85.1106 15.8032C85.0645 17.2833 84.9909 19.5194 86.5282 20.7717C87.4028 21.4822 88.7146 21.8192 90.0402 21.6644C91.2599 21.5232 92.3094 20.9858 92.9215 20.1888C94.4312 18.2215 92.9537 15.1793 92.8939 15.0518C91.7432 12.7292 89.1887 11.2537 86.473 10.4613Z"
        fill="#93C5FD" />
    <path d="M332.158 99.6941H282.908V100.605H332.158V99.6941Z" fill="#93C5FD" />
    <path d="M72.5587 76.0132H23.3086V76.924H72.5587V76.0132Z" fill="#93C5FD" />
    <path d="M146.89 240.785H0V242.151H146.89V240.785Z" fill="#93C5FD" />
    <path d="M360 240.785H183.026V242.151H360V240.785Z" fill="#93C5FD" />
    <path
        d="M47.3215 175.224C47.3215 174.03 48.2973 173.065 49.5033 173.065C50.7092 173.065 51.685 174.03 51.685 175.224C51.685 176.417 50.7092 177.382 49.5033 177.382C48.2973 177.382 47.3215 176.417 47.3215 175.224Z"
        fill="#374151" />
    <path
        d="M315.629 112.861V152.249C315.629 165.747 304.104 176.691 289.89 176.691H67.059C52.8409 176.691 41.3154 165.747 41.3154 152.249V112.861C41.3154 99.3622 52.8409 88.4187 67.059 88.4187H289.895C304.108 88.4141 315.629 99.3577 315.629 112.861Z"
        fill="#93C5FD" />
    <path d="M126.688 88.4141H124.456V176.691H126.688V88.4141Z" fill="#3B82F6" />
    <path d="M232.143 88.4141H229.911V176.691H232.143V88.4141Z" fill="#3B82F6" />
    <path
        d="M62.2255 211.315L43.2435 240.434C42.5992 241.427 41.2597 241.709 40.2609 241.072C39.4094 240.53 39.0734 239.491 39.391 238.585L50.7553 205.809C51.906 202.489 55.5607 200.722 58.9161 201.861C62.2716 202.999 64.0575 206.615 62.9068 209.935C62.7319 210.423 62.4925 210.901 62.2255 211.315Z"
        fill="#374151" />
    <path
        d="M309.314 205.809L320.679 238.585C321.065 239.701 320.467 240.917 319.339 241.3C318.382 241.623 317.351 241.245 316.826 240.439L297.844 211.32C295.92 208.369 296.781 204.439 299.759 202.535C302.741 200.631 306.714 201.483 308.638 204.43C308.918 204.862 309.148 205.345 309.314 205.809Z"
        fill="#374151" />
    <path
        d="M312.471 212.344H41.2638C35.8923 212.344 31.5381 208.036 31.5381 202.722V198.304C31.5381 192.99 35.8923 188.681 41.2638 188.681H312.471C317.842 188.681 322.196 192.99 322.196 198.304V202.722C322.196 208.036 317.842 212.344 312.471 212.344Z"
        fill="#2563EB" />
    <path
        d="M44.2194 161.863L311.27 163.575C314.773 163.598 318.008 165.415 319.804 168.37L323.168 173.913C327.14 180.457 322.335 188.75 314.57 188.75H41.5498C34.6502 188.75 29.8218 182.06 32.1094 175.675L34.71 168.42C36.1323 164.472 39.948 161.835 44.2194 161.863Z"
        fill="#3B82F6" />
    <path
        d="M164.376 251.719C164.339 252.398 164.136 253.081 163.681 253.883C160.477 259.512 150.047 261.429 148.395 258.91C148.077 258.419 147.994 257.744 148.234 256.856C148.293 256.638 148.349 256.415 148.409 256.187C150.038 249.798 151.253 240.216 151.667 237.752C152.1 235.206 151.667 224.595 151.667 224.595C161.665 222.154 161.872 222.951 161.964 223.32C163.386 229.076 162.898 237.647 162.82 239.451C162.507 246.91 164.518 249.256 164.376 251.719Z"
        fill="#EF4444" />
    <path
        d="M125.468 141.282C125.468 141.282 67.3481 131.081 59.8501 141.282C52.3521 151.484 89.0135 162.172 95.0524 162.163C101.096 162.154 131.898 165.834 131.898 165.834L125.468 141.282Z"
        fill="#10B981" />
    <path
        d="M135.42 166.48C134.094 169.973 134.241 175.292 133.712 179.391C133.611 180.211 133.477 180.98 133.298 181.682C132.239 185.876 129.054 188.499 126.937 188.499C125.298 188.499 127.328 185.912 127.521 182.219C127.576 181.14 127.48 179.965 127.084 178.731C125.344 173.293 121.639 171.194 114.748 168.051C107.863 164.909 117.924 158.091 117.924 158.091C117.924 158.091 121.105 159.663 129.049 158.091C137.008 156.52 137.008 162.286 135.42 166.48Z"
        fill="#EF4444" />
    <path
        d="M169.057 196.464C167.773 211.589 166.742 223.001 166.245 228.462C163.796 229.236 160.625 230.001 156.869 230.315C152.846 230.652 149.366 230.37 146.673 229.951C146.471 229.919 146.278 229.887 146.089 229.855C144.685 210.687 143.277 191.519 141.873 172.35C138.384 171.066 133.427 169.017 127.811 165.856C118.969 160.879 114.55 158.397 113.749 154.262C112.479 147.704 119.729 138.636 128.75 137.566C135.479 136.769 140.63 140.727 141.873 141.738C144.321 142.972 147.378 144.657 150.784 146.888C153.145 148.446 155.676 150.268 158.277 152.403C161.03 154.658 163.46 156.671 165.306 158.898C171.478 166.339 170.755 176.486 169.057 196.464Z"
        fill="#A7F3D0" />
    <path
        d="M146.678 229.951C146.475 229.919 146.282 229.887 146.093 229.855C144.689 210.687 143.281 191.519 141.877 172.351C138.388 171.066 133.431 169.017 127.815 165.856C119.461 161.157 115.328 158.734 113.754 154.262C113.574 153.752 112.097 149.33 114.223 144.985C117.666 137.953 127.397 137.612 128.754 137.566C135.221 137.339 139.999 140.381 141.877 141.738C144.326 142.972 147.382 144.657 150.788 146.889C143.405 147.048 123.977 147.567 123.599 148.692C122.421 152.19 131.792 160.123 137.661 163.994C140.234 165.692 141.297 166.048 142.816 167.705C147.654 172.961 147.198 180.521 147.032 183.936C146.526 194.31 146.586 209.694 146.678 229.951Z"
        fill="#10B981" />
    <path
        d="M108.594 78.2126C103.78 80.9497 99.7891 83.3816 96.8111 85.2396C96.8111 85.2396 87.7114 90.9231 75.7855 102.791C74.9248 103.647 73.2631 105.346 73.4426 107.427C73.636 109.672 75.9005 111.603 77.958 112.209C82.2939 113.484 87.0348 109.281 89.8241 106.903C95.3336 102.204 103.398 95.919 115.158 88.4184C112.967 85.0119 110.781 81.6146 108.594 78.2126Z"
        fill="#FEE2E2" />
    <path
        d="M125.569 75.6896L113.445 98.2415L106.629 110.916C104.893 111.189 102.049 111.485 98.5691 111.152C96.3505 110.943 93.8834 110.474 91.269 109.581C83.992 107.086 79.5548 102.627 77.6631 100.473C85.6996 91.8749 93.0273 86.0912 98.2837 82.3887C102.145 79.6653 104.958 78.0259 108.594 76.8236C115.498 74.5374 121.749 75.0384 125.569 75.6896Z"
        fill="#FCD34D" />
    <path
        d="M115.153 88.4141C115.153 88.4141 114.734 92.7951 113.441 98.2418L106.624 110.916C104.889 111.189 102.044 111.485 98.5647 111.153L115.153 88.4141Z"
        fill="#374151" />
    <path
        d="M162.493 78.2128C161.315 86.2326 160.132 94.2523 158.944 102.272C158.931 102.386 158.912 102.495 158.894 102.609C158.871 102.755 158.852 102.905 158.829 103.051C158.705 103.893 158.581 104.731 158.456 105.574C156.712 117.433 154.968 129.287 153.218 141.146C153.03 142.426 152.841 143.71 152.652 144.99C147.451 145.345 141.417 145.445 134.747 144.958C129.049 144.552 122.886 143.719 116.382 142.266C109.998 140.841 104.272 139.033 99.2505 137.12C99.2413 137.116 99.2275 137.111 99.2183 137.106L112.81 78.2128C116.203 76.7464 120.589 75.9448 125.353 75.5805C131.056 75.1388 137.297 75.33 143.005 75.7536C147.879 76.1224 152.362 76.6644 155.801 77.1517C159.893 77.7255 162.493 78.2128 162.493 78.2128Z"
        fill="#FCD34D" />
    <path
        d="M119.843 154.266C119.802 156.261 119.664 158.433 119.374 160.761C119.351 160.961 119.323 161.157 119.296 161.348C118.858 164.595 118.214 167.505 117.501 170.033C112.258 169.131 65.9997 161.016 58.9114 151.484C58.2025 150.532 56.6007 148.373 56.4857 145.814C56.4857 145.814 56.4857 145.814 56.4857 145.809C56.4673 145.354 56.4949 144.894 56.5777 144.425C57.2866 140.522 61.6408 138.327 63.1321 137.576C76.0016 131.086 94.7949 140.131 102.969 144.07C107.761 146.37 113.593 149.635 119.843 154.266Z"
        fill="#A7F3D0" />
    <path
        d="M164.376 251.719C164.339 252.398 164.136 253.081 163.681 253.882C160.477 259.511 150.047 261.429 148.395 258.91C148.077 258.418 147.994 257.744 148.234 256.856C148.293 256.638 148.349 256.415 148.409 256.187C151.354 256.542 156.215 255.795 164.376 251.719Z"
        fill="#374151" />
    <path
        d="M133.712 179.391C133.61 180.211 133.477 180.98 133.297 181.682C132.239 185.876 129.054 188.499 126.936 188.499C125.298 188.499 127.328 185.913 127.521 182.219C128.971 181.923 130.978 181.131 133.712 179.391Z"
        fill="#374151" />
    <path
        d="M119.296 161.348C118.859 164.595 118.214 167.505 117.501 170.032C112.258 169.131 65.9999 161.015 58.9115 151.484C58.2027 150.532 56.6009 148.373 56.4858 145.814C58.8517 149.38 65.2174 155.664 81.7415 159.44C105.156 164.786 112.438 168.448 119.296 161.348Z"
        fill="#10B981" />
    <path
        d="M147.387 77.5793L193.686 79.4556C196.029 79.5513 198.225 80.6124 199.721 82.3748L218.265 104.184C215.61 104.959 212.954 105.728 210.298 106.502C203.771 101.712 197.244 96.9206 190.718 92.1251H156.045L147.387 77.5793Z"
        fill="#FEE2E2" />
    <path
        d="M185.931 97.2258C185.01 100.468 183.832 103.26 182.649 105.573H147.967C146.264 103.483 142.936 98.8152 141.744 91.943C140.483 84.661 142.315 78.8682 143.277 76.3589C147.451 76.623 151.626 76.8826 155.801 77.1513C166.314 77.8116 176.826 78.4765 187.335 79.1414C187.846 83.4906 187.997 89.921 185.931 97.2258Z"
        fill="#FCD34D" />
    <path
        d="M230.587 116.977C230.546 117.087 230.472 117.155 230.472 117.155C230.021 117.811 228.99 117.606 228.82 116.832L228.281 114.423L224.967 110.597L227.176 114.969C228.18 118.052 228.691 120.397 228.608 121.149C228.553 121.682 228.277 122.069 228.277 122.069C228.18 122.205 227.881 122.634 227.586 122.611C227.153 122.574 226.946 121.586 226.62 120.429C226.389 119.61 226.04 118.485 225.515 117.15C224.594 115.693 223.674 114.236 222.753 112.778L224.41 117.697C224.41 117.697 225.027 122.269 225.34 125.261V125.266C225.124 125.922 224.534 126.386 223.862 126.436C223.858 126.436 223.853 126.436 223.849 126.436C223.181 126.477 222.61 125.958 222.509 125.307C222.063 122.451 221.653 118.79 221.653 118.79L219.444 114.418L220.548 118.243V124.947C220.548 125.471 220.139 125.908 219.614 125.949C219.467 125.963 219.324 125.958 219.186 125.94C218.726 125.89 218.371 125.512 218.316 125.052C218.012 122.338 217.787 118.79 217.787 118.79L211.177 108.047C210.45 106.981 209.723 105.92 208.995 104.854C210.924 103.238 212.853 101.625 214.786 100.009C216.466 100.756 218.247 101.653 220.084 102.728C220.825 103.16 221.533 103.602 222.205 104.039C224.594 106.772 226.992 109.504 229.381 112.232C229.611 112.865 230.84 116.281 230.587 116.977Z"
        fill="#FEE2E2" />
    <path
        d="M210.611 107.318C211.638 109.5 212.07 111.435 212.268 112.783C212.494 114.318 212.632 115.283 212.448 116.613C212.185 118.476 211.412 120.042 211.932 120.37C212.052 120.443 212.217 120.452 212.448 120.379C213.874 119.91 214.827 118.498 214.827 117.556C214.827 116.613 216.254 113.32 215.78 112.382C215.338 111.512 214.767 111.481 213.253 110.183C211.978 109.09 211.122 108.019 210.611 107.318Z"
        fill="#FEE2E2" />
    <path d="M210.749 95.3406L203.38 101.42L205.318 102.841L212.899 97.8636L210.749 95.3406Z" fill="#374151" />
    <path
        d="M209.598 102.327C211.54 102.327 213.115 100.769 213.115 98.8475C213.115 96.9259 211.54 95.3682 209.598 95.3682C207.656 95.3682 206.082 96.9259 206.082 98.8475C206.082 100.769 207.656 102.327 209.598 102.327Z"
        fill="white" />
    <path
        d="M143.277 77.0514C143.277 79.9979 139.185 82.3842 134.135 82.3842C129.086 82.3842 124.994 79.9979 124.994 77.0514C124.994 76.5413 125.114 76.0449 125.349 75.5758C131.047 75.1341 137.293 75.3253 143 75.7534C143.184 76.1724 143.277 76.6051 143.277 77.0514Z"
        fill="#374151" />
    <path
        d="M143.957 39.6304C144.68 40.4683 145.269 41.411 145.826 42.3674C146.351 43.342 146.802 44.3621 147.17 45.4141C147.888 47.5181 148.183 49.8042 147.884 52.0494C147.529 54.2809 146.567 56.4213 145.108 58.1337L144.547 58.7621C144.363 58.9716 144.146 59.1538 143.948 59.3496C143.557 59.7458 143.115 60.0919 142.682 60.4426C142.245 60.7887 141.767 61.0756 141.311 61.3944C140.841 61.6859 140.349 61.95 139.866 62.2187L139.843 62.1777C141.72 61.0346 143.451 59.6229 144.827 57.9151C145.49 57.0453 146.107 56.1299 146.526 55.1189C146.963 54.117 147.267 53.0604 147.428 51.9811C147.75 49.8179 147.469 47.6 146.825 45.5143C146.176 43.4285 145.196 41.4384 143.921 39.6531L143.957 39.6304Z"
        fill="#374151" />
    <path
        d="M123.761 56.9042C123.245 55.1828 123.163 52.3091 121.837 50.7106C121.137 49.8681 120.373 49.2943 119.738 48.9118C119.388 48.7342 118.983 48.4564 118.689 48.01C117.556 46.2932 119.872 42.1262 122.012 39.4984C123.738 37.3808 124.898 35.9553 127.089 35.3451C129.952 34.5481 132.469 35.7231 133.27 36.1375C134.375 35.9417 137.597 35.5136 140.893 37.2533C146.163 40.0358 146.908 45.8651 146.968 46.4161C147.29 49.349 146.347 51.5213 144.971 54.6818C143.222 58.7031 142.163 61.1942 139.65 62.5058C134.057 65.4204 125.142 61.513 123.761 56.9042Z"
        fill="#374151" />
    <path
        d="M141.191 77.3338C137.979 79.8613 135.097 80.4716 132.796 80.2894C131.447 80.1847 130.232 79.7338 130.232 79.7338C128.768 79.2101 127.756 78.4586 127.176 77.9577C127.291 76.9376 127.549 74.6286 127.668 73.5721C127.981 70.7895 128.299 68.007 128.612 65.2244C128.787 63.6669 128.962 62.1094 129.137 60.5565C130.89 60.0191 132.653 59.4771 134.421 58.9261C136.529 58.2703 138.623 57.61 140.703 56.9451C140.869 63.7398 141.03 70.5345 141.191 77.3338Z"
        fill="#FEE2E2" />
    <path
        d="M136.851 64.4229C136.777 65.4658 136.492 67.2373 135.337 69.018C132.833 72.8753 128.368 73.4855 127.645 73.5721C127.949 70.7895 128.248 68.007 128.552 65.2244C129.224 64.8692 129.841 64.5823 130.343 64.3864C130.343 64.3864 130.872 64.2134 131.456 64.0995C133.39 63.7398 136.653 64.3819 136.851 64.4229Z"
        fill="#C4553E" />
    <path
        d="M139.617 64.0589C138.913 67.0282 128.285 72.1652 126.186 71.8236C124.087 71.4866 120.258 62.5014 120.47 59.0813C120.603 56.9272 120.184 52.1135 119.848 48.8391C121.408 47.3089 124.916 44.8634 130.536 46.1932C132.952 46.7624 135.263 47.0266 137.302 47.0584C138.038 47.6596 138.462 48.0695 138.462 48.0695C138.462 48.0695 140.321 61.0896 139.617 64.0589Z"
        fill="#FEE2E2" />
    <path
        d="M125.616 55.3101C125.745 56.0114 125.85 57.0497 125.611 58.2429C125.234 60.1237 124.276 61.0346 124.691 61.6084C125.068 62.1367 126.426 62.1412 127.047 61.5401C127.995 60.6201 127.351 58.1518 125.616 55.3101Z"
        fill="#C4553E" />
    <path
        d="M125.441 46.0699C130.122 45.5462 132.566 46.6983 133.942 47.9052C136.791 50.4099 135.907 53.9211 138.908 55.3466C140.869 56.2802 143.76 55.9796 144.938 54.4358C145.385 53.8483 145.633 53.0422 145.555 51.9538C145.385 49.5765 144.331 43.9249 139.401 41.6752C134.798 39.5803 128.769 41.2835 125.441 46.0699Z"
        fill="#374151" />
    <path
        d="M122.73 56.4349C122.771 57.0042 122.569 57.4824 122.283 57.5052C121.993 57.5234 121.726 57.0816 121.685 56.5078C121.643 55.9385 121.846 55.4604 122.131 55.4376C122.421 55.4148 122.688 55.8611 122.73 56.4349Z"
        fill="#374151" />
    <path
        d="M131.051 55.8429C131.093 56.4121 130.89 56.8903 130.605 56.9131C130.315 56.9313 130.048 56.4895 130.007 55.9157C129.965 55.3465 130.168 54.8683 130.453 54.8455C130.743 54.8273 131.01 55.2736 131.051 55.8429Z"
        fill="#374151" />
    <path
        d="M129.602 62.8203C129.602 62.8203 127.747 64.4142 124.81 64.6192C124.81 64.6192 125.404 66.0401 127.365 65.8989C129.321 65.7623 129.602 62.8203 129.602 62.8203Z"
        fill="white" />
    <path
        d="M127.341 52.0357C128.727 51.767 129.85 51.8171 130.609 51.9127C132.248 52.1177 133.431 52.6778 133.422 52.9556C133.417 53.0831 133.348 53.1833 133.302 53.2471C133.302 53.2471 133.224 53.3518 133.1 53.4247C132.791 53.6114 131.065 53.1742 130.734 53.1013C128.98 52.7006 127.903 53.5613 127.433 52.9602C127.318 52.8099 127.217 52.5457 127.341 52.0357Z"
        fill="#374151" />
    <path
        d="M124.336 52.0402C122.928 51.9628 121.823 52.1632 121.082 52.359C119.489 52.778 118.394 53.4975 118.44 53.7708C118.463 53.8983 118.546 53.9848 118.601 54.0395C118.601 54.0395 118.693 54.1351 118.827 54.1898C119.158 54.3309 120.806 53.6706 121.123 53.5522C122.803 52.9192 123.991 53.6296 124.373 52.9693C124.465 52.8053 124.529 52.5275 124.336 52.0402Z"
        fill="#374151" />
    <path
        d="M130.227 41.2064C130.227 41.2064 126.403 51.8584 118.099 50.1187C109.796 48.3745 113.068 33.1092 123.958 36.461C134.853 39.8082 130.227 41.2064 130.227 41.2064Z"
        fill="#374151" />
    <path d="M135.433 48.4609L135.788 59.0993L137.426 58.9399L138.729 49.1714L135.433 48.4609Z" fill="#374151" />
    <path
        d="M121.569 49.9726C120.764 50.4827 119.829 50.7969 118.867 50.9472C117.901 51.0747 116.902 51.0064 115.945 50.7468C114.039 50.2322 112.331 48.8614 111.521 47.017C110.748 45.1589 110.895 43.0048 111.807 41.2697C112.262 40.3999 112.884 39.6257 113.629 39.0063C114.389 38.4052 115.254 37.9361 116.179 37.6902L116.193 37.7312C114.417 38.3733 112.925 39.7259 112.129 41.42C111.323 43.1005 111.195 45.1225 111.945 46.8348C112.672 48.5608 114.255 49.8587 116.051 50.4052C117.85 50.9745 119.871 50.7878 121.546 49.9271L121.569 49.9726Z"
        fill="#374151" />
    <path
        d="M132.548 37.6765C133.118 36.9843 133.749 36.3922 134.435 35.8457C135.121 35.3038 135.862 34.8347 136.64 34.4431C137.022 34.2381 137.431 34.0833 137.836 33.9148C138.251 33.7827 138.66 33.6233 139.088 33.5414C139.931 33.3137 140.805 33.259 141.666 33.2317C140.805 33.2954 139.94 33.3911 139.116 33.6507C138.697 33.7509 138.301 33.9285 137.901 34.0742C137.514 34.2564 137.118 34.4249 136.75 34.6435C136.004 35.0624 135.3 35.5543 134.656 36.1099C134.016 36.6655 133.413 37.2894 132.92 37.9452L132.548 37.6765Z"
        fill="#374151" />
    <path
        d="M133.436 37.695C133.537 37.1075 133.694 36.5564 133.878 36.0008C134.066 35.4498 134.287 34.9124 134.554 34.3978C134.826 33.8877 135.148 33.4004 135.516 32.9541C135.898 32.5169 136.345 32.1389 136.833 31.8384C136.359 32.1708 135.949 32.5761 135.604 33.027C135.268 33.487 134.992 33.9834 134.757 34.498C134.531 35.0171 134.347 35.5545 134.204 36.0965C134.062 36.6384 133.947 37.2031 133.891 37.745L133.436 37.695Z"
        fill="#374151" />
    <path
        d="M119.71 62.3281C119.268 62.3281 118.821 62.2643 118.389 62.1323C117.238 61.7862 116.29 61.012 115.724 59.96C114.555 57.7877 115.388 55.078 117.583 53.9212C118.647 53.3611 119.866 53.2427 121.022 53.5933C122.172 53.9394 123.12 54.7136 123.687 55.7656C124.856 57.9379 124.023 60.6476 121.827 61.8044C121.16 62.1505 120.437 62.3281 119.71 62.3281ZM119.696 53.8529C119.042 53.8529 118.393 54.0123 117.795 54.3265C115.825 55.3649 115.075 57.7968 116.124 59.7505C116.635 60.6977 117.482 61.3899 118.518 61.6996C119.553 62.0139 120.649 61.9091 121.606 61.4036C123.576 60.3653 124.326 57.9334 123.277 55.9797C122.771 55.0324 121.919 54.3402 120.883 54.0305C120.492 53.9121 120.092 53.8529 119.696 53.8529Z"
        fill="#10B981" />
    <path
        d="M130.439 62.3281C129.997 62.3281 129.551 62.2643 129.118 62.1323C127.968 61.7862 127.019 61.012 126.453 59.96C125.284 57.7877 126.117 55.078 128.313 53.9212C129.376 53.3611 130.596 53.2427 131.751 53.5933C132.902 53.9394 133.85 54.7136 134.416 55.7656C135.585 57.9379 134.752 60.6476 132.557 61.8044C131.889 62.1505 131.166 62.3281 130.439 62.3281ZM130.425 53.8529C129.772 53.8529 129.123 54.0123 128.524 54.3265C126.554 55.3649 125.804 57.7968 126.854 59.7505C127.365 60.6977 128.211 61.3899 129.247 61.6996C130.283 62.0139 131.378 61.9091 132.336 61.4036C134.306 60.3653 135.056 57.9334 134.006 55.9797C133.496 55.0324 132.649 54.3402 131.613 54.0305C131.222 53.9121 130.826 53.8529 130.425 53.8529Z"
        fill="#10B981" />
    <path
        d="M123.835 57.118L123.683 56.69C123.756 56.6626 125.492 56.066 126.564 56.6308L126.348 57.0315C125.455 56.5624 123.853 57.1089 123.835 57.118Z"
        fill="#10B981" />
    <path d="M141.051 52.432L134.415 56.4124L134.653 56.8018L141.29 52.8214L141.051 52.432Z" fill="#10B981" />
    <path
        d="M137.832 55.7246C137.684 56.1026 137.505 56.6399 137.422 57.3094C137.284 58.3751 137.454 59.1766 137.606 59.8916C137.855 61.0392 138.112 62.2233 138.835 62.4009C139.038 62.451 139.226 62.41 139.355 62.3645C139.737 62.0867 144.902 58.2703 144.013 54.2491C143.963 54.0122 143.516 52.0995 142.26 51.7762C140.952 51.4392 139.051 52.9238 137.832 55.7246Z"
        fill="#FEE2E2" />
    <path
        d="M138.094 59.3405C138.117 59.4498 138.135 59.55 138.158 59.6502C138.324 60.3515 138.554 60.9299 138.766 61.3671C139.107 61.2851 139.677 61.1166 140.294 60.7386C143.028 59.0809 144.197 54.9094 142.968 53.6752C142.729 53.4338 142.444 53.3701 142.241 53.32C141.693 53.1925 141.141 53.3245 140.635 53.5796C140.395 53.698 140.17 53.8437 139.963 54.0076C139.493 54.3583 139.107 54.7773 138.844 55.1371C138.573 55.5105 138.131 56.2164 137.951 57.2775C137.915 57.8149 137.933 58.5253 138.094 59.3405Z"
        fill="#EF4444" />
    <path
        d="M138.094 59.3402C138.117 59.4495 138.136 59.5497 138.159 59.6499C140.391 56.5394 140.428 54.8817 139.958 54.0073C139.489 54.358 139.102 54.777 138.84 55.1367C138.568 55.5102 138.126 56.2161 137.947 57.2772C137.915 57.8146 137.933 58.525 138.094 59.3402Z"
        fill="#C4553E" />
    <path
        d="M120.189 132.944C118.941 131.924 117.772 130.771 117.772 130.771C116.097 129.947 114.426 129.114 112.75 128.285L116.516 132.01C118.085 135.389 118.845 138.072 118.398 138.841C118.14 139.283 117.772 139.461 117.772 139.461C117.363 139.652 116.856 139.62 116.516 139.461C115.71 139.083 115.811 137.976 115.259 136.355C115.038 135.717 114.67 134.847 114.002 133.868L110.237 130.143C111.07 131.181 111.913 132.211 112.75 133.249C113.28 135.471 113.699 137.093 114.007 138.217C114.191 138.901 114.407 139.67 114.007 140.08C113.616 140.485 112.714 140.476 112.125 140.08C111.337 139.552 111.503 138.609 110.868 136.355C110.647 135.567 110.408 134.925 110.242 134.492C108.985 133.454 107.729 132.425 106.477 131.386L109.616 134.492C109.906 136.136 109.768 137.858 110.242 139.461C110.274 139.561 110.357 139.82 110.242 140.08C110.039 140.545 109.326 140.74 108.985 140.699C107.678 140.549 107.176 136.405 107.103 135.731C104.59 134.283 102.081 132.83 99.568 131.382C97.262 128.69 94.9652 125.994 92.6638 123.307C94.3392 122.064 96.0101 120.821 97.6855 119.582C101.032 120.406 104.383 121.24 107.729 122.069L119.659 128.9C119.659 128.9 121.045 129.997 122.159 131.099C122.154 131.108 122.601 133.258 120.189 132.944Z"
        fill="#FEE2E2" />
    <path
        d="M74.8 114.604C82.4729 119.167 90.1412 123.731 97.8141 128.298C99.0661 126.29 100.313 124.277 101.565 122.269C101.565 122.269 83.7525 102.326 77.663 102.326C71.5735 102.326 71.0027 112.505 74.8 114.604Z"
        fill="#FEE2E2" />
    <path
        d="M50.0188 108.156L61.9953 138.905C62.0551 139.055 62.1748 139.151 62.3083 139.156L110.076 141.15C110.362 141.164 110.555 140.781 110.417 140.476L96.8662 109.663C96.8063 109.527 96.6913 109.44 96.5624 109.431L50.3732 107.505C50.0924 107.486 49.8991 107.846 50.0188 108.156Z"
        fill="#374151" />
    <path d="M133.385 142.12L132.368 138.887L127.627 138.691L126.822 142.015L133.385 142.12Z" fill="#374151" />
    <path d="M127.576 141.902L126.559 138.673L121.818 138.473L121.013 141.797L127.576 141.902Z" fill="#374151" />
    <path d="M121.505 141.647L120.492 138.418L115.747 138.222L114.941 141.547L121.505 141.647Z" fill="#374151" />
    <path d="M115.609 141.401L114.596 138.172L109.851 137.976L109.05 141.301L115.609 141.401Z" fill="#374151" />
    <path d="M61.865 143.05L135.48 146.119L135.675 141.542L62.0599 138.473L61.865 143.05Z" fill="#374151" />
    <path
        d="M182.713 79.9433C182.649 79.3695 182.603 79.0507 182.603 79.0507L183.058 78.9824C183.058 78.9824 183.109 79.3103 183.173 79.8932L182.713 79.9433Z"
        fill="#FCD34D" />
    <path
        d="M178.856 103.597L178.474 103.347C178.787 102.878 179.091 102.386 179.371 101.876L179.776 102.094C179.487 102.614 179.174 103.119 178.856 103.597ZM180.568 100.519L180.149 100.332C180.384 99.8219 180.61 99.2845 180.812 98.738L181.245 98.8974C181.033 99.4485 180.807 99.9949 180.568 100.519ZM181.811 97.2306L181.369 97.0985C181.535 96.5566 181.691 95.9919 181.829 95.4317L182.276 95.541C182.138 96.1103 181.981 96.6796 181.811 97.2306ZM182.662 93.8333L182.211 93.7467C182.322 93.1911 182.418 92.6173 182.506 92.0389L182.962 92.1072C182.87 92.6902 182.768 93.2731 182.662 93.8333ZM183.178 90.3676L182.722 90.3175C182.782 89.7573 182.833 89.1744 182.874 88.5915L183.334 88.6234C183.293 89.2154 183.242 89.8029 183.178 90.3676ZM183.422 86.8791L182.962 86.8655C182.98 86.2962 182.989 85.7497 182.989 85.2214V85.1304H183.45V85.2214C183.445 85.7497 183.44 86.3053 183.422 86.8791ZM182.957 83.3952C182.934 82.7622 182.902 82.1793 182.865 81.6647L183.325 81.6328C183.362 82.152 183.394 82.7395 183.417 83.377L182.957 83.3952Z"
        fill="#FCD34D" />
    <path
        d="M177.194 105.724L176.854 105.419C177.056 105.196 177.254 104.968 177.443 104.731L177.802 105.018C177.604 105.259 177.401 105.496 177.194 105.724Z"
        fill="#FCD34D" />
    <path
        d="M102.022 107.427C101.409 107.409 100.783 107.363 100.171 107.3L100.222 106.849C100.825 106.913 101.437 106.958 102.04 106.976L102.022 107.427ZM98.3348 107.031C97.7318 106.922 97.1196 106.785 96.5213 106.63L96.6363 106.189C97.2255 106.339 97.8238 106.471 98.4176 106.58L98.3348 107.031ZM94.74 106.107C94.16 105.915 93.5755 105.697 93.0001 105.464L93.175 105.045C93.7412 105.278 94.3165 105.487 94.8827 105.678L94.74 106.107ZM91.3109 104.708C90.7631 104.444 90.2108 104.153 89.6677 103.852L89.8932 103.456C90.4225 103.752 90.9703 104.039 91.5088 104.299L91.3109 104.708ZM88.0843 102.9C87.5688 102.573 87.0579 102.222 86.5562 101.862L86.8277 101.493C87.3248 101.848 87.8311 102.195 88.3375 102.518L88.0843 102.9ZM85.0833 100.742C84.6046 100.355 84.1305 99.954 83.6748 99.5441L83.9832 99.2071C84.4297 99.6078 84.8992 100.004 85.3732 100.387L85.0833 100.742ZM82.3354 98.2735C81.5207 97.4538 81.0926 96.9255 81.0742 96.9027L81.4332 96.6204C81.4378 96.6249 81.8659 97.1532 82.6622 97.9547L82.3354 98.2735Z"
        fill="#FCD34D" />
    <path
        d="M123 96.2718C124.974 96.1534 126.954 96.0668 128.937 96.0076C130.917 95.9758 132.9 95.9803 134.889 96.0668C135.883 96.1078 136.877 96.1761 137.876 96.3173C138.378 96.3947 138.875 96.4722 139.381 96.6224C139.51 96.6634 139.639 96.709 139.768 96.7545C139.901 96.8274 140.026 96.8638 140.168 96.9686C140.237 97.0187 140.325 97.0824 140.412 97.2327C140.458 97.3283 140.49 97.4513 140.449 97.5879C140.431 97.6608 140.408 97.7018 140.38 97.7382C140.357 97.7746 140.316 97.8247 140.293 97.8384C140.081 98.0069 139.947 98.0251 139.805 98.0752C139.261 98.2209 138.774 98.2619 138.267 98.312C137.766 98.3576 137.268 98.3894 136.771 98.4168C135.777 98.4714 134.788 98.5078 133.798 98.5397C131.819 98.5853 129.844 98.6171 127.883 98.731C126.917 98.7993 125.9 98.8585 125.034 99.0908C124.933 99.1226 124.836 99.1591 124.767 99.1955C124.758 99.2046 124.744 99.2137 124.735 99.2183C124.73 99.2228 124.735 99.2228 124.73 99.2183C124.758 99.191 124.753 99.1591 124.753 99.1318C124.73 99.0817 124.763 99.1545 124.832 99.2046C124.901 99.2593 124.993 99.3185 125.085 99.3731C125.476 99.5872 125.936 99.7557 126.392 99.906C128.247 100.493 130.194 100.871 132.132 101.213C133.103 101.391 134.074 101.55 135.055 101.678C135.542 101.741 136.035 101.8 136.527 101.837C137.015 101.869 137.517 101.923 137.996 101.832L138.01 101.873C137.517 101.987 137.015 101.942 136.523 101.928C136.03 101.905 135.533 101.864 135.041 101.814C134.056 101.718 133.075 101.591 132.095 101.445C130.139 101.145 128.187 100.799 126.286 100.238C125.812 100.093 125.343 99.9333 124.901 99.7056C124.694 99.5781 124.436 99.4642 124.362 99.1864C124.335 99.0361 124.454 98.9132 124.56 98.8585C124.671 98.7948 124.79 98.7492 124.91 98.7128C125.872 98.4486 126.871 98.394 127.856 98.3166C129.83 98.1845 131.81 98.1435 133.789 98.0843C134.778 98.057 135.768 98.0251 136.753 97.9796C137.738 97.9204 138.737 97.893 139.69 97.6699C139.805 97.638 139.924 97.597 140.007 97.5287C140.099 97.4604 140.021 97.3648 139.924 97.2965C139.828 97.2236 139.713 97.1871 139.607 97.1279L139.261 97.005C138.792 96.8593 138.304 96.7818 137.816 96.7044C136.84 96.5632 135.855 96.4767 134.866 96.4175C130.917 96.1898 126.958 96.2171 123.004 96.3128L123 96.2718Z"
        fill="#374151" />
    <path
        d="M178.645 105.573H158.457C156.712 117.432 154.968 129.287 153.219 141.146C152.132 139.597 153.826 114.117 154.346 105.573C154.434 104.112 154.489 103.146 154.489 102.882C154.489 102.404 156.27 102.381 158.894 102.609C164.772 103.123 174.875 104.89 178.645 105.573Z"
        fill="#374151" />
</svg>