<svg width="32" height="32" viewBox="0 0 32 32" fill="none" xmlns="http://www.w3.org/2000/svg">
    <path
        d="M3.33325 16.0007C3.33325 10.0295 3.33325 7.04397 5.18824 5.18897C7.04324 3.33398 10.0288 3.33398 15.9999 3.33398C21.971 3.33398 24.9566 3.33398 26.8117 5.18897C28.6666 7.04397 28.6666 10.0295 28.6666 16.0007C28.6666 21.9717 28.6666 24.9573 26.8117 26.8124C24.9566 28.6673 21.971 28.6673 15.9999 28.6673C10.0288 28.6673 7.04324 28.6673 5.18824 26.8124C3.33325 24.9573 3.33325 21.9717 3.33325 16.0007Z"
        stroke="#171718" stroke-width="2" stroke-linejoin="round" />
    <path
        d="M16.0105 14.0109C14.906 14.0109 14.0105 14.9064 14.0105 16.0109C14.0105 17.1155 14.906 18.0109 16.0105 18.0109C17.115 18.0109 18.0105 17.1155 18.0105 16.0109C18.0105 14.9064 17.115 14.0109 16.0105 14.0109ZM16.0105 14.0109V9.33203M20.0197 20.0264L17.4216 17.4283"
        stroke="#171718" stroke-width="2" stroke-linecap="round" stroke-linejoin="round" />
</svg>