<svg width="12" height="12" viewBox="0 0 12 12" fill="none" xmlns="http://www.w3.org/2000/svg">
<g id="user-id-verification">
<path id="Vector" d="M4.56716 1.25C3.23402 1.28038 2.45535 1.40728 1.92332 1.93746C1.45768 2.40148 1.30203 3.05378 1.25 4.1M7.43283 1.25C8.76598 1.28038 9.54463 1.40728 10.0767 1.93746C10.5423 2.40148 10.698 3.05378 10.75 4.1M7.43283 10.75C8.76598 10.7196 9.54463 10.5927 10.0767 10.0625C10.5423 9.5985 10.698 8.9462 10.75 7.9M4.56716 10.75C3.23402 10.7196 2.45535 10.5927 1.92332 10.0625C1.45768 9.5985 1.30203 8.9462 1.25 7.9" stroke="#6B7280" stroke-width="0.75" stroke-linecap="round" stroke-linejoin="round"/>
<path id="Vector_2" d="M3.75 8.5C4.91585 7.2789 7.07163 7.2214 8.24998 8.5M7.24753 4.75C7.24753 5.44035 6.68708 6 5.99578 6C5.30444 6 4.74398 5.44035 4.74398 4.75C4.74398 4.05964 5.30444 3.5 5.99578 3.5C6.68708 3.5 7.24753 4.05964 7.24753 4.75Z" stroke="#6B7280" stroke-width="0.75" stroke-linecap="round"/>
</g>
</svg>
