<svg width="32" height="32" viewBox="0 0 32 32" fill="none" xmlns="http://www.w3.org/2000/svg">
    <path
        d="M29.3334 13.3327V12.2893C29.3334 9.70318 29.3334 8.41011 28.5523 7.60668C27.7713 6.80327 26.5142 6.80327 24.0001 6.80327H21.2286C20.0054 6.80327 19.9953 6.8009 18.8954 6.25047L14.4533 4.02754C12.5985 3.0994 11.6712 2.63534 10.6833 2.66759C9.69532 2.69984 8.79844 3.22346 7.00468 4.2707L5.36752 5.22651C4.04993 5.99574 3.39113 6.38036 3.02893 7.0202C2.66675 7.66006 2.66675 8.43926 2.66675 9.99766V20.9536C2.66675 23.0012 2.66675 24.0251 3.12309 24.5949C3.42676 24.974 3.85229 25.2289 4.32275 25.3135C5.02976 25.4404 5.89539 24.9351 7.62657 23.9243C8.80216 23.238 9.93356 22.5252 11.3399 22.7185C12.5183 22.8804 13.6134 23.624 14.6667 24.1511"
        stroke="#171718" stroke-width="1.5" stroke-linecap="round" stroke-linejoin="round" />
    <path d="M10.6667 2.66602V22.666" stroke="#171718" stroke-width="1.5" stroke-linejoin="round" />
    <path d="M20 6.66602V12.666" stroke="#171718" stroke-width="1.5" stroke-linecap="round" stroke-linejoin="round" />
    <path
        d="M24.411 28.9113C24.1219 29.182 23.7355 29.3333 23.3334 29.3333C22.9312 29.3333 22.5448 29.182 22.2558 28.9113C19.6083 26.4173 16.0606 23.6313 17.7907 19.5864C18.7262 17.3995 20.9718 16 23.3334 16C25.695 16 27.9406 17.3995 28.876 19.5864C30.604 23.6261 27.065 26.4259 24.411 28.9113Z"
        stroke="#171718" stroke-width="1.5" />
    <path d="M23.3333 22H23.3453" stroke="#171718" stroke-width="2" stroke-linecap="round" stroke-linejoin="round" />
</svg>