<svg width="12" height="12" viewBox="0 0 12 12" fill="none" xmlns="http://www.w3.org/2000/svg">
    <path
        d="M7.5 8.8125C7.4632 9.73845 6.69155 10.5247 5.6578 10.4994C5.4173 10.4935 5.12005 10.4097 4.52556 10.242C3.0948 9.8384 1.85278 9.16015 1.55478 7.64075C1.5 7.3615 1.5 7.0472 1.5 6.41865V5.58135C1.5 4.9528 1.5 4.63852 1.55478 4.35923C1.85278 2.83982 3.0948 2.16158 4.52556 1.75801C5.12005 1.59032 5.4173 1.50647 5.6578 1.50059C6.69155 1.4753 7.4632 2.26153 7.5 3.1875"
        stroke="#6B7280" stroke-width="0.75" stroke-linecap="round" />
    <path d="M10.5 6H5M10.5 6C10.5 5.6499 9.50285 4.99577 9.25 4.75M10.5 6C10.5 6.3501 9.50285 7.00425 9.25 7.25"
        stroke="#6B7280" stroke-width="0.75" stroke-linecap="round" stroke-linejoin="round" />
</svg>