<svg width="12" height="12" viewBox="0 0 12 12" fill="none" xmlns="http://www.w3.org/2000/svg">
    <path
        d="M2.50018 3.5L1.89077 3.90627C1.45392 4.19751 1.23549 4.34313 1.11711 4.56521C0.998736 4.78729 0.999616 5.0483 1.00137 5.5703C1.00348 6.19875 1.00932 6.8391 1.0255 7.48705C1.06387 9.02435 1.08306 9.793 1.64826 10.3582C2.21346 10.9235 2.99249 10.9429 4.55054 10.9818C5.51985 11.006 6.48055 11.006 7.4498 10.9818C9.0079 10.9429 9.7869 10.9235 10.3521 10.3582C10.9173 9.793 10.9365 9.02435 10.9749 7.48705C10.9911 6.8391 10.9969 6.19875 10.999 5.5703C11.0008 5.0483 11.0016 4.78728 10.8833 4.56521C10.7649 4.34313 10.5465 4.19751 10.1096 3.90627L9.50015 3.5"
        stroke="#6B7280" stroke-width="0.75" stroke-linejoin="round" />
    <path d="M1 5L4.45651 7.0739C5.2085 7.5251 5.5845 7.7507 6 7.7507C6.4155 7.7507 6.7915 7.5251 7.5435 7.0739L11 5"
        stroke="#6B7280" stroke-width="0.75" stroke-linejoin="round" />
    <path
        d="M2.5 6V3C2.5 2.05719 2.5 1.58578 2.7929 1.29289C3.08579 1 3.5572 1 4.5 1H7.50001C8.44281 1 8.91421 1 9.20711 1.29289C9.50001 1.58578 9.50001 2.05719 9.50001 3V6"
        stroke="#6B7280" stroke-width="0.75" />
    <path d="M5 5H7M5 3H7" stroke="#6B7280" stroke-width="0.75" stroke-linecap="round" stroke-linejoin="round" />
</svg>