<svg width="16" height="16" viewBox="0 0 16 16" fill="none" xmlns="http://www.w3.org/2000/svg">
<g id="mail-01">
<path id="Vector" d="M1.33337 4L5.94205 6.61131C7.64111 7.574 8.35897 7.574 10.058 6.61131L14.6667 4" stroke="#141B34" stroke-width="1.5" stroke-linejoin="round"/>
<path id="Vector_2" d="M1.34389 8.98439C1.38747 11.0281 1.40926 12.0499 2.16335 12.8069C2.91743 13.5639 3.96693 13.5902 6.06593 13.6429C7.35957 13.6755 8.64051 13.6755 9.93417 13.6429C12.0332 13.5902 13.0826 13.5639 13.8368 12.8069C14.5908 12.0499 14.6126 11.0281 14.6562 8.98439C14.6702 8.32725 14.6702 7.67405 14.6562 7.01692C14.6126 4.97322 14.5908 3.95138 13.8368 3.19443C13.0826 2.43747 12.0332 2.41111 9.93417 2.35837C8.64051 2.32586 7.35957 2.32586 6.06592 2.35836C3.96693 2.41109 2.91743 2.43746 2.16334 3.19442C1.40925 3.95137 1.38747 4.97322 1.34388 7.01692C1.32987 7.67405 1.32987 8.32725 1.34389 8.98439Z" stroke="#141B34" stroke-width="1.5" stroke-linejoin="round"/>
</g>
</svg>
