<svg width="20" height="20" viewBox="0 0 20 20" fill="none" xmlns="http://www.w3.org/2000/svg">
<g id="mail-01">
<path id="Vector" d="M1.66675 5L7.4276 8.26414C9.55141 9.4675 10.4487 9.4675 12.5726 8.26414L18.3334 5" stroke="#9CA3AF" stroke-width="1.5" stroke-linejoin="round"/>
<path id="Vector_2" d="M1.67989 11.229C1.73436 13.7837 1.76161 15.0609 2.70421 16.0072C3.64681 16.9533 4.95869 16.9863 7.58244 17.0522C9.1995 17.0929 10.8007 17.0929 12.4177 17.0522C15.0415 16.9863 16.3533 16.9533 17.296 16.0072C18.2386 15.0609 18.2658 13.7837 18.3202 11.229C18.3378 10.4076 18.3378 9.5911 18.3202 8.76968C18.2658 6.21507 18.2386 4.93776 17.296 3.99157C16.3533 3.04537 15.0415 3.01242 12.4177 2.94649C10.8007 2.90586 9.1995 2.90586 7.58243 2.94648C4.95869 3.0124 3.64681 3.04536 2.70421 3.99156C1.7616 4.93775 1.73436 6.21506 1.67988 8.76968C1.66236 9.5911 1.66237 10.4076 1.67989 11.229Z" stroke="#9CA3AF" stroke-width="1.5" stroke-linejoin="round"/>
</g>
</svg>
