<svg preserveAspectRatio="xMidYMid meet" viewBox="0 0 20 21" fill="none" xmlns="http://www.w3.org/2000/svg">
<path d="M6.4 1.5H2.6C2.03995 1.5 1.75992 1.5 1.54601 1.60899C1.35785 1.70487 1.20487 1.85785 1.10899 2.04601C1 2.25992 1 2.53995 1 3.1V6.9C1 7.46005 1 7.74008 1.10899 7.95399C1.20487 8.14215 1.35785 8.29513 1.54601 8.39101C1.75992 8.5 2.03995 8.5 2.6 8.5H6.4C6.96005 8.5 7.24008 8.5 7.45399 8.39101C7.64215 8.29513 7.79513 8.14215 7.89101 7.95399C8 7.74008 8 7.46005 8 6.9V3.1C8 2.53995 8 2.25992 7.89101 2.04601C7.79513 1.85785 7.64215 1.70487 7.45399 1.60899C7.24008 1.5 6.96005 1.5 6.4 1.5Z" stroke="#6B7280" stroke-width="1.5" stroke-linecap="round" stroke-linejoin="round"/>
<path d="M17.4 1.5H13.6C13.0399 1.5 12.7599 1.5 12.546 1.60899C12.3578 1.70487 12.2049 1.85785 12.109 2.04601C12 2.25992 12 2.53995 12 3.1V6.9C12 7.46005 12 7.74008 12.109 7.95399C12.2049 8.14215 12.3578 8.29513 12.546 8.39101C12.7599 8.5 13.0399 8.5 13.6 8.5H17.4C17.9601 8.5 18.2401 8.5 18.454 8.39101C18.6422 8.29513 18.7951 8.14215 18.891 7.95399C19 7.74008 19 7.46005 19 6.9V3.1C19 2.53995 19 2.25992 18.891 2.04601C18.7951 1.85785 18.6422 1.70487 18.454 1.60899C18.2401 1.5 17.9601 1.5 17.4 1.5Z" stroke="#6B7280" stroke-width="1.5" stroke-linecap="round" stroke-linejoin="round"/>
<path d="M17.4 12.5H13.6C13.0399 12.5 12.7599 12.5 12.546 12.609C12.3578 12.7049 12.2049 12.8578 12.109 13.046C12 13.2599 12 13.5399 12 14.1V17.9C12 18.4601 12 18.7401 12.109 18.954C12.2049 19.1422 12.3578 19.2951 12.546 19.391C12.7599 19.5 13.0399 19.5 13.6 19.5H17.4C17.9601 19.5 18.2401 19.5 18.454 19.391C18.6422 19.2951 18.7951 19.1422 18.891 18.954C19 18.7401 19 18.4601 19 17.9V14.1C19 13.5399 19 13.2599 18.891 13.046C18.7951 12.8578 18.6422 12.7049 18.454 12.609C18.2401 12.5 17.9601 12.5 17.4 12.5Z" stroke="#6B7280" stroke-width="1.5" stroke-linecap="round" stroke-linejoin="round"/>
<path d="M6.4 12.5H2.6C2.03995 12.5 1.75992 12.5 1.54601 12.609C1.35785 12.7049 1.20487 12.8578 1.10899 13.046C1 13.2599 1 13.5399 1 14.1V17.9C1 18.4601 1 18.7401 1.10899 18.954C1.20487 19.1422 1.35785 19.2951 1.54601 19.391C1.75992 19.5 2.03995 19.5 2.6 19.5H6.4C6.96005 19.5 7.24008 19.5 7.45399 19.391C7.64215 19.2951 7.79513 19.1422 7.89101 18.954C8 18.7401 8 18.4601 8 17.9V14.1C8 13.5399 8 13.2599 7.89101 13.046C7.79513 12.8578 7.64215 12.7049 7.45399 12.609C7.24008 12.5 6.96005 12.5 6.4 12.5Z" stroke="#6B7280" stroke-width="1.5" stroke-linecap="round" stroke-linejoin="round"/>
</svg>
