<svg width="12" height="12" viewBox="0 0 12 12" fill="none" xmlns="http://www.w3.org/2000/svg">
    <path
        d="M7 1.10002C6.6769 1.03443 6.34245 1 6 1C3.23857 1 1 3.23857 1 6C1 8.7614 3.23857 11 6 11C8.7614 11 11 8.7614 11 6C11 5.65755 10.9655 5.3231 10.9 5"
        stroke="#6B7280" stroke-width="0.75" stroke-linecap="round" />
    <path
        d="M6 4.5C5.4477 4.5 5 4.83579 5 5.25C5 5.6642 5.4477 6 6 6C6.5523 6 7 6.3358 7 6.75C7 7.1642 6.5523 7.5 6 7.5M6 4.5C6.4354 4.5 6.8058 4.7087 6.9431 5M6 4.5V4M6 7.5C5.5646 7.5 5.1942 7.2913 5.0569 7M6 7.5V8"
        stroke="#6B7280" stroke-width="0.75" stroke-linecap="round" />
    <path
        d="M8.49902 3.5L10.587 1.4109M10.999 3.23912L10.9399 1.69337C10.9399 1.32905 10.7224 1.10206 10.3262 1.07343L8.76412 1"
        stroke="#6B7280" stroke-width="0.75" stroke-linecap="round" stroke-linejoin="round" />
</svg>