<svg preserveAspectRatio="xMidYMid meet" viewBox="0 0 12 12" fill="none" xmlns="http://www.w3.org/2000/svg">
<path d="M0.661262 12C0.476502 11.9997 0.300371 11.9218 0.175843 11.7853C0.0490184 11.6499 -0.0140013 11.4668 0.00261995 11.2821L0.163987 9.5077L7.6185 2.05581L9.94812 4.38477L2.49558 11.836L0.721199 11.9974C0.700781 11.9993 0.680363 12 0.661262 12ZM10.4131 3.91911L8.08416 1.59015L9.48114 0.193171C9.60468 0.0694931 9.77232 0 9.94713 0C10.1219 0 10.2896 0.0694931 10.4131 0.193171L11.8101 1.59015C11.9338 1.71369 12.0033 1.88133 12.0033 2.05614C12.0033 2.23095 11.9338 2.39859 11.8101 2.52213L10.4138 3.91845L10.4131 3.91911Z" fill="white"/>
</svg>
