
<svg width="14" height="14" viewBox="0 0 14 14" fill="none" xmlns="http://www.w3.org/2000/svg">
<g id="progress">
<path id="Vector" d="M7 12.25C9.8995 12.25 12.25 9.8995 12.25 7C12.25 4.1005 9.8995 1.75 7 1.75C4.1005 1.75 1.75 4.1005 1.75 7C1.75 9.8995 4.1005 12.25 7 12.25Z" stroke="#3B82F6" stroke-width="0.875" stroke-linecap="round" stroke-linejoin="round"/>
<path id="Vector_2" d="M6.99984 3.5C7.6142 3.5 8.21778 3.66172 8.74984 3.96891C9.2819 4.2761 9.72371 4.71793 10.031 5.25C10.3381 5.78207 10.4998 6.38563 10.4998 7C10.4998 7.61437 10.3381 8.21794 10.031 8.75C9.72371 9.28206 9.2819 9.72387 8.74984 10.0311C8.21778 10.3383 7.6142 10.5 6.99984 10.5C6.38547 10.5 5.7819 10.3383 5.24984 10.0311C4.71777 9.72387 4.27594 9.28206 3.96875 8.75L6.99984 7V3.5Z" stroke="#3B82F6" stroke-width="0.875" stroke-linecap="round" stroke-linejoin="round"/>
</g>
</svg>
