<svg preserveAspectRatio="xMidYMid meet" viewBox="0 0 16 15" fill="none" xmlns="http://www.w3.org/2000/svg">
<path d="M7.99992 14.1663C11.6818 14.1663 14.6666 11.1816 14.6666 7.49967C14.6666 3.81778 11.6818 0.833008 7.99992 0.833008C4.31802 0.833008 1.33325 3.81778 1.33325 7.49967C1.33325 11.1816 4.31802 14.1663 7.99992 14.1663Z" stroke="#6B7280" stroke-linecap="round" stroke-linejoin="round"/>
<path d="M7.99992 11.4997C10.2091 11.4997 11.9999 9.70881 11.9999 7.49967C11.9999 5.29054 10.2091 3.49967 7.99992 3.49967C5.79078 3.49967 3.99992 5.29054 3.99992 7.49967C3.99992 9.70881 5.79078 11.4997 7.99992 11.4997Z" stroke="#6B7280" stroke-linecap="round" stroke-linejoin="round"/>
<path d="M7.99992 8.83301C8.7363 8.83301 9.33325 8.23605 9.33325 7.49967C9.33325 6.76329 8.7363 6.16634 7.99992 6.16634C7.26354 6.16634 6.66659 6.76329 6.66659 7.49967C6.66659 8.23605 7.26354 8.83301 7.99992 8.83301Z" stroke="#6B7280" stroke-linecap="round" stroke-linejoin="round"/>
</svg>
