<svg preserveAspectRatio="xMidYMid meet" viewBox="0 0 32 32" fill="none" xmlns="http://www.w3.org/2000/svg">
<path d="M29.6639 6.2078C28.7999 5.5358 29.0879 4.3838 28.3199 3.5198C27.9679 3.1358 27.5839 2.8478 27.1039 2.6558C26.5599 2.3998 25.7919 2.5278 25.2479 2.2398C24.4159 1.8238 24.2879 0.799805 23.1039 0.799805C22.0799 0.799805 21.5679 1.5358 21.4399 2.4638C21.3759 3.0718 21.3119 3.6798 21.3119 4.2878C21.2479 4.4798 21.1839 4.7038 21.1839 4.9278C21.1519 5.4398 21.1199 5.9838 21.1199 6.5278C19.7759 6.3038 18.3999 6.3678 17.0879 6.7198C13.8879 6.5278 10.5919 8.2878 8.15991 10.2078C6.65592 11.4238 5.37592 12.8958 4.38392 14.5598C4.38392 14.5918 4.35192 14.5918 4.35192 14.6238C3.51992 15.0398 2.71992 15.5838 2.01592 16.1918C1.69592 16.4798 1.59992 16.9278 1.69592 17.3438C1.75992 18.0158 2.33592 18.5278 3.03992 18.4958C3.10392 18.4958 3.16792 18.4958 3.23192 18.4638C3.32792 18.4318 3.42392 18.4318 3.51992 18.3998C3.55192 18.4958 3.58392 18.5918 3.61592 18.6878C3.61592 18.7838 3.61592 18.8798 3.61592 18.9758C4.15992 24.7678 8.44792 29.0878 14.2399 29.5678C14.3039 29.7278 14.3359 29.8878 14.3999 30.0158C14.6239 30.5918 15.2319 31.0718 15.9039 30.8478C16.1279 30.7838 16.3199 30.6558 16.4799 30.4958C16.7359 30.3998 16.9599 30.2078 17.1199 29.9838L18.0479 28.4158C20.0319 27.6798 21.6639 25.9838 22.8479 24.1918C23.1039 23.7758 23.3599 23.3598 23.5519 22.9438C24.8639 21.0878 25.6639 18.9438 25.7919 16.6718C26.0159 14.8478 26.0159 12.9918 25.8559 11.1678C27.5839 10.2398 30.5919 10.9758 30.9119 8.4478C31.0399 7.4238 30.4319 6.7838 29.6639 6.2078Z" fill="#F59E0B"/>
<path d="M30.7521 8.83227C30.4641 8.38427 30.1441 7.96827 29.7281 7.61627C29.5681 7.45627 29.4401 7.29627 29.2801 7.13627C29.1841 7.00827 29.0881 6.81627 29.0561 6.65627C29.0241 6.49627 28.9921 6.36827 28.9921 6.20827C28.9921 6.01627 28.9601 5.82427 28.9601 5.60027C28.8001 4.60827 28.0641 3.80827 27.1041 3.52027C26.6241 3.42427 26.1441 3.36027 25.6641 3.36027C25.4721 3.36027 25.2801 3.32827 25.1201 3.26427C24.9601 3.20027 24.8321 3.13627 24.7361 3.04027C24.6401 2.94427 24.5761 2.81627 24.5121 2.68827C24.4161 2.49627 24.3201 2.33627 24.2241 2.17627C24.0321 1.88827 23.7441 1.63227 23.4241 1.50427C23.1041 1.34427 22.7521 1.28027 22.4001 1.28027C22.1121 1.28027 21.8241 1.34427 21.5681 1.44027C21.4081 1.50427 21.3121 1.63227 21.3121 1.79227L20.7361 6.27227C20.5441 5.37627 20.2241 4.48027 19.8081 3.64827C19.7121 3.48827 19.6161 3.32827 19.5201 3.16827C19.3921 3.00827 19.2321 2.84827 19.0721 2.72027C18.7521 2.52827 18.4001 2.43227 18.0481 2.43227C18.0161 2.43227 17.9841 2.43227 17.9201 2.43227C17.6321 2.43227 17.3441 2.46427 17.0881 2.59227C16.7681 2.75227 16.4801 3.00827 16.3201 3.32827C16.0641 3.80827 16.0001 4.38427 16.1601 4.89627C16.2881 5.28027 16.4801 5.63227 16.7681 5.95227C17.0241 6.24027 17.3121 6.49627 17.6321 6.68827C17.7601 6.75227 17.8561 6.84827 17.9841 6.91227C17.6321 6.88027 17.3121 6.88027 16.9281 6.88027C16.4161 6.88027 15.8721 6.91227 15.3281 6.94427C13.7921 7.10427 10.0801 7.48827 6.75208 10.3363C5.34408 11.5523 4.19208 13.0563 3.36008 14.7203C3.29608 14.8483 3.20008 14.9443 3.07208 15.0403L1.72808 15.9683C1.08808 16.3843 0.928085 17.2483 1.34408 17.8883C1.44008 18.0803 1.60008 18.2403 1.82408 18.3363L2.68808 18.7843C2.88008 18.8803 3.00808 19.0723 3.04008 19.2643C3.52008 21.6643 4.64008 23.8723 6.33608 25.6643C8.22408 27.6483 10.6561 28.9923 13.3441 29.5683C13.4721 29.6003 13.5681 29.6643 13.6321 29.7283L14.5281 30.6883C15.1681 31.3603 16.2241 31.3923 16.8961 30.7523C16.9281 30.7203 16.9281 30.7203 16.9601 30.6883L18.4321 29.1523C18.4961 29.0883 18.5601 29.0563 18.6241 29.0243C20.9281 27.7123 22.8161 25.7603 24.0641 23.4243C25.2161 21.2483 25.4721 18.9443 25.4721 16.9283C25.4721 15.8403 25.4081 14.8163 25.3441 13.9523C25.3121 13.2483 25.2161 12.6083 25.1521 12.1283C26.3041 11.2643 27.6801 10.7523 29.1201 10.6883C29.4401 10.6883 29.7921 10.6243 30.0801 10.5283C30.2721 10.4643 30.4321 10.3683 30.5601 10.2403C30.7201 10.0803 30.8161 9.88827 30.8481 9.66427C30.8481 9.60027 30.8481 9.56827 30.8481 9.50427C30.9121 9.21627 30.8481 9.02427 30.7521 8.83227ZM16.1601 8.70427C16.2241 8.54427 16.3521 8.41627 16.4801 8.28827C16.7041 8.12827 16.9921 8.00027 17.2801 7.96827C17.6001 7.90427 17.9521 7.87227 18.2721 7.87227C18.3041 7.87227 18.3681 7.87227 18.4001 7.84027C19.1681 7.90427 19.9041 8.03227 20.6401 8.22427C20.6721 8.25627 20.7041 8.28827 20.7041 8.32027C20.3521 8.89627 19.9041 9.40827 19.3921 9.85627C19.1041 10.0803 18.8161 10.3043 18.4961 10.4323C18.2081 10.5603 17.8881 10.6563 17.5681 10.6563C17.2801 10.6563 16.9921 10.5923 16.7361 10.4323C16.5441 10.3043 16.3521 10.1443 16.2561 9.92027C16.1281 9.69627 16.0641 9.40827 16.0641 9.15227C16.0641 8.99227 16.0961 8.83227 16.1601 8.70427ZM17.3761 5.34427C17.1841 5.15227 17.0561 4.89627 16.9601 4.64027C16.8641 4.35227 16.8961 4.03227 17.0561 3.77627C17.1201 3.64827 17.2481 3.52027 17.3761 3.45627C17.5361 3.39227 17.6961 3.36027 17.8241 3.39227C17.8561 3.39227 17.8881 3.39227 17.9201 3.39227C18.1121 3.39227 18.3041 3.42427 18.4961 3.52027C18.5921 3.58427 18.6561 3.64827 18.7201 3.74427C18.7841 3.87227 18.8801 3.96827 18.9441 4.09627C19.3601 4.89627 19.6801 5.76027 19.8401 6.65627C19.8401 6.68827 19.8721 6.75227 19.8721 6.78427C19.8081 6.75227 19.7121 6.75227 19.6161 6.72027C19.0721 6.52827 18.5601 6.27227 18.0801 5.95227C17.8241 5.76027 17.5681 5.56827 17.3761 5.34427ZM23.2641 22.9763C22.0801 25.1523 20.3201 26.9763 18.1761 28.1923C18.0481 28.2883 17.9201 28.3843 17.7921 28.4803L16.3201 30.0483C16.0321 30.3363 15.5521 30.3683 15.2321 30.0803L15.2001 30.0483C15.0401 29.8883 14.9121 29.7283 14.7521 29.6003H14.7841C15.0401 29.6003 15.2321 29.3763 15.2321 29.1203C15.2321 28.8643 15.0081 28.6723 14.7521 28.6723C14.6881 28.6723 14.6561 28.6723 14.5921 28.6723C14.3041 28.6723 14.0161 28.6403 13.7281 28.6083C13.6321 28.6083 13.5361 28.6083 13.4401 28.6403C10.9761 28.0963 8.70408 26.8483 6.94409 25.0243C5.37608 23.3603 4.32008 21.3123 3.87208 19.0723C3.77608 18.5923 3.45608 18.1763 3.04008 17.9523L2.24008 17.5363C2.14408 17.5043 2.08008 17.4403 2.04808 17.3443C2.01608 17.2803 1.98408 17.1843 1.98408 17.0883C1.98408 16.9283 2.04808 16.7683 2.20808 16.7043L3.55208 15.7763C3.80808 15.6163 4.00008 15.3923 4.12808 15.1043C4.89608 13.5363 5.98408 12.1283 7.29608 11.0083C10.3681 8.35227 13.8561 7.96827 15.3601 7.84027C15.4561 7.84027 15.5521 7.84027 15.6481 7.80827C15.5201 7.96827 15.4241 8.12827 15.3281 8.28827C15.2001 8.54427 15.1361 8.83227 15.1681 9.15227C15.1681 9.56827 15.2641 9.98427 15.4561 10.3363C15.6481 10.7203 15.9361 11.0403 16.3201 11.2323C16.7041 11.4243 17.1201 11.5523 17.5681 11.5523C18.0161 11.5523 18.4641 11.4563 18.8801 11.2643C19.4881 10.9763 20.0321 10.5603 20.4801 10.0803C20.8001 9.76027 21.0881 9.40827 21.3441 9.05627C21.7601 9.53627 22.2081 10.0163 22.6881 10.5283C23.2321 11.0723 23.7441 11.5523 24.2561 12.0003C24.3201 12.4803 24.4161 13.1843 24.4801 13.9843C24.5441 14.8483 24.6081 15.8723 24.6081 16.9283C24.5761 18.8483 24.3201 20.9923 23.2641 22.9763ZM30.0161 9.47227C30.0161 9.50427 30.0161 9.53627 29.9841 9.53627C29.8881 9.60027 29.7921 9.66427 29.6641 9.66427C29.4721 9.69627 29.3121 9.72827 29.1201 9.72827C27.5521 9.79227 26.0481 10.3363 24.8001 11.2643C24.3201 10.8483 23.8401 10.4003 23.3281 9.88827C22.6561 9.21627 22.0161 8.51227 21.4401 7.74427C21.6961 5.88827 21.9201 4.03227 22.1761 2.17627C22.2721 2.14427 22.3361 2.14427 22.4321 2.14427C22.6561 2.14427 22.8481 2.20827 23.0401 2.30427C23.2321 2.40027 23.3921 2.52827 23.5201 2.68827C23.6161 2.81627 23.6801 2.97627 23.7761 3.10427C23.8721 3.29627 24.0001 3.48827 24.1601 3.64827C24.1921 3.68027 24.2241 3.68027 24.2241 3.71227C23.8401 4.19227 23.5201 4.67227 23.2001 5.18427C23.0721 5.40827 23.1361 5.66427 23.3601 5.79227C23.5841 5.92027 23.8401 5.85627 23.9681 5.63227C24.2561 5.15227 24.5761 4.67227 24.9601 4.22427C24.9921 4.19227 24.9921 4.16027 25.0241 4.12827C25.3441 4.19227 25.6641 4.25627 25.9841 4.25627C26.3041 4.25627 26.6241 4.28827 26.9121 4.35227C27.5201 4.54427 28.0001 5.05627 28.0961 5.69627C28.1281 5.85627 28.1281 6.01627 28.1281 6.20827C28.1281 6.30427 28.1281 6.43227 28.1601 6.56027C28.1281 6.56027 28.0961 6.59227 28.0961 6.59227C27.3601 7.10427 26.5921 7.58427 25.8241 8.06427C25.6001 8.19227 25.5361 8.48027 25.6641 8.67227C25.7921 8.86427 26.0801 8.96027 26.2721 8.83227C27.0081 8.38427 27.7121 7.90427 28.4161 7.42427C28.4481 7.48827 28.5121 7.55227 28.5441 7.61627C28.7681 7.93627 29.0561 8.22427 29.3441 8.48027C29.5681 8.70427 29.7921 8.96027 29.9521 9.21627C29.9841 9.31227 29.9841 9.37627 30.0161 9.47227Z" fill="#171718"/>
<path d="M17.5039 13.12C17.1839 13.376 16.8639 13.664 16.5759 13.952C16.0959 13.632 15.5199 13.472 14.9439 13.472C14.8479 13.472 14.7519 13.472 14.6559 13.472C13.9519 13.536 13.3119 13.856 12.7999 14.336C12.5759 14.56 12.3519 14.816 12.2239 15.104C12.0639 15.392 11.9999 15.712 11.9679 16.032V16.064C11.9679 16.512 12.1279 16.96 12.3839 17.312C12.6079 17.632 12.8959 17.952 13.1839 18.24C13.4719 18.528 13.7919 18.784 14.1439 19.04C14.3679 19.2 14.5599 19.392 14.6879 19.616C14.9119 19.936 15.0399 20.288 15.0719 20.672C15.0719 20.768 15.0719 20.832 15.0399 20.928C14.9759 21.184 14.8479 21.44 14.6559 21.6C14.4959 21.76 14.3359 21.856 14.1759 21.984C13.7919 22.208 13.3439 22.336 12.8959 22.336C12.7679 22.336 12.6719 22.336 12.5439 22.304C12.0319 22.208 11.5519 21.984 11.1999 21.632C10.8479 21.28 10.5599 20.832 10.3999 20.352C10.3039 20.096 10.2399 19.84 10.2399 19.552C10.2399 19.168 10.3039 18.752 10.4639 18.4C10.5599 18.176 10.4319 17.888 10.2079 17.824C9.98388 17.728 9.72788 17.856 9.63188 18.08C9.43988 18.56 9.34388 19.072 9.34388 19.584C9.34388 19.936 9.40788 20.32 9.50388 20.672C9.63188 21.088 9.82388 21.472 10.0799 21.792C9.82388 22.08 9.59988 22.336 9.37588 22.656C9.21588 22.848 9.24788 23.136 9.47188 23.296C9.66388 23.456 9.95188 23.424 10.1119 23.2C10.3039 22.944 10.4959 22.72 10.7199 22.464C11.1999 22.88 11.7759 23.136 12.4159 23.232C12.5759 23.264 12.7359 23.264 12.8959 23.264C13.5039 23.264 14.1439 23.104 14.6559 22.784C14.8799 22.656 15.1039 22.464 15.2959 22.272C15.6159 21.952 15.8399 21.568 15.9359 21.152C15.9679 20.992 15.9679 20.864 15.9679 20.704C15.9359 20.16 15.7759 19.616 15.4559 19.168C15.2639 18.848 14.9759 18.56 14.6559 18.336C14.3679 18.144 14.0799 17.92 13.8239 17.664C13.5679 17.408 13.3439 17.152 13.1199 16.864C12.9599 16.64 12.8639 16.384 12.8319 16.128V16.096C12.8319 15.904 12.8959 15.744 12.9599 15.552C13.1199 15.232 13.3439 14.976 13.6319 14.784C13.9519 14.56 14.3039 14.432 14.6559 14.4C14.7199 14.4 14.7839 14.4 14.8479 14.4C15.5519 14.4 16.2239 14.752 16.6079 15.328C16.8639 15.68 16.9919 16.096 16.9599 16.512C16.9599 16.832 16.8959 17.12 16.7999 17.408C16.7039 17.632 16.7999 17.92 17.0239 18.016C17.2479 18.112 17.5359 18.016 17.6319 17.792C17.7919 17.376 17.8879 16.96 17.8879 16.512C17.8879 15.904 17.6959 15.296 17.3759 14.784C17.3119 14.688 17.2479 14.624 17.1839 14.56C17.4399 14.304 17.6959 14.08 17.9839 13.856C18.1759 13.696 18.2399 13.408 18.0799 13.216C17.9839 13.024 17.6959 12.96 17.5039 13.12Z" fill="#171718"/>
</svg>
