<svg width="20" height="20" viewBox="0 0 20 20" fill="none" xmlns="http://www.w3.org/2000/svg">
    <path
        d="M1.99976 9.91667C1.99976 6.18472 1.99976 4.31874 3.15912 3.15937C4.3185 2 6.18447 2 9.91642 2C13.6483 2 15.5143 2 16.6738 3.15937C17.8331 4.31874 17.8331 6.18472 17.8331 9.91667C17.8331 13.6486 17.8331 15.5146 16.6738 16.674C15.5143 17.8333 13.6483 17.8333 9.91642 17.8333C6.18447 17.8333 4.3185 17.8333 3.15912 16.674C1.99976 15.5146 1.99976 13.6486 1.99976 9.91667Z"
        fill="#10B981" stroke="#10B981" stroke-width="1.5" stroke-linejoin="round" />
    <path
        d="M6.89551 10.4026C9.39839 5.73785 12.5149 5.68406 13.7603 6.24026C14.3165 7.48567 14.2627 10.6022 9.59795 13.1051C9.54954 12.827 9.28054 12.0985 8.5913 11.4093C7.90212 10.72 7.17361 10.451 6.89551 10.4026Z"
        stroke="white" stroke-width="0.75" stroke-linecap="round" stroke-linejoin="round" />
    <path
        d="M10.21 13.0099C11.1776 13.452 11.2809 14.2447 11.4149 14.9993C11.4149 14.9993 13.4415 13.6011 12.1452 11.6836"
        stroke="white" stroke-width="0.75" stroke-linecap="round" stroke-linejoin="round" />
    <path d="M6.98941 9.78828C6.54732 8.82067 5.75458 8.71737 5 8.58333C5 8.58333 6.39825 6.55673 8.3157 7.85307"
        stroke="white" stroke-width="0.75" stroke-linecap="round" stroke-linejoin="round" />
    <path
        d="M6.63793 11.4473C6.33862 11.7466 5.82979 12.6146 6.18896 13.6921C7.26648 14.0513 8.13448 13.5425 8.43378 13.2431"
        stroke="white" stroke-width="0.75" stroke-linecap="round" stroke-linejoin="round" />
    <path
        d="M12.1493 8.72459C12.1493 8.24135 11.7576 7.84961 11.2744 7.84961C10.7911 7.84961 10.3994 8.24135 10.3994 8.72459C10.3994 9.20782 10.7911 9.59956 11.2744 9.59956C11.7576 9.59956 12.1493 9.20782 12.1493 8.72459Z"
        stroke="white" stroke-width="0.75" />
</svg>