<svg width="12" height="12" viewBox="0 0 12 12" fill="none" xmlns="http://www.w3.org/2000/svg">
<g id="search-02">
<path id="Vector" d="M7 7L8.25 8.25" stroke="#9CA3AF" stroke-width="1.5" stroke-linejoin="round"/>
<path id="Vector_2" d="M8.21664 9.26259C7.92779 8.97374 7.92779 8.50544 8.21664 8.21664C8.50544 7.92779 8.97374 7.92779 9.26259 8.21664L10.7833 9.73739C11.0722 10.0262 11.0722 10.4945 10.7833 10.7833C10.4945 11.0722 10.0262 11.0722 9.73739 10.7833L8.21664 9.26259Z" stroke="#9CA3AF" stroke-linecap="round"/>
<path id="Vector_3" d="M8 4.5C8 2.56701 6.433 1 4.5 1C2.56701 1 1 2.56701 1 4.5C1 6.433 2.56701 8 4.5 8C6.433 8 8 6.433 8 4.5Z" stroke="#9CA3AF" stroke-linejoin="round"/>
</g>
</svg>
