<svg width="20" height="20" viewBox="0 0 20 20" fill="none" xmlns="http://www.w3.org/2000/svg">
<g id="sidebar-right-01">
<path id="Vector" d="M18.3333 10C18.3333 6.87522 18.3333 5.31283 17.5375 4.21756C17.2805 3.86383 16.9695 3.55276 16.6157 3.29576C15.5205 2.5 13.958 2.5 10.8333 2.5H9.16663C6.04185 2.5 4.47946 2.5 3.38418 3.29576C3.03046 3.55276 2.71938 3.86383 2.46238 4.21756C1.66663 5.31283 1.66663 6.87522 1.66663 10C1.66663 13.1247 1.66663 14.6872 2.46238 15.7824C2.71938 16.1362 3.03046 16.4472 3.38418 16.7042C4.47946 17.5 6.04185 17.5 9.16663 17.5H10.8333C13.958 17.5 15.5205 17.5 16.6157 16.7042C16.9695 16.4472 17.2805 16.1362 17.5375 15.7824C18.3333 14.6872 18.3333 13.1247 18.3333 10Z" stroke="#6B7280" stroke-width="1.25" stroke-linejoin="round"/>
<path id="Vector_2" d="M12.0834 2.91602V17.0827" stroke="#6B7280" stroke-width="1.25" stroke-linejoin="round"/>
<path id="Vector_3" d="M15.8334 5.83398H14.5834" stroke="#6B7280" stroke-width="1.25" stroke-linecap="round" stroke-linejoin="round"/>
<path id="Vector_4" d="M15.8334 9.16602H14.5834" stroke="#6B7280" stroke-width="1.25" stroke-linecap="round" stroke-linejoin="round"/>
<path id="Vector_5" d="M6.66663 8.33398L7.68874 9.21498C8.11844 9.58532 8.33329 9.77057 8.33329 10.0007C8.33329 10.2307 8.11844 10.416 7.68874 10.7863L6.66663 11.6673" stroke="#6B7280" stroke-width="1.25" stroke-linecap="round" stroke-linejoin="round"/>
</g>
</svg>
