<svg width="8" height="8" viewBox="0 0 8 8" fill="none" xmlns="http://www.w3.org/2000/svg">
    <path d="M1 4C2.5 4 4 2.5 4 1C4 2.5 5.5 4 7 4C5.5 4 4 5.5 4 7C4 5.5 2.5 4 1 4Z" stroke="#007DFC"
        stroke-linejoin="round" />
    <path
        d="M0.666748 6.49935C0.944525 6.49935 1.50008 5.94378 1.50008 5.66602C1.50008 5.94378 2.05564 6.49935 2.33341 6.49935C2.05564 6.49935 1.50008 7.05492 1.50008 7.33268C1.50008 7.05492 0.944525 6.49935 0.666748 6.49935Z"
        stroke="#007DFC" stroke-width="0.5" stroke-linejoin="round" />
    <path
        d="M5.33325 1.66602C5.66659 1.66602 6.33325 0.999349 6.33325 0.666016C6.33325 0.999349 6.99992 1.66602 7.33325 1.66602C6.99992 1.66602 6.33325 2.33268 6.33325 2.66602C6.33325 2.33268 5.66659 1.66602 5.33325 1.66602Z"
        stroke="#007DFC" stroke-width="0.5" stroke-linejoin="round" />
</svg>