<svg width="161" height="160" viewBox="0 0 161 160" fill="none" xmlns="http://www.w3.org/2000/svg">
    <rect x="0.5" width="160" height="160" rx="80" fill="#90DFAA" />
    <path
        d="M122.705 129.355H38.2952C37.7598 129.355 37.3503 128.914 37.3503 128.41V31.6226C37.3503 31.0872 37.7913 30.6777 38.2952 30.6777H122.705C123.24 30.6777 123.65 31.1187 123.65 31.6226V128.41C123.65 128.914 123.24 129.355 122.705 129.355Z"
        fill="#CED5E0" />
    <path
        d="M37.3503 34.4557V125.542C37.3503 127.653 39.0511 129.322 41.1299 129.322H108.531V117.983C108.531 115.905 110.232 114.204 112.311 114.204H123.65V34.4557C123.65 32.3455 121.949 30.6762 119.87 30.6762H41.1299C39.0196 30.6447 37.3503 32.3455 37.3503 34.4557Z"
        fill="white" />
    <path d="M108.531 129.354L123.65 114.236H112.311C110.232 114.236 108.531 115.937 108.531 118.016V129.354Z"
        fill="#E6E9EE" />
    <path d="M46.2952 34.8984H41.2244V37.2606H46.2952V34.8984Z" fill="#CED5E0" />
    <path d="M45.3503 25.9219H42.1692V36.0951H45.3503V25.9219Z" fill="#324A5E" />
    <path d="M56.7835 34.8984H51.7126V37.2606H56.7835V34.8984Z" fill="#CED5E0" />
    <path d="M55.8386 25.9219H52.6575V36.0951H55.8386V25.9219Z" fill="#324A5E" />
    <path d="M67.303 34.8984H62.2322V37.2606H67.303V34.8984Z" fill="#CED5E0" />
    <path d="M66.3269 25.9219H63.1458V36.0951H66.3269V25.9219Z" fill="#324A5E" />
    <path d="M77.7913 34.8984H72.7205V37.2606H77.7913V34.8984Z" fill="#CED5E0" />
    <path d="M76.8464 25.9219H73.6653V36.0951H76.8464V25.9219Z" fill="#324A5E" />
    <path d="M88.2796 34.8984H83.2087V37.2606H88.2796V34.8984Z" fill="#CED5E0" />
    <path d="M87.3347 25.9219H84.1536V36.0951H87.3347V25.9219Z" fill="#324A5E" />
    <path d="M98.7991 34.8984H93.7283V37.2606H98.7991V34.8984Z" fill="#CED5E0" />
    <path d="M97.8229 25.9219H94.6418V36.0951H97.8229V25.9219Z" fill="#324A5E" />
    <path d="M109.287 34.8984H104.217V37.2606H109.287V34.8984Z" fill="#CED5E0" />
    <path d="M108.342 25.9219H105.161V36.0951H108.342V25.9219Z" fill="#324A5E" />
    <path d="M119.776 34.8984H114.705V37.2606H119.776V34.8984Z" fill="#CED5E0" />
    <path d="M118.831 25.9219H115.65V36.0951H118.831V25.9219Z" fill="#324A5E" />
    <path
        d="M56.2481 67.5275H46.4528C45.1614 67.5275 44.0906 66.4566 44.0906 65.1653V55.37C44.0906 54.0787 45.1614 53.0078 46.4528 53.0078H56.2481C57.5394 53.0078 58.6103 54.0787 58.6103 55.37V65.1968C58.5788 66.4881 57.5394 67.5275 56.2481 67.5275ZM46.6103 65.0393H56.1221V55.5275H46.6103V65.0393Z"
        fill="#E6E9EE" />
    <path
        d="M56.2481 90.9298H46.4528C45.1614 90.9298 44.0906 89.859 44.0906 88.5676V78.7724C44.0906 77.481 45.1614 76.4102 46.4528 76.4102H56.2481C57.5394 76.4102 58.6103 77.481 58.6103 78.7724V88.5676C58.5788 89.859 57.5394 90.9298 56.2481 90.9298ZM46.6103 88.4102H56.1221V78.8983H46.6103V88.4102Z"
        fill="#E6E9EE" />
    <path
        d="M56.2481 114.299H46.4528C45.1614 114.299 44.0906 113.228 44.0906 111.937V102.142C44.0906 100.85 45.1614 99.7793 46.4528 99.7793H56.2481C57.5394 99.7793 58.6103 100.85 58.6103 102.142V111.937C58.5788 113.228 57.5394 114.299 56.2481 114.299ZM46.6103 111.811H56.1221V102.299H46.6103V111.811Z"
        fill="#E6E9EE" />
    <path
        d="M50.7362 62.4567C50.9567 62.7402 51.2716 62.9292 51.6496 62.9607C51.6811 62.9607 51.7126 62.9607 51.7441 62.9607C52.0905 62.9607 52.4055 62.8347 52.626 62.5827L65.5709 49.6378C66.0748 49.1339 66.0748 48.3465 65.5709 47.874C65.0669 47.3701 64.2795 47.3701 63.8071 47.874L51.8701 59.8111L50.1063 57.3859C49.6968 56.8189 48.9094 56.6929 48.374 57.1024C47.8071 57.5118 47.7126 58.2992 48.0905 58.8347L50.7362 62.4567Z"
        fill="#FF7058" />
    <path
        d="M63.8071 71.2451L51.8701 83.1821L50.1063 80.7569C49.6968 80.19 48.9094 80.064 48.374 80.4734C47.8071 80.8829 47.7126 81.6703 48.0905 82.2057L50.7362 85.7963C50.9567 86.0797 51.2716 86.2687 51.6496 86.3002C51.6811 86.3002 51.7126 86.3002 51.7441 86.3002C52.0905 86.3002 52.4055 86.1742 52.626 85.9222L65.5709 72.9774C66.0748 72.4734 66.0748 71.686 65.5709 71.2136C65.0984 70.7726 64.311 70.7726 63.8071 71.2451Z"
        fill="#FF7058" />
    <path
        d="M63.8071 94.6457L51.8701 106.583L50.1063 104.157C49.6968 103.591 48.9094 103.465 48.374 103.874C47.8071 104.283 47.7126 105.071 48.0905 105.606L50.7362 109.197C50.9567 109.48 51.2716 109.669 51.6496 109.701C51.6811 109.701 51.7126 109.701 51.7441 109.701C52.0905 109.701 52.4055 109.575 52.626 109.323L65.5709 96.3779C66.0748 95.874 66.0748 95.0866 65.5709 94.6142C65.0984 94.1417 64.311 94.1417 63.8071 94.6457Z"
        fill="#FF7058" />
    <path d="M105.539 55.2441H68.7205V58.1103H105.539V55.2441Z" fill="#84DBFF" />
    <path d="M90.9567 62.4883H68.7205V65.3544H90.9567V62.4883Z" fill="#84DBFF" />
    <path d="M105.539 78.6133H68.7205V81.4794H105.539V78.6133Z" fill="#84DBFF" />
    <path d="M90.9567 85.8574H68.7205V88.7236H90.9567V85.8574Z" fill="#84DBFF" />
    <path d="M105.539 101.984H68.7205V104.851H105.539V101.984Z" fill="#84DBFF" />
    <path d="M90.9567 109.229H68.7205V112.095H90.9567V109.229Z" fill="#84DBFF" />
</svg>