<svg width="20" height="20" viewBox="0 0 20 20" fill="none" xmlns="http://www.w3.org/2000/svg">
    <path
        d="M1.99976 9.91667C1.99976 6.18472 1.99976 4.31874 3.15912 3.15937C4.3185 2 6.18447 2 9.91642 2C13.6483 2 15.5143 2 16.6738 3.15937C17.8331 4.31874 17.8331 6.18472 17.8331 9.91667C17.8331 13.6486 17.8331 15.5146 16.6738 16.674C15.5143 17.8333 13.6483 17.8333 9.91642 17.8333C6.18447 17.8333 4.3185 17.8333 3.15912 16.674C1.99976 15.5146 1.99976 13.6486 1.99976 9.91667Z"
        fill="#EF4444" stroke="#EF4444" stroke-width="1.5" stroke-linejoin="round" />
    <path
        d="M10.691 6.57767L11.395 7.99715C11.491 8.19475 11.747 8.38428 11.9629 8.42056L13.2388 8.63432C14.0547 8.77144 14.2466 9.36824 13.6587 9.95696L12.6668 10.9571C12.4989 11.1265 12.4069 11.4531 12.4589 11.687L12.7428 12.925C12.9668 13.905 12.4509 14.284 11.591 13.7718L10.3951 13.0581C10.1791 12.929 9.82312 12.929 9.6032 13.0581L8.4073 13.7718C7.5514 14.284 7.03146 13.9009 7.25543 12.925L7.5394 11.687C7.5914 11.4531 7.49941 11.1265 7.33142 10.9571L6.33954 9.95696C5.7556 9.36824 5.94358 8.77144 6.75949 8.63432L8.03535 8.42056C8.24733 8.38428 8.5033 8.19475 8.59929 7.99715L9.3032 6.57767C9.6872 5.80744 10.3111 5.80744 10.691 6.57767Z"
        stroke="white" stroke-width="1.5" stroke-linecap="round" stroke-linejoin="round" />
    <path d="M13 16H17" stroke="white" stroke-linecap="round" />
    <path d="M15 14L15 18" stroke="white" stroke-linecap="round" />
</svg>