<svg width="20" height="20" viewBox="0 0 20 20" fill="none" xmlns="http://www.w3.org/2000/svg">
<g id="translate">
<path id="Vector" d="M4.16663 4.85567H6.41663M6.41663 4.85567H7.91663M6.41663 4.85567V4.16602M9.16663 4.85567H7.91663M7.91663 4.85567C7.65288 5.79882 7.10058 6.69037 6.4702 7.4739M6.4702 7.4739C5.94819 8.1227 5.37265 8.69743 4.86305 9.16602M6.4702 7.4739C6.14877 7.09705 5.69877 6.48733 5.5702 6.21147M6.4702 7.4739L7.43448 8.47635" stroke="#6B7280" stroke-width="1.25" stroke-linecap="round" stroke-linejoin="round"/>
<path id="Vector_2" d="M11.25 15.834L11.9444 14.1673M11.9444 14.1673L13.3333 10.834L14.7223 14.1673M11.9444 14.1673H14.7223M15.4167 15.834L14.7223 14.1673" stroke="#6B7280" stroke-width="1.25" stroke-linecap="round" stroke-linejoin="round"/>
<path id="Vector_3" d="M11.6666 8.33268V6.66602C11.6666 4.30899 11.6666 3.13048 10.9344 2.39825C10.2021 1.66602 9.02363 1.66602 6.66663 1.66602C4.3096 1.66602 3.13109 1.66602 2.39886 2.39825C1.66663 3.13048 1.66663 4.30899 1.66663 6.66602C1.66663 9.02302 1.66663 10.2015 2.39886 10.9338C3.13109 11.666 4.3096 11.666 6.66663 11.666H8.33329" stroke="#6B7280" stroke-width="1.25" stroke-linecap="round"/>
<path id="Vector_4" d="M8.33337 13.334C8.33337 10.977 8.33337 9.79848 9.06562 9.06623C9.79787 8.33398 10.9764 8.33398 13.3334 8.33398C15.6904 8.33398 16.8689 8.33398 17.6011 9.06623C18.3334 9.79848 18.3334 10.977 18.3334 13.334C18.3334 15.691 18.3334 16.8695 17.6011 17.6017C16.8689 18.334 15.6904 18.334 13.3334 18.334C10.9764 18.334 9.79787 18.334 9.06562 17.6017C8.33337 16.8695 8.33337 15.691 8.33337 13.334Z" stroke="#6B7280" stroke-width="1.25"/>
<path id="Vector_5" d="M3.33337 13.75C3.33337 14.9204 3.33337 15.5056 3.61426 15.9259C3.73586 16.1079 3.89211 16.2642 4.07409 16.3858C4.49447 16.6667 5.07966 16.6667 6.25004 16.6667" stroke="#6B7280" stroke-width="1.25" stroke-linecap="round" stroke-linejoin="round"/>
<path id="Vector_6" d="M16.6667 6.25065C16.6667 5.08027 16.6667 4.49508 16.3858 4.0747C16.2642 3.89272 16.1079 3.73647 15.9259 3.61487C15.5056 3.33398 14.9204 3.33398 13.75 3.33398" stroke="#6B7280" stroke-width="1.25" stroke-linecap="round" stroke-linejoin="round"/>
</g>
</svg>
