<svg width="16" height="16" viewBox="0 0 16 16" fill="none" xmlns="http://www.w3.org/2000/svg">
    <path d="M9.3335 6H12.0002" stroke="#344054" stroke-width="1.5" stroke-linecap="round" />
    <path d="M9.3335 8.3335H11.3335" stroke="#344054" stroke-width="1.5" stroke-linecap="round" />
    <path
        d="M11.3335 2H4.66683C2.82588 2 1.3335 3.49238 1.3335 5.33333V10.6667C1.3335 12.5076 2.82588 14 4.66683 14H11.3335C13.1744 14 14.6668 12.5076 14.6668 10.6667V5.33333C14.6668 3.49238 13.1744 2 11.3335 2Z"
        stroke="#344054" stroke-width="1.5" stroke-linejoin="round" />
    <path d="M3.3335 10.6668C4.13904 8.9461 7.14163 8.8329 8.00016 10.6668" stroke="#344054" stroke-width="1.5"
        stroke-linecap="round" stroke-linejoin="round" />
    <path
        d="M7.00016 5.99984C7.00016 6.73618 6.40321 7.33318 5.66683 7.33318C4.93045 7.33318 4.3335 6.73618 4.3335 5.99984C4.3335 5.26346 4.93045 4.6665 5.66683 4.6665C6.40321 4.6665 7.00016 5.26346 7.00016 5.99984Z"
        stroke="#344054" stroke-width="1.5" />
</svg>