<svg width="29" height="28" viewBox="0 0 29 28" fill="none" xmlns="http://www.w3.org/2000/svg">
<g id="user">
<path id="Vector" d="M5.67384 16.0625C4.02327 17.0453 -0.30441 19.0521 2.33144 21.5634C3.61903 22.79 5.05308 23.6673 6.85602 23.6673H17.144C18.9469 23.6673 20.381 22.79 21.6685 21.5634C24.3044 19.0521 19.9767 17.0453 18.3261 16.0625C14.4556 13.7578 9.54439 13.7578 5.67384 16.0625Z" fill="#9CA3AF" stroke="#9CA3AF" stroke-linecap="round" stroke-linejoin="round"/>
<path id="Vector_2" d="M17.25 7.58398C17.25 10.4835 14.8995 12.834 12 12.834C9.10051 12.834 6.75 10.4835 6.75 7.58398C6.75 4.68449 9.10051 2.33398 12 2.33398C14.8995 2.33398 17.25 4.68449 17.25 7.58398Z" fill="#9CA3AF" stroke="#9CA3AF"/>
<path id="Vector_3" d="M22.75 10.25C22.75 13.1495 20.3995 15.5 17.5 15.5C14.6005 15.5 12.25 13.1495 12.25 10.25C12.25 7.35051 14.6005 5 17.5 5C20.3995 5 22.75 7.35051 22.75 10.25Z" fill="#9CA3AF" stroke="white"/>
<path id="Vector_4" d="M11.1738 18.7286C9.52327 19.7114 5.19559 21.7181 7.83144 24.2294C9.11903 25.456 10.5531 26.3334 12.356 26.3334H22.644C24.4469 26.3334 25.881 25.456 27.1685 24.2294C29.8044 21.7181 25.4767 19.7114 23.8261 18.7286C19.9556 16.4238 15.0444 16.4238 11.1738 18.7286Z" fill="#9CA3AF" stroke="white" stroke-linecap="round" stroke-linejoin="round"/>
</g>
</svg>
