<svg width="16" height="16" viewBox="0 0 16 16" fill="none" xmlns="http://www.w3.org/2000/svg">
    <g clip-path="url(#clip0_1114_695)">
        <path
            d="M10.6665 14V12.6667C10.6665 11.9594 10.3856 11.2811 9.88545 10.781C9.38536 10.281 8.70708 10 7.99984 10H3.33317C2.62593 10 1.94765 10.281 1.44755 10.781C0.947456 11.2811 0.666504 11.9594 0.666504 12.6667V14M13.3332 5.33333V9.33333M15.3332 7.33333H11.3332M8.33317 4.66667C8.33317 6.13943 7.13926 7.33333 5.6665 7.33333C4.19374 7.33333 2.99984 6.13943 2.99984 4.66667C2.99984 3.19391 4.19374 2 5.6665 2C7.13926 2 8.33317 3.19391 8.33317 4.66667Z"
            stroke="#374151" stroke-width="1.5" stroke-linecap="round" stroke-linejoin="round" />
    </g>
    <defs>
        <clipPath id="clip0_1114_695">
            <rect width="16" height="16" fill="white" />
        </clipPath>
    </defs>
</svg>