<svg preserveAspectRatio="xMidYMid meet" viewBox="0 0 32 32" fill="none" xmlns="http://www.w3.org/2000/svg">
<path d="M26.4857 26.5H26.5M26.4857 26.5C25.5517 27.4263 23.859 27.1955 22.6719 27.1955C21.2148 27.1955 20.5131 27.4806 19.4731 28.5205C18.5877 29.4061 17.4006 31 16 31C14.5994 31 13.4124 29.4061 12.5269 28.5205C11.4869 27.4806 10.7852 27.1955 9.32809 27.1955C8.14102 27.1955 6.44827 27.4263 5.51424 26.5C4.57272 25.5664 4.80442 23.8666 4.80442 22.6719C4.80442 21.1621 4.47424 20.4679 3.39907 19.3927C1.79971 17.7934 1.00003 16.9936 1 16C1.00001 15.0062 1.79968 14.2066 3.39902 12.6073C4.3588 11.6475 4.80442 10.6964 4.80442 9.32809C4.80442 8.14098 4.57373 6.44821 5.5 5.51416C6.43365 4.57267 8.1334 4.80439 9.32812 4.80439C10.6964 4.80439 11.6475 4.3588 12.6072 3.39906C14.2066 1.79968 15.0062 1 16 1C16.9938 1 17.7934 1.79968 19.3927 3.39906C20.3522 4.3586 21.3033 4.80439 22.6719 4.80439C23.859 4.80439 25.5519 4.57371 26.4859 5.5C27.4273 6.43365 27.1955 8.13339 27.1955 9.32809C27.1955 10.8379 27.5259 11.5321 28.6009 12.6073C30.2004 14.2066 31 15.0062 31 16C31 16.9936 30.2004 17.7934 28.6009 19.3927C27.5257 20.4679 27.1955 21.1621 27.1955 22.6719C27.1955 23.8666 27.4273 25.5664 26.4857 26.5Z" stroke="url(#paint0_linear_1_263)" stroke-width="1.5"/>
<path d="M11.5002 17.3394C11.5002 17.3394 13.3002 18.3171 14.2002 19.75C14.2002 19.75 16.9002 14.125 20.5002 12.25" stroke="url(#paint1_linear_1_263)" stroke-width="1.5" stroke-linecap="round" stroke-linejoin="round"/>
<defs>
<linearGradient id="paint0_linear_1_263" x1="1" y1="16" x2="31" y2="16" gradientUnits="userSpaceOnUse">
<stop stop-color="#198BD8"/>
<stop offset="1" stop-color="#F03DCE"/>
</linearGradient>
<linearGradient id="paint1_linear_1_263" x1="11.5002" y1="16" x2="20.5002" y2="16" gradientUnits="userSpaceOnUse">
<stop stop-color="#198BD8"/>
<stop offset="1" stop-color="#F03DCE"/>
</linearGradient>
</defs>
</svg>
