<svg width="20" height="20" viewBox="0 0 20 20" fill="none" xmlns="http://www.w3.org/2000/svg">
<g id="video-01">
<path id="Vector" d="M1.66675 9.16732C1.66675 6.41746 1.66675 5.04253 2.52102 4.18826C3.37529 3.33398 4.75022 3.33398 7.50008 3.33398H8.33341C11.0832 3.33398 12.4582 3.33398 13.3125 4.18826C14.1667 5.04253 14.1667 6.41746 14.1667 9.16732V10.834C14.1667 13.5838 14.1667 14.9587 13.3125 15.8131C12.4582 16.6673 11.0832 16.6673 8.33341 16.6673H7.50008C4.75022 16.6673 3.37529 16.6673 2.52102 15.8131C1.66675 14.9587 1.66675 13.5838 1.66675 10.834V9.16732Z" stroke="#6B7280" stroke-width="1.25"/>
<path id="Vector_2" d="M14.1666 7.42089L14.2715 7.33432C16.0347 5.87954 16.9163 5.15215 17.6248 5.50337C18.3333 5.85458 18.3333 7.01898 18.3333 9.34777V10.6509C18.3333 12.9798 18.3333 14.1441 17.6248 14.4954C16.9163 14.8465 16.0347 14.1192 14.2715 12.6644L14.1666 12.5778" stroke="#6B7280" stroke-width="1.25" stroke-linecap="round"/>
<path id="Vector_3" d="M9.58337 9.16602C10.2737 9.16602 10.8334 8.60637 10.8334 7.91602C10.8334 7.22566 10.2737 6.66602 9.58337 6.66602C8.89302 6.66602 8.33337 7.22566 8.33337 7.91602C8.33337 8.60637 8.89302 9.16602 9.58337 9.16602Z" stroke="#6B7280" stroke-width="1.25"/>
</g>
</svg>
