<svg width="18" height="18" viewBox="0 0 18 18" fill="none" xmlns="http://www.w3.org/2000/svg">
    <g id="flag-03">
        <path id="Vector"
            d="M11.9089 2.25H7.71202C5.49074 2.25 4.38011 2.25 3.69005 2.90901C3 3.56802 3 4.62868 3 6.75L3.07964 11.25H11.9089C13.5762 11.25 14.4098 11.25 14.7635 10.8191C14.8614 10.6999 14.9331 10.5631 14.9742 10.4167C15.1229 9.888 14.6227 9.2511 13.6223 7.9773C13.2062 7.44739 12.9982 7.18244 12.961 6.88133C12.9503 6.79408 12.9503 6.70592 12.961 6.61867C12.9982 6.31756 13.2062 6.05261 13.6223 5.52273C14.6227 4.24891 15.1229 3.612 14.9742 3.08324C14.9331 2.93693 14.8614 2.80007 14.7635 2.68085C14.4098 2.25 13.5762 2.25 11.9089 2.25Z"
            stroke="#F59E0B" stroke-width="1.5" stroke-linecap="round" stroke-linejoin="round" />
        <path id="Vector_2" d="M3 15.75V6" stroke="#F59E0B" stroke-width="1.5" stroke-linecap="round" />
    </g>
</svg>