<svg width="16" height="16" viewBox="0 0 16 16" fill="none" xmlns="http://www.w3.org/2000/svg">
    <g clip-path="url(#clip0_1114_662)">
        <path
            d="M5.6665 8C6.21879 8 6.6665 7.55228 6.6665 7C6.6665 6.44772 6.21879 6 5.6665 6C5.11422 6 4.6665 6.44772 4.6665 7C4.6665 7.55228 5.11422 8 5.6665 8Z"
            stroke="#344054" stroke-width="1.5" />
        <path
            d="M9.6665 11.3335C10.2188 11.3335 10.6665 10.8858 10.6665 10.3335C10.6665 9.78121 10.2188 9.3335 9.6665 9.3335C9.11422 9.3335 8.6665 9.78121 8.6665 10.3335C8.6665 10.8858 9.11422 11.3335 9.6665 11.3335Z"
            stroke="#344054" stroke-width="1.5" />
        <path
            d="M12.3335 6C12.8858 6 13.3335 5.55228 13.3335 5C13.3335 4.44772 12.8858 4 12.3335 4C11.7812 4 11.3335 4.44772 11.3335 5C11.3335 5.55228 11.7812 6 12.3335 6Z"
            stroke="#344054" stroke-width="1.5" />
        <path d="M10.2894 9.53087L12 6M6.38834 7.71227L8.80253 9.53087M2 12.6667L5.05971 7.91947" stroke="#344054"
            stroke-width="1.5" stroke-linecap="round" stroke-linejoin="round" />
        <path
            d="M13.3335 14H6.00016C3.80028 14 2.70033 14 2.01692 13.3166C1.3335 12.6331 1.3335 11.5332 1.3335 9.33333V2"
            stroke="#344054" stroke-width="1.5" stroke-linecap="round" />
    </g>
    <defs>
        <clipPath id="clip0_1114_662">
            <rect width="16" height="16" fill="white" />
        </clipPath>
    </defs>
</svg>