<svg width="40" height="40" viewBox="0 0 40 40" fill="none" xmlns="http://www.w3.org/2000/svg">
<rect x="0.5" y="0.5" width="39" height="39" rx="19.5" fill="#BCCBEA"/>
<rect x="0.5" y="0.5" width="39" height="39" rx="19.5" stroke="#158DD8"/>
<path d="M11.667 19.1654C11.667 16.4155 11.667 15.0406 12.5213 14.1863C13.3755 13.332 14.7505 13.332 17.5003 13.332H18.3337C21.0835 13.332 22.4584 13.332 23.3127 14.1863C24.167 15.0406 24.167 16.4155 24.167 19.1654V20.832C24.167 23.5819 24.167 24.9568 23.3127 25.8111C22.4584 26.6654 21.0835 26.6654 18.3337 26.6654H17.5003C14.7505 26.6654 13.3755 26.6654 12.5213 25.8111C11.667 24.9568 11.667 23.5819 11.667 20.832V19.1654Z" fill="#158DD8" stroke="#158DD8" stroke-width="1.25"/>
<path d="M24.167 17.4228L24.2719 17.3363C26.0351 15.8815 26.9167 15.1541 27.6252 15.5053C28.3337 15.8565 28.3337 17.0209 28.3337 19.3497V20.6529C28.3337 22.9817 28.3337 24.1461 27.6252 24.4973C26.9167 24.8485 26.0351 24.1211 24.2719 22.6663L24.167 22.5797V17.4228Z" fill="#158DD8" stroke="#158DD8" stroke-width="1.25" stroke-linecap="round"/>
<path d="M19.583 19.168C20.2734 19.168 20.833 18.6083 20.833 17.918C20.833 17.2276 20.2734 16.668 19.583 16.668C18.8927 16.668 18.333 17.2276 18.333 17.918C18.333 18.6083 18.8927 19.168 19.583 19.168Z" stroke="#BCCBEA" stroke-width="1.25"/>
</svg>
