<svg width="40" height="40" viewBox="0 0 40 40" fill="none" xmlns="http://www.w3.org/2000/svg">
<rect x="0.5" y="0.5" width="39" height="39" rx="19.5" fill="white"/>
<rect x="0.5" y="0.5" width="39" height="39" rx="19.5" stroke="#E5E7EB"/>
<path d="M14.167 14.8576H16.417M16.417 14.8576H17.917M16.417 14.8576V14.168M19.167 14.8576H17.917M17.917 14.8576C17.6533 15.8008 17.101 16.6923 16.4706 17.4759M16.4706 17.4759C15.9486 18.1247 15.373 18.6994 14.8634 19.168M16.4706 17.4759C16.1491 17.099 15.6991 16.4893 15.5706 16.2134M16.4706 17.4759L17.4349 18.4783" stroke="#6B7280" stroke-width="1.25" stroke-linecap="round" stroke-linejoin="round"/>
<path d="M21.25 25.832L21.9444 24.1654M21.9444 24.1654L23.3333 20.832L24.7223 24.1654M21.9444 24.1654H24.7223M25.4167 25.832L24.7223 24.1654" stroke="#6B7280" stroke-width="1.25" stroke-linecap="round" stroke-linejoin="round"/>
<path d="M21.667 18.3346V16.668C21.667 14.3109 21.667 13.1324 20.9347 12.4002C20.2025 11.668 19.024 11.668 16.667 11.668C14.31 11.668 13.1315 11.668 12.3992 12.4002C11.667 13.1324 11.667 14.3109 11.667 16.668C11.667 19.025 11.667 20.2035 12.3992 20.9357C13.1315 21.668 14.31 21.668 16.667 21.668H18.3337" stroke="#6B7280" stroke-width="1.25" stroke-linecap="round"/>
<path d="M18.333 23.332C18.333 20.975 18.333 19.7965 19.0653 19.0643C19.7975 18.332 20.976 18.332 23.333 18.332C25.69 18.332 26.8685 18.332 27.6008 19.0643C28.333 19.7965 28.333 20.975 28.333 23.332C28.333 25.689 28.333 26.8675 27.6008 27.5998C26.8685 28.332 25.69 28.332 23.333 28.332C20.976 28.332 19.7975 28.332 19.0653 27.5998C18.333 26.8675 18.333 25.689 18.333 23.332Z" stroke="#6B7280" stroke-width="1.25"/>
<path d="M13.333 23.75C13.333 24.9204 13.333 25.5056 13.6139 25.9259C13.7355 26.1079 13.8917 26.2642 14.0737 26.3858C14.4941 26.6667 15.0793 26.6667 16.2497 26.6667" stroke="#6B7280" stroke-width="1.25" stroke-linecap="round" stroke-linejoin="round"/>
<path d="M26.6667 16.2487C26.6667 15.0783 26.6667 14.4931 26.3858 14.0727C26.2642 13.8908 26.1079 13.7345 25.9259 13.6129C25.5056 13.332 24.9204 13.332 23.75 13.332" stroke="#6B7280" stroke-width="1.25" stroke-linecap="round" stroke-linejoin="round"/>
</svg>
