<svg width="24" height="25" viewBox="0 0 24 25" fill="none" xmlns="http://www.w3.org/2000/svg">
<path d="M5.75008 3.50008C4.24019 3.50008 3.00008 4.74019 3.00008 6.25007V9.25007C2.99867 9.34946 3.01703 9.44813 3.05409 9.54036C3.09115 9.63258 3.14617 9.71652 3.21596 9.7873C3.28574 9.85808 3.36889 9.91428 3.46059 9.95264C3.55228 9.991 3.65068 10.0108 3.75008 10.0108C3.84947 10.0108 3.94787 9.991 4.03957 9.95264C4.13126 9.91428 4.21441 9.85808 4.2842 9.7873C4.35398 9.71652 4.409 9.63258 4.44606 9.54036C4.48312 9.44813 4.50148 9.34946 4.50008 9.25007V6.25007C4.50008 5.55096 5.05096 5.00007 5.75008 5.00007H8.75008C8.84946 5.00148 8.94813 4.98312 9.04036 4.94606C9.13259 4.909 9.21653 4.85398 9.2873 4.78419C9.35808 4.71441 9.41428 4.63126 9.45265 4.53956C9.49101 4.44787 9.51076 4.34947 9.51076 4.25007C9.51076 4.15068 9.49101 4.05228 9.45265 3.96059C9.41428 3.86889 9.35808 3.78574 9.2873 3.71595C9.21653 3.64617 9.13259 3.59115 9.04036 3.55409C8.94813 3.51703 8.84946 3.49867 8.75008 3.50008H5.75008ZM15.2501 3.50008C15.1507 3.49867 15.052 3.51703 14.9598 3.55409C14.8676 3.59115 14.7836 3.64617 14.7129 3.71595C14.6421 3.78574 14.5859 3.86889 14.5475 3.96059C14.5092 4.05228 14.4894 4.15068 14.4894 4.25007C14.4894 4.34947 14.5092 4.44787 14.5475 4.53956C14.5859 4.63126 14.6421 4.71441 14.7129 4.78419C14.7836 4.85398 14.8676 4.909 14.9598 4.94606C15.052 4.98312 15.1507 5.00148 15.2501 5.00007H18.2501C18.9492 5.00007 19.5001 5.55096 19.5001 6.25007V9.25007C19.4987 9.34946 19.517 9.44813 19.5541 9.54036C19.5912 9.63258 19.6462 9.71652 19.716 9.7873C19.7857 9.85808 19.8689 9.91428 19.9606 9.95264C20.0523 9.991 20.1507 10.0108 20.2501 10.0108C20.3495 10.0108 20.4479 9.991 20.5396 9.95264C20.6313 9.91428 20.7144 9.85808 20.7842 9.7873C20.854 9.71652 20.909 9.63258 20.9461 9.54036C20.9831 9.44813 21.0015 9.34946 21.0001 9.25007V6.25007C21.0001 4.74019 19.76 3.50008 18.2501 3.50008H15.2501ZM3.73836 14.9893C3.53962 14.9924 3.35023 15.0743 3.21181 15.2169C3.07338 15.3596 2.99723 15.5513 3.00008 15.7501V18.7501C3.00008 20.26 4.24019 21.5001 5.75008 21.5001H8.75008C8.84946 21.5015 8.94813 21.4831 9.04036 21.4461C9.13259 21.409 9.21653 21.354 9.2873 21.2842C9.35808 21.2144 9.41428 21.1313 9.45265 21.0396C9.49101 20.9479 9.51076 20.8495 9.51076 20.7501C9.51076 20.6507 9.49101 20.5523 9.45265 20.4606C9.41428 20.3689 9.35808 20.2857 9.2873 20.216C9.21653 20.1462 9.13259 20.0911 9.04036 20.0541C8.94813 20.017 8.84946 19.9987 8.75008 20.0001H5.75008C5.05096 20.0001 4.50008 19.4492 4.50008 18.7501V15.7501C4.50152 15.6497 4.48279 15.55 4.44501 15.457C4.40723 15.364 4.35116 15.2795 4.28012 15.2086C4.20909 15.1376 4.12454 15.0817 4.03147 15.044C3.93841 15.0064 3.83874 14.9878 3.73836 14.9893ZM20.2384 14.9893C20.0396 14.9924 19.8502 15.0743 19.7118 15.2169C19.5734 15.3596 19.4972 15.5513 19.5001 15.7501V18.7501C19.5001 19.4492 18.9492 20.0001 18.2501 20.0001H15.2501C15.1507 19.9987 15.052 20.017 14.9598 20.0541C14.8676 20.0911 14.7836 20.1462 14.7129 20.216C14.6421 20.2857 14.5859 20.3689 14.5475 20.4606C14.5092 20.5523 14.4894 20.6507 14.4894 20.7501C14.4894 20.8495 14.5092 20.9479 14.5475 21.0396C14.5859 21.1313 14.6421 21.2144 14.7129 21.2842C14.7836 21.354 14.8676 21.409 14.9598 21.4461C15.052 21.4831 15.1507 21.5015 15.2501 21.5001H18.2501C19.76 21.5001 21.0001 20.26 21.0001 18.7501V15.7501C21.0015 15.6497 20.9828 15.55 20.945 15.457C20.9072 15.364 20.8512 15.2795 20.7801 15.2086C20.7091 15.1376 20.6245 15.0817 20.5315 15.044C20.4384 15.0064 20.3387 14.9878 20.2384 14.9893Z" fill="#BFD7F2"/>
</svg>
