<svg width="41" height="40" viewBox="0 0 41 40" fill="none" xmlns="http://www.w3.org/2000/svg">
<rect x="1" y="0.5" width="39" height="39" rx="19.5" fill="#DED0EF"/>
<rect x="1" y="0.5" width="39" height="39" rx="19.5" stroke="#F73ACD"/>
<path d="M22.5 14.168C22.5 12.7873 21.3807 11.668 20 11.668C18.6193 11.668 17.5 12.7873 17.5 14.168V19.168C17.5 20.5487 18.6193 21.668 20 21.668C21.3807 21.668 22.5 20.5487 22.5 19.168V14.168Z" stroke="#F73ACD" stroke-width="1.5"/>
<path d="M14.167 18.3359V19.1693C14.167 20.7164 14.7816 22.2001 15.8755 23.2941C16.9695 24.388 18.4532 25.0026 20.0003 25.0026M20.0003 25.0026C21.5474 25.0026 23.0312 24.388 24.1251 23.2941C25.2191 22.2001 25.8337 20.7164 25.8337 19.1693V18.3359M20.0003 25.0026V28.3359M20.0003 28.3359H17.5003M20.0003 28.3359H22.5003" stroke="#F73ACD" stroke-width="1.5" stroke-linecap="round" stroke-linejoin="round"/>
<path d="M12 28L28 12" stroke="#F73ACD" stroke-width="1.25" stroke-linecap="round"/>
</svg>
