<svg width="41" height="40" viewBox="0 0 41 40" fill="none" xmlns="http://www.w3.org/2000/svg">
<rect x="1" y="0.5" width="39" height="39" rx="19.5" fill="#BCCBEA"/>
<rect x="1" y="0.5" width="39" height="39" rx="19.5" stroke="#158DD8"/>
<path d="M20.5 11.668C21.8807 11.668 23 12.7873 23 14.168V19.168C23 20.5487 21.8807 21.668 20.5 21.668C19.1193 21.668 18 20.5487 18 19.168V14.168C18 12.7873 19.1193 11.668 20.5 11.668Z" fill="#158DD8" stroke="#158DD8" stroke-width="1.5"/>
<path d="M14.667 18.3359V19.1693C14.667 20.7164 15.2816 22.2001 16.3755 23.2941C17.4695 24.388 18.9532 25.0026 20.5003 25.0026M20.5003 25.0026C22.0474 25.0026 23.5312 24.388 24.6251 23.2941C25.7191 22.2001 26.3337 20.7164 26.3337 19.1693V18.3359M20.5003 25.0026V28.3359M20.5003 28.3359H18.0003M20.5003 28.3359H23.0003" stroke="#158DD8" stroke-width="1.5" stroke-linecap="round" stroke-linejoin="round"/>
</svg>
