<svg width="40" height="40" viewBox="0 0 40 40" fill="none" xmlns="http://www.w3.org/2000/svg">
<rect x="0.5" y="0.5" width="39" height="39" rx="19.5" fill="#BCCBEA"/>
<rect x="0.5" y="0.5" width="39" height="39" rx="19.5" stroke="#6B7EA2"/>
<path d="M20.0003 25.418C22.992 25.418 25.417 22.993 25.417 20.0013C25.417 17.0096 22.992 14.5846 20.0003 14.5846C17.0087 14.5846 14.5837 17.0096 14.5837 20.0013C14.5837 22.993 17.0087 25.418 20.0003 25.418ZM20.0003 11.668C15.3978 11.668 11.667 15.3988 11.667 20.0013C11.667 24.6038 15.3978 28.3346 20.0003 28.3346C24.6028 28.3346 28.3337 24.6038 28.3337 20.0013C28.3337 15.3988 24.6028 11.668 20.0003 11.668ZM12.7087 20.0013C12.7087 15.9742 15.9732 12.7096 20.0003 12.7096C24.0274 12.7096 27.292 15.9742 27.292 20.0013C27.292 24.0284 24.0274 27.293 20.0003 27.293C15.9732 27.293 12.7087 24.0284 12.7087 20.0013Z" fill="#EF4444"/>
</svg>
