<svg width="40" height="40" viewBox="0 0 40 40" fill="none" xmlns="http://www.w3.org/2000/svg">
<rect x="0.5" y="0.5" width="39" height="39" rx="19.5" fill="white"/>
<rect x="0.5" y="0.5" width="39" height="39" rx="19.5" stroke="#E5E7EB"/>
<g clip-path="url(#clip0_1_60588)">
<path d="M20 11.168C24.8785 11.168 28.8338 15.1225 28.834 20.001C28.834 24.8796 24.8786 28.835 20 28.835C15.1215 28.8348 11.167 24.8795 11.167 20.001C11.1672 15.1226 15.1216 11.1681 20 11.168ZM20 13.21C16.2493 13.2101 13.2092 16.2503 13.209 20.001C13.209 23.7518 16.2492 26.7928 20 26.793C23.7509 26.793 26.792 23.7519 26.792 20.001C26.7918 16.2502 23.7508 13.21 20 13.21Z" stroke="#6B7280"/>
</g>
<defs>
<clipPath id="clip0_1_60588">
<rect width="20" height="20" fill="white" transform="translate(10 10)"/>
</clipPath>
</defs>
</svg>
