<svg width="24" height="24" viewBox="0 0 24 24" fill="none" xmlns="http://www.w3.org/2000/svg">
<path d="M2.72215 2.00052C2.6028 2.00497 2.48624 2.03785 2.38216 2.09644C2.27808 2.15502 2.18949 2.23761 2.12377 2.33734C2.05805 2.43706 2.0171 2.55104 2.00431 2.66979C1.99153 2.78854 2.00729 2.90862 2.05028 3.02005L4.80028 10.1206C4.8476 10.2424 4.92594 10.3498 5.02751 10.432C5.12909 10.5142 5.25038 10.5685 5.37938 10.5894L12.8501 11.8023C13.0362 11.8325 13.018 11.8862 13.018 11.9995C13.018 12.1129 13.0362 12.1666 12.8501 12.1968L5.37938 13.4097C5.25038 13.4306 5.12909 13.4849 5.02751 13.5671C4.92594 13.6493 4.8476 13.7566 4.80028 13.8785L2.05028 20.979C1.99585 21.1201 1.98533 21.2744 2.02011 21.4215C2.05488 21.5687 2.13333 21.7019 2.24516 21.8037C2.35698 21.9055 2.49696 21.9711 2.64674 21.9919C2.79652 22.0128 2.94909 21.9879 3.08446 21.9204L21.5845 12.6704C21.7091 12.6081 21.8138 12.5124 21.8871 12.3939C21.9603 12.2754 21.9991 12.1388 21.9991 11.9995C21.9991 11.8602 21.9603 11.7237 21.8871 11.6052C21.8138 11.4867 21.7091 11.3909 21.5845 11.3286L3.08446 2.07865C2.97212 2.02271 2.84755 1.99585 2.72215 2.00052Z" fill="white"/>
</svg>
