<svg width="40" height="40" viewBox="0 0 40 40" fill="none" xmlns="http://www.w3.org/2000/svg">
<rect x="0.5" y="0.5" width="39" height="39" rx="19.5" fill="white"/>
<rect x="0.5" y="0.5" width="39" height="39" rx="19.5" stroke="#E5E7EB"/>
<path fill-rule="evenodd" clip-rule="evenodd" d="M22.7402 13.0893C21.8818 12.9727 20.7568 12.9727 19.1652 12.9727H18.9568V13.2227C18.9568 14.3643 18.9568 15.281 18.8568 16.006C18.7568 16.756 18.5402 17.3893 18.0402 17.8893C17.5402 18.3893 16.9068 18.606 16.1568 18.706C15.4318 18.806 14.5152 18.806 13.3735 18.806H13.1235V22.356C13.1235 23.9393 13.1235 25.0727 13.2402 25.9227C13.3568 26.756 13.5652 27.2393 13.9152 27.5977C14.2652 27.956 14.7485 28.1643 15.5902 28.281C16.4485 28.3977 17.5735 28.3977 19.1568 28.3977C19.4985 28.3977 19.7818 28.681 19.7818 29.0227C19.7818 29.3643 19.4985 29.6477 19.1568 29.6477H19.1068C17.5818 29.6477 16.3652 29.6477 15.4235 29.5227C14.4485 29.3893 13.6568 29.1143 13.0318 28.4977C12.4068 27.8643 12.1318 27.081 12.0068 26.0977C11.8818 25.1477 11.8818 23.9393 11.8818 22.406V18.1893C11.8818 18.0143 11.9485 17.856 12.0652 17.731L17.8485 11.9643C17.9652 11.8143 18.1402 11.7227 18.3402 11.7227H19.2235C20.7568 11.7227 21.9652 11.7227 22.9152 11.8477C23.8902 11.981 24.6818 12.256 25.3068 12.881C25.9318 13.506 26.2068 14.2977 26.3402 15.2727C26.4652 16.2227 26.4652 17.4393 26.4652 18.9643V19.8477C26.4652 20.1893 26.1818 20.4727 25.8402 20.4727C25.4985 20.4727 25.2152 20.1893 25.2152 19.8477V19.0143C25.2152 17.4227 25.2152 16.2977 25.0985 15.4393C24.9818 14.5977 24.7735 14.1143 24.4235 13.7643C24.0735 13.4143 23.5902 13.1977 22.7485 13.0893H22.7402ZM13.9985 17.556L17.7068 13.8643C17.7068 14.706 17.6902 15.3393 17.6235 15.8477C17.5402 16.456 17.3902 16.781 17.1568 17.0143C16.9235 17.2477 16.6068 17.3977 15.9902 17.481C15.4818 17.5477 14.8485 17.5643 13.9985 17.5643V17.556ZM27.3902 26.756C26.4568 27.1227 25.6068 27.9727 25.2402 28.906C24.8568 29.881 23.4735 29.881 23.0902 28.906C22.7235 27.9727 21.8735 27.1227 20.9402 26.756C19.9652 26.3727 19.9652 24.9893 20.9402 24.606C21.8735 24.2393 22.7235 23.3893 23.0902 22.456C23.4735 21.481 24.8568 21.481 25.2402 22.456C25.6068 23.3893 26.4568 24.2393 27.3902 24.606C28.3652 24.9893 28.3652 26.3727 27.3902 26.756ZM21.6068 25.681C22.7068 26.181 23.6652 27.1393 24.1652 28.2393C24.6652 27.1393 25.6235 26.1727 26.7235 25.681C25.597 25.1547 24.6915 24.2491 24.1652 23.1227C23.6652 24.2227 22.7068 25.1893 21.6068 25.681Z" fill="#6B7280"/>
</svg>
