<svg width="496" height="462" viewBox="0 0 496 462" fill="none" xmlns="http://www.w3.org/2000/svg">
<path opacity="0.1" d="M248.133 461.487C385.026 461.487 496 451.137 496 438.37C496 425.603 385.026 415.253 248.133 415.253C111.239 415.253 0.26532 425.603 0.26532 438.37C0.26532 451.137 111.239 461.487 248.133 461.487Z" fill="#605BFF"/>
<path d="M390.814 205.783L385.243 206.636L391.69 248.728L397.261 247.874L390.814 205.783Z" fill="#FAB623"/>
<path d="M390.81 205.813L385.3 206.689L386.552 202.431L387.178 200.177L388.431 202.056L390.81 205.813Z" fill="#FF8C64"/>
<path d="M396.819 244.878L391.248 245.732L391.722 248.827L397.293 247.973L396.819 244.878Z" fill="#35252F"/>
<path d="M397.322 250.398L392.438 251.149C392.187 251.149 392.062 251.024 392.062 250.774L391.686 248.645L397.322 247.768L397.698 249.897C397.698 250.147 397.572 250.398 397.322 250.398Z" fill="#EF452F"/>
<path d="M388.429 202.056L386.551 202.431L387.177 200.177L388.429 202.056Z" fill="#35252F"/>
<path d="M391.263 245.734L396.834 244.881L396.493 242.652L390.922 243.506L391.263 245.734Z" fill="#F68407"/>
<path d="M386.928 208.568L391.687 239.752C391.687 240.003 391.937 240.128 392.188 240.128C392.438 240.128 392.564 239.878 392.564 239.627L387.805 208.443C387.805 208.192 387.554 208.067 387.304 208.067C387.053 208.067 386.928 208.317 386.928 208.568Z" fill="#F68407"/>
<path d="M389.181 208.192L393.941 239.377C393.941 239.627 394.191 239.753 394.441 239.753C394.692 239.753 394.817 239.502 394.817 239.252L390.058 208.067C390.058 207.817 389.808 207.691 389.557 207.691C389.307 207.691 389.181 207.942 389.181 208.192Z" fill="#F68407"/>
<path d="M400.888 205.929L395.252 205.947L395.391 248.528L401.026 248.51L400.888 205.929Z" fill="#4F9D5C"/>
<path d="M400.954 205.937L395.319 206.062L397.197 201.929L398.074 199.925L399.076 201.929L400.954 205.937Z" fill="#FF8C64"/>
<path d="M401.077 245.504L395.441 245.522L395.451 248.653L401.087 248.635L401.077 245.504Z" fill="#35252F"/>
<path d="M400.705 251.024H395.82C395.57 251.024 395.445 250.898 395.445 250.648V248.519H401.08V250.648C401.08 250.898 400.955 251.024 400.705 251.024Z" fill="#EF452F"/>
<path d="M399.077 201.93H397.199L398.075 199.927L399.077 201.93Z" fill="#35252F"/>
<path d="M395.439 245.524L401.075 245.506L401.068 243.252L395.432 243.27L395.439 245.524Z" fill="#3C7341"/>
<path d="M396.695 208.066L396.821 239.626C396.821 239.877 397.071 240.002 397.196 240.002C397.447 240.002 397.572 239.751 397.572 239.626L397.447 208.066C397.447 207.815 397.196 207.69 397.071 207.69C396.946 207.69 396.695 207.815 396.695 208.066Z" fill="#3C7341"/>
<path d="M398.951 208.067L399.076 239.627C399.076 239.878 399.327 240.003 399.452 240.003C399.702 240.003 399.828 239.753 399.828 239.627L399.702 208.067C399.702 207.817 399.452 207.691 399.327 207.691C399.076 207.691 398.951 207.817 398.951 208.067Z" fill="#3C7341"/>
<path d="M410.703 206.578L405.123 205.785L399.132 247.944L404.712 248.737L410.703 206.578Z" fill="#1B6BFE"/>
<path d="M410.723 206.564L405.088 205.813L407.467 202.056L408.72 200.177L409.471 202.306L410.723 206.564Z" fill="#FF8C64"/>
<path d="M405.166 245.709L399.586 244.916L399.146 248.016L404.726 248.809L405.166 245.709Z" fill="#35252F"/>
<path d="M403.96 251.15L399.076 250.398C398.826 250.398 398.7 250.148 398.7 250.022L398.951 247.893L404.587 248.645L404.336 250.774C404.336 251.024 404.211 251.15 403.96 251.15Z" fill="#EF452F"/>
<path d="M409.471 202.306L407.467 202.056L408.72 200.177L409.471 202.306Z" fill="#35252F"/>
<path d="M399.549 244.827L405.129 245.62L405.446 243.388L399.866 242.595L399.549 244.827Z" fill="#1B48CA"/>
<path d="M406.214 208.067L401.831 239.252C401.831 239.502 401.956 239.753 402.206 239.753C402.457 239.753 402.707 239.627 402.707 239.377L407.091 208.192C407.091 207.942 406.965 207.691 406.715 207.691C406.465 207.691 406.214 207.817 406.214 208.067Z" fill="#1B48CA"/>
<path d="M408.344 208.443L403.961 239.627C403.961 239.878 404.086 240.128 404.337 240.128C404.587 240.128 404.838 240.003 404.838 239.753L409.221 208.568C409.221 208.318 409.096 208.067 408.845 208.067C408.595 207.942 408.469 208.192 408.344 208.443Z" fill="#1B48CA"/>
<path d="M412.603 222.846L412.227 225.1L411.977 227.229L411.601 230.36L411.351 232.364L410.85 235.62L410.599 237.624L410.224 240.755L409.973 242.759L409.597 246.015L409.347 248.019L408.846 251.275L408.596 253.154L408.345 254.907H386.178L385.927 253.154L385.677 251.275L385.301 248.019L385.051 246.015L384.675 242.759L384.424 240.755L383.923 237.624L383.673 235.62L383.297 232.364L383.047 230.36L382.671 227.229L382.421 225.1L382.045 222.846H412.603Z" fill="#EF452F"/>
<path d="M412.227 225.1L411.976 227.229H382.67L382.42 225.1H412.227Z" fill="#AD2F24"/>
<path d="M411.601 230.36L411.351 232.364H383.297L383.047 230.36H411.601Z" fill="#AD2F24"/>
<path d="M410.849 235.619L410.599 237.623H383.923L383.672 235.619H410.849Z" fill="#AD2F24"/>
<path d="M410.222 240.755L409.972 242.758H384.673L384.423 240.755H410.222Z" fill="#AD2F24"/>
<path d="M409.596 246.015L409.346 248.019H385.3L385.049 246.015H409.596Z" fill="#AD2F24"/>
<path d="M408.844 251.274L408.594 253.153H385.925L385.675 251.274H408.844Z" fill="#AD2F24"/>
<path d="M163.274 76.0201C182.986 76.0201 198.967 60.0397 198.967 40.3269C198.967 20.6142 182.986 4.63379 163.274 4.63379C143.561 4.63379 127.58 20.6142 127.58 40.3269C127.58 60.0397 143.561 76.0201 163.274 76.0201Z" fill="#FFCDB3"/>
<path d="M163.274 71.3863C182.987 71.3863 198.967 55.4059 198.967 35.6931C198.967 15.9804 182.987 0 163.274 0C143.561 0 127.581 15.9804 127.581 35.6931C127.581 55.4059 143.561 71.3863 163.274 71.3863Z" fill="#EF452F"/>
<path d="M163.273 64.7479C179.303 64.7479 192.328 51.723 192.328 35.6924C192.328 19.6618 179.303 6.63696 163.273 6.63696C147.242 6.63696 134.217 19.6618 134.217 35.6924C134.217 51.723 147.242 64.7479 163.273 64.7479Z" fill="white"/>
<path d="M134.217 35.6924C134.217 36.4439 134.217 37.1953 134.342 37.9467C135.469 23.0433 148.119 11.1456 163.273 11.1456C178.552 11.1456 191.076 22.918 192.203 37.9467C192.203 37.1953 192.328 36.4439 192.328 35.6924C192.328 19.6618 179.303 6.63696 163.273 6.63696C147.242 6.63696 134.217 19.6618 134.217 35.6924Z" fill="#FFDECB"/>
<path d="M163.273 38.6989C163.524 38.6989 163.774 38.5737 163.9 38.4485L178.177 19.2869C178.427 18.9112 178.302 18.5354 178.052 18.285C177.676 18.0345 177.3 18.1597 177.05 18.4102L163.148 37.1961L147.243 30.1827C146.867 30.0574 146.491 30.1827 146.241 30.5584C146.116 30.9341 146.241 31.3098 146.617 31.5603L162.898 38.6989C163.023 38.6989 163.148 38.6989 163.273 38.6989Z" fill="#35252F"/>
<path d="M377.305 231.209L347.487 331.971C346.116 336.427 342.003 339.511 337.434 339.511L216.336 339.854C209.938 339.854 204.797 334.485 205.14 328.087C205.483 322.146 210.395 317.462 216.336 317.462H262.604L299.733 214.186H364.509C373.42 214.186 379.818 222.755 377.305 231.209Z" fill="#FFD66B"/>
<path d="M302.361 326.259C287.155 326.259 274.828 326.054 274.828 325.802C274.828 325.55 287.155 325.345 302.361 325.345C317.567 325.345 329.894 325.55 329.894 325.802C329.894 326.054 317.567 326.259 302.361 326.259Z" fill="#263238"/>
<path d="M368.393 217.385C368.165 217.271 359.939 241.377 350 271.308C340.061 301.126 332.178 325.346 332.407 325.46C332.635 325.574 340.861 301.469 350.8 271.537C360.739 241.719 368.622 217.385 368.393 217.385Z" fill="#263238"/>
<path d="M279.855 429.079L287.281 428.85V339.512H279.855V429.079Z" fill="#FFD66B"/>
<path d="M317.898 428.621H249.238L280.312 417.882H287.738L317.898 428.621Z" fill="#FFD66B"/>
<path d="M335.265 190.994L323.954 247.773L326.011 290.385L249.582 277.704L252.552 240.461L252.666 209.615L233.931 245.945L219.307 217.727L246.04 169.402C250.953 164.375 256.665 160.605 263.52 158.092C266.833 156.835 270.374 156.149 274.487 156.035C283.284 158.777 292.08 158.777 300.991 156.035C302.02 156.149 303.505 156.264 305.447 156.492C305.561 156.492 305.675 156.492 305.79 156.492C322.012 158.434 334.351 171.915 335.265 188.252V190.994Z" fill="#605BFF"/>
<path d="M305.333 156.492C305.333 156.492 336.75 156.72 340.634 189.851L341.205 214.185L314.13 213.956L305.333 156.492Z" fill="#605BFF"/>
<path d="M230.274 199.105C230.274 199.334 254.951 199.562 285.454 199.562C315.957 199.562 340.634 199.334 340.634 199.105C340.634 198.877 315.957 198.648 285.454 198.648C254.951 198.648 230.274 198.877 230.274 199.105Z" fill="#FAFAFA"/>
<path d="M230.274 204.361C230.274 204.589 254.951 204.817 285.454 204.817C315.957 204.817 340.634 204.589 340.634 204.361C340.634 204.132 315.957 203.904 285.454 203.904C254.951 203.904 230.274 204.132 230.274 204.361Z" fill="#FAFAFA"/>
<path d="M232.102 194.764C232.102 194.993 256.436 195.221 286.368 195.221C316.3 195.221 340.634 194.993 340.634 194.764C340.634 194.536 316.3 194.307 286.368 194.307C256.322 194.307 232.102 194.536 232.102 194.764Z" fill="#FAFAFA"/>
<path d="M253.009 245.946C253.238 245.946 253.124 232.465 252.781 215.9C252.438 199.334 251.981 185.854 251.639 185.854C251.41 185.854 251.524 199.334 251.867 215.9C252.324 232.465 252.781 245.946 253.009 245.946Z" fill="#263238"/>
<path d="M263.748 224.125C263.748 224.125 248.896 225.153 246.269 229.152C243.641 233.036 239.528 244.232 241.013 244.346C242.613 244.46 243.641 243.546 243.641 243.546L247.754 236.349C247.754 236.349 247.068 243.318 249.582 243.432C251.981 243.546 264.091 245.945 264.091 245.945L263.748 224.125Z" fill="#FFBE9D"/>
<path d="M341.091 207.673V245.945C340.634 254.856 332.18 261.253 323.498 259.426L263.634 247.087L263.748 222.525L315.386 232.464L316.072 206.531L341.091 207.673Z" fill="#605BFF"/>
<path d="M306.932 256.341C306.932 256.341 306.703 256.227 306.132 256.113C305.561 255.999 304.761 255.77 303.847 255.542C301.791 255.085 298.82 254.513 295.05 253.714C287.396 252.114 276.657 249.944 263.862 247.316L264.205 247.659C264.205 240.005 264.205 231.436 264.205 222.411L263.748 222.868C267.175 223.553 270.717 224.239 274.258 224.924C289.338 227.78 303.504 230.522 315.386 232.807L315.843 232.921V232.464C315.5 221.04 315.157 211.558 314.929 204.818C314.815 201.504 314.7 198.991 314.586 197.163C314.586 196.364 314.472 195.678 314.472 195.107C314.472 194.65 314.358 194.421 314.358 194.421C314.358 194.421 314.358 194.65 314.358 195.107C314.358 195.678 314.358 196.249 314.358 197.163C314.358 198.991 314.472 201.619 314.472 204.932C314.586 211.672 314.815 221.154 315.157 232.579L315.614 232.236C303.733 229.951 289.567 227.209 274.487 224.239C270.831 223.553 267.289 222.868 263.976 222.183L263.519 222.068V222.525C263.519 231.551 263.519 240.005 263.519 247.773V248.116L263.862 248.23C276.657 250.743 287.396 252.8 295.05 254.285C298.82 254.97 301.791 255.542 303.847 255.884C304.875 255.999 305.561 256.227 306.246 256.341C306.703 256.341 306.932 256.341 306.932 256.341Z" fill="#263238"/>
<path d="M272.545 156.493C272.545 156.493 272.43 156.721 272.316 157.064C272.202 157.406 271.973 157.978 271.859 158.777C271.516 160.263 271.402 162.547 272.088 165.175C272.773 167.803 274.601 170.773 277.229 173.172C279.97 175.685 283.855 177.285 288.082 177.285C292.309 177.285 296.307 175.571 298.821 172.944C301.334 170.316 302.476 167.003 302.819 164.261C303.162 161.519 302.591 159.234 302.019 157.863C301.791 157.178 301.448 156.607 301.22 156.264C300.991 155.921 300.877 155.693 300.877 155.807C300.763 155.807 301.22 156.607 301.677 157.978C302.134 159.349 302.476 161.519 302.134 164.147C301.791 166.774 300.648 169.859 298.135 172.372C295.736 174.886 291.966 176.485 287.967 176.485C283.969 176.485 280.199 175 277.571 172.601C274.944 170.316 273.23 167.574 272.43 164.947C271.631 162.433 271.745 160.148 271.859 158.777C272.43 157.292 272.659 156.493 272.545 156.493Z" fill="#263238"/>
<path d="M269.688 249.03C269.802 249.03 269.802 247.545 269.688 245.26C269.574 242.975 269.459 239.776 269.459 236.235C269.459 232.693 269.459 229.494 269.574 227.209C269.688 224.925 269.688 223.439 269.574 223.439C269.459 223.439 269.231 224.81 269.002 227.209C268.774 229.494 268.66 232.807 268.66 236.349C268.66 239.891 268.888 243.089 269.117 245.488C269.345 247.659 269.574 249.144 269.688 249.03Z" fill="#FAFAFA"/>
<path d="M272.773 249.716C272.887 249.716 272.887 248.23 272.887 245.945C272.887 243.318 272.773 240.233 272.773 236.92C272.773 233.607 272.773 230.523 272.773 227.895C272.773 225.61 272.773 224.125 272.659 224.125C272.545 224.125 272.316 225.496 272.202 227.895C272.088 230.18 271.974 233.379 271.974 236.92C271.974 240.462 272.088 243.661 272.316 245.945C272.431 248.345 272.659 249.716 272.773 249.716Z" fill="#FAFAFA"/>
<path d="M212.794 401.774L201.484 432.962L185.376 455.011C184.233 456.611 184.69 458.895 186.29 459.924C187.204 460.495 188.346 460.609 189.374 460.152C195.886 457.41 219.649 447.471 220.334 445.186C221.134 442.444 236.443 408.971 236.443 408.971L212.794 401.774Z" fill="#EF37FF"/>
<g opacity="0.6">
<g opacity="0.6">
<path d="M186.404 459.924L221.248 443.131L220.791 444.387C220.334 445.53 219.535 446.444 218.506 447.015C215.65 448.5 207.653 452.613 189.717 460.153C188.575 460.61 187.318 460.496 186.404 459.924Z" fill="#93079F"/>
</g>
</g>
<g opacity="0.6">
<g opacity="0.6">
<g opacity="0.6">
<path opacity="0.6" d="M218.849 430.678C217.821 430.906 217.136 431.935 217.364 432.963C217.593 433.991 218.621 434.676 219.649 434.448C220.677 434.219 221.477 432.963 221.248 432.049C220.906 431.135 219.649 430.335 218.735 430.792" fill="white"/>
</g>
</g>
</g>
<path d="M198.742 449.185C198.514 449.185 198.514 447.357 196.915 445.757C195.429 444.158 193.601 443.929 193.601 443.701C193.601 443.587 194.058 443.473 194.858 443.701C195.658 443.929 196.572 444.386 197.486 445.3C198.285 446.214 198.742 447.243 198.857 448.042C198.971 448.728 198.857 449.185 198.742 449.185Z" fill="#263238"/>
<path d="M194.859 452.498C194.63 452.612 194.059 451.127 192.688 450.099C191.317 448.956 189.832 448.728 189.832 448.499C189.832 448.271 191.546 448.271 193.145 449.527C194.745 450.67 195.087 452.384 194.859 452.498Z" fill="#263238"/>
<path d="M204.912 445.415C204.683 445.53 203.769 443.359 201.713 441.531C199.656 439.589 197.486 438.904 197.6 438.675C197.6 438.447 200.113 438.904 202.284 440.96C204.455 443.016 205.026 445.415 204.912 445.415Z" fill="#263238"/>
<path d="M209.138 436.276C209.024 436.39 207.539 435.019 205.368 434.105C203.198 433.077 201.256 432.962 201.256 432.848C201.256 432.62 203.312 432.506 205.711 433.534C207.996 434.448 209.253 436.161 209.138 436.276Z" fill="#263238"/>
<path d="M212.68 427.25C212.566 427.365 211.195 425.651 208.796 424.851C206.397 423.937 204.34 424.508 204.34 424.28C204.34 424.166 204.797 423.937 205.711 423.823C206.625 423.709 207.882 423.709 209.139 424.166C210.395 424.623 211.424 425.308 211.995 425.994C212.566 426.679 212.68 427.136 212.68 427.25Z" fill="#263238"/>
<path d="M209.481 423.138C209.481 423.138 209.481 422.681 209.938 421.995C210.281 421.31 210.966 420.282 212.109 419.254C212.68 418.797 213.251 418.225 214.279 418.111C214.736 418.111 215.422 418.454 215.65 418.911C215.879 419.482 215.765 420.053 215.65 420.51C214.851 422.452 212.452 423.709 210.167 423.138C207.882 422.567 206.397 420.51 206.168 418.454C206.168 417.997 206.168 417.311 206.625 416.969C207.082 416.512 207.768 416.512 208.225 416.854C209.138 417.311 209.481 418.111 209.824 418.682C210.509 419.939 210.852 421.081 210.966 421.881C211.081 422.681 211.081 423.138 211.081 423.138C210.966 423.138 210.852 421.31 209.367 418.911C209.024 418.34 208.567 417.654 207.882 417.311C207.539 417.197 207.196 417.197 207.082 417.426C206.854 417.654 206.739 417.997 206.854 418.454C207.082 420.167 208.453 421.995 210.395 422.452C212.337 422.909 214.508 421.881 215.079 420.282C215.193 419.939 215.308 419.482 215.193 419.139C215.079 418.797 214.851 418.682 214.508 418.682C213.822 418.682 213.137 419.139 212.566 419.596C210.167 421.424 209.595 423.252 209.481 423.138Z" fill="#263238"/>
<path d="M165.04 393.662L166.069 419.024C166.069 419.024 140.707 428.506 140.364 433.19L189.489 433.076L189.603 393.548L165.04 393.662Z" fill="#EF37FF"/>
<g opacity="0.6">
<g opacity="0.6">
<path opacity="0.6" d="M181.262 416.854C182.176 417.082 182.862 418.224 182.633 419.138C182.405 420.052 181.376 420.738 180.348 420.509C179.434 420.281 178.52 419.024 178.863 418.11C179.206 417.196 180.463 416.397 181.376 416.968" fill="white"/>
</g>
</g>
<g opacity="0.6">
<path d="M189.489 433.076V429.192L142.192 430.791C142.192 430.791 140.021 431.705 140.25 433.305L189.489 433.076Z" fill="#93079F"/>
</g>
<path d="M165.269 418.796C165.269 419.024 166.526 419.138 167.668 419.938C168.925 420.623 169.496 421.766 169.724 421.652C169.953 421.652 169.61 420.166 168.125 419.252C166.64 418.224 165.155 418.567 165.269 418.796Z" fill="#263238"/>
<path d="M160.127 420.852C160.127 421.08 161.155 421.537 161.955 422.451C162.755 423.479 162.983 424.508 163.212 424.508C163.44 424.508 163.555 423.137 162.526 421.88C161.498 420.738 160.127 420.623 160.127 420.852Z" fill="#263238"/>
<path d="M157.157 427.021C157.386 427.021 157.728 425.879 157.043 424.508C156.472 423.137 155.329 422.68 155.215 422.908C155.101 423.137 155.786 423.822 156.357 424.85C156.814 425.993 156.929 427.021 157.157 427.021Z" fill="#263238"/>
<path d="M165.611 412.969C165.726 413.198 166.868 412.855 168.125 412.969C169.496 413.083 170.524 413.426 170.638 413.312C170.752 413.083 169.724 412.284 168.125 412.17C166.64 411.941 165.497 412.741 165.611 412.969Z" fill="#263238"/>
<g opacity="0.3">
<path opacity="0.3" d="M165.269 398.688L165.383 403.144L189.603 402.915V398.803L165.269 398.688Z" fill="black"/>
</g>
<path d="M165.497 407.829C165.497 407.943 166.411 408.057 168.011 407.829C168.81 407.714 169.61 407.486 170.638 407.029C171.095 406.8 171.552 406.572 172.009 406.229C172.238 406.115 172.466 405.886 172.695 405.658C172.923 405.429 173.152 404.744 172.809 404.401C172.58 404.059 172.123 403.83 171.781 403.83C171.438 403.83 171.095 403.944 170.867 403.944C170.295 404.059 169.838 404.287 169.382 404.516C168.468 404.973 167.668 405.544 167.097 406.001C165.954 407.029 165.611 407.943 165.611 408.057C165.726 408.171 166.297 407.372 167.439 406.458C168.011 406.001 168.81 405.544 169.61 405.201C170.067 404.972 170.524 404.858 170.981 404.744C171.552 404.63 171.895 404.63 172.123 404.858C172.123 404.973 172.123 404.973 172.123 405.087C172.009 405.201 171.781 405.315 171.552 405.544C171.095 405.772 170.638 406.115 170.295 406.343C169.496 406.8 168.582 407.029 167.896 407.257C166.525 407.6 165.497 407.714 165.497 407.829Z" fill="#263238"/>
<path d="M165.84 408.171C165.954 408.171 166.411 407.371 166.525 405.772C166.525 404.972 166.525 404.058 166.183 403.03C166.068 402.573 165.84 402.002 165.497 401.545C165.154 401.088 164.812 400.402 163.898 400.288C163.441 400.288 162.984 400.631 162.87 400.974C162.755 401.316 162.641 401.545 162.641 401.887C162.527 402.459 162.527 403.03 162.641 403.601C162.755 404.629 163.212 405.543 163.669 406.115C164.583 407.371 165.611 407.714 165.611 407.6C165.726 407.485 164.812 407.028 164.126 405.772C163.783 405.201 163.441 404.401 163.326 403.487C163.326 403.03 163.326 402.573 163.326 402.116C163.441 401.545 163.555 401.202 163.783 401.202C164.012 401.202 164.469 401.545 164.697 402.002C164.926 402.459 165.154 402.916 165.269 403.373C165.611 404.287 165.726 405.086 165.726 405.772C165.954 407.257 165.726 408.171 165.84 408.171Z" fill="#263238"/>
<path d="M189.603 272.222C218.62 275.192 257.121 279.191 257.121 279.191L251.865 326.488C251.865 326.488 195.315 311.522 195.658 312.778C196.114 314.035 193.03 413.427 193.03 413.427H158.985L158.3 300.897C158.186 283.875 172.695 270.508 189.603 272.222Z" fill="#030229"/>
<path d="M326.695 291.3V305.923C326.695 315.863 315.271 326.487 305.332 326.487H297.563C291.508 326.487 281.912 322.032 276.999 318.49L274.029 316.32L238.499 426.222C238.499 426.222 197.943 418.91 197.943 417.654C197.943 416.397 225.475 327.63 238.156 286.388C243.297 269.594 261.348 259.769 278.027 265.481C278.599 265.71 279.17 265.938 279.741 266.167C297.906 273.592 326.695 291.3 326.695 291.3Z" fill="#030229"/>
<path d="M198.057 417.768C198.057 417.768 198.171 417.653 198.286 417.425C198.4 417.082 198.514 416.739 198.743 416.282C199.085 415.254 199.656 413.769 200.342 411.713C201.713 407.714 203.541 402.002 205.826 394.805C210.395 380.524 216.45 360.646 223.076 338.711C226.389 327.744 229.474 317.233 232.33 307.751C233.701 302.953 235.072 298.497 236.329 294.27C237.014 292.1 237.585 290.158 238.157 288.101C238.728 286.159 239.299 284.217 239.984 282.503C241.355 279.076 243.526 276.448 245.697 274.392C247.867 272.336 249.924 270.85 251.752 269.708C253.465 268.566 254.836 267.652 255.864 267.08C256.321 266.852 256.664 266.623 256.892 266.395C257.121 266.281 257.235 266.167 257.235 266.167C257.235 266.167 257.121 266.166 256.892 266.395C256.55 266.509 256.207 266.738 255.75 266.966C254.722 267.537 253.351 268.337 251.637 269.48C249.809 270.622 247.753 272.107 245.468 274.049C243.298 276.106 241.013 278.733 239.527 282.275C238.728 283.988 238.157 285.931 237.585 287.873C237.014 289.815 236.329 291.871 235.757 293.928C234.501 298.155 233.13 302.724 231.645 307.408C228.789 316.891 225.59 327.401 222.277 338.368C215.651 360.303 209.71 380.067 205.369 394.576C203.198 401.659 201.37 407.486 200.113 411.598C199.542 413.541 198.971 415.14 198.628 416.168C198.514 416.625 198.4 417.082 198.286 417.425C198.057 417.539 198.057 417.768 198.057 417.768Z" fill="#455A64"/>
<path d="M189.489 298.612C189.26 298.726 191.202 301.696 192.802 305.581C194.401 309.465 195.087 312.892 195.429 312.892C195.658 312.892 195.315 309.351 193.601 305.238C191.888 301.125 189.603 298.383 189.489 298.612Z" fill="#455A64"/>
<path d="M182.977 303.181C182.863 303.41 185.833 304.666 188.803 307.065C191.888 309.464 193.83 311.978 194.059 311.864C194.287 311.749 192.573 308.893 189.375 306.38C186.176 303.866 182.977 302.953 182.977 303.181Z" fill="#455A64"/>
<path d="M238.271 426.336C238.5 426.45 248.096 396.975 259.635 360.646C271.287 324.316 280.427 294.727 280.198 294.727C279.97 294.613 270.373 324.088 258.835 360.417C247.296 396.747 238.043 426.221 238.271 426.336Z" fill="#455A64"/>
<path d="M281.797 254.857L165.611 255.999L144.019 194.765L228.445 195.336L248.095 250.401L281.797 250.858V254.857Z" fill="#26C0E2"/>
<path d="M193.031 230.638C190.444 230.638 188.347 228.541 188.347 225.954C188.347 223.367 190.444 221.27 193.031 221.27C195.618 221.27 197.715 223.367 197.715 225.954C197.715 228.541 195.618 230.638 193.031 230.638Z" fill="white"/>
<path d="M291.278 89.2037C290.135 85.0909 287.165 83.1487 283.167 81.7778C279.168 80.4069 274.484 81.2066 271.171 83.72C268.886 85.4336 267.173 87.947 264.545 88.8609C260.204 90.3461 255.063 87.1473 250.836 89.0894C248.322 90.2318 246.951 93.3164 247.523 95.944C248.208 98.5716 250.836 100.628 253.578 100.514C250.721 101.542 249.808 105.655 251.521 108.168C253.235 110.681 256.662 111.71 259.632 111.138C262.603 110.567 265.23 108.739 267.515 106.683C269.8 104.627 271.857 102.342 274.256 100.514C276.655 98.6859 279.625 97.3149 282.71 97.4292C286.822 97.6577 290.364 100.742 292.192 104.398C294.02 108.054 294.477 112.281 294.705 116.394C294.934 120.506 295.048 124.733 296.19 128.618C296.305 129.075 296.533 129.646 296.99 129.76C297.676 129.989 298.247 129.303 298.59 128.618C302.36 121.649 304.759 113.994 305.558 106.112C306.015 101.542 305.901 97.2007 303.388 93.4307C300.76 89.5464 294.362 86.6903 291.278 89.2037Z" fill="#030229"/>
<path d="M299.275 108.283L301.331 154.551C301.674 162.434 300.646 174.087 288.193 174.087C277.34 173.287 274.141 163.12 273.913 155.808C273.799 152.381 273.57 149.41 273.57 149.068C273.57 149.068 261.803 148.496 260.318 136.844C259.632 131.246 259.175 119.593 258.947 108.968C258.604 97.6581 267.172 87.9474 278.368 86.8049L279.511 86.6907C291.735 86.1195 298.932 96.0586 299.275 108.283Z" fill="#FFAA8C"/>
<path d="M273.455 148.84C273.455 148.84 280.881 148.611 288.193 142.899C288.193 142.899 285.451 151.696 273.798 151.81L273.455 148.84Z" fill="#EB996E"/>
<path d="M263.172 116.394C263.287 117.308 264.086 117.993 265 117.879C265.914 117.879 266.6 117.079 266.6 116.165C266.485 115.251 265.686 114.566 264.772 114.68C263.744 114.794 263.058 115.48 263.172 116.394Z" fill="#263238"/>
<path d="M262.03 114.451C262.258 114.68 263.401 113.537 265.229 113.423C267.057 113.195 268.427 113.994 268.542 113.766C268.656 113.652 268.427 113.309 267.742 112.966C267.171 112.623 266.143 112.281 265 112.395C263.858 112.509 262.944 113.08 262.487 113.537C262.03 113.88 261.916 114.337 262.03 114.451Z" fill="#263238"/>
<path d="M280.766 115.137C280.88 116.051 281.68 116.736 282.594 116.622C283.508 116.622 284.193 115.822 284.193 114.908C284.079 113.994 283.28 113.309 282.366 113.423C281.337 113.537 280.652 114.223 280.766 115.137Z" fill="#263238"/>
<path d="M279.624 112.852C279.853 113.081 280.995 111.938 282.823 111.824C284.651 111.596 286.022 112.395 286.136 112.167C286.251 112.053 286.022 111.71 285.337 111.367C284.765 111.024 283.737 110.682 282.595 110.796C281.452 110.91 280.538 111.481 280.081 111.938C279.625 112.395 279.51 112.738 279.624 112.852Z" fill="#263238"/>
<path d="M274.597 126.79C274.597 126.675 273.455 126.561 271.627 126.561C271.17 126.561 270.713 126.561 270.599 126.218C270.484 125.876 270.599 125.419 270.713 124.847C271.056 123.705 271.398 122.448 271.741 121.192C273.112 116.051 274.026 111.824 273.797 111.824C273.569 111.824 272.312 115.937 270.941 121.077C270.599 122.334 270.256 123.591 270.027 124.733C269.913 125.304 269.685 125.876 270.027 126.561C270.142 126.904 270.599 127.132 270.827 127.132C271.17 127.247 271.398 127.132 271.627 127.132C273.455 127.018 274.597 126.904 274.597 126.79Z" fill="#263238"/>
<path d="M279.967 127.475C279.624 127.475 279.853 129.417 278.368 131.017C276.883 132.616 274.712 132.616 274.826 132.845C274.826 132.959 275.283 133.188 276.197 133.073C277.111 132.959 278.253 132.616 279.167 131.702C280.081 130.788 280.424 129.532 280.424 128.732C280.31 127.932 280.081 127.475 279.967 127.475Z" fill="#263238"/>
<path d="M278.368 105.884C278.597 106.341 280.31 105.884 282.481 105.998C284.652 105.998 286.365 106.455 286.594 105.998C286.708 105.769 286.365 105.312 285.566 104.97C284.88 104.627 283.738 104.284 282.481 104.284C281.224 104.284 280.082 104.627 279.396 104.97C278.711 105.312 278.368 105.655 278.368 105.884Z" fill="#263238"/>
<path d="M262.145 109.196C262.488 109.539 263.745 108.968 265.116 108.854C266.601 108.625 267.858 108.854 268.086 108.397C268.2 108.168 267.972 107.826 267.401 107.483C266.829 107.14 265.915 106.912 264.887 107.026C263.859 107.14 263.059 107.597 262.602 108.054C262.145 108.511 262.031 108.968 262.145 109.196Z" fill="#263238"/>
<path d="M299.161 116.965C299.389 116.851 306.93 113.766 307.501 121.763C308.072 129.76 299.961 128.732 299.961 128.504C299.961 128.161 299.161 116.965 299.161 116.965Z" fill="#FFBE9D"/>
<path d="M302.131 125.191C302.131 125.191 302.245 125.305 302.474 125.419C302.702 125.534 303.159 125.534 303.502 125.419C304.302 125.077 304.987 123.706 304.873 122.221C304.873 121.535 304.644 120.85 304.302 120.278C303.959 119.707 303.616 119.364 303.159 119.25C302.702 119.136 302.474 119.479 302.36 119.707C302.245 119.936 302.359 120.05 302.245 120.164C302.245 120.164 302.017 120.05 302.131 119.707C302.131 119.593 302.245 119.364 302.36 119.136C302.588 119.022 302.816 118.907 303.159 118.907C303.73 118.907 304.416 119.479 304.759 120.05C305.101 120.621 305.33 121.421 305.444 122.221C305.558 123.82 304.759 125.419 303.73 125.762C303.159 125.991 302.702 125.762 302.474 125.648C302.245 125.419 302.131 125.305 302.131 125.191Z" fill="#EB996E"/>
<path d="M256.206 106.798C261.461 107.597 267.059 105.655 270.715 101.885C273.342 99.1433 275.056 95.4875 278.483 94.0023C280.768 92.9741 283.51 93.2026 285.795 94.2308C288.08 95.259 290.022 96.8584 291.85 98.6863C290.25 104.855 292.421 111.253 294.591 117.194C294.82 117.879 295.163 118.565 295.734 118.907C296.762 119.479 298.133 118.793 298.818 117.879C299.961 116.394 300.304 114.338 300.418 112.51C300.761 108.169 300.418 103.713 298.933 99.6002C297.562 95.4875 295.048 91.7174 291.621 88.9756C287.28 85.6625 281.682 84.2916 276.198 84.9771C270.715 85.6625 265.688 88.1759 261.804 91.9459C259.976 93.6596 258.262 95.716 257.577 98.1151" fill="#030229"/>
<path d="M414.435 365.75C410.322 363.694 405.524 363.351 401.068 364.151C398.669 364.608 396.156 365.293 394.442 367.121C392.843 368.949 392.5 372.148 394.328 373.747C395.47 374.661 397.07 374.775 398.555 374.775C402.096 374.775 405.981 374.09 408.837 376.261C410.436 377.517 411.579 379.459 413.407 380.145C415.349 380.716 417.405 379.574 418.433 377.86C419.461 376.146 419.461 373.976 419.004 372.148C419.119 372.034 418.547 367.807 414.435 365.75Z" fill="#3A974C"/>
<path d="M423.802 347.7C421.289 351.241 416.49 350.099 414.205 347.928C411.921 345.757 411.007 342.559 410.093 339.588C408.151 332.734 406.094 325.536 407.579 318.567C408.036 316.511 408.836 314.455 410.321 312.855C411.806 311.256 414.091 310.342 416.148 310.913C418.547 311.599 420.146 313.998 421.174 316.168C424.373 322.909 426.087 330.22 426.087 337.646C426.201 341.188 425.744 344.843 423.802 347.7Z" fill="#3A974C"/>
<path d="M430.656 352.841C427.915 349.642 427.458 344.958 428.6 340.959C429.857 336.961 432.484 333.533 435.683 330.677C439.339 327.364 443.68 324.851 448.364 323.251C450.192 322.566 452.134 322.109 454.076 322.338C456.018 322.566 457.961 323.48 458.874 325.194C460.245 327.707 458.874 330.792 457.504 333.305C455.104 337.76 452.248 341.987 449.164 345.986C446.65 349.185 443.794 352.384 440.024 353.754C436.254 355.24 432.256 355.011 430.314 352.384" fill="#3A974C"/>
<path d="M424.03 401.394C424.03 401.394 423.916 400.823 423.802 399.794C423.688 398.652 423.573 397.167 423.345 395.339C423.116 393.511 422.888 391.226 422.317 388.827C421.86 386.428 420.946 383.8 419.918 381.173C418.889 378.545 417.519 376.146 416.033 374.318C414.548 372.376 412.72 371.005 411.121 370.205C409.521 369.406 408.036 369.063 407.008 368.949C405.98 368.834 405.409 368.72 405.409 368.72C405.409 368.72 405.98 368.72 407.008 368.72C408.036 368.834 409.636 369.063 411.349 369.863C413.063 370.662 415.005 372.033 416.605 373.975C418.204 375.918 419.575 378.317 420.603 381.059C421.631 383.686 422.431 386.314 422.888 388.827C423.345 391.226 423.573 393.511 423.802 395.339C423.916 397.167 424.03 398.766 424.03 399.794C424.03 400.823 424.03 401.394 424.03 401.394Z" fill="#263238"/>
<path d="M423.688 397.967C423.688 397.967 423.688 397.738 423.688 397.167C423.688 396.596 423.688 395.91 423.688 394.996C423.688 393.168 423.688 390.427 423.573 387.114C423.459 380.487 422.888 373.29 421.746 363.237C420.717 353.754 419.346 342.673 417.861 335.476C417.519 333.876 417.176 332.391 416.947 331.134C416.605 329.878 416.376 328.735 416.148 327.821C415.919 327.021 415.805 326.336 415.691 325.765C415.576 325.308 415.576 325.079 415.576 325.079C415.576 325.079 415.691 325.308 415.805 325.765C415.919 326.336 416.148 327.021 416.376 327.821C416.605 328.735 416.947 329.763 417.29 331.134C417.633 332.391 417.975 333.876 418.318 335.476C419.803 341.987 421.289 351.127 422.431 361.18C423.573 371.348 424.03 380.487 424.03 387.228C424.03 390.541 424.03 393.283 423.916 395.111C423.916 396.025 423.802 396.71 423.802 397.281C423.688 397.738 423.688 397.967 423.688 397.967Z" fill="#263238"/>
<path d="M423.688 380.144C423.688 380.144 423.688 379.345 423.688 377.859C423.802 376.374 423.916 374.318 424.373 371.805C424.83 369.291 425.401 366.207 426.315 363.008C426.772 361.523 427.686 357.867 429.971 352.497C433.055 345.186 437.168 339.245 440.824 335.589C441.624 334.561 442.652 333.876 443.337 333.19C443.68 332.848 444.023 332.505 444.48 332.276C444.823 332.048 445.165 331.819 445.508 331.591C446.65 330.791 447.336 330.334 447.45 330.334C447.564 330.448 444.823 332.162 441.281 335.818C437.739 339.588 433.741 345.414 430.656 352.612C428.943 356.496 427.8 360.038 426.886 363.008C425.972 366.207 425.287 369.291 424.83 371.805C424.373 374.318 424.144 376.374 423.916 377.859C423.802 379.459 423.688 380.144 423.688 380.144Z" fill="#263238"/>
<path d="M440.825 411.561L438.997 435.895H407.694L405.866 411.561H440.825Z" fill="#FFD66B"/>
<path d="M402.095 401.965H443.794V411.562H402.095V401.965Z" fill="#FFD66B"/>
<path d="M439.328 440.487L441.163 435.917H405.748L407.799 440.487H439.328Z" fill="#FFD66B"/>
<path d="M406.551 419.445C406.551 419.445 406.551 419.559 406.665 419.673C406.78 419.788 406.894 420.016 407.122 420.245C407.579 420.816 408.15 421.615 408.95 422.529L409.064 422.644C410.207 421.044 411.692 418.988 413.52 416.475H413.291C414.662 418.417 416.148 420.473 417.747 422.758L417.861 422.986L417.975 422.758C419.575 420.816 421.403 418.759 423.231 416.475H422.888C423.002 416.589 423.116 416.703 423.231 416.817C424.83 418.874 426.429 420.816 427.915 422.644L428.029 422.872L428.143 422.644C429.742 420.359 431.228 418.302 432.599 416.36H432.37C434.541 418.874 436.369 420.93 437.854 422.529L437.968 422.644L438.082 422.529C438.768 421.273 439.339 420.359 439.796 419.673C440.024 419.331 440.139 419.102 440.253 418.874C440.367 418.645 440.367 418.645 440.367 418.645C440.367 418.645 440.253 418.759 440.139 418.874C440.024 419.102 439.796 419.331 439.682 419.559C439.225 420.245 438.653 421.159 437.854 422.415H437.968C436.597 420.816 434.769 418.645 432.599 416.132L432.484 416.018L432.37 416.132C430.999 418.074 429.514 420.13 427.915 422.301H428.257C426.772 420.473 425.173 418.417 423.573 416.475C423.459 416.36 423.345 416.246 423.231 416.132L423.116 415.903L423.002 416.132C421.174 418.302 419.461 420.473 417.747 422.415H418.09C416.49 420.13 415.005 418.074 413.634 416.246L413.52 416.018L413.406 416.246C411.692 418.759 410.093 420.93 409.064 422.529H409.179C408.379 421.615 407.693 420.816 407.237 420.245C407.008 420.016 406.894 419.788 406.78 419.673C406.551 419.559 406.551 419.445 406.551 419.445Z" fill="#030229"/>
<path d="M423.003 411.562C413.349 411.562 405.523 411.459 405.523 411.333C405.523 411.207 413.349 411.105 423.003 411.105C432.656 411.105 440.482 411.207 440.482 411.333C440.482 411.459 432.656 411.562 423.003 411.562Z" fill="#455A64"/>
<path d="M98.7798 144.041L120.486 234.978H114.431L92.9533 144.041H98.7798Z" fill="#263238"/>
<path d="M107.12 203.904C107.463 205.617 97.1811 255.199 97.1811 255.199H102.094L109.862 215.899L107.12 203.904Z" fill="#263238"/>
<path d="M34.6885 320.775H136.594V428.85H34.6885V320.775Z" fill="#26C0E2"/>
<path d="M29.5477 336.541H34.5745V341.567H29.5477V336.541Z" fill="#263238"/>
<path d="M29.5477 352.421H34.5745V357.447H29.5477V352.421Z" fill="#263238"/>
<path d="M29.5477 368.415H34.5745V373.441H29.5477V368.415Z" fill="#263238"/>
<path d="M29.5477 384.294H34.5745V389.321H29.5477V384.294Z" fill="#263238"/>
<path d="M29.4332 369.785C29.4332 369.785 28.8619 369.671 27.948 369.443C26.9198 369.328 25.5489 368.986 23.6067 368.986C21.7788 368.986 19.494 369.328 17.4376 370.585C16.4094 371.27 15.3812 372.184 14.81 373.441C14.1245 374.698 13.896 376.069 14.0103 377.554C14.1245 378.925 14.5815 380.296 15.2669 381.438C15.9524 382.581 16.8664 383.495 17.8946 384.18C19.8367 385.665 22.0073 386.236 23.8352 386.579C25.6631 386.808 27.1483 386.808 28.1765 386.693C29.2047 386.579 29.7759 386.465 29.7759 386.465C29.7759 386.465 29.2047 386.465 28.1765 386.465C27.1483 386.465 25.6631 386.465 23.9495 386.122C22.2358 385.779 20.1794 385.094 18.2373 383.723C16.4094 382.352 14.6958 380.067 14.5815 377.44C14.4673 376.069 14.6957 374.812 15.2669 373.67C15.8382 372.527 16.7521 371.727 17.6661 371.042C19.6082 369.785 21.7788 369.443 23.6067 369.328C25.4346 369.328 26.8055 369.443 27.8337 369.557C28.8619 369.785 29.4332 369.9 29.4332 369.785Z" fill="#263238"/>
<path d="M30.6902 354.02C30.6902 354.02 30.576 353.906 30.2333 353.677C29.8905 353.563 29.4336 353.335 28.7481 353.106C27.3772 352.649 25.3208 352.306 22.9217 352.763C22.3505 352.878 21.665 353.106 21.0938 353.449C20.5226 353.792 19.9514 354.477 19.7229 355.277C19.2659 356.762 19.8371 358.476 20.8653 359.847C21.4366 360.532 22.122 361.103 22.9217 361.446C23.7214 361.789 24.8638 361.789 25.6635 361.332C26.4632 360.875 27.2629 359.961 27.2629 358.933C27.2629 357.904 26.5775 356.876 25.6635 356.419C24.7496 355.962 23.7214 355.962 22.6932 356.076C21.7793 356.305 20.8653 356.762 20.1799 357.333C18.6947 358.476 17.7807 360.189 17.6665 361.903C17.438 363.617 18.1235 365.216 18.9232 366.473C19.8371 367.729 20.9796 368.529 22.0078 369.1C24.2926 370.243 26.349 370.471 27.7199 370.585C28.4054 370.585 28.9766 370.7 29.3193 370.7C29.6621 370.7 29.8906 370.7 29.8906 370.7C29.8906 370.7 29.0909 370.585 27.7199 370.471C26.349 370.243 24.4069 370.014 22.2362 368.872C21.208 368.301 20.0656 367.501 19.2659 366.358C18.4662 365.216 17.895 363.731 18.1235 362.131C18.3519 360.532 19.1517 359.047 20.5226 358.019C21.208 357.447 22.0077 357.105 22.8075 356.876C23.6072 356.648 24.5211 356.762 25.3208 357.105C26.1205 357.447 26.5775 358.247 26.5775 359.047C26.5775 359.846 26.0063 360.532 25.3208 360.989C24.6354 361.446 23.7214 361.446 23.036 361.103C22.2362 360.875 21.665 360.303 21.208 359.732C20.1799 358.59 19.7229 356.99 20.0656 355.619C20.4083 354.249 21.665 353.563 22.9217 353.335C25.3208 352.763 27.263 353.106 28.6339 353.449C30.0048 353.677 30.6902 354.134 30.6902 354.02Z" fill="#263238"/>
<path d="M30.5762 338.483C30.5762 338.483 30.2334 338.369 29.4337 338.254C28.7483 338.254 27.6058 338.254 26.3491 338.711C25.0925 339.168 23.7216 339.968 22.5791 341.225C21.4367 342.596 20.637 344.424 20.637 346.48C20.5227 348.536 21.2082 350.478 22.2364 351.849C23.2646 353.22 24.6355 354.134 25.8922 354.591C27.1489 355.048 28.1771 355.162 28.8625 355.162C29.548 355.162 30.005 355.048 30.005 355.048C30.005 354.934 28.2913 355.277 26.0064 354.134C24.864 353.563 23.6073 352.763 22.6933 351.392C21.6652 350.021 21.0939 348.308 21.2082 346.366C21.3224 344.424 22.0079 342.71 23.0361 341.453C24.0643 340.197 25.4352 339.397 26.5776 338.94C28.9768 338.254 30.5762 338.597 30.5762 338.483Z" fill="#263238"/>
<path d="M106.319 263.425C106.319 263.425 105.862 264.11 105.405 265.481C104.948 266.852 104.491 268.908 104.034 271.65C103.577 274.392 103.234 277.705 102.891 281.475C102.549 285.36 102.206 289.701 101.635 294.613C101.521 295.87 101.292 297.012 101.064 298.269C100.835 299.526 100.492 300.782 99.9211 301.925C99.3499 303.067 98.436 304.095 97.4078 305.009C96.3796 305.923 95.3514 306.837 94.0947 307.523C91.6956 309.008 88.8395 310.036 85.8692 310.379C82.8989 310.722 79.7001 310.265 76.844 308.779C73.9879 307.409 71.703 304.667 71.0176 301.468C70.6748 299.868 70.789 298.155 71.3603 296.555C71.9315 294.956 73.0739 293.699 74.5591 292.785C75.93 291.871 77.6437 291.3 79.3573 291.186C81.071 291.072 82.8989 291.529 84.2698 292.671C84.9553 293.242 85.5265 293.814 85.8692 294.613C86.2119 295.413 86.3262 296.213 86.2119 297.127C85.8692 298.84 84.6125 300.325 83.0131 301.125C81.4137 302.039 79.5858 302.382 77.7579 302.61C75.93 302.839 74.1021 302.953 72.3885 302.953C68.7327 303.067 65.1911 302.725 61.7638 302.382C54.795 301.582 48.0546 300.44 41.657 300.44C35.2593 300.325 28.9759 301.239 23.7207 303.867C21.0931 305.124 18.8083 306.837 17.0946 308.894C15.2667 310.95 14.1243 313.349 13.6673 315.748C12.6391 320.661 13.7816 325.231 15.6095 328.658C17.5516 332.085 20.1792 334.37 22.3498 335.855C24.6347 337.34 26.5768 338.254 27.9477 338.711C29.3187 339.168 30.0041 339.397 30.0041 339.397C30.0041 339.397 29.7757 339.282 29.4329 339.168C29.0902 339.054 28.519 338.826 27.9477 338.597C26.5768 338.026 24.6347 337.226 22.4641 335.627C20.2934 334.027 17.6658 331.742 15.8379 328.429C14.01 325.116 12.9819 320.547 14.01 315.863C14.5813 313.578 15.6095 311.179 17.4374 309.236C19.151 307.294 21.4359 305.581 23.9492 304.438C29.0902 301.925 35.2593 301.011 41.657 301.125C48.0546 301.239 54.795 302.382 61.7638 303.067C65.3054 303.41 68.8469 303.753 72.5027 303.638C74.3306 303.638 76.1585 303.524 77.9864 303.296C79.8143 303.067 81.7564 302.725 83.3558 301.811C85.0695 300.897 86.4404 299.297 86.7831 297.355C87.0116 296.441 86.7832 295.413 86.4404 294.499C85.9834 293.585 85.4122 292.9 84.6125 292.328C83.1274 291.186 81.1852 290.729 79.3573 290.729C77.5294 290.843 75.7015 291.414 74.2164 292.443C72.7312 293.471 71.4745 294.842 70.789 296.555C70.1036 298.269 70.1036 300.097 70.4463 301.696C71.246 305.124 73.6451 307.866 76.6155 309.351C79.5858 310.836 82.8989 311.293 85.8692 310.95C88.9538 310.607 91.8099 309.579 94.3232 308.094C95.5799 307.294 96.7223 306.495 97.6363 305.466C98.6645 304.438 99.5784 303.524 100.264 302.268C100.835 301.011 101.178 299.754 101.406 298.498C101.635 297.241 101.863 295.984 101.978 294.842C102.549 290.044 102.891 285.588 103.234 281.704C103.577 277.819 103.92 274.506 104.262 271.879C104.605 269.137 105.062 267.081 105.519 265.71C105.748 265.024 105.862 264.453 106.09 264.224C106.205 263.539 106.319 263.425 106.319 263.425Z" fill="#263238"/>
<path d="M40.4013 424.28C40.4013 424.28 40.4013 424.166 40.4013 423.823C40.4013 423.48 40.4013 423.023 40.4013 422.452C40.4013 421.195 40.4013 419.482 40.4013 417.082C40.4013 412.398 40.4013 405.544 40.5155 396.861C40.5155 379.496 40.6298 354.705 40.6298 325.002L40.4013 325.231C67.3627 325.231 98.8939 325.231 132.596 325.231L132.253 324.888C132.253 361.446 132.253 395.49 132.253 424.166L132.482 423.937C104.835 423.937 81.8717 424.051 65.7633 424.051C57.652 424.051 51.3687 424.051 47.0274 424.166C44.8568 424.166 43.2573 424.166 42.1149 424.166C40.9725 424.28 40.4013 424.28 40.4013 424.28C40.4013 424.28 40.9725 424.28 42.1149 424.28C43.2573 424.28 44.8568 424.28 47.0274 424.28C51.3687 424.28 57.652 424.28 65.6491 424.394C81.7574 424.394 104.835 424.508 132.596 424.508H132.824V424.28C132.824 395.605 132.824 361.446 132.824 325.002V324.659H132.482C98.8939 324.659 67.3627 324.659 40.287 324.659H40.0585V324.888C40.0585 354.591 40.1728 379.496 40.1728 396.861C40.1728 405.544 40.1728 412.398 40.287 417.082C40.287 419.367 40.287 421.195 40.287 422.338C40.287 422.909 40.287 423.366 40.287 423.709C40.4013 424.166 40.4013 424.28 40.4013 424.28Z" fill="#263238"/>
<path d="M66.7909 337.684C66.5385 337.684 66.3339 337.479 66.3339 337.227C66.3339 336.974 66.5385 336.77 66.7909 336.77C67.0433 336.77 67.2479 336.974 67.2479 337.227C67.2479 337.479 67.0433 337.684 66.7909 337.684Z" fill="#263238"/>
<path d="M64.2779 337.683C64.0255 337.683 63.8209 337.479 63.8209 337.226C63.8209 336.974 64.0255 336.769 64.2779 336.769C64.5303 336.769 64.7349 336.974 64.7349 337.226C64.7349 337.479 64.5303 337.683 64.2779 337.683Z" fill="#263238"/>
<path d="M61.6499 337.683C61.3975 337.683 61.1929 337.479 61.1929 337.226C61.1929 336.974 61.3975 336.769 61.6499 336.769C61.9023 336.769 62.1069 336.974 62.1069 337.226C62.1069 337.479 61.9023 337.683 61.6499 337.683Z" fill="#263238"/>
<path d="M58.9507 337.752C58.6983 337.752 58.4937 337.548 58.4937 337.295C58.4937 337.043 58.6983 336.838 58.9507 336.838C59.2031 336.838 59.4077 337.043 59.4077 337.295C59.4077 337.548 59.2031 337.752 58.9507 337.752Z" fill="#263238"/>
<path d="M56.3234 337.752C56.071 337.752 55.8664 337.548 55.8664 337.295C55.8664 337.043 56.071 336.838 56.3234 336.838C56.5758 336.838 56.7804 337.043 56.7804 337.295C56.7804 337.548 56.5758 337.752 56.3234 337.752Z" fill="#263238"/>
<path d="M53.7672 337.683C53.5148 337.683 53.3102 337.479 53.3102 337.226C53.3102 336.974 53.5148 336.769 53.7672 336.769C54.0196 336.769 54.2242 336.974 54.2242 337.226C54.2242 337.479 54.0196 337.683 53.7672 337.683Z" fill="#263238"/>
<path d="M51.2549 337.683C51.0025 337.683 50.7979 337.479 50.7979 337.226C50.7979 336.974 51.0025 336.769 51.2549 336.769C51.5073 336.769 51.7119 336.974 51.7119 337.226C51.7119 337.479 51.5073 337.683 51.2549 337.683Z" fill="#263238"/>
<path d="M52.3971 339.511C52.1447 339.511 51.9402 339.307 51.9402 339.054C51.9402 338.802 52.1447 338.597 52.3971 338.597C52.6495 338.597 52.8541 338.802 52.8541 339.054C52.8541 339.307 52.6495 339.511 52.3971 339.511Z" fill="#263238"/>
<path d="M54.9524 339.58C54.7 339.58 54.4954 339.376 54.4954 339.123C54.4954 338.871 54.7 338.667 54.9524 338.667C55.2048 338.667 55.4094 338.871 55.4094 339.123C55.4094 339.376 55.2048 339.58 54.9524 339.58Z" fill="#263238"/>
<path d="M57.6935 339.58C57.4411 339.58 57.2365 339.376 57.2365 339.123C57.2365 338.871 57.4411 338.667 57.6935 338.667C57.9459 338.667 58.1505 338.871 58.1505 339.123C58.1505 339.376 57.9459 339.58 57.6935 339.58Z" fill="#263238"/>
<path d="M60.3215 339.58C60.0691 339.58 59.8645 339.376 59.8645 339.123C59.8645 338.871 60.0691 338.667 60.3215 338.667C60.5739 338.667 60.7785 338.871 60.7785 339.123C60.7785 339.376 60.5739 339.58 60.3215 339.58Z" fill="#263238"/>
<path d="M63.0217 339.511C62.7694 339.511 62.5648 339.307 62.5648 339.054C62.5648 338.802 62.7694 338.597 63.0217 338.597C63.2741 338.597 63.4787 338.802 63.4787 339.054C63.4787 339.307 63.2741 339.511 63.0217 339.511Z" fill="#263238"/>
<path d="M65.7629 339.511C65.5105 339.511 65.3059 339.307 65.3059 339.054C65.3059 338.802 65.5105 338.597 65.7629 338.597C66.0153 338.597 66.2198 338.802 66.2198 339.054C66.2198 339.307 66.0153 339.511 65.7629 339.511Z" fill="#263238"/>
<path d="M66.7912 341.453C66.5388 341.453 66.3342 341.248 66.3342 340.996C66.3342 340.744 66.5388 340.539 66.7912 340.539C67.0436 340.539 67.2482 340.744 67.2482 340.996C67.2482 341.248 67.0436 341.453 66.7912 341.453Z" fill="#263238"/>
<path d="M64.2779 341.453C64.0255 341.453 63.8209 341.248 63.8209 340.996C63.8209 340.744 64.0255 340.539 64.2779 340.539C64.5303 340.539 64.7349 340.744 64.7349 340.996C64.7349 341.248 64.5303 341.453 64.2779 341.453Z" fill="#263238"/>
<path d="M61.6499 341.453C61.3975 341.453 61.1929 341.248 61.1929 340.996C61.1929 340.744 61.3975 340.539 61.6499 340.539C61.9023 340.539 62.1069 340.744 62.1069 340.996C62.1069 341.248 61.9023 341.453 61.6499 341.453Z" fill="#263238"/>
<path d="M58.9507 341.522C58.6983 341.522 58.4937 341.318 58.4937 341.065C58.4937 340.813 58.6983 340.608 58.9507 340.608C59.2031 340.608 59.4077 340.813 59.4077 341.065C59.4077 341.318 59.2031 341.522 58.9507 341.522Z" fill="#263238"/>
<path d="M56.3234 341.522C56.071 341.522 55.8664 341.318 55.8664 341.065C55.8664 340.813 56.071 340.608 56.3234 340.608C56.5758 340.608 56.7804 340.813 56.7804 341.065C56.7804 341.318 56.5758 341.522 56.3234 341.522Z" fill="#263238"/>
<path d="M53.7672 341.453C53.5148 341.453 53.3102 341.248 53.3102 340.996C53.3102 340.744 53.5148 340.539 53.7672 340.539C54.0196 340.539 54.2242 340.744 54.2242 340.996C54.2242 341.248 54.0196 341.453 53.7672 341.453Z" fill="#263238"/>
<path d="M51.2549 341.453C51.0025 341.453 50.7979 341.248 50.7979 340.996C50.7979 340.744 51.0025 340.539 51.2549 340.539C51.5073 340.539 51.7119 340.744 51.7119 340.996C51.7119 341.248 51.5073 341.453 51.2549 341.453Z" fill="#263238"/>
<path d="M52.3971 343.167C52.1447 343.167 51.9402 342.962 51.9402 342.71C51.9402 342.457 52.1447 342.253 52.3971 342.253C52.6495 342.253 52.8541 342.457 52.8541 342.71C52.8541 342.962 52.6495 343.167 52.3971 343.167Z" fill="#263238"/>
<path d="M54.9524 343.235C54.7 343.235 54.4954 343.031 54.4954 342.779C54.4954 342.526 54.7 342.322 54.9524 342.322C55.2048 342.322 55.4094 342.526 55.4094 342.779C55.4094 343.031 55.2048 343.235 54.9524 343.235Z" fill="#263238"/>
<path d="M57.6935 343.235C57.4411 343.235 57.2365 343.031 57.2365 342.779C57.2365 342.526 57.4411 342.322 57.6935 342.322C57.9459 342.322 58.1505 342.526 58.1505 342.779C58.1505 343.031 57.9459 343.235 57.6935 343.235Z" fill="#263238"/>
<path d="M60.3215 343.235C60.0691 343.235 59.8645 343.031 59.8645 342.779C59.8645 342.526 60.0691 342.322 60.3215 342.322C60.5739 342.322 60.7785 342.526 60.7785 342.779C60.7785 343.031 60.5739 343.235 60.3215 343.235Z" fill="#263238"/>
<path d="M63.0217 343.167C62.7694 343.167 62.5648 342.962 62.5648 342.71C62.5648 342.457 62.7694 342.253 63.0217 342.253C63.2741 342.253 63.4787 342.457 63.4787 342.71C63.4787 342.962 63.2741 343.167 63.0217 343.167Z" fill="#263238"/>
<path d="M65.7629 343.167C65.5105 343.167 65.3059 342.962 65.3059 342.71C65.3059 342.457 65.5105 342.253 65.7629 342.253C66.0153 342.253 66.2198 342.457 66.2198 342.71C66.2198 342.962 66.0153 343.167 65.7629 343.167Z" fill="#263238"/>
<path d="M66.7912 345.224C66.5388 345.224 66.3342 345.019 66.3342 344.767C66.3342 344.514 66.5388 344.31 66.7912 344.31C67.0436 344.31 67.2482 344.514 67.2482 344.767C67.2482 345.019 67.0436 345.224 66.7912 345.224Z" fill="#263238"/>
<path d="M64.2779 345.224C64.0255 345.224 63.8209 345.019 63.8209 344.767C63.8209 344.514 64.0255 344.31 64.2779 344.31C64.5303 344.31 64.7349 344.514 64.7349 344.767C64.7349 345.019 64.5303 345.224 64.2779 345.224Z" fill="#263238"/>
<path d="M61.6499 345.224C61.3975 345.224 61.1929 345.019 61.1929 344.767C61.1929 344.514 61.3975 344.31 61.6499 344.31C61.9023 344.31 62.1069 344.514 62.1069 344.767C62.1069 345.019 61.9023 345.224 61.6499 345.224Z" fill="#263238"/>
<path d="M58.9507 345.293C58.6983 345.293 58.4937 345.088 58.4937 344.836C58.4937 344.583 58.6983 344.379 58.9507 344.379C59.2031 344.379 59.4077 344.583 59.4077 344.836C59.4077 345.088 59.2031 345.293 58.9507 345.293Z" fill="#263238"/>
<path d="M56.3234 345.293C56.071 345.293 55.8664 345.088 55.8664 344.836C55.8664 344.583 56.071 344.379 56.3234 344.379C56.5758 344.379 56.7804 344.583 56.7804 344.836C56.7804 345.088 56.5758 345.293 56.3234 345.293Z" fill="#263238"/>
<path d="M53.7672 345.224C53.5148 345.224 53.3102 345.019 53.3102 344.767C53.3102 344.514 53.5148 344.31 53.7672 344.31C54.0196 344.31 54.2242 344.514 54.2242 344.767C54.2242 345.019 54.0196 345.224 53.7672 345.224Z" fill="#263238"/>
<path d="M51.2549 345.224C51.0025 345.224 50.7979 345.019 50.7979 344.767C50.7979 344.514 51.0025 344.31 51.2549 344.31C51.5073 344.31 51.7119 344.514 51.7119 344.767C51.7119 345.019 51.5073 345.224 51.2549 345.224Z" fill="#263238"/>
<path d="M52.3971 346.937C52.1447 346.937 51.9402 346.733 51.9402 346.48C51.9402 346.228 52.1447 346.023 52.3971 346.023C52.6495 346.023 52.8541 346.228 52.8541 346.48C52.8541 346.733 52.6495 346.937 52.3971 346.937Z" fill="#263238"/>
<path d="M54.9524 347.006C54.7 347.006 54.4954 346.802 54.4954 346.549C54.4954 346.297 54.7 346.093 54.9524 346.093C55.2048 346.093 55.4094 346.297 55.4094 346.549C55.4094 346.802 55.2048 347.006 54.9524 347.006Z" fill="#263238"/>
<path d="M57.6935 347.006C57.4411 347.006 57.2365 346.802 57.2365 346.549C57.2365 346.297 57.4411 346.093 57.6935 346.093C57.9459 346.093 58.1505 346.297 58.1505 346.549C58.1505 346.802 57.9459 347.006 57.6935 347.006Z" fill="#263238"/>
<path d="M60.3215 347.006C60.0691 347.006 59.8645 346.802 59.8645 346.549C59.8645 346.297 60.0691 346.093 60.3215 346.093C60.5739 346.093 60.7785 346.297 60.7785 346.549C60.7785 346.802 60.5739 347.006 60.3215 347.006Z" fill="#263238"/>
<path d="M63.0217 346.937C62.7694 346.937 62.5648 346.733 62.5648 346.48C62.5648 346.228 62.7694 346.023 63.0217 346.023C63.2741 346.023 63.4787 346.228 63.4787 346.48C63.4787 346.733 63.2741 346.937 63.0217 346.937Z" fill="#263238"/>
<path d="M65.7629 346.937C65.5105 346.937 65.3059 346.733 65.3059 346.48C65.3059 346.228 65.5105 346.023 65.7629 346.023C66.0153 346.023 66.2198 346.228 66.2198 346.48C66.2198 346.733 66.0153 346.937 65.7629 346.937Z" fill="#263238"/>
<path d="M438.31 255.2V266.167H377.875V428.85H372.278V266.167L119.685 267.424V428.85H114.201V267.081L75.2444 267.424V254.286L438.31 255.2Z" fill="#FF8F6B"/>
<path d="M399.582 263.996L375.705 281.133L377.875 283.189L401.867 265.025L399.582 263.996Z" fill="#FF8F6B"/>
<path d="M91.6962 265.596L119.457 285.36L117.401 287.302L89.5255 266.624L91.6962 265.596Z" fill="#FF8F6B"/>
<path d="M287.851 251.201H350.343V255.771H287.851V251.201Z" fill="#263238"/>
</svg>
