<svg width="207" height="70" viewBox="0 0 207 70" fill="none" xmlns="http://www.w3.org/2000/svg">
<g filter="url(#filter0_b_1675_1534)">
<rect width="207" height="70" rx="16" fill="white"/>
<path d="M71.248 20.8H73.168V32H71.248V20.8ZM74.864 32H72.416V30.224H74.816C75.3707 30.224 75.8827 30.144 76.352 29.984C76.8213 29.824 77.2267 29.584 77.568 29.264C77.92 28.944 78.192 28.544 78.384 28.064C78.5867 27.584 78.688 27.0293 78.688 26.4C78.688 25.7707 78.5867 25.216 78.384 24.736C78.192 24.256 77.92 23.856 77.568 23.536C77.2267 23.216 76.8213 22.976 76.352 22.816C75.8827 22.656 75.3707 22.576 74.816 22.576H72.416V20.8H74.864C76.0053 20.8 77.008 21.0347 77.872 21.504C78.736 21.9627 79.408 22.6133 79.888 23.456C80.3787 24.288 80.624 25.2693 80.624 26.4C80.624 27.5307 80.3787 28.5173 79.888 29.36C79.408 30.192 78.736 30.8427 77.872 31.312C77.008 31.7707 76.0053 32 74.864 32ZM85.0428 32.16C84.2961 32.16 83.6348 32 83.0588 31.68C82.4934 31.36 82.0561 30.912 81.7468 30.336C81.4374 29.76 81.2828 29.088 81.2828 28.32C81.2828 27.5413 81.4374 26.864 81.7468 26.288C82.0668 25.712 82.5148 25.2693 83.0908 24.96C83.6668 24.64 84.3441 24.48 85.1228 24.48C85.9014 24.48 86.5628 24.6293 87.1068 24.928C87.6508 25.2267 88.0668 25.6587 88.3548 26.224C88.6534 26.7787 88.8028 27.4507 88.8028 28.24C88.8028 28.3253 88.7974 28.416 88.7868 28.512C88.7868 28.608 88.7814 28.6773 88.7708 28.72H82.3068V27.536H87.2988L86.7708 28.272C86.8028 28.208 86.8348 28.1227 86.8668 28.016C86.9094 27.8987 86.9308 27.8027 86.9308 27.728C86.9308 27.3333 86.8508 26.992 86.6908 26.704C86.5414 26.416 86.3281 26.192 86.0508 26.032C85.7841 25.872 85.4694 25.792 85.1068 25.792C84.6694 25.792 84.2961 25.888 83.9868 26.08C83.6774 26.272 83.4428 26.5493 83.2828 26.912C83.1228 27.2747 83.0374 27.7227 83.0268 28.256C83.0268 28.7893 83.1068 29.2427 83.2668 29.616C83.4268 29.9787 83.6614 30.256 83.9708 30.448C84.2908 30.64 84.6748 30.736 85.1228 30.736C85.5921 30.736 86.0028 30.64 86.3548 30.448C86.7068 30.256 87.0001 29.9627 87.2348 29.568L88.7228 30.176C88.3388 30.8373 87.8428 31.3333 87.2348 31.664C86.6268 31.9947 85.8961 32.16 85.0428 32.16ZM90.3081 29.584C90.5428 29.84 90.7775 30.064 91.0121 30.256C91.2575 30.4373 91.5028 30.576 91.7481 30.672C91.9935 30.7573 92.2388 30.8 92.4841 30.8C92.7935 30.8 93.0335 30.7307 93.2041 30.592C93.3855 30.4533 93.4761 30.2613 93.4761 30.016C93.4761 29.8027 93.4068 29.6213 93.2681 29.472C93.1295 29.312 92.9375 29.1787 92.6921 29.072C92.4468 28.9547 92.1588 28.8373 91.8281 28.72C91.4975 28.592 91.1668 28.4427 90.8361 28.272C90.5161 28.0907 90.2495 27.856 90.0361 27.568C89.8335 27.28 89.7321 26.9173 89.7321 26.48C89.7321 26.032 89.8441 25.6587 90.0681 25.36C90.3028 25.0613 90.6121 24.8427 90.9961 24.704C91.3908 24.5547 91.8121 24.48 92.2601 24.48C92.6655 24.48 93.0441 24.5387 93.3961 24.656C93.7588 24.7733 94.0841 24.928 94.3721 25.12C94.6601 25.312 94.9055 25.5307 95.1081 25.776L94.1481 26.8C93.9028 26.512 93.6095 26.2773 93.2681 26.096C92.9268 25.9147 92.5748 25.824 92.2121 25.824C91.9668 25.824 91.7641 25.8773 91.6041 25.984C91.4441 26.0907 91.3641 26.2453 91.3641 26.448C91.3641 26.6187 91.4335 26.7733 91.5721 26.912C91.7215 27.04 91.9135 27.1573 92.1481 27.264C92.3935 27.3707 92.6655 27.4827 92.9641 27.6C93.3695 27.76 93.7428 27.936 94.0841 28.128C94.4255 28.32 94.6975 28.5547 94.9001 28.832C95.1135 29.1093 95.2201 29.472 95.2201 29.92C95.2201 30.6133 94.9801 31.1733 94.5001 31.6C94.0308 32.016 93.3908 32.224 92.5801 32.224C92.0788 32.224 91.6148 32.1493 91.1881 32C90.7721 31.84 90.4041 31.6373 90.0841 31.392C89.7748 31.136 89.5135 30.8693 89.3001 30.592L90.3081 29.584ZM96.2094 21.712C96.2094 21.4133 96.316 21.1627 96.5294 20.96C96.7534 20.7573 97.0094 20.656 97.2974 20.656C97.6067 20.656 97.8627 20.7573 98.0654 20.96C98.2787 21.1627 98.3854 21.4133 98.3854 21.712C98.3854 22 98.2787 22.2507 98.0654 22.464C97.8627 22.6667 97.6067 22.768 97.2974 22.768C97.0094 22.768 96.7534 22.6667 96.5294 22.464C96.316 22.2507 96.2094 22 96.2094 21.712ZM96.4494 24.64H98.1454V32H96.4494V24.64ZM99.6274 32.496H101.339C101.35 32.8267 101.441 33.1253 101.611 33.392C101.793 33.6587 102.038 33.8667 102.347 34.016C102.657 34.1653 103.014 34.24 103.419 34.24C103.782 34.24 104.129 34.1547 104.459 33.984C104.79 33.8133 105.057 33.552 105.259 33.2C105.473 32.848 105.579 32.3947 105.579 31.84V24.64H107.275V31.84C107.275 32.7253 107.094 33.456 106.731 34.032C106.379 34.608 105.915 35.0347 105.339 35.312C104.763 35.6 104.139 35.744 103.467 35.744C102.667 35.744 101.985 35.6053 101.419 35.328C100.854 35.0613 100.417 34.6827 100.107 34.192C99.8087 33.7013 99.6487 33.136 99.6274 32.496ZM99.4834 28.288C99.4834 27.4667 99.6487 26.7787 99.9794 26.224C100.31 25.6587 100.747 25.2267 101.291 24.928C101.846 24.6293 102.438 24.48 103.067 24.48C103.686 24.48 104.225 24.6347 104.683 24.944C105.153 25.2427 105.521 25.6747 105.787 26.24C106.065 26.8053 106.203 27.488 106.203 28.288C106.203 29.0773 106.065 29.7547 105.787 30.32C105.521 30.8853 105.153 31.3227 104.683 31.632C104.225 31.9307 103.686 32.08 103.067 32.08C102.438 32.08 101.846 31.9307 101.291 31.632C100.747 31.3333 100.31 30.9013 99.9794 30.336C99.6487 29.7707 99.4834 29.088 99.4834 28.288ZM101.275 28.288C101.275 28.7787 101.377 29.1947 101.579 29.536C101.782 29.8773 102.049 30.1387 102.379 30.32C102.721 30.4907 103.089 30.576 103.483 30.576C103.814 30.576 104.139 30.4907 104.459 30.32C104.79 30.1493 105.057 29.8933 105.259 29.552C105.473 29.2 105.579 28.7787 105.579 28.288C105.579 27.904 105.515 27.5733 105.387 27.296C105.27 27.008 105.11 26.768 104.907 26.576C104.705 26.3733 104.475 26.224 104.219 26.128C103.974 26.032 103.729 25.984 103.483 25.984C103.089 25.984 102.721 26.0747 102.379 26.256C102.049 26.4267 101.782 26.6827 101.579 27.024C101.377 27.3653 101.275 27.7867 101.275 28.288ZM113.674 27.52C113.674 26.976 113.562 26.5653 113.338 26.288C113.114 26.0107 112.768 25.872 112.298 25.872C111.978 25.872 111.696 25.9413 111.45 26.08C111.205 26.208 111.013 26.4 110.874 26.656C110.736 26.9013 110.666 27.1893 110.666 27.52V32H108.938V24.64H110.666V25.776C110.901 25.3387 111.2 25.0133 111.562 24.8C111.936 24.5867 112.378 24.48 112.89 24.48C113.722 24.48 114.357 24.736 114.794 25.248C115.232 25.7493 115.45 26.4427 115.45 27.328V32H113.674V27.52ZM122.806 32V30.336H128.454V32H122.806ZM122.806 22.464V20.8H128.454V22.464H122.806ZM122.806 26.816V25.184H128.134V26.816H122.806ZM121.638 20.8H123.494V32H121.638V20.8ZM134.891 27.52C134.891 26.976 134.779 26.5653 134.555 26.288C134.331 26.0107 133.984 25.872 133.515 25.872C133.195 25.872 132.912 25.9413 132.667 26.08C132.421 26.208 132.229 26.4 132.091 26.656C131.952 26.9013 131.883 27.1893 131.883 27.52V32H130.155V24.64H131.883V25.776C132.117 25.3387 132.416 25.0133 132.779 24.8C133.152 24.5867 133.595 24.48 134.107 24.48C134.939 24.48 135.573 24.736 136.011 25.248C136.448 25.7493 136.667 26.4427 136.667 27.328V32H134.891V27.52ZM137.977 32.496H139.689C139.7 32.8267 139.791 33.1253 139.961 33.392C140.143 33.6587 140.388 33.8667 140.697 34.016C141.007 34.1653 141.364 34.24 141.769 34.24C142.132 34.24 142.479 34.1547 142.809 33.984C143.14 33.8133 143.407 33.552 143.609 33.2C143.823 32.848 143.929 32.3947 143.929 31.84V24.64H145.625V31.84C145.625 32.7253 145.444 33.456 145.081 34.032C144.729 34.608 144.265 35.0347 143.689 35.312C143.113 35.6 142.489 35.744 141.817 35.744C141.017 35.744 140.335 35.6053 139.769 35.328C139.204 35.0613 138.767 34.6827 138.457 34.192C138.159 33.7013 137.999 33.136 137.977 32.496ZM137.833 28.288C137.833 27.4667 137.999 26.7787 138.329 26.224C138.66 25.6587 139.097 25.2267 139.641 24.928C140.196 24.6293 140.788 24.48 141.417 24.48C142.036 24.48 142.575 24.6347 143.033 24.944C143.503 25.2427 143.871 25.6747 144.137 26.24C144.415 26.8053 144.553 27.488 144.553 28.288C144.553 29.0773 144.415 29.7547 144.137 30.32C143.871 30.8853 143.503 31.3227 143.033 31.632C142.575 31.9307 142.036 32.08 141.417 32.08C140.788 32.08 140.196 31.9307 139.641 31.632C139.097 31.3333 138.66 30.9013 138.329 30.336C137.999 29.7707 137.833 29.088 137.833 28.288ZM139.625 28.288C139.625 28.7787 139.727 29.1947 139.929 29.536C140.132 29.8773 140.399 30.1387 140.729 30.32C141.071 30.4907 141.439 30.576 141.833 30.576C142.164 30.576 142.489 30.4907 142.809 30.32C143.14 30.1493 143.407 29.8933 143.609 29.552C143.823 29.2 143.929 28.7787 143.929 28.288C143.929 27.904 143.865 27.5733 143.737 27.296C143.62 27.008 143.46 26.768 143.257 26.576C143.055 26.3733 142.825 26.224 142.569 26.128C142.324 26.032 142.079 25.984 141.833 25.984C141.439 25.984 141.071 26.0747 140.729 26.256C140.399 26.4267 140.132 26.6827 139.929 27.024C139.727 27.3653 139.625 27.7867 139.625 28.288ZM147.224 21.712C147.224 21.4133 147.331 21.1627 147.544 20.96C147.768 20.7573 148.024 20.656 148.312 20.656C148.622 20.656 148.878 20.7573 149.08 20.96C149.294 21.1627 149.4 21.4133 149.4 21.712C149.4 22 149.294 22.2507 149.08 22.464C148.878 22.6667 148.622 22.768 148.312 22.768C148.024 22.768 147.768 22.6667 147.544 22.464C147.331 22.2507 147.224 22 147.224 21.712ZM147.464 24.64H149.16V32H147.464V24.64ZM155.794 27.52C155.794 26.976 155.682 26.5653 155.458 26.288C155.234 26.0107 154.888 25.872 154.418 25.872C154.098 25.872 153.816 25.9413 153.57 26.08C153.325 26.208 153.133 26.4 152.994 26.656C152.856 26.9013 152.786 27.1893 152.786 27.52V32H151.058V24.64H152.786V25.776C153.021 25.3387 153.32 25.0133 153.682 24.8C154.056 24.5867 154.498 24.48 155.01 24.48C155.842 24.48 156.477 24.736 156.914 25.248C157.352 25.7493 157.57 26.4427 157.57 27.328V32H155.794V27.52ZM162.497 32.16C161.75 32.16 161.089 32 160.513 31.68C159.948 31.36 159.51 30.912 159.201 30.336C158.892 29.76 158.737 29.088 158.737 28.32C158.737 27.5413 158.892 26.864 159.201 26.288C159.521 25.712 159.969 25.2693 160.545 24.96C161.121 24.64 161.798 24.48 162.577 24.48C163.356 24.48 164.017 24.6293 164.561 24.928C165.105 25.2267 165.521 25.6587 165.809 26.224C166.108 26.7787 166.257 27.4507 166.257 28.24C166.257 28.3253 166.252 28.416 166.241 28.512C166.241 28.608 166.236 28.6773 166.225 28.72H159.761V27.536H164.753L164.225 28.272C164.257 28.208 164.289 28.1227 164.321 28.016C164.364 27.8987 164.385 27.8027 164.385 27.728C164.385 27.3333 164.305 26.992 164.145 26.704C163.996 26.416 163.782 26.192 163.505 26.032C163.238 25.872 162.924 25.792 162.561 25.792C162.124 25.792 161.75 25.888 161.441 26.08C161.132 26.272 160.897 26.5493 160.737 26.912C160.577 27.2747 160.492 27.7227 160.481 28.256C160.481 28.7893 160.561 29.2427 160.721 29.616C160.881 29.9787 161.116 30.256 161.425 30.448C161.745 30.64 162.129 30.736 162.577 30.736C163.046 30.736 163.457 30.64 163.809 30.448C164.161 30.256 164.454 29.9627 164.689 29.568L166.177 30.176C165.793 30.8373 165.297 31.3333 164.689 31.664C164.081 31.9947 163.35 32.16 162.497 32.16ZM170.627 32.16C169.88 32.16 169.219 32 168.643 31.68C168.077 31.36 167.64 30.912 167.331 30.336C167.021 29.76 166.867 29.088 166.867 28.32C166.867 27.5413 167.021 26.864 167.331 26.288C167.651 25.712 168.099 25.2693 168.675 24.96C169.251 24.64 169.928 24.48 170.707 24.48C171.485 24.48 172.147 24.6293 172.691 24.928C173.235 25.2267 173.651 25.6587 173.939 26.224C174.237 26.7787 174.387 27.4507 174.387 28.24C174.387 28.3253 174.381 28.416 174.371 28.512C174.371 28.608 174.365 28.6773 174.355 28.72H167.891V27.536H172.883L172.355 28.272C172.387 28.208 172.419 28.1227 172.451 28.016C172.493 27.8987 172.515 27.8027 172.515 27.728C172.515 27.3333 172.435 26.992 172.275 26.704C172.125 26.416 171.912 26.192 171.635 26.032C171.368 25.872 171.053 25.792 170.691 25.792C170.253 25.792 169.88 25.888 169.571 26.08C169.261 26.272 169.027 26.5493 168.867 26.912C168.707 27.2747 168.621 27.7227 168.611 28.256C168.611 28.7893 168.691 29.2427 168.851 29.616C169.011 29.9787 169.245 30.256 169.555 30.448C169.875 30.64 170.259 30.736 170.707 30.736C171.176 30.736 171.587 30.64 171.939 30.448C172.291 30.256 172.584 29.9627 172.819 29.568L174.307 30.176C173.923 30.8373 173.427 31.3333 172.819 31.664C172.211 31.9947 171.48 32.16 170.627 32.16ZM177.268 24.64V32H175.556V24.64H177.268ZM179.46 26.48C179.3 26.352 179.151 26.256 179.012 26.192C178.873 26.128 178.697 26.096 178.484 26.096C178.196 26.096 177.961 26.1707 177.78 26.32C177.599 26.4693 177.465 26.6773 177.38 26.944C177.305 27.2 177.268 27.504 177.268 27.856L176.692 27.52C176.692 26.9333 176.799 26.416 177.012 25.968C177.236 25.5093 177.519 25.1467 177.86 24.88C178.212 24.6133 178.575 24.48 178.948 24.48C179.215 24.48 179.465 24.5227 179.7 24.608C179.935 24.6827 180.132 24.8213 180.292 25.024L179.46 26.48Z" fill="#171718"/>
<path opacity="0.5" d="M71.56 44.8C71.56 45.448 71.704 46.02 71.992 46.516C72.288 47.012 72.672 47.4 73.144 47.68C73.616 47.96 74.128 48.1 74.68 48.1C75.08 48.1 75.444 48.048 75.772 47.944C76.108 47.84 76.412 47.696 76.684 47.512C76.956 47.32 77.188 47.1 77.38 46.852V48.196C77.028 48.508 76.644 48.74 76.228 48.892C75.812 49.044 75.296 49.12 74.68 49.12C74.096 49.12 73.548 49.016 73.036 48.808C72.532 48.592 72.088 48.292 71.704 47.908C71.32 47.516 71.02 47.056 70.804 46.528C70.588 46 70.48 45.424 70.48 44.8C70.48 44.176 70.588 43.6 70.804 43.072C71.02 42.544 71.32 42.088 71.704 41.704C72.088 41.312 72.532 41.012 73.036 40.804C73.548 40.588 74.096 40.48 74.68 40.48C75.296 40.48 75.812 40.556 76.228 40.708C76.644 40.86 77.028 41.092 77.38 41.404V42.748C77.188 42.5 76.956 42.284 76.684 42.1C76.412 41.908 76.108 41.76 75.772 41.656C75.444 41.552 75.08 41.5 74.68 41.5C74.128 41.5 73.616 41.64 73.144 41.92C72.672 42.2 72.288 42.588 71.992 43.084C71.704 43.572 71.56 44.144 71.56 44.8ZM79.7148 39.64V49H78.7548V39.64H79.7148ZM82.2948 45.64C82.2948 45.184 82.1948 44.84 81.9948 44.608C81.8028 44.376 81.5108 44.26 81.1188 44.26C80.8388 44.26 80.5908 44.32 80.3748 44.44C80.1668 44.56 80.0028 44.724 79.8828 44.932C79.7708 45.14 79.7148 45.376 79.7148 45.64H79.4028C79.4028 45.2 79.4868 44.812 79.6548 44.476C79.8228 44.132 80.0508 43.86 80.3388 43.66C80.6348 43.46 80.9748 43.36 81.3588 43.36C81.7428 43.36 82.0748 43.44 82.3548 43.6C82.6428 43.76 82.8628 44 83.0148 44.32C83.1748 44.64 83.2548 45.04 83.2548 45.52V49H82.2948V45.64ZM85.1315 47.296C85.1315 47.504 85.1795 47.684 85.2755 47.836C85.3795 47.988 85.5195 48.104 85.6955 48.184C85.8795 48.256 86.0875 48.292 86.3195 48.292C86.6155 48.292 86.8795 48.232 87.1115 48.112C87.3515 47.992 87.5395 47.824 87.6755 47.608C87.8195 47.384 87.8915 47.128 87.8915 46.84L88.0835 47.56C88.0835 47.912 87.9755 48.204 87.7595 48.436C87.5515 48.668 87.2915 48.84 86.9795 48.952C86.6755 49.064 86.3715 49.12 86.0675 49.12C85.7315 49.12 85.4155 49.052 85.1195 48.916C84.8315 48.772 84.5995 48.568 84.4235 48.304C84.2475 48.04 84.1595 47.72 84.1595 47.344C84.1595 46.808 84.3475 46.38 84.7235 46.06C85.1075 45.732 85.6395 45.568 86.3195 45.568C86.7195 45.568 87.0515 45.616 87.3155 45.712C87.5875 45.8 87.8035 45.904 87.9635 46.024C88.1235 46.136 88.2315 46.228 88.2875 46.3V46.864C88.0075 46.672 87.7195 46.536 87.4235 46.456C87.1275 46.368 86.8115 46.324 86.4755 46.324C86.1635 46.324 85.9075 46.364 85.7075 46.444C85.5155 46.524 85.3715 46.636 85.2755 46.78C85.1795 46.924 85.1315 47.096 85.1315 47.296ZM84.9875 44.752L84.5195 44.044C84.7275 43.892 85.0115 43.74 85.3715 43.588C85.7395 43.436 86.1795 43.36 86.6915 43.36C87.1235 43.36 87.4995 43.428 87.8195 43.564C88.1475 43.692 88.3995 43.88 88.5755 44.128C88.7595 44.376 88.8515 44.68 88.8515 45.04V49H87.8915V45.172C87.8915 44.98 87.8595 44.824 87.7955 44.704C87.7315 44.576 87.6395 44.476 87.5195 44.404C87.4075 44.332 87.2755 44.28 87.1235 44.248C86.9715 44.216 86.8115 44.2 86.6435 44.2C86.3715 44.2 86.1235 44.232 85.8995 44.296C85.6835 44.36 85.4995 44.436 85.3475 44.524C85.1955 44.612 85.0755 44.688 84.9875 44.752ZM89.2769 43.48H92.0369V44.38H89.2769V43.48ZM90.1769 41.56H91.1369V49H90.1769V41.56ZM96.5997 45.7V44.74H100.5C100.5 45.324 100.412 45.88 100.236 46.408C100.06 46.928 99.7997 47.392 99.4557 47.8C99.1117 48.208 98.6877 48.532 98.1837 48.772C97.6877 49.004 97.1197 49.12 96.4797 49.12C95.8717 49.12 95.3077 49.016 94.7877 48.808C94.2677 48.592 93.8157 48.292 93.4317 47.908C93.0477 47.516 92.7477 47.056 92.5317 46.528C92.3237 46 92.2197 45.424 92.2197 44.8C92.2197 44.176 92.3237 43.6 92.5317 43.072C92.7477 42.544 93.0477 42.088 93.4317 41.704C93.8157 41.312 94.2677 41.012 94.7877 40.804C95.3077 40.588 95.8717 40.48 96.4797 40.48C96.9997 40.48 97.4757 40.548 97.9077 40.684C98.3477 40.82 98.7397 41.02 99.0837 41.284C99.4357 41.548 99.7317 41.876 99.9717 42.268L99.2517 42.928C98.9877 42.48 98.6197 42.132 98.1477 41.884C97.6757 41.628 97.1197 41.5 96.4797 41.5C95.8877 41.5 95.3517 41.64 94.8717 41.92C94.3917 42.2 94.0077 42.588 93.7197 43.084C93.4397 43.572 93.2997 44.144 93.2997 44.8C93.2997 45.448 93.4397 46.02 93.7197 46.516C94.0077 47.012 94.3917 47.4 94.8717 47.68C95.3517 47.96 95.8877 48.1 96.4797 48.1C96.8957 48.1 97.2677 48.04 97.5957 47.92C97.9317 47.792 98.2197 47.616 98.4597 47.392C98.6997 47.168 98.8957 46.912 99.0477 46.624C99.2077 46.336 99.3237 46.028 99.3957 45.7H96.5997ZM101.644 40.6H102.664V49H101.644V40.6ZM102.208 41.56V40.6H103.924C104.468 40.6 104.952 40.704 105.376 40.912C105.808 41.112 106.148 41.4 106.396 41.776C106.652 42.152 106.78 42.6 106.78 43.12C106.78 43.632 106.652 44.08 106.396 44.464C106.148 44.84 105.808 45.132 105.376 45.34C104.952 45.54 104.468 45.64 103.924 45.64H102.208V44.68H103.924C104.468 44.68 104.908 44.548 105.244 44.284C105.588 44.02 105.76 43.632 105.76 43.12C105.76 42.6 105.588 42.212 105.244 41.956C104.908 41.692 104.468 41.56 103.924 41.56H102.208ZM106.655 41.56V40.6H111.995V41.56H109.835V49H108.815V41.56H106.655ZM115.051 46.6V45.7H117.451V46.6H115.051ZM122.848 44.86H123.988L126.988 49H125.728L122.848 44.86ZM121.348 40.6H122.368V49H121.348V40.6ZM121.912 41.5V40.6H123.628C124.172 40.6 124.656 40.704 125.08 40.912C125.512 41.112 125.852 41.4 126.1 41.776C126.356 42.152 126.484 42.6 126.484 43.12C126.484 43.632 126.356 44.08 126.1 44.464C125.852 44.84 125.512 45.132 125.08 45.34C124.656 45.54 124.172 45.64 123.628 45.64H121.912V44.74H123.628C123.988 44.74 124.304 44.676 124.576 44.548C124.856 44.42 125.072 44.236 125.224 43.996C125.384 43.756 125.464 43.464 125.464 43.12C125.464 42.776 125.384 42.484 125.224 42.244C125.072 42.004 124.856 41.82 124.576 41.692C124.304 41.564 123.988 41.5 123.628 41.5H121.912ZM129.779 49.12C129.267 49.12 128.811 49 128.411 48.76C128.019 48.512 127.711 48.172 127.487 47.74C127.271 47.308 127.163 46.808 127.163 46.24C127.163 45.664 127.275 45.16 127.499 44.728C127.731 44.296 128.051 43.96 128.459 43.72C128.875 43.48 129.355 43.36 129.899 43.36C130.443 43.36 130.907 43.476 131.291 43.708C131.683 43.932 131.983 44.256 132.191 44.68C132.399 45.104 132.503 45.608 132.503 46.192C132.503 46.248 132.499 46.308 132.491 46.372C132.491 46.428 132.491 46.464 132.491 46.48H127.775V45.664H131.735L131.351 46.216C131.375 46.176 131.399 46.116 131.423 46.036C131.447 45.948 131.459 45.876 131.459 45.82C131.459 45.492 131.391 45.208 131.255 44.968C131.127 44.728 130.947 44.54 130.715 44.404C130.483 44.268 130.211 44.2 129.899 44.2C129.531 44.2 129.215 44.28 128.951 44.44C128.695 44.592 128.495 44.816 128.351 45.112C128.215 45.4 128.143 45.756 128.135 46.18C128.135 46.612 128.203 46.98 128.339 47.284C128.475 47.588 128.675 47.82 128.939 47.98C129.203 48.14 129.523 48.22 129.899 48.22C130.275 48.22 130.607 48.14 130.895 47.98C131.183 47.812 131.427 47.56 131.627 47.224L132.407 47.716C132.119 48.18 131.755 48.532 131.315 48.772C130.883 49.004 130.371 49.12 129.779 49.12ZM141.019 45.52V49H140.059V45.64C140.059 45.168 139.971 44.82 139.795 44.596C139.627 44.372 139.363 44.26 139.003 44.26C138.739 44.26 138.511 44.316 138.319 44.428C138.127 44.532 137.979 44.688 137.875 44.896C137.771 45.104 137.719 45.352 137.719 45.64V49H136.759V45.64C136.759 45.168 136.671 44.82 136.495 44.596C136.327 44.372 136.063 44.26 135.703 44.26C135.439 44.26 135.211 44.316 135.019 44.428C134.827 44.532 134.679 44.688 134.575 44.896C134.471 45.104 134.419 45.352 134.419 45.64V49H133.459V43.48H134.419V44.284C134.587 43.972 134.795 43.74 135.043 43.588C135.299 43.436 135.599 43.36 135.943 43.36C136.327 43.36 136.655 43.452 136.927 43.636C137.207 43.812 137.411 44.064 137.539 44.392C137.731 44.048 137.971 43.792 138.259 43.624C138.547 43.448 138.875 43.36 139.243 43.36C139.619 43.36 139.939 43.444 140.203 43.612C140.467 43.78 140.667 44.028 140.803 44.356C140.947 44.676 141.019 45.064 141.019 45.52ZM141.982 46.24C141.982 45.68 142.106 45.184 142.354 44.752C142.61 44.32 142.954 43.98 143.386 43.732C143.818 43.484 144.302 43.36 144.838 43.36C145.382 43.36 145.866 43.484 146.29 43.732C146.722 43.98 147.062 44.32 147.31 44.752C147.566 45.184 147.694 45.68 147.694 46.24C147.694 46.792 147.566 47.288 147.31 47.728C147.062 48.16 146.722 48.5 146.29 48.748C145.866 48.996 145.382 49.12 144.838 49.12C144.302 49.12 143.818 48.996 143.386 48.748C142.954 48.5 142.61 48.16 142.354 47.728C142.106 47.288 141.982 46.792 141.982 46.24ZM142.954 46.24C142.954 46.624 143.034 46.964 143.194 47.26C143.362 47.556 143.586 47.792 143.866 47.968C144.154 48.136 144.478 48.22 144.838 48.22C145.198 48.22 145.518 48.136 145.798 47.968C146.086 47.792 146.31 47.556 146.47 47.26C146.638 46.964 146.722 46.624 146.722 46.24C146.722 45.856 146.638 45.516 146.47 45.22C146.31 44.916 146.086 44.68 145.798 44.512C145.518 44.344 145.198 44.26 144.838 44.26C144.478 44.26 144.154 44.344 143.866 44.512C143.586 44.68 143.362 44.916 143.194 45.22C143.034 45.516 142.954 45.856 142.954 46.24ZM147.813 43.48H150.573V44.38H147.813V43.48ZM148.713 41.56H149.673V49H148.713V41.56ZM153.312 49.12C152.8 49.12 152.344 49 151.944 48.76C151.552 48.512 151.244 48.172 151.02 47.74C150.804 47.308 150.696 46.808 150.696 46.24C150.696 45.664 150.808 45.16 151.032 44.728C151.264 44.296 151.584 43.96 151.992 43.72C152.408 43.48 152.888 43.36 153.432 43.36C153.976 43.36 154.44 43.476 154.824 43.708C155.216 43.932 155.516 44.256 155.724 44.68C155.932 45.104 156.036 45.608 156.036 46.192C156.036 46.248 156.032 46.308 156.024 46.372C156.024 46.428 156.024 46.464 156.024 46.48H151.308V45.664H155.268L154.884 46.216C154.908 46.176 154.932 46.116 154.956 46.036C154.98 45.948 154.992 45.876 154.992 45.82C154.992 45.492 154.924 45.208 154.788 44.968C154.66 44.728 154.48 44.54 154.248 44.404C154.016 44.268 153.744 44.2 153.432 44.2C153.064 44.2 152.748 44.28 152.484 44.44C152.228 44.592 152.028 44.816 151.884 45.112C151.748 45.4 151.676 45.756 151.668 46.18C151.668 46.612 151.736 46.98 151.872 47.284C152.008 47.588 152.208 47.82 152.472 47.98C152.736 48.14 153.056 48.22 153.432 48.22C153.808 48.22 154.14 48.14 154.428 47.98C154.716 47.812 154.96 47.56 155.16 47.224L155.94 47.716C155.652 48.18 155.288 48.532 154.848 48.772C154.416 49.004 153.904 49.12 153.312 49.12Z" fill="#171718"/>
<circle opacity="0.5" cx="35" cy="35" r="24.5" stroke="url(#paint0_linear_1675_1534)"/>
<path d="M34.6604 38.7993L28.2061 34.9995V28.3331C28.2061 25.3877 30.6395 23 33.6412 23C35.5042 23 37.1482 23.9197 38.1275 25.3216" stroke="url(#paint1_linear_1675_1534)" stroke-width="1.5" stroke-linecap="round" stroke-linejoin="round"/>
<path d="M31.7988 44.5711C32.7681 46.0332 34.448 47 36.3581 47C39.3599 47 41.7933 44.6123 41.7933 41.6669V35.0005L35.2141 31.1272" stroke="url(#paint2_linear_1675_1534)" stroke-width="1.5" stroke-linecap="round" stroke-linejoin="round"/>
<path d="M31.6021 36.9994L31.6016 29.2256L37.4853 25.8924C40.0849 24.4197 43.409 25.2937 44.9099 27.8444C45.8784 29.4905 45.851 31.4325 45.0112 32.9989" stroke="url(#paint3_linear_1675_1534)" stroke-width="1.5" stroke-linecap="round" stroke-linejoin="round"/>
<path d="M24.9865 36.9984C24.1463 38.5648 24.1188 40.5072 25.0875 42.1534C26.5884 44.7042 29.9124 45.5781 32.5121 44.1054L38.3958 40.7722L38.5237 33.312" stroke="url(#paint4_linear_1675_1534)" stroke-width="1.5" stroke-linecap="round" stroke-linejoin="round"/>
<path d="M41.7934 42.507C43.5874 42.4304 45.3047 41.4837 46.2692 39.8446C47.77 37.2939 46.8794 34.0322 44.2798 32.5595L38.396 29.2263L31.6514 32.9003" stroke="url(#paint5_linear_1675_1534)" stroke-width="1.5" stroke-linecap="round" stroke-linejoin="round"/>
<path d="M28.2058 27.4923C26.4114 27.5686 24.6937 28.5154 23.7291 30.1548C22.2282 32.7056 23.1189 35.9672 25.7185 37.4399L31.6022 40.7731L38.3326 37.107" stroke="url(#paint6_linear_1675_1534)" stroke-width="1.5" stroke-linecap="round" stroke-linejoin="round"/>
</g>
<defs>
<filter id="filter0_b_1675_1534" x="-40" y="-40" width="287" height="150" filterUnits="userSpaceOnUse" color-interpolation-filters="sRGB">
<feFlood flood-opacity="0" result="BackgroundImageFix"/>
<feGaussianBlur in="BackgroundImageFix" stdDeviation="20"/>
<feComposite in2="SourceAlpha" operator="in" result="effect1_backgroundBlur_1675_1534"/>
<feBlend mode="normal" in="SourceGraphic" in2="effect1_backgroundBlur_1675_1534" result="shape"/>
</filter>
<linearGradient id="paint0_linear_1675_1534" x1="10" y1="35" x2="60" y2="35" gradientUnits="userSpaceOnUse">
<stop stop-color="#198BD8"/>
<stop offset="1" stop-color="#F03DCE"/>
</linearGradient>
<linearGradient id="paint1_linear_1675_1534" x1="28.2061" y1="30.8996" x2="38.1275" y2="30.8996" gradientUnits="userSpaceOnUse">
<stop stop-color="#198BD8"/>
<stop offset="1" stop-color="#F03DCE"/>
</linearGradient>
<linearGradient id="paint2_linear_1675_1534" x1="31.7988" y1="39.0636" x2="41.7933" y2="39.0636" gradientUnits="userSpaceOnUse">
<stop stop-color="#198BD8"/>
<stop offset="1" stop-color="#F03DCE"/>
</linearGradient>
<linearGradient id="paint3_linear_1675_1534" x1="31.6016" y1="31.0882" x2="45.6389" y2="31.0882" gradientUnits="userSpaceOnUse">
<stop stop-color="#198BD8"/>
<stop offset="1" stop-color="#F03DCE"/>
</linearGradient>
<linearGradient id="paint4_linear_1675_1534" x1="24.3584" y1="39.0664" x2="38.5237" y2="39.0664" gradientUnits="userSpaceOnUse">
<stop stop-color="#198BD8"/>
<stop offset="1" stop-color="#F03DCE"/>
</linearGradient>
<linearGradient id="paint5_linear_1675_1534" x1="31.6514" y1="35.8667" x2="46.9982" y2="35.8667" gradientUnits="userSpaceOnUse">
<stop stop-color="#198BD8"/>
<stop offset="1" stop-color="#F03DCE"/>
</linearGradient>
<linearGradient id="paint6_linear_1675_1534" x1="23" y1="34.1327" x2="38.3326" y2="34.1327" gradientUnits="userSpaceOnUse">
<stop stop-color="#198BD8"/>
<stop offset="1" stop-color="#F03DCE"/>
</linearGradient>
</defs>
</svg>
