<svg width="281" height="173" viewBox="0 0 281 173" fill="none" xmlns="http://www.w3.org/2000/svg">
<rect width="281" height="173" rx="16" fill="white"/>
<circle opacity="0.5" cx="45" cy="45" r="24.5" stroke="url(#paint0_linear_1672_1528)"/>
<circle opacity="0.5" cx="246" cy="45" r="14.5" stroke="#6B7280"/>
<path d="M81.248 29.8H83.136V41H81.248V29.8ZM82.368 31.464V29.8H84.624C85.4347 29.8 86.1387 29.944 86.736 30.232C87.344 30.5093 87.8133 30.9093 88.144 31.432C88.4747 31.944 88.64 32.5573 88.64 33.272C88.64 33.9867 88.4747 34.6053 88.144 35.128C87.8133 35.6507 87.344 36.056 86.736 36.344C86.1387 36.6213 85.4347 36.76 84.624 36.76H82.368V35.096H84.624C85.2747 35.096 85.7973 34.9413 86.192 34.632C86.5867 34.3227 86.784 33.8693 86.784 33.272C86.784 32.6747 86.5867 32.2267 86.192 31.928C85.7973 31.6187 85.2747 31.464 84.624 31.464H82.368ZM91.2735 33.64V41H89.5615V33.64H91.2735ZM93.4655 35.48C93.3055 35.352 93.1562 35.256 93.0175 35.192C92.8788 35.128 92.7028 35.096 92.4895 35.096C92.2015 35.096 91.9668 35.1707 91.7855 35.32C91.6042 35.4693 91.4708 35.6773 91.3855 35.944C91.3108 36.2 91.2735 36.504 91.2735 36.856L90.6975 36.52C90.6975 35.9333 90.8042 35.416 91.0175 34.968C91.2415 34.5093 91.5242 34.1467 91.8655 33.88C92.2175 33.6133 92.5802 33.48 92.9535 33.48C93.2202 33.48 93.4708 33.5227 93.7055 33.608C93.9402 33.6827 94.1375 33.8213 94.2975 34.024L93.4655 35.48ZM94.209 37.32C94.209 36.5627 94.3797 35.896 94.721 35.32C95.073 34.744 95.5477 34.296 96.145 33.976C96.7423 33.6453 97.4197 33.48 98.177 33.48C98.9343 33.48 99.6063 33.6453 100.193 33.976C100.79 34.296 101.265 34.744 101.617 35.32C101.969 35.896 102.145 36.5627 102.145 37.32C102.145 38.0667 101.969 38.7333 101.617 39.32C101.265 39.896 100.79 40.3493 100.193 40.68C99.6063 41 98.9343 41.16 98.177 41.16C97.4197 41.16 96.7423 41 96.145 40.68C95.5477 40.3493 95.073 39.896 94.721 39.32C94.3797 38.7333 94.209 38.0667 94.209 37.32ZM95.985 37.32C95.985 37.7787 96.081 38.184 96.273 38.536C96.465 38.8773 96.7263 39.1493 97.057 39.352C97.3877 39.544 97.761 39.64 98.177 39.64C98.5823 39.64 98.9503 39.544 99.281 39.352C99.6223 39.1493 99.889 38.8773 100.081 38.536C100.273 38.184 100.369 37.7787 100.369 37.32C100.369 36.8613 100.273 36.456 100.081 36.104C99.889 35.752 99.6223 35.48 99.281 35.288C98.9503 35.096 98.5823 35 98.177 35C97.761 35 97.3877 35.096 97.057 35.288C96.7263 35.48 96.465 35.752 96.273 36.104C96.081 36.456 95.985 36.8613 95.985 37.32ZM108.841 28.52H110.585V41H108.841V28.52ZM102.745 37.32C102.745 36.5093 102.91 35.8213 103.241 35.256C103.571 34.68 104.009 34.2427 104.553 33.944C105.107 33.6347 105.699 33.48 106.329 33.48C106.947 33.48 107.486 33.6347 107.945 33.944C108.414 34.2533 108.782 34.696 109.049 35.272C109.326 35.8373 109.465 36.52 109.465 37.32C109.465 38.1093 109.326 38.792 109.049 39.368C108.782 39.944 108.414 40.3867 107.945 40.696C107.486 41.0053 106.947 41.16 106.329 41.16C105.699 41.16 105.107 41.0107 104.553 40.712C104.009 40.4027 103.571 39.96 103.241 39.384C102.91 38.808 102.745 38.12 102.745 37.32ZM104.537 37.32C104.537 37.8107 104.638 38.232 104.841 38.584C105.043 38.936 105.31 39.2027 105.641 39.384C105.982 39.5653 106.35 39.656 106.745 39.656C107.075 39.656 107.401 39.5653 107.721 39.384C108.051 39.2027 108.318 38.9413 108.521 38.6C108.734 38.248 108.841 37.8213 108.841 37.32C108.841 36.8187 108.734 36.3973 108.521 36.056C108.318 35.704 108.051 35.4373 107.721 35.256C107.401 35.0747 107.075 34.984 106.745 34.984C106.35 34.984 105.982 35.0747 105.641 35.256C105.31 35.4373 105.043 35.704 104.841 36.056C104.638 36.408 104.537 36.8293 104.537 37.32ZM114.023 38.12C114.023 38.6427 114.135 39.048 114.359 39.336C114.583 39.624 114.924 39.768 115.383 39.768C115.713 39.768 116.001 39.704 116.247 39.576C116.492 39.4373 116.684 39.2453 116.823 39C116.961 38.744 117.031 38.4507 117.031 38.12V33.64H118.759V41H117.031V39.864C116.796 40.2907 116.492 40.616 116.119 40.84C115.756 41.0533 115.319 41.16 114.807 41.16C113.985 41.16 113.351 40.904 112.903 40.392C112.465 39.88 112.247 39.1867 112.247 38.312V33.64H114.023V38.12ZM121.637 37.32C121.637 37.7893 121.739 38.2 121.941 38.552C122.144 38.8933 122.416 39.1653 122.757 39.368C123.109 39.5707 123.499 39.672 123.925 39.672C124.277 39.672 124.613 39.6187 124.933 39.512C125.253 39.4053 125.536 39.256 125.781 39.064C126.027 38.872 126.208 38.6587 126.325 38.424V40.328C126.069 40.584 125.723 40.7867 125.285 40.936C124.848 41.0853 124.368 41.16 123.845 41.16C123.088 41.16 122.405 41 121.797 40.68C121.2 40.3493 120.725 39.896 120.373 39.32C120.032 38.7333 119.861 38.0667 119.861 37.32C119.861 36.5627 120.032 35.896 120.373 35.32C120.725 34.744 121.2 34.296 121.797 33.976C122.405 33.6453 123.088 33.48 123.845 33.48C124.368 33.48 124.848 33.5547 125.285 33.704C125.723 33.8533 126.069 34.056 126.325 34.312V36.216C126.208 35.9707 126.021 35.7573 125.765 35.576C125.52 35.384 125.237 35.2347 124.917 35.128C124.597 35.0213 124.267 34.968 123.925 34.968C123.499 34.968 123.109 35.0693 122.757 35.272C122.416 35.4747 122.144 35.752 121.941 36.104C121.739 36.456 121.637 36.8613 121.637 37.32ZM126.731 33.64H130.907V35.16H126.731V33.64ZM127.963 31.08H129.675V41H127.963V31.08ZM136.08 29.8H138V41H136.08V29.8ZM139.696 41H137.248V39.224H139.648C140.203 39.224 140.715 39.144 141.184 38.984C141.653 38.824 142.059 38.584 142.4 38.264C142.752 37.944 143.024 37.544 143.216 37.064C143.419 36.584 143.52 36.0293 143.52 35.4C143.52 34.7707 143.419 34.216 143.216 33.736C143.024 33.256 142.752 32.856 142.4 32.536C142.059 32.216 141.653 31.976 141.184 31.816C140.715 31.656 140.203 31.576 139.648 31.576H137.248V29.8H139.696C140.837 29.8 141.84 30.0347 142.704 30.504C143.568 30.9627 144.24 31.6133 144.72 32.456C145.211 33.288 145.456 34.2693 145.456 35.4C145.456 36.5307 145.211 37.5173 144.72 38.36C144.24 39.192 143.568 39.8427 142.704 40.312C141.84 40.7707 140.837 41 139.696 41ZM149.875 41.16C149.128 41.16 148.467 41 147.891 40.68C147.325 40.36 146.888 39.912 146.579 39.336C146.269 38.76 146.115 38.088 146.115 37.32C146.115 36.5413 146.269 35.864 146.579 35.288C146.899 34.712 147.347 34.2693 147.923 33.96C148.499 33.64 149.176 33.48 149.955 33.48C150.733 33.48 151.395 33.6293 151.939 33.928C152.483 34.2267 152.899 34.6587 153.187 35.224C153.485 35.7787 153.635 36.4507 153.635 37.24C153.635 37.3253 153.629 37.416 153.619 37.512C153.619 37.608 153.613 37.6773 153.603 37.72H147.139V36.536H152.131L151.603 37.272C151.635 37.208 151.667 37.1227 151.699 37.016C151.741 36.8987 151.763 36.8027 151.763 36.728C151.763 36.3333 151.683 35.992 151.523 35.704C151.373 35.416 151.16 35.192 150.883 35.032C150.616 34.872 150.301 34.792 149.939 34.792C149.501 34.792 149.128 34.888 148.819 35.08C148.509 35.272 148.275 35.5493 148.115 35.912C147.955 36.2747 147.869 36.7227 147.859 37.256C147.859 37.7893 147.939 38.2427 148.099 38.616C148.259 38.9787 148.493 39.256 148.803 39.448C149.123 39.64 149.507 39.736 149.955 39.736C150.424 39.736 150.835 39.64 151.187 39.448C151.539 39.256 151.832 38.9627 152.067 38.568L153.555 39.176C153.171 39.8373 152.675 40.3333 152.067 40.664C151.459 40.9947 150.728 41.16 149.875 41.16ZM155.14 38.584C155.375 38.84 155.609 39.064 155.844 39.256C156.089 39.4373 156.335 39.576 156.58 39.672C156.825 39.7573 157.071 39.8 157.316 39.8C157.625 39.8 157.865 39.7307 158.036 39.592C158.217 39.4533 158.308 39.2613 158.308 39.016C158.308 38.8027 158.239 38.6213 158.1 38.472C157.961 38.312 157.769 38.1787 157.524 38.072C157.279 37.9547 156.991 37.8373 156.66 37.72C156.329 37.592 155.999 37.4427 155.668 37.272C155.348 37.0907 155.081 36.856 154.868 36.568C154.665 36.28 154.564 35.9173 154.564 35.48C154.564 35.032 154.676 34.6587 154.9 34.36C155.135 34.0613 155.444 33.8427 155.828 33.704C156.223 33.5547 156.644 33.48 157.092 33.48C157.497 33.48 157.876 33.5387 158.228 33.656C158.591 33.7733 158.916 33.928 159.204 34.12C159.492 34.312 159.737 34.5307 159.94 34.776L158.98 35.8C158.735 35.512 158.441 35.2773 158.1 35.096C157.759 34.9147 157.407 34.824 157.044 34.824C156.799 34.824 156.596 34.8773 156.436 34.984C156.276 35.0907 156.196 35.2453 156.196 35.448C156.196 35.6187 156.265 35.7733 156.404 35.912C156.553 36.04 156.745 36.1573 156.98 36.264C157.225 36.3707 157.497 36.4827 157.796 36.6C158.201 36.76 158.575 36.936 158.916 37.128C159.257 37.32 159.529 37.5547 159.732 37.832C159.945 38.1093 160.052 38.472 160.052 38.92C160.052 39.6133 159.812 40.1733 159.332 40.6C158.863 41.016 158.223 41.224 157.412 41.224C156.911 41.224 156.447 41.1493 156.02 41C155.604 40.84 155.236 40.6373 154.916 40.392C154.607 40.136 154.345 39.8693 154.132 39.592L155.14 38.584ZM161.041 30.712C161.041 30.4133 161.148 30.1627 161.361 29.96C161.585 29.7573 161.841 29.656 162.129 29.656C162.439 29.656 162.695 29.7573 162.897 29.96C163.111 30.1627 163.217 30.4133 163.217 30.712C163.217 31 163.111 31.2507 162.897 31.464C162.695 31.6667 162.439 31.768 162.129 31.768C161.841 31.768 161.585 31.6667 161.361 31.464C161.148 31.2507 161.041 31 161.041 30.712ZM161.281 33.64H162.977V41H161.281V33.64ZM164.459 41.496H166.171C166.182 41.8267 166.273 42.1253 166.443 42.392C166.625 42.6587 166.87 42.8667 167.179 43.016C167.489 43.1653 167.846 43.24 168.251 43.24C168.614 43.24 168.961 43.1547 169.291 42.984C169.622 42.8133 169.889 42.552 170.091 42.2C170.305 41.848 170.411 41.3947 170.411 40.84V33.64H172.107V40.84C172.107 41.7253 171.926 42.456 171.563 43.032C171.211 43.608 170.747 44.0347 170.171 44.312C169.595 44.6 168.971 44.744 168.299 44.744C167.499 44.744 166.817 44.6053 166.251 44.328C165.686 44.0613 165.249 43.6827 164.939 43.192C164.641 42.7013 164.481 42.136 164.459 41.496ZM164.315 37.288C164.315 36.4667 164.481 35.7787 164.811 35.224C165.142 34.6587 165.579 34.2267 166.123 33.928C166.678 33.6293 167.27 33.48 167.899 33.48C168.518 33.48 169.057 33.6347 169.515 33.944C169.985 34.2427 170.353 34.6747 170.619 35.24C170.897 35.8053 171.035 36.488 171.035 37.288C171.035 38.0773 170.897 38.7547 170.619 39.32C170.353 39.8853 169.985 40.3227 169.515 40.632C169.057 40.9307 168.518 41.08 167.899 41.08C167.27 41.08 166.678 40.9307 166.123 40.632C165.579 40.3333 165.142 39.9013 164.811 39.336C164.481 38.7707 164.315 38.088 164.315 37.288ZM166.107 37.288C166.107 37.7787 166.209 38.1947 166.411 38.536C166.614 38.8773 166.881 39.1387 167.211 39.32C167.553 39.4907 167.921 39.576 168.315 39.576C168.646 39.576 168.971 39.4907 169.291 39.32C169.622 39.1493 169.889 38.8933 170.091 38.552C170.305 38.2 170.411 37.7787 170.411 37.288C170.411 36.904 170.347 36.5733 170.219 36.296C170.102 36.008 169.942 35.768 169.739 35.576C169.537 35.3733 169.307 35.224 169.051 35.128C168.806 35.032 168.561 34.984 168.315 34.984C167.921 34.984 167.553 35.0747 167.211 35.256C166.881 35.4267 166.614 35.6827 166.411 36.024C166.209 36.3653 166.107 36.7867 166.107 37.288ZM178.506 36.52C178.506 35.976 178.394 35.5653 178.17 35.288C177.946 35.0107 177.6 34.872 177.13 34.872C176.81 34.872 176.528 34.9413 176.282 35.08C176.037 35.208 175.845 35.4 175.706 35.656C175.568 35.9013 175.498 36.1893 175.498 36.52V41H173.77V33.64H175.498V34.776C175.733 34.3387 176.032 34.0133 176.394 33.8C176.768 33.5867 177.21 33.48 177.722 33.48C178.554 33.48 179.189 33.736 179.626 34.248C180.064 34.7493 180.282 35.4427 180.282 36.328V41H178.506V36.52ZM185.209 41.16C184.462 41.16 183.801 41 183.225 40.68C182.66 40.36 182.222 39.912 181.913 39.336C181.604 38.76 181.449 38.088 181.449 37.32C181.449 36.5413 181.604 35.864 181.913 35.288C182.233 34.712 182.681 34.2693 183.257 33.96C183.833 33.64 184.51 33.48 185.289 33.48C186.068 33.48 186.729 33.6293 187.273 33.928C187.817 34.2267 188.233 34.6587 188.521 35.224C188.82 35.7787 188.969 36.4507 188.969 37.24C188.969 37.3253 188.964 37.416 188.953 37.512C188.953 37.608 188.948 37.6773 188.937 37.72H182.473V36.536H187.465L186.937 37.272C186.969 37.208 187.001 37.1227 187.033 37.016C187.076 36.8987 187.097 36.8027 187.097 36.728C187.097 36.3333 187.017 35.992 186.857 35.704C186.708 35.416 186.494 35.192 186.217 35.032C185.95 34.872 185.636 34.792 185.273 34.792C184.836 34.792 184.462 34.888 184.153 35.08C183.844 35.272 183.609 35.5493 183.449 35.912C183.289 36.2747 183.204 36.7227 183.193 37.256C183.193 37.7893 183.273 38.2427 183.433 38.616C183.593 38.9787 183.828 39.256 184.137 39.448C184.457 39.64 184.841 39.736 185.289 39.736C185.758 39.736 186.169 39.64 186.521 39.448C186.873 39.256 187.166 38.9627 187.401 38.568L188.889 39.176C188.505 39.8373 188.009 40.3333 187.401 40.664C186.793 40.9947 186.062 41.16 185.209 41.16ZM191.85 33.64V41H190.138V33.64H191.85ZM194.042 35.48C193.882 35.352 193.733 35.256 193.594 35.192C193.456 35.128 193.28 35.096 193.066 35.096C192.778 35.096 192.544 35.1707 192.362 35.32C192.181 35.4693 192.048 35.6773 191.962 35.944C191.888 36.2 191.85 36.504 191.85 36.856L191.274 36.52C191.274 35.9333 191.381 35.416 191.594 34.968C191.818 34.5093 192.101 34.1467 192.442 33.88C192.794 33.6133 193.157 33.48 193.53 33.48C193.797 33.48 194.048 33.5227 194.282 33.608C194.517 33.6827 194.714 33.8213 194.874 34.024L194.042 35.48Z" fill="#171718"/>
<path d="M81.696 58.608C81.952 59.056 82.2187 59.4507 82.496 59.792C82.784 60.1333 83.104 60.4 83.456 60.592C83.808 60.784 84.208 60.88 84.656 60.88C85.2533 60.88 85.7333 60.7147 86.096 60.384C86.4587 60.0533 86.64 59.632 86.64 59.12C86.64 58.6187 86.5227 58.2187 86.288 57.92C86.0533 57.6213 85.744 57.3813 85.36 57.2C84.9867 57.008 84.5867 56.8373 84.16 56.688C83.8827 56.592 83.5733 56.4693 83.232 56.32C82.8907 56.16 82.5653 55.9627 82.256 55.728C81.9467 55.4827 81.6907 55.184 81.488 54.832C81.296 54.48 81.2 54.048 81.2 53.536C81.2 52.9813 81.3387 52.4853 81.616 52.048C81.8933 51.6107 82.2773 51.2693 82.768 51.024C83.2587 50.768 83.8187 50.64 84.448 50.64C85.056 50.64 85.584 50.7573 86.032 50.992C86.4907 51.216 86.88 51.5093 87.2 51.872C87.52 52.224 87.7707 52.5973 87.952 52.992L86.784 53.664C86.6453 53.3867 86.4693 53.1147 86.256 52.848C86.0427 52.5813 85.7813 52.3627 85.472 52.192C85.1733 52.0213 84.8053 51.936 84.368 51.936C83.76 51.936 83.3173 52.0853 83.04 52.384C82.7627 52.672 82.624 52.9973 82.624 53.36C82.624 53.6693 82.704 53.9573 82.864 54.224C83.024 54.48 83.2907 54.7253 83.664 54.96C84.048 55.184 84.5653 55.408 85.216 55.632C85.5147 55.7387 85.8293 55.8773 86.16 56.048C86.4907 56.2187 86.7947 56.4373 87.072 56.704C87.36 56.96 87.5947 57.2747 87.776 57.648C87.9573 58.0107 88.048 58.448 88.048 58.96C88.048 59.4507 87.952 59.8933 87.76 60.288C87.5787 60.6827 87.3227 61.0187 86.992 61.296C86.672 61.5733 86.304 61.7867 85.888 61.936C85.4827 62.0853 85.056 62.16 84.608 62.16C84 62.16 83.4347 62.032 82.912 61.776C82.4 61.5093 81.9467 61.1627 81.552 60.736C81.168 60.2987 80.8533 59.8347 80.608 59.344L81.696 58.608ZM90.7656 49.52V62H89.4856V49.52H90.7656ZM94.2056 57.52C94.2056 56.912 94.0723 56.4533 93.8056 56.144C93.5496 55.8347 93.1603 55.68 92.6376 55.68C92.2643 55.68 91.9336 55.76 91.6456 55.92C91.3683 56.08 91.1496 56.2987 90.9896 56.576C90.8403 56.8533 90.7656 57.168 90.7656 57.52H90.3496C90.3496 56.9333 90.4616 56.416 90.6856 55.968C90.9096 55.5093 91.2136 55.1467 91.5976 54.88C91.9923 54.6133 92.4456 54.48 92.9576 54.48C93.4696 54.48 93.9123 54.5867 94.2856 54.8C94.6696 55.0133 94.963 55.3333 95.1656 55.76C95.379 56.1867 95.4856 56.72 95.4856 57.36V62H94.2056V57.52ZM96.7719 58.32C96.7719 57.5733 96.9372 56.912 97.2679 56.336C97.6092 55.76 98.0679 55.3067 98.6439 54.976C99.2199 54.6453 99.8652 54.48 100.58 54.48C101.305 54.48 101.951 54.6453 102.516 54.976C103.092 55.3067 103.545 55.76 103.876 56.336C104.217 56.912 104.388 57.5733 104.388 58.32C104.388 59.056 104.217 59.7173 103.876 60.304C103.545 60.88 103.092 61.3333 102.516 61.664C101.951 61.9947 101.305 62.16 100.58 62.16C99.8652 62.16 99.2199 61.9947 98.6439 61.664C98.0679 61.3333 97.6092 60.88 97.2679 60.304C96.9372 59.7173 96.7719 59.056 96.7719 58.32ZM98.0679 58.32C98.0679 58.832 98.1745 59.2853 98.3879 59.68C98.6119 60.0747 98.9105 60.3893 99.2839 60.624C99.6679 60.848 100.1 60.96 100.58 60.96C101.06 60.96 101.487 60.848 101.86 60.624C102.244 60.3893 102.543 60.0747 102.756 59.68C102.98 59.2853 103.092 58.832 103.092 58.32C103.092 57.808 102.98 57.3547 102.756 56.96C102.543 56.5547 102.244 56.24 101.86 56.016C101.487 55.792 101.06 55.68 100.58 55.68C100.1 55.68 99.6679 55.792 99.2839 56.016C98.9105 56.24 98.6119 56.5547 98.3879 56.96C98.1745 57.3547 98.0679 57.808 98.0679 58.32ZM106.866 65.52H105.586V54.64H106.866V65.52ZM113.026 58.32C113.026 59.1093 112.861 59.792 112.53 60.368C112.2 60.944 111.757 61.3867 111.202 61.696C110.658 62.0053 110.05 62.16 109.378 62.16C108.77 62.16 108.232 62.0053 107.762 61.696C107.304 61.3867 106.941 60.944 106.674 60.368C106.418 59.792 106.29 59.1093 106.29 58.32C106.29 57.52 106.418 56.8373 106.674 56.272C106.941 55.696 107.304 55.2533 107.762 54.944C108.232 54.6347 108.77 54.48 109.378 54.48C110.05 54.48 110.658 54.6347 111.202 54.944C111.757 55.2533 112.2 55.696 112.53 56.272C112.861 56.8373 113.026 57.52 113.026 58.32ZM111.73 58.32C111.73 57.7547 111.613 57.2747 111.378 56.88C111.154 56.4853 110.85 56.1867 110.466 55.984C110.093 55.7813 109.677 55.68 109.218 55.68C108.845 55.68 108.477 55.7813 108.114 55.984C107.752 56.1867 107.453 56.4853 107.218 56.88C106.984 57.2747 106.866 57.7547 106.866 58.32C106.866 58.8853 106.984 59.3653 107.218 59.76C107.453 60.1547 107.752 60.4533 108.114 60.656C108.477 60.8587 108.845 60.96 109.218 60.96C109.677 60.96 110.093 60.8587 110.466 60.656C110.85 60.4533 111.154 60.1547 111.378 59.76C111.613 59.3653 111.73 58.8853 111.73 58.32ZM114.311 51.6C114.311 51.3547 114.397 51.1467 114.567 50.976C114.749 50.8053 114.957 50.72 115.191 50.72C115.437 50.72 115.645 50.8053 115.815 50.976C115.986 51.1467 116.071 51.3547 116.071 51.6C116.071 51.8347 115.986 52.0427 115.815 52.224C115.645 52.3947 115.437 52.48 115.191 52.48C114.957 52.48 114.749 52.3947 114.567 52.224C114.397 52.0427 114.311 51.8347 114.311 51.6ZM114.551 54.64H115.831V62H114.551V54.64ZM117.427 54.64H121.107V55.84H117.427V54.64ZM120.979 51.056C120.873 50.8747 120.745 50.7627 120.595 50.72C120.457 50.6667 120.323 50.64 120.195 50.64C120.035 50.64 119.897 50.688 119.779 50.784C119.673 50.8693 119.587 51.0187 119.523 51.232C119.459 51.4453 119.427 51.728 119.427 52.08V62H118.147V51.92C118.147 51.3333 118.233 50.8533 118.403 50.48C118.574 50.1067 118.814 49.8293 119.123 49.648C119.443 49.456 119.827 49.36 120.275 49.36C120.51 49.36 120.718 49.392 120.899 49.456C121.081 49.52 121.235 49.6 121.363 49.696C121.502 49.792 121.609 49.8933 121.683 50L120.979 51.056ZM127.926 54.64L123.126 65.52H121.686L123.702 60.96L120.886 54.64H122.406L124.742 60.4L124.214 60.336L126.486 54.64H127.926Z" fill="#6B7280"/>
<path d="M31.778 101.32V100.2H36.16V101.32H31.778ZM31.778 105.24V104.12H36.02V105.24H31.778ZM31.12 100.2H32.31V110H31.12V100.2ZM38.4766 107.48C38.4766 107.993 38.5932 108.39 38.8266 108.67C39.0599 108.95 39.4006 109.09 39.8486 109.09C40.1752 109.09 40.4599 109.025 40.7026 108.894C40.9546 108.754 41.1459 108.563 41.2766 108.32C41.4166 108.077 41.4866 107.797 41.4866 107.48V103.56H42.6066V110H41.4866V108.992C41.2719 109.375 41.0059 109.664 40.6886 109.86C40.3712 110.047 39.9979 110.14 39.5686 110.14C38.8966 110.14 38.3599 109.911 37.9586 109.454C37.5572 108.997 37.3566 108.385 37.3566 107.62V103.56H38.4766V107.48ZM44.292 99.08H45.412V110H44.292V99.08ZM47.0986 99.08H48.2186V110H47.0986V99.08ZM52.7724 101.32V100.2H59.0024V101.32H56.4824V110H55.2924V101.32H52.7724ZM59.7702 100.9C59.7702 100.685 59.8449 100.503 59.9942 100.354C60.1529 100.205 60.3349 100.13 60.5402 100.13C60.7549 100.13 60.9369 100.205 61.0862 100.354C61.2356 100.503 61.3102 100.685 61.3102 100.9C61.3102 101.105 61.2356 101.287 61.0862 101.446C60.9369 101.595 60.7549 101.67 60.5402 101.67C60.3349 101.67 60.1529 101.595 59.9942 101.446C59.8449 101.287 59.7702 101.105 59.7702 100.9ZM59.9802 103.56H61.1002V110H59.9802V103.56ZM71.807 105.94V110H70.687V106.08C70.687 105.529 70.5843 105.123 70.379 104.862C70.183 104.601 69.875 104.47 69.455 104.47C69.147 104.47 68.881 104.535 68.657 104.666C68.433 104.787 68.2603 104.969 68.139 105.212C68.0176 105.455 67.957 105.744 67.957 106.08V110H66.837V106.08C66.837 105.529 66.7343 105.123 66.529 104.862C66.333 104.601 66.025 104.47 65.605 104.47C65.297 104.47 65.031 104.535 64.807 104.666C64.583 104.787 64.4103 104.969 64.289 105.212C64.1676 105.455 64.107 105.744 64.107 106.08V110H62.987V103.56H64.107V104.498C64.303 104.134 64.5456 103.863 64.835 103.686C65.1336 103.509 65.4836 103.42 65.885 103.42C66.333 103.42 66.7156 103.527 67.033 103.742C67.3596 103.947 67.5976 104.241 67.747 104.624C67.971 104.223 68.251 103.924 68.587 103.728C68.923 103.523 69.3056 103.42 69.735 103.42C70.1736 103.42 70.547 103.518 70.855 103.714C71.163 103.91 71.3963 104.199 71.555 104.582C71.723 104.955 71.807 105.408 71.807 105.94ZM75.9828 110.14C75.3854 110.14 74.8534 110 74.3868 109.72C73.9294 109.431 73.5701 109.034 73.3088 108.53C73.0568 108.026 72.9308 107.443 72.9308 106.78C72.9308 106.108 73.0614 105.52 73.3228 105.016C73.5934 104.512 73.9668 104.12 74.4428 103.84C74.9281 103.56 75.4881 103.42 76.1228 103.42C76.7574 103.42 77.2988 103.555 77.7468 103.826C78.2041 104.087 78.5541 104.465 78.7968 104.96C79.0394 105.455 79.1608 106.043 79.1608 106.724C79.1608 106.789 79.1561 106.859 79.1468 106.934C79.1468 106.999 79.1468 107.041 79.1468 107.06H73.6448V106.108H78.2648L77.8168 106.752C77.8448 106.705 77.8728 106.635 77.9008 106.542C77.9288 106.439 77.9428 106.355 77.9428 106.29C77.9428 105.907 77.8634 105.576 77.7048 105.296C77.5554 105.016 77.3454 104.797 77.0748 104.638C76.8041 104.479 76.4868 104.4 76.1228 104.4C75.6934 104.4 75.3248 104.493 75.0168 104.68C74.7181 104.857 74.4848 105.119 74.3168 105.464C74.1581 105.8 74.0741 106.215 74.0648 106.71C74.0648 107.214 74.1441 107.643 74.3028 107.998C74.4614 108.353 74.6948 108.623 75.0028 108.81C75.3108 108.997 75.6841 109.09 76.1228 109.09C76.5614 109.09 76.9488 108.997 77.2848 108.81C77.6208 108.614 77.9054 108.32 78.1388 107.928L79.0488 108.502C78.7128 109.043 78.2881 109.454 77.7748 109.734C77.2708 110.005 76.6734 110.14 75.9828 110.14Z" fill="#6B7280"/>
<path d="M45.05 138.2H46.24V144.78C46.24 145.452 46.422 145.993 46.786 146.404C47.15 146.815 47.682 147.02 48.382 147.02C49.082 147.02 49.614 146.815 49.978 146.404C50.342 145.993 50.524 145.452 50.524 144.78V138.2H51.714V144.78C51.714 145.265 51.6347 145.713 51.476 146.124C51.3267 146.535 51.1027 146.889 50.804 147.188C50.5147 147.487 50.1647 147.72 49.754 147.888C49.3433 148.056 48.886 148.14 48.382 148.14C47.878 148.14 47.4207 148.056 47.01 147.888C46.5993 147.72 46.2447 147.487 45.946 147.188C45.6567 146.889 45.4327 146.535 45.274 146.124C45.1247 145.713 45.05 145.265 45.05 144.78V138.2ZM57.5237 144.08C57.5237 143.548 57.407 143.147 57.1737 142.876C56.9403 142.605 56.5997 142.47 56.1517 142.47C55.825 142.47 55.5357 142.54 55.2837 142.68C55.041 142.811 54.8497 142.997 54.7097 143.24C54.579 143.483 54.5137 143.763 54.5137 144.08V148H53.3937V141.56H54.5137V142.568C54.7283 142.176 54.9943 141.887 55.3117 141.7C55.6383 141.513 56.0117 141.42 56.4317 141.42C57.113 141.42 57.6497 141.649 58.0417 142.106C58.443 142.554 58.6437 143.165 58.6437 143.94V148H57.5237V144.08ZM60.3291 138.9C60.3291 138.685 60.4038 138.503 60.5531 138.354C60.7118 138.205 60.8938 138.13 61.0991 138.13C61.3138 138.13 61.4958 138.205 61.6451 138.354C61.7945 138.503 61.8691 138.685 61.8691 138.9C61.8691 139.105 61.7945 139.287 61.6451 139.446C61.4958 139.595 61.3138 139.67 61.0991 139.67C60.8938 139.67 60.7118 139.595 60.5531 139.446C60.4038 139.287 60.3291 139.105 60.3291 138.9ZM60.5391 141.56H61.6591V148H60.5391V141.56ZM62.5659 141.56H65.7859V142.61H62.5659V141.56ZM63.6159 139.32H64.7359V148H63.6159V139.32ZM68.9811 148.14C68.3838 148.14 67.8518 148 67.3851 147.72C66.9278 147.431 66.5685 147.034 66.3071 146.53C66.0551 146.026 65.9291 145.443 65.9291 144.78C65.9291 144.108 66.0598 143.52 66.3211 143.016C66.5918 142.512 66.9651 142.12 67.4411 141.84C67.9265 141.56 68.4865 141.42 69.1211 141.42C69.7558 141.42 70.2971 141.555 70.7451 141.826C71.2025 142.087 71.5525 142.465 71.7951 142.96C72.0378 143.455 72.1591 144.043 72.1591 144.724C72.1591 144.789 72.1545 144.859 72.1451 144.934C72.1451 144.999 72.1451 145.041 72.1451 145.06H66.6431V144.108H71.2631L70.8151 144.752C70.8431 144.705 70.8711 144.635 70.8991 144.542C70.9271 144.439 70.9411 144.355 70.9411 144.29C70.9411 143.907 70.8618 143.576 70.7031 143.296C70.5538 143.016 70.3438 142.797 70.0731 142.638C69.8025 142.479 69.4851 142.4 69.1211 142.4C68.6918 142.4 68.3231 142.493 68.0151 142.68C67.7165 142.857 67.4831 143.119 67.3151 143.464C67.1565 143.8 67.0725 144.215 67.0631 144.71C67.0631 145.214 67.1425 145.643 67.3011 145.998C67.4598 146.353 67.6931 146.623 68.0011 146.81C68.3091 146.997 68.6825 147.09 69.1211 147.09C69.5598 147.09 69.9471 146.997 70.2831 146.81C70.6191 146.614 70.9038 146.32 71.1371 145.928L72.0471 146.502C71.7111 147.043 71.2865 147.454 70.7731 147.734C70.2691 148.005 69.6718 148.14 68.9811 148.14ZM78.1042 137.08H79.2242V148H78.1042V137.08ZM72.7142 144.78C72.7142 144.08 72.8589 143.483 73.1482 142.988C73.4376 142.484 73.8249 142.097 74.3102 141.826C74.7956 141.555 75.3276 141.42 75.9062 141.42C76.4476 141.42 76.9189 141.555 77.3202 141.826C77.7216 142.097 78.0342 142.484 78.2582 142.988C78.4916 143.483 78.6082 144.08 78.6082 144.78C78.6082 145.471 78.4916 146.068 78.2582 146.572C78.0342 147.076 77.7216 147.463 77.3202 147.734C76.9189 148.005 76.4476 148.14 75.9062 148.14C75.3276 148.14 74.7956 148.005 74.3102 147.734C73.8249 147.463 73.4376 147.076 73.1482 146.572C72.8589 146.068 72.7142 145.471 72.7142 144.78ZM73.8482 144.78C73.8482 145.275 73.9462 145.695 74.1422 146.04C74.3476 146.385 74.6182 146.647 74.9542 146.824C75.2902 147.001 75.6542 147.09 76.0462 147.09C76.3729 147.09 76.6949 147.001 77.0122 146.824C77.3296 146.647 77.5909 146.385 77.7962 146.04C78.0016 145.695 78.1042 145.275 78.1042 144.78C78.1042 144.285 78.0016 143.865 77.7962 143.52C77.5909 143.175 77.3296 142.913 77.0122 142.736C76.6949 142.559 76.3729 142.47 76.0462 142.47C75.6542 142.47 75.2902 142.559 74.9542 142.736C74.6182 142.913 74.3476 143.175 74.1422 143.52C73.9462 143.865 73.8482 144.285 73.8482 144.78ZM85.0499 145.032C85.2739 145.424 85.5072 145.769 85.7499 146.068C86.0019 146.367 86.2819 146.6 86.5899 146.768C86.8979 146.936 87.2479 147.02 87.6399 147.02C88.1625 147.02 88.5825 146.875 88.8999 146.586C89.2172 146.297 89.3759 145.928 89.3759 145.48C89.3759 145.041 89.2732 144.691 89.0679 144.43C88.8625 144.169 88.5919 143.959 88.2559 143.8C87.9292 143.632 87.5792 143.483 87.2059 143.352C86.9632 143.268 86.6925 143.161 86.3939 143.03C86.0952 142.89 85.8105 142.717 85.5399 142.512C85.2692 142.297 85.0452 142.036 84.8679 141.728C84.6999 141.42 84.6159 141.042 84.6159 140.594C84.6159 140.109 84.7372 139.675 84.9799 139.292C85.2225 138.909 85.5585 138.611 85.9879 138.396C86.4172 138.172 86.9072 138.06 87.4579 138.06C87.9899 138.06 88.4519 138.163 88.8439 138.368C89.2452 138.564 89.5859 138.821 89.8659 139.138C90.1459 139.446 90.3652 139.773 90.5239 140.118L89.5019 140.706C89.3805 140.463 89.2265 140.225 89.0399 139.992C88.8532 139.759 88.6245 139.567 88.3539 139.418C88.0925 139.269 87.7705 139.194 87.3879 139.194C86.8559 139.194 86.4685 139.325 86.2259 139.586C85.9832 139.838 85.8619 140.123 85.8619 140.44C85.8619 140.711 85.9319 140.963 86.0719 141.196C86.2119 141.42 86.4452 141.635 86.7719 141.84C87.1079 142.036 87.5605 142.232 88.1299 142.428C88.3912 142.521 88.6665 142.643 88.9559 142.792C89.2452 142.941 89.5112 143.133 89.7539 143.366C90.0059 143.59 90.2112 143.865 90.3699 144.192C90.5285 144.509 90.6079 144.892 90.6079 145.34C90.6079 145.769 90.5239 146.157 90.3559 146.502C90.1972 146.847 89.9732 147.141 89.6839 147.384C89.4039 147.627 89.0819 147.813 88.7179 147.944C88.3632 148.075 87.9899 148.14 87.5979 148.14C87.0659 148.14 86.5712 148.028 86.1139 147.804C85.6659 147.571 85.2692 147.267 84.9239 146.894C84.5879 146.511 84.3125 146.105 84.0979 145.676L85.0499 145.032ZM90.8858 141.56H94.1058V142.61H90.8858V141.56ZM91.9358 139.32H93.0558V148H91.9358V139.32ZM95.3131 146.012C95.3131 146.255 95.3691 146.465 95.4811 146.642C95.6024 146.819 95.7657 146.955 95.9711 147.048C96.1857 147.132 96.4284 147.174 96.6991 147.174C97.0444 147.174 97.3524 147.104 97.6231 146.964C97.9031 146.824 98.1224 146.628 98.2811 146.376C98.4491 146.115 98.5331 145.816 98.5331 145.48L98.7571 146.32C98.7571 146.731 98.6311 147.071 98.3791 147.342C98.1364 147.613 97.8331 147.813 97.4691 147.944C97.1144 148.075 96.7597 148.14 96.4051 148.14C96.0131 148.14 95.6444 148.061 95.2991 147.902C94.9631 147.734 94.6924 147.496 94.4871 147.188C94.2817 146.88 94.1791 146.507 94.1791 146.068C94.1791 145.443 94.3984 144.943 94.8371 144.57C95.2851 144.187 95.9057 143.996 96.6991 143.996C97.1657 143.996 97.5531 144.052 97.8611 144.164C98.1784 144.267 98.4304 144.388 98.6171 144.528C98.8037 144.659 98.9297 144.766 98.9951 144.85V145.508C98.6684 145.284 98.3324 145.125 97.9871 145.032C97.6417 144.929 97.2731 144.878 96.8811 144.878C96.5171 144.878 96.2184 144.925 95.9851 145.018C95.7611 145.111 95.5931 145.242 95.4811 145.41C95.3691 145.578 95.3131 145.779 95.3131 146.012ZM95.1451 143.044L94.5991 142.218C94.8417 142.041 95.1731 141.863 95.5931 141.686C96.0224 141.509 96.5357 141.42 97.1331 141.42C97.6371 141.42 98.0757 141.499 98.4491 141.658C98.8317 141.807 99.1257 142.027 99.3311 142.316C99.5457 142.605 99.6531 142.96 99.6531 143.38V148H98.5331V143.534C98.5331 143.31 98.4957 143.128 98.4211 142.988C98.3464 142.839 98.2391 142.722 98.0991 142.638C97.9684 142.554 97.8144 142.493 97.6371 142.456C97.4597 142.419 97.2731 142.4 97.0771 142.4C96.7597 142.4 96.4704 142.437 96.2091 142.512C95.9571 142.587 95.7424 142.675 95.5651 142.778C95.3877 142.881 95.2477 142.969 95.1451 143.044ZM100.149 141.56H103.369V142.61H100.149V141.56ZM101.199 139.32H102.319V148H101.199V139.32ZM106.565 148.14C105.967 148.14 105.435 148 104.969 147.72C104.511 147.431 104.152 147.034 103.891 146.53C103.639 146.026 103.513 145.443 103.513 144.78C103.513 144.108 103.643 143.52 103.905 143.016C104.175 142.512 104.549 142.12 105.025 141.84C105.51 141.56 106.07 141.42 106.705 141.42C107.339 141.42 107.881 141.555 108.329 141.826C108.786 142.087 109.136 142.465 109.379 142.96C109.621 143.455 109.743 144.043 109.743 144.724C109.743 144.789 109.738 144.859 109.729 144.934C109.729 144.999 109.729 145.041 109.729 145.06H104.227V144.108H108.847L108.399 144.752C108.427 144.705 108.455 144.635 108.483 144.542C108.511 144.439 108.525 144.355 108.525 144.29C108.525 143.907 108.445 143.576 108.287 143.296C108.137 143.016 107.927 142.797 107.657 142.638C107.386 142.479 107.069 142.4 106.705 142.4C106.275 142.4 105.907 142.493 105.599 142.68C105.3 142.857 105.067 143.119 104.899 143.464C104.74 143.8 104.656 144.215 104.647 144.71C104.647 145.214 104.726 145.643 104.885 145.998C105.043 146.353 105.277 146.623 105.585 146.81C105.893 146.997 106.266 147.09 106.705 147.09C107.143 147.09 107.531 146.997 107.867 146.81C108.203 146.614 108.487 146.32 108.721 145.928L109.631 146.502C109.295 147.043 108.87 147.454 108.357 147.734C107.853 148.005 107.255 148.14 106.565 148.14ZM111.124 146.026C111.254 146.222 111.404 146.404 111.572 146.572C111.74 146.74 111.931 146.875 112.146 146.978C112.37 147.071 112.612 147.118 112.874 147.118C113.191 147.118 113.438 147.048 113.616 146.908C113.802 146.759 113.896 146.558 113.896 146.306C113.896 146.082 113.821 145.895 113.672 145.746C113.532 145.587 113.35 145.457 113.126 145.354C112.902 145.242 112.664 145.139 112.412 145.046C112.132 144.934 111.847 144.803 111.558 144.654C111.278 144.495 111.04 144.295 110.844 144.052C110.657 143.8 110.564 143.487 110.564 143.114C110.564 142.731 110.662 142.414 110.858 142.162C111.063 141.91 111.324 141.723 111.642 141.602C111.968 141.481 112.304 141.42 112.65 141.42C112.995 141.42 113.317 141.476 113.616 141.588C113.924 141.7 114.194 141.849 114.428 142.036C114.661 142.223 114.843 142.437 114.974 142.68L114.078 143.254C113.9 143.011 113.676 142.811 113.406 142.652C113.144 142.493 112.846 142.414 112.51 142.414C112.276 142.414 112.076 142.465 111.908 142.568C111.74 142.671 111.656 142.829 111.656 143.044C111.656 143.212 111.721 143.361 111.852 143.492C111.982 143.623 112.15 143.739 112.356 143.842C112.561 143.945 112.776 144.043 113 144.136C113.373 144.285 113.714 144.449 114.022 144.626C114.33 144.794 114.572 144.999 114.75 145.242C114.936 145.485 115.03 145.797 115.03 146.18C115.03 146.74 114.824 147.207 114.414 147.58C114.012 147.953 113.48 148.14 112.818 148.14C112.388 148.14 112.001 148.065 111.656 147.916C111.31 147.757 111.016 147.557 110.774 147.314C110.54 147.071 110.363 146.824 110.242 146.572L111.124 146.026Z" fill="#6B7280"/>
<path d="M179.696 149.218V136.926H180.634V149.218H179.696ZM180.284 148.168C179.575 148.168 178.945 148.042 178.394 147.79C177.843 147.538 177.414 147.179 177.106 146.712C176.798 146.245 176.639 145.69 176.63 145.046H178.408C178.408 145.373 178.483 145.667 178.632 145.928C178.791 146.18 179.005 146.381 179.276 146.53C179.556 146.679 179.892 146.754 180.284 146.754C180.62 146.754 180.909 146.703 181.152 146.6C181.404 146.488 181.595 146.334 181.726 146.138C181.866 145.933 181.936 145.695 181.936 145.424C181.936 145.116 181.861 144.864 181.712 144.668C181.572 144.463 181.376 144.29 181.124 144.15C180.872 144.01 180.583 143.889 180.256 143.786C179.929 143.674 179.584 143.557 179.22 143.436C178.445 143.175 177.862 142.843 177.47 142.442C177.078 142.031 176.882 141.485 176.882 140.804C176.882 140.235 177.017 139.745 177.288 139.334C177.559 138.923 177.937 138.606 178.422 138.382C178.917 138.149 179.486 138.032 180.13 138.032C180.783 138.032 181.353 138.149 181.838 138.382C182.333 138.615 182.72 138.942 183 139.362C183.289 139.773 183.439 140.267 183.448 140.846H181.656C181.647 140.603 181.581 140.379 181.46 140.174C181.339 139.959 181.161 139.787 180.928 139.656C180.704 139.516 180.429 139.446 180.102 139.446C179.822 139.437 179.57 139.483 179.346 139.586C179.131 139.679 178.959 139.819 178.828 140.006C178.707 140.183 178.646 140.407 178.646 140.678C178.646 140.939 178.702 141.159 178.814 141.336C178.935 141.504 179.108 141.649 179.332 141.77C179.556 141.882 179.817 141.989 180.116 142.092C180.415 142.195 180.741 142.307 181.096 142.428C181.581 142.587 182.02 142.783 182.412 143.016C182.813 143.24 183.131 143.534 183.364 143.898C183.597 144.262 183.714 144.733 183.714 145.312C183.714 145.816 183.583 146.287 183.322 146.726C183.061 147.155 182.678 147.505 182.174 147.776C181.67 148.037 181.04 148.168 180.284 148.168ZM186.104 148V140.118L184.368 140.566V139.264L186.776 138.2H187.826V148H186.104ZM192.819 148.168C192.119 148.168 191.512 148.047 190.999 147.804C190.495 147.552 190.098 147.211 189.809 146.782C189.519 146.343 189.347 145.849 189.291 145.298H190.929C191.013 145.709 191.223 146.054 191.559 146.334C191.895 146.605 192.315 146.74 192.819 146.74C193.201 146.74 193.528 146.651 193.799 146.474C194.069 146.287 194.279 146.04 194.429 145.732C194.587 145.415 194.667 145.06 194.667 144.668C194.667 144.267 194.587 143.917 194.429 143.618C194.279 143.319 194.069 143.091 193.799 142.932C193.528 142.764 193.215 142.68 192.861 142.68C192.422 142.68 192.044 142.783 191.727 142.988C191.419 143.184 191.195 143.431 191.055 143.73H189.431L190.243 138.2H195.647V139.67H191.503L191.055 142.092C191.269 141.859 191.554 141.672 191.909 141.532C192.263 141.383 192.669 141.308 193.127 141.308C193.64 141.308 194.093 141.397 194.485 141.574C194.877 141.751 195.208 141.994 195.479 142.302C195.749 142.61 195.95 142.969 196.081 143.38C196.221 143.781 196.291 144.206 196.291 144.654C196.291 145.158 196.207 145.625 196.039 146.054C195.871 146.474 195.633 146.843 195.325 147.16C195.026 147.477 194.662 147.725 194.233 147.902C193.813 148.079 193.341 148.168 192.819 148.168ZM197.234 148V146.782C197.86 146.287 198.457 145.793 199.026 145.298C199.596 144.803 200.109 144.313 200.566 143.828C201.024 143.343 201.383 142.867 201.644 142.4C201.906 141.933 202.036 141.485 202.036 141.056C202.036 140.776 201.985 140.515 201.882 140.272C201.78 140.029 201.616 139.833 201.392 139.684C201.178 139.535 200.888 139.46 200.524 139.46C200.17 139.46 199.866 139.539 199.614 139.698C199.372 139.857 199.19 140.071 199.068 140.342C198.947 140.603 198.886 140.902 198.886 141.238H197.262C197.281 140.529 197.435 139.936 197.724 139.46C198.014 138.984 198.406 138.629 198.9 138.396C199.395 138.153 199.95 138.032 200.566 138.032C201.229 138.032 201.794 138.153 202.26 138.396C202.727 138.639 203.086 138.979 203.338 139.418C203.59 139.857 203.716 140.375 203.716 140.972C203.716 141.411 203.632 141.845 203.464 142.274C203.306 142.694 203.082 143.105 202.792 143.506C202.503 143.898 202.176 144.281 201.812 144.654C201.458 145.018 201.089 145.368 200.706 145.704C200.324 146.031 199.955 146.334 199.6 146.614H203.982V148H197.234ZM205.132 148V138.2H206.812V142.246L210.508 138.2H212.594L208.968 142.092L212.678 148H210.634L207.778 143.38L206.812 144.43V148H205.132ZM215.912 149.512L219.426 137.15H221.064L217.55 149.512H215.912ZM221.672 148V140.944H223.156L223.296 141.91C223.52 141.555 223.814 141.28 224.178 141.084C224.551 140.879 224.976 140.776 225.452 140.776C225.806 140.776 226.124 140.823 226.404 140.916C226.693 141.009 226.945 141.149 227.16 141.336C227.384 141.523 227.566 141.756 227.706 142.036C227.967 141.644 228.308 141.336 228.728 141.112C229.148 140.888 229.605 140.776 230.1 140.776C230.688 140.776 231.187 140.897 231.598 141.14C232.008 141.373 232.321 141.723 232.536 142.19C232.75 142.647 232.858 143.212 232.858 143.884V148H231.192V144.052C231.192 143.455 231.07 142.997 230.828 142.68C230.585 142.363 230.226 142.204 229.75 142.204C229.423 142.204 229.134 142.283 228.882 142.442C228.639 142.601 228.448 142.834 228.308 143.142C228.168 143.441 228.098 143.809 228.098 144.248V148H226.432V144.052C226.432 143.455 226.31 142.997 226.068 142.68C225.825 142.363 225.461 142.204 224.976 142.204C224.668 142.204 224.388 142.283 224.136 142.442C223.893 142.601 223.702 142.834 223.562 143.142C223.422 143.441 223.352 143.809 223.352 144.248V148H221.672ZM237.503 148.168C236.831 148.168 236.224 148.014 235.683 147.706C235.151 147.389 234.731 146.955 234.423 146.404C234.124 145.844 233.975 145.205 233.975 144.486C233.975 143.749 234.129 143.105 234.437 142.554C234.745 141.994 235.165 141.56 235.697 141.252C236.238 140.935 236.845 140.776 237.517 140.776C238.189 140.776 238.791 140.935 239.323 141.252C239.864 141.56 240.284 141.989 240.583 142.54C240.891 143.091 241.045 143.735 241.045 144.472C241.045 145.209 240.891 145.853 240.583 146.404C240.275 146.955 239.85 147.389 239.309 147.706C238.777 148.014 238.175 148.168 237.503 148.168ZM237.503 146.726C237.839 146.726 238.142 146.642 238.413 146.474C238.693 146.306 238.917 146.054 239.085 145.718C239.253 145.382 239.337 144.967 239.337 144.472C239.337 143.977 239.253 143.567 239.085 143.24C238.926 142.904 238.707 142.652 238.427 142.484C238.156 142.316 237.853 142.232 237.517 142.232C237.19 142.232 236.887 142.316 236.607 142.484C236.327 142.652 236.103 142.904 235.935 143.24C235.767 143.567 235.683 143.977 235.683 144.472C235.683 144.967 235.767 145.382 235.935 145.718C236.103 146.054 236.322 146.306 236.593 146.474C236.873 146.642 237.176 146.726 237.503 146.726ZM242.269 148V140.944H243.753L243.879 142.12C244.094 141.709 244.402 141.383 244.803 141.14C245.205 140.897 245.681 140.776 246.231 140.776C246.801 140.776 247.286 140.897 247.687 141.14C248.089 141.373 248.397 141.719 248.611 142.176C248.835 142.633 248.947 143.203 248.947 143.884V148H247.267V144.038C247.267 143.45 247.137 142.997 246.875 142.68C246.614 142.363 246.227 142.204 245.713 142.204C245.377 142.204 245.074 142.283 244.803 142.442C244.542 142.601 244.332 142.834 244.173 143.142C244.024 143.441 243.949 143.805 243.949 144.234V148H242.269ZM253.365 148C252.889 148 252.473 147.925 252.119 147.776C251.773 147.627 251.503 147.379 251.307 147.034C251.111 146.689 251.013 146.222 251.013 145.634V142.358H249.809V140.944H251.013L251.209 139.082H252.693V140.944H254.611V142.358H252.693V145.634C252.693 145.989 252.767 146.236 252.917 146.376C253.075 146.507 253.337 146.572 253.701 146.572H254.569V148H253.365ZM255.771 148V137.92H257.451V142.036C257.684 141.653 258.002 141.35 258.403 141.126C258.804 140.893 259.257 140.776 259.761 140.776C260.34 140.776 260.83 140.897 261.231 141.14C261.632 141.373 261.936 141.723 262.141 142.19C262.356 142.647 262.463 143.221 262.463 143.912V148H260.797V144.066C260.797 143.459 260.666 142.997 260.405 142.68C260.153 142.363 259.766 142.204 259.243 142.204C258.907 142.204 258.604 142.288 258.333 142.456C258.062 142.615 257.848 142.848 257.689 143.156C257.53 143.455 257.451 143.823 257.451 144.262V148H255.771Z" fill="#171718"/>
<path d="M115.87 105.17H117.2L120.7 110H119.23L115.87 105.17ZM114.12 100.2H115.31V110H114.12V100.2ZM114.778 101.25V100.2H116.78C117.415 100.2 117.979 100.321 118.474 100.564C118.978 100.797 119.375 101.133 119.664 101.572C119.963 102.011 120.112 102.533 120.112 103.14C120.112 103.737 119.963 104.26 119.664 104.708C119.375 105.147 118.978 105.487 118.474 105.73C117.979 105.963 117.415 106.08 116.78 106.08H114.778V105.03H116.78C117.2 105.03 117.569 104.955 117.886 104.806C118.213 104.657 118.465 104.442 118.642 104.162C118.829 103.882 118.922 103.541 118.922 103.14C118.922 102.739 118.829 102.398 118.642 102.118C118.465 101.838 118.213 101.623 117.886 101.474C117.569 101.325 117.2 101.25 116.78 101.25H114.778ZM123.956 110.14C123.359 110.14 122.827 110 122.36 109.72C121.903 109.431 121.543 109.034 121.282 108.53C121.03 108.026 120.904 107.443 120.904 106.78C120.904 106.108 121.035 105.52 121.296 105.016C121.567 104.512 121.94 104.12 122.416 103.84C122.901 103.56 123.461 103.42 124.096 103.42C124.731 103.42 125.272 103.555 125.72 103.826C126.177 104.087 126.527 104.465 126.77 104.96C127.013 105.455 127.134 106.043 127.134 106.724C127.134 106.789 127.129 106.859 127.12 106.934C127.12 106.999 127.12 107.041 127.12 107.06H121.618V106.108H126.238L125.79 106.752C125.818 106.705 125.846 106.635 125.874 106.542C125.902 106.439 125.916 106.355 125.916 106.29C125.916 105.907 125.837 105.576 125.678 105.296C125.529 105.016 125.319 104.797 125.048 104.638C124.777 104.479 124.46 104.4 124.096 104.4C123.667 104.4 123.298 104.493 122.99 104.68C122.691 104.857 122.458 105.119 122.29 105.464C122.131 105.8 122.047 106.215 122.038 106.71C122.038 107.214 122.117 107.643 122.276 107.998C122.435 108.353 122.668 108.623 122.976 108.81C123.284 108.997 123.657 109.09 124.096 109.09C124.535 109.09 124.922 108.997 125.258 108.81C125.594 108.614 125.879 108.32 126.112 107.928L127.022 108.502C126.686 109.043 126.261 109.454 125.748 109.734C125.244 110.005 124.647 110.14 123.956 110.14ZM137.069 105.94V110H135.949V106.08C135.949 105.529 135.846 105.123 135.641 104.862C135.445 104.601 135.137 104.47 134.717 104.47C134.409 104.47 134.143 104.535 133.919 104.666C133.695 104.787 133.522 104.969 133.401 105.212C133.28 105.455 133.219 105.744 133.219 106.08V110H132.099V106.08C132.099 105.529 131.996 105.123 131.791 104.862C131.595 104.601 131.287 104.47 130.867 104.47C130.559 104.47 130.293 104.535 130.069 104.666C129.845 104.787 129.672 104.969 129.551 105.212C129.43 105.455 129.369 105.744 129.369 106.08V110H128.249V103.56H129.369V104.498C129.565 104.134 129.808 103.863 130.097 103.686C130.396 103.509 130.746 103.42 131.147 103.42C131.595 103.42 131.978 103.527 132.295 103.742C132.622 103.947 132.86 104.241 133.009 104.624C133.233 104.223 133.513 103.924 133.849 103.728C134.185 103.523 134.568 103.42 134.997 103.42C135.436 103.42 135.809 103.518 136.117 103.714C136.425 103.91 136.658 104.199 136.817 104.582C136.985 104.955 137.069 105.408 137.069 105.94ZM138.193 106.78C138.193 106.127 138.338 105.548 138.627 105.044C138.926 104.54 139.327 104.143 139.831 103.854C140.335 103.565 140.9 103.42 141.525 103.42C142.16 103.42 142.724 103.565 143.219 103.854C143.723 104.143 144.12 104.54 144.409 105.044C144.708 105.548 144.857 106.127 144.857 106.78C144.857 107.424 144.708 108.003 144.409 108.516C144.12 109.02 143.723 109.417 143.219 109.706C142.724 109.995 142.16 110.14 141.525 110.14C140.9 110.14 140.335 109.995 139.831 109.706C139.327 109.417 138.926 109.02 138.627 108.516C138.338 108.003 138.193 107.424 138.193 106.78ZM139.327 106.78C139.327 107.228 139.42 107.625 139.607 107.97C139.803 108.315 140.064 108.591 140.391 108.796C140.727 108.992 141.105 109.09 141.525 109.09C141.945 109.09 142.318 108.992 142.645 108.796C142.981 108.591 143.242 108.315 143.429 107.97C143.625 107.625 143.723 107.228 143.723 106.78C143.723 106.332 143.625 105.935 143.429 105.59C143.242 105.235 142.981 104.96 142.645 104.764C142.318 104.568 141.945 104.47 141.525 104.47C141.105 104.47 140.727 104.568 140.391 104.764C140.064 104.96 139.803 105.235 139.607 105.59C139.42 105.935 139.327 106.332 139.327 106.78ZM144.995 103.56H148.215V104.61H144.995V103.56ZM146.045 101.32H147.165V110H146.045V101.32ZM151.411 110.14C150.813 110.14 150.281 110 149.815 109.72C149.357 109.431 148.998 109.034 148.737 108.53C148.485 108.026 148.359 107.443 148.359 106.78C148.359 106.108 148.489 105.52 148.751 105.016C149.021 104.512 149.395 104.12 149.871 103.84C150.356 103.56 150.916 103.42 151.551 103.42C152.185 103.42 152.727 103.555 153.175 103.826C153.632 104.087 153.982 104.465 154.225 104.96C154.467 105.455 154.589 106.043 154.589 106.724C154.589 106.789 154.584 106.859 154.575 106.934C154.575 106.999 154.575 107.041 154.575 107.06H149.073V106.108H153.693L153.245 106.752C153.273 106.705 153.301 106.635 153.329 106.542C153.357 106.439 153.371 106.355 153.371 106.29C153.371 105.907 153.291 105.576 153.133 105.296C152.983 105.016 152.773 104.797 152.503 104.638C152.232 104.479 151.915 104.4 151.551 104.4C151.121 104.4 150.753 104.493 150.445 104.68C150.146 104.857 149.913 105.119 149.745 105.464C149.586 105.8 149.502 106.215 149.493 106.71C149.493 107.214 149.572 107.643 149.731 107.998C149.889 108.353 150.123 108.623 150.431 108.81C150.739 108.997 151.112 109.09 151.551 109.09C151.989 109.09 152.377 108.997 152.713 108.81C153.049 108.614 153.333 108.32 153.567 107.928L154.477 108.502C154.141 109.043 153.716 109.454 153.203 109.734C152.699 110.005 152.101 110.14 151.411 110.14Z" fill="#6B7280"/>
<path d="M147.592 62.6H147.6ZM147.592 62.6C147.094 63.094 146.191 62.971 145.558 62.971C144.781 62.971 144.407 63.123 143.852 63.6776C143.38 64.1499 142.747 65 142 65C141.253 65 140.62 64.1499 140.148 63.6776C139.593 63.123 139.219 62.971 138.442 62.971C137.809 62.971 136.906 63.094 136.408 62.6C135.905 62.1021 136.029 61.1955 136.029 60.5583C136.029 59.7531 135.853 59.3829 135.28 58.8094C134.427 57.9565 134 57.5299 134 57C134 56.47 134.426 56.0435 135.279 55.1905C135.791 54.6787 136.029 54.1714 136.029 53.4416C136.029 52.8085 135.906 51.9057 136.4 51.4076C136.898 50.9054 137.804 51.029 138.442 51.029C139.171 51.029 139.679 50.7914 140.191 50.2795C141.044 49.4265 141.47 49 142 49C142.53 49 142.956 49.4265 143.809 50.2795C144.321 50.7913 144.828 51.029 145.558 51.029C146.191 51.029 147.094 50.906 147.592 51.4C148.095 51.8979 147.971 52.8045 147.971 53.4416C147.971 54.2469 148.147 54.6171 148.72 55.1905C149.574 56.0435 150 56.47 150 57C150 57.5299 149.574 57.9565 148.72 58.8094C148.147 59.3829 147.971 59.7531 147.971 60.5583C147.971 61.1955 148.095 62.1021 147.592 62.6Z" fill="url(#paint1_linear_1672_1528)"/>
<path d="M147.592 62.6H147.6M147.592 62.6C147.094 63.094 146.191 62.971 145.558 62.971C144.781 62.971 144.407 63.123 143.852 63.6776C143.38 64.1499 142.747 65 142 65C141.253 65 140.62 64.1499 140.148 63.6776C139.593 63.123 139.219 62.971 138.442 62.971C137.809 62.971 136.906 63.094 136.408 62.6C135.905 62.1021 136.029 61.1955 136.029 60.5583C136.029 59.7531 135.853 59.3829 135.28 58.8094C134.427 57.9565 134 57.5299 134 57C134 56.47 134.426 56.0435 135.279 55.1905C135.791 54.6787 136.029 54.1714 136.029 53.4416C136.029 52.8085 135.906 51.9057 136.4 51.4076C136.898 50.9054 137.804 51.029 138.442 51.029C139.171 51.029 139.679 50.7914 140.191 50.2795C141.044 49.4265 141.47 49 142 49C142.53 49 142.956 49.4265 143.809 50.2795C144.321 50.7913 144.828 51.029 145.558 51.029C146.191 51.029 147.094 50.906 147.592 51.4C148.095 51.8979 147.971 52.8045 147.971 53.4416C147.971 54.2469 148.147 54.6171 148.72 55.1905C149.574 56.0435 150 56.47 150 57C150 57.5299 149.574 57.9565 148.72 58.8094C148.147 59.3829 147.971 59.7531 147.971 60.5583C147.971 61.1955 148.095 62.1021 147.592 62.6Z" stroke="url(#paint2_linear_1672_1528)" stroke-width="1.5"/>
<path d="M139.6 57.7143C139.6 57.7143 140.56 58.2358 141.04 59C141.04 59 142.48 56 144.4 55" stroke="white" stroke-width="1.5" stroke-linecap="round" stroke-linejoin="round"/>
<path d="M45 60C53.2843 60 60 53.2843 60 45C60 36.7157 53.2843 30 45 30C36.7157 30 30 36.7157 30 45C30 53.2843 36.7157 60 45 60Z" fill="url(#paint3_linear_1672_1528)" stroke="url(#paint4_linear_1672_1528)" stroke-width="1.5"/>
<path d="M38.25 45.1027C39.8992 44.5497 41.6646 44.25 43.5 44.25C46.5357 44.25 49.3798 45.0698 51.8232 46.5M54 42C51.2264 40.1074 47.8683 39 44.25 39C41.8546 39 39.5732 39.4854 37.5 40.3626M49.6935 51C47.839 50.0413 45.7341 49.5 43.5027 49.5C42.2728 49.5 41.0814 49.6644 39.9492 49.9725" stroke="white" stroke-width="1.5" stroke-linecap="round"/>
<path d="M241 49.1866V43.3953C241 40.8519 241 39.5802 241.805 38.7901C242.611 38 243.907 38 246.5 38C249.093 38 250.389 38 251.195 38.7901C252 39.5802 252 40.8519 252 43.3953V49.1866C252 50.8007 252 51.6077 251.469 51.8966C250.44 52.456 248.51 50.5896 247.593 50.0277C247.062 49.7018 246.796 49.5388 246.5 49.5388C246.204 49.5388 245.938 49.7018 245.407 50.0277C244.49 50.5896 242.56 52.456 241.531 51.8966C241 51.6077 241 50.8007 241 49.1866Z" stroke="#6B7280" stroke-width="1.5" stroke-linecap="round" stroke-linejoin="round"/>
<rect x="20.5" y="90.5" width="69" height="30" rx="15" stroke="#D1D5DB"/>
<rect x="100.5" y="90.5" width="69" height="30" rx="15" stroke="#D1D5DB"/>
<path d="M29.5 140C29.5 141.381 28.3807 142.5 27 142.5C25.6193 142.5 24.5 141.381 24.5 140C24.5 138.619 25.6193 137.5 27 137.5C28.3807 137.5 29.5 138.619 29.5 140Z" stroke="#6B7280" stroke-width="1.5"/>
<path d="M28.2574 148.494C27.9201 148.818 27.4693 149 27.0002 149C26.531 149 26.0802 148.818 25.7429 148.494C22.6543 145.501 18.5152 142.157 20.5337 137.304C21.6251 134.679 24.2449 133 27.0002 133C29.7554 133 32.3752 134.679 33.4666 137.304C35.4826 142.151 31.3536 145.511 28.2574 148.494Z" stroke="#6B7280" stroke-width="1.5"/>
<path d="M33 151C33 152.105 30.3137 153 27 153C23.6863 153 21 152.105 21 151" stroke="#6B7280" stroke-width="1.5" stroke-linecap="round"/>
<defs>
<linearGradient id="paint0_linear_1672_1528" x1="20" y1="45" x2="70" y2="45" gradientUnits="userSpaceOnUse">
<stop stop-color="#198BD8"/>
<stop offset="1" stop-color="#F03DCE"/>
</linearGradient>
<linearGradient id="paint1_linear_1672_1528" x1="134" y1="57" x2="150" y2="57" gradientUnits="userSpaceOnUse">
<stop stop-color="#198BD8"/>
<stop offset="1" stop-color="#F03DCE"/>
</linearGradient>
<linearGradient id="paint2_linear_1672_1528" x1="134" y1="57" x2="150" y2="57" gradientUnits="userSpaceOnUse">
<stop stop-color="#198BD8"/>
<stop offset="1" stop-color="#F03DCE"/>
</linearGradient>
<linearGradient id="paint3_linear_1672_1528" x1="30" y1="45" x2="60" y2="45" gradientUnits="userSpaceOnUse">
<stop stop-color="#198BD8"/>
<stop offset="1" stop-color="#F03DCE"/>
</linearGradient>
<linearGradient id="paint4_linear_1672_1528" x1="30" y1="45" x2="60" y2="45" gradientUnits="userSpaceOnUse">
<stop stop-color="#198BD8"/>
<stop offset="1" stop-color="#F03DCE"/>
</linearGradient>
</defs>
</svg>
