<svg width="308" height="240" viewBox="0 0 308 240" fill="none" xmlns="http://www.w3.org/2000/svg">
<rect x="0.847656" width="307.152" height="239.044" rx="21.3671" fill="white"/>
<path d="M27.7166 28.8889V26.7089H37.4766V28.8889H33.7766V40.7089H31.3966V28.8889H27.7166ZM35.7226 36.1089C35.7226 35.1622 35.9359 34.3289 36.3626 33.6089C36.8026 32.8889 37.3959 32.3289 38.1426 31.9289C38.8892 31.5155 39.7359 31.3089 40.6826 31.3089C41.6292 31.3089 42.4692 31.5155 43.2026 31.9289C43.9492 32.3289 44.5426 32.8889 44.9826 33.6089C45.4226 34.3289 45.6426 35.1622 45.6426 36.1089C45.6426 37.0422 45.4226 37.8755 44.9826 38.6089C44.5426 39.3289 43.9492 39.8955 43.2026 40.3089C42.4692 40.7089 41.6292 40.9089 40.6826 40.9089C39.7359 40.9089 38.8892 40.7089 38.1426 40.3089C37.3959 39.8955 36.8026 39.3289 36.3626 38.6089C35.9359 37.8755 35.7226 37.0422 35.7226 36.1089ZM37.9426 36.1089C37.9426 36.6822 38.0626 37.1889 38.3026 37.6289C38.5426 38.0555 38.8692 38.3955 39.2826 38.6489C39.6959 38.8889 40.1626 39.0089 40.6826 39.0089C41.1892 39.0089 41.6492 38.8889 42.0626 38.6489C42.4892 38.3955 42.8226 38.0555 43.0626 37.6289C43.3026 37.1889 43.4226 36.6822 43.4226 36.1089C43.4226 35.5355 43.3026 35.0289 43.0626 34.5889C42.8226 34.1489 42.4892 33.8089 42.0626 33.5689C41.6492 33.3289 41.1892 33.2089 40.6826 33.2089C40.1626 33.2089 39.6959 33.3289 39.2826 33.5689C38.8692 33.8089 38.5426 34.1489 38.3026 34.5889C38.0626 35.0289 37.9426 35.5355 37.9426 36.1089ZM49.1921 45.1089H47.0121V31.5089H49.1921V45.1089ZM56.8121 36.1089C56.8121 37.1222 56.6054 37.9955 56.1921 38.7289C55.7788 39.4489 55.2321 40.0022 54.5521 40.3889C53.8721 40.7622 53.1321 40.9489 52.3321 40.9489C51.5454 40.9489 50.8588 40.7555 50.2721 40.3689C49.6988 39.9689 49.2521 39.4089 48.9321 38.6889C48.6254 37.9555 48.4721 37.0955 48.4721 36.1089C48.4721 35.1089 48.6254 34.2489 48.9321 33.5289C49.2521 32.8089 49.6988 32.2555 50.2721 31.8689C50.8588 31.4689 51.5454 31.2689 52.3321 31.2689C53.1321 31.2689 53.8721 31.4622 54.5521 31.8489C55.2321 32.2222 55.7788 32.7689 56.1921 33.4889C56.6054 34.2089 56.8121 35.0822 56.8121 36.1089ZM54.5721 36.1089C54.5721 35.4955 54.4454 34.9755 54.1921 34.5489C53.9388 34.1089 53.5988 33.7822 53.1721 33.5689C52.7588 33.3422 52.2988 33.2289 51.7921 33.2289C51.3788 33.2289 50.9721 33.3422 50.5721 33.5689C50.1721 33.7822 49.8388 34.1022 49.5721 34.5289C49.3188 34.9555 49.1921 35.4822 49.1921 36.1089C49.1921 36.7355 49.3188 37.2622 49.5721 37.6889C49.8388 38.1155 50.1721 38.4422 50.5721 38.6689C50.9721 38.8822 51.3788 38.9889 51.7921 38.9889C52.2988 38.9889 52.7588 38.8822 53.1721 38.6689C53.5988 38.4422 53.9388 38.1155 54.1921 37.6889C54.4454 37.2489 54.5721 36.7222 54.5721 36.1089ZM60.9055 42.4689C61.0789 42.6689 61.3055 42.8355 61.5855 42.9689C61.8655 43.1022 62.1722 43.1689 62.5055 43.1689C62.8122 43.1689 63.1122 43.0355 63.4055 42.7689C63.6989 42.5155 63.8455 42.0689 63.8455 41.4289V26.7089H66.2655V41.8689C66.2655 42.4555 66.1722 42.9622 65.9855 43.3889C65.7989 43.8155 65.5389 44.1689 65.2055 44.4489C64.8855 44.7289 64.4989 44.9289 64.0455 45.0489C63.5922 45.1822 63.0989 45.2489 62.5655 45.2489C62.1522 45.2489 61.7522 45.1889 61.3655 45.0689C60.9789 44.9622 60.6389 44.8289 60.3455 44.6689C60.0522 44.5089 59.8189 44.3555 59.6455 44.2089L60.9055 42.4689ZM67.8929 36.1089C67.8929 35.1622 68.1062 34.3289 68.5329 33.6089C68.9729 32.8889 69.5662 32.3289 70.3129 31.9289C71.0596 31.5155 71.9062 31.3089 72.8529 31.3089C73.7996 31.3089 74.6396 31.5155 75.3729 31.9289C76.1196 32.3289 76.7129 32.8889 77.1529 33.6089C77.5929 34.3289 77.8129 35.1622 77.8129 36.1089C77.8129 37.0422 77.5929 37.8755 77.1529 38.6089C76.7129 39.3289 76.1196 39.8955 75.3729 40.3089C74.6396 40.7089 73.7996 40.9089 72.8529 40.9089C71.9062 40.9089 71.0596 40.7089 70.3129 40.3089C69.5662 39.8955 68.9729 39.3289 68.5329 38.6089C68.1062 37.8755 67.8929 37.0422 67.8929 36.1089ZM70.1129 36.1089C70.1129 36.6822 70.2329 37.1889 70.4729 37.6289C70.7129 38.0555 71.0396 38.3955 71.4529 38.6489C71.8662 38.8889 72.3329 39.0089 72.8529 39.0089C73.3596 39.0089 73.8196 38.8889 74.2329 38.6489C74.6596 38.3955 74.9929 38.0555 75.2329 37.6289C75.4729 37.1889 75.5929 36.6822 75.5929 36.1089C75.5929 35.5355 75.4729 35.0289 75.2329 34.5889C74.9929 34.1489 74.6596 33.8089 74.2329 33.5689C73.8196 33.3289 73.3596 33.2089 72.8529 33.2089C72.3329 33.2089 71.8662 33.3289 71.4529 33.5689C71.0396 33.8089 70.7129 34.1489 70.4729 34.5889C70.2329 35.0289 70.1129 35.5355 70.1129 36.1089ZM81.3624 25.1089V40.7089H79.1824V25.1089H81.3624ZM88.9824 36.1089C88.9824 37.1089 88.7758 37.9689 88.3624 38.6889C87.9491 39.4089 87.4024 39.9622 86.7224 40.3489C86.0424 40.7222 85.3024 40.9089 84.5024 40.9089C83.7424 40.9089 83.0624 40.7155 82.4624 40.3289C81.8758 39.9422 81.4158 39.3889 81.0824 38.6689C80.7491 37.9489 80.5824 37.0955 80.5824 36.1089C80.5824 35.1089 80.7491 34.2555 81.0824 33.5489C81.4158 32.8289 81.8758 32.2755 82.4624 31.8889C83.0624 31.5022 83.7424 31.3089 84.5024 31.3089C85.3024 31.3089 86.0424 31.5022 86.7224 31.8889C87.4024 32.2622 87.9491 32.8089 88.3624 33.5289C88.7758 34.2355 88.9824 35.0955 88.9824 36.1089ZM86.7424 36.1089C86.7424 35.4955 86.6158 34.9689 86.3624 34.5289C86.1091 34.0889 85.7691 33.7555 85.3424 33.5289C84.9291 33.3022 84.4691 33.1889 83.9624 33.1889C83.5491 33.1889 83.1424 33.3022 82.7424 33.5289C82.3424 33.7555 82.0091 34.0889 81.7424 34.5289C81.4891 34.9555 81.3624 35.4822 81.3624 36.1089C81.3624 36.7355 81.4891 37.2689 81.7424 37.7089C82.0091 38.1355 82.3424 38.4622 82.7424 38.6889C83.1424 38.9155 83.5491 39.0289 83.9624 39.0289C84.4691 39.0289 84.9291 38.9155 85.3424 38.6889C85.7691 38.4622 86.1091 38.1289 86.3624 37.6889C86.6158 37.2489 86.7424 36.7222 86.7424 36.1089ZM97.7559 33.7089C97.7559 34.6955 97.9759 35.5622 98.4159 36.3089C98.8692 37.0555 99.4559 37.6355 100.176 38.0489C100.909 38.4489 101.703 38.6489 102.556 38.6489C103.223 38.6489 103.823 38.5622 104.356 38.3889C104.889 38.2155 105.369 37.9822 105.796 37.6889C106.236 37.3822 106.616 37.0422 106.936 36.6689V39.4689C106.349 39.9489 105.716 40.3155 105.036 40.5689C104.356 40.8222 103.503 40.9489 102.476 40.9489C101.449 40.9489 100.489 40.7755 99.5959 40.4289C98.7159 40.0822 97.9492 39.5822 97.2959 38.9289C96.6425 38.2755 96.1292 37.5089 95.7559 36.6289C95.3959 35.7355 95.2159 34.7622 95.2159 33.7089C95.2159 32.6555 95.3959 31.6889 95.7559 30.8089C96.1292 29.9155 96.6425 29.1422 97.2959 28.4889C97.9492 27.8355 98.7159 27.3355 99.5959 26.9889C100.489 26.6422 101.449 26.4689 102.476 26.4689C103.503 26.4689 104.356 26.5955 105.036 26.8489C105.716 27.1022 106.349 27.4689 106.936 27.9489V30.7489C106.616 30.3755 106.236 30.0422 105.796 29.7489C105.369 29.4422 104.889 29.2022 104.356 29.0289C103.823 28.8555 103.223 28.7689 102.556 28.7689C101.703 28.7689 100.909 28.9755 100.176 29.3889C99.4559 29.7889 98.8692 30.3622 98.4159 31.1089C97.9759 31.8422 97.7559 32.7089 97.7559 33.7089ZM110.424 37.8489C110.424 38.1555 110.497 38.4222 110.644 38.6489C110.791 38.8622 110.991 39.0222 111.244 39.1289C111.511 39.2355 111.811 39.2889 112.144 39.2889C112.571 39.2889 112.957 39.2022 113.304 39.0289C113.664 38.8555 113.951 38.6022 114.164 38.2689C114.391 37.9222 114.504 37.5222 114.504 37.0689L114.824 38.2689C114.824 38.8555 114.651 39.3489 114.304 39.7489C113.971 40.1355 113.544 40.4289 113.024 40.6289C112.517 40.8155 111.997 40.9089 111.464 40.9089C110.891 40.9089 110.357 40.7955 109.864 40.5689C109.371 40.3422 108.977 40.0089 108.684 39.5689C108.391 39.1289 108.244 38.5955 108.244 37.9689C108.244 37.0755 108.557 36.3689 109.184 35.8489C109.811 35.3155 110.697 35.0489 111.844 35.0489C112.457 35.0489 112.984 35.1155 113.424 35.2489C113.877 35.3822 114.251 35.5422 114.544 35.7289C114.837 35.9022 115.044 36.0622 115.164 36.2089V37.3089C114.751 37.0155 114.311 36.8022 113.844 36.6689C113.377 36.5355 112.884 36.4689 112.364 36.4689C111.911 36.4689 111.544 36.5289 111.264 36.6489C110.984 36.7555 110.771 36.9089 110.624 37.1089C110.491 37.3089 110.424 37.5555 110.424 37.8489ZM109.744 33.9089L108.864 32.3889C109.277 32.1355 109.811 31.8889 110.464 31.6489C111.131 31.4089 111.891 31.2889 112.744 31.2889C113.504 31.2889 114.171 31.4022 114.744 31.6289C115.331 31.8555 115.791 32.1822 116.124 32.6089C116.457 33.0222 116.624 33.5355 116.624 34.1489V40.7089H114.504V34.5689C114.504 34.2755 114.451 34.0355 114.344 33.8489C114.251 33.6622 114.117 33.5089 113.944 33.3889C113.771 33.2689 113.564 33.1822 113.324 33.1289C113.084 33.0755 112.824 33.0489 112.544 33.0489C112.117 33.0489 111.711 33.1022 111.324 33.2089C110.951 33.3022 110.624 33.4222 110.344 33.5689C110.077 33.7022 109.877 33.8155 109.744 33.9089ZM117.262 31.5089H122.482V33.4089H117.262V31.5089ZM118.802 28.3089H120.942V40.7089H118.802V28.3089ZM127.372 40.9089C126.438 40.9089 125.612 40.7089 124.892 40.3089C124.185 39.9089 123.638 39.3489 123.252 38.6289C122.865 37.9089 122.672 37.0689 122.672 36.1089C122.672 35.1355 122.865 34.2889 123.252 33.5689C123.652 32.8489 124.212 32.2955 124.932 31.9089C125.652 31.5089 126.498 31.3089 127.472 31.3089C128.445 31.3089 129.272 31.4955 129.952 31.8689C130.632 32.2422 131.152 32.7822 131.512 33.4889C131.885 34.1822 132.072 35.0222 132.072 36.0089C132.072 36.1155 132.065 36.2289 132.052 36.3489C132.052 36.4689 132.045 36.5555 132.032 36.6089H123.952V35.1289H130.192L129.532 36.0489C129.572 35.9689 129.612 35.8622 129.652 35.7289C129.705 35.5822 129.732 35.4622 129.732 35.3689C129.732 34.8755 129.632 34.4489 129.432 34.0889C129.245 33.7289 128.978 33.4489 128.632 33.2489C128.298 33.0489 127.905 32.9489 127.452 32.9489C126.905 32.9489 126.438 33.0689 126.052 33.3089C125.665 33.5489 125.372 33.8955 125.172 34.3489C124.972 34.8022 124.865 35.3622 124.852 36.0289C124.852 36.6955 124.952 37.2622 125.152 37.7289C125.352 38.1822 125.645 38.5289 126.032 38.7689C126.432 39.0089 126.912 39.1289 127.472 39.1289C128.058 39.1289 128.572 39.0089 129.012 38.7689C129.452 38.5289 129.818 38.1622 130.112 37.6689L131.972 38.4289C131.492 39.2555 130.872 39.8755 130.112 40.2889C129.352 40.7022 128.438 40.9089 127.372 40.9089ZM133.014 41.3289H135.154C135.167 41.7422 135.28 42.1155 135.494 42.4489C135.72 42.7822 136.027 43.0422 136.414 43.2289C136.8 43.4155 137.247 43.5089 137.754 43.5089C138.207 43.5089 138.64 43.4022 139.054 43.1889C139.467 42.9755 139.8 42.6489 140.054 42.2089C140.32 41.7689 140.454 41.2022 140.454 40.5089V31.5089H142.574V40.5089C142.574 41.6155 142.347 42.5289 141.894 43.2489C141.454 43.9689 140.874 44.5022 140.154 44.8489C139.434 45.2089 138.654 45.3889 137.814 45.3889C136.814 45.3889 135.96 45.2155 135.254 44.8689C134.547 44.5355 134 44.0622 133.614 43.4489C133.24 42.8355 133.04 42.1289 133.014 41.3289ZM132.834 36.0689C132.834 35.0422 133.04 34.1822 133.454 33.4889C133.867 32.7822 134.414 32.2422 135.094 31.8689C135.787 31.4955 136.527 31.3089 137.314 31.3089C138.087 31.3089 138.76 31.5022 139.334 31.8889C139.92 32.2622 140.38 32.8022 140.714 33.5089C141.06 34.2155 141.234 35.0689 141.234 36.0689C141.234 37.0555 141.06 37.9022 140.714 38.6089C140.38 39.3155 139.92 39.8622 139.334 40.2489C138.76 40.6222 138.087 40.8089 137.314 40.8089C136.527 40.8089 135.787 40.6222 135.094 40.2489C134.414 39.8755 133.867 39.3355 133.454 38.6289C133.04 37.9222 132.834 37.0689 132.834 36.0689ZM135.074 36.0689C135.074 36.6822 135.2 37.2022 135.454 37.6289C135.707 38.0555 136.04 38.3822 136.454 38.6089C136.88 38.8222 137.34 38.9289 137.834 38.9289C138.247 38.9289 138.654 38.8222 139.054 38.6089C139.467 38.3955 139.8 38.0755 140.054 37.6489C140.32 37.2089 140.454 36.6822 140.454 36.0689C140.454 35.5889 140.374 35.1755 140.214 34.8289C140.067 34.4689 139.867 34.1689 139.614 33.9289C139.36 33.6755 139.074 33.4889 138.754 33.3689C138.447 33.2489 138.14 33.1889 137.834 33.1889C137.34 33.1889 136.88 33.3022 136.454 33.5289C136.04 33.7422 135.707 34.0622 135.454 34.4889C135.2 34.9155 135.074 35.4422 135.074 36.0689ZM143.952 36.1089C143.952 35.1622 144.166 34.3289 144.592 33.6089C145.032 32.8889 145.626 32.3289 146.372 31.9289C147.119 31.5155 147.966 31.3089 148.912 31.3089C149.859 31.3089 150.699 31.5155 151.432 31.9289C152.179 32.3289 152.772 32.8889 153.212 33.6089C153.652 34.3289 153.872 35.1622 153.872 36.1089C153.872 37.0422 153.652 37.8755 153.212 38.6089C152.772 39.3289 152.179 39.8955 151.432 40.3089C150.699 40.7089 149.859 40.9089 148.912 40.9089C147.966 40.9089 147.119 40.7089 146.372 40.3089C145.626 39.8955 145.032 39.3289 144.592 38.6089C144.166 37.8755 143.952 37.0422 143.952 36.1089ZM146.172 36.1089C146.172 36.6822 146.292 37.1889 146.532 37.6289C146.772 38.0555 147.099 38.3955 147.512 38.6489C147.926 38.8889 148.392 39.0089 148.912 39.0089C149.419 39.0089 149.879 38.8889 150.292 38.6489C150.719 38.3955 151.052 38.0555 151.292 37.6289C151.532 37.1889 151.652 36.6822 151.652 36.1089C151.652 35.5355 151.532 35.0289 151.292 34.5889C151.052 34.1489 150.719 33.8089 150.292 33.5689C149.879 33.3289 149.419 33.2089 148.912 33.2089C148.392 33.2089 147.926 33.3289 147.512 33.5689C147.099 33.8089 146.772 34.1489 146.532 34.5889C146.292 35.0289 146.172 35.5355 146.172 36.1089ZM157.462 31.5089V40.7089H155.322V31.5089H157.462ZM160.202 33.8089C160.002 33.6489 159.815 33.5289 159.642 33.4489C159.468 33.3689 159.248 33.3289 158.982 33.3289C158.622 33.3289 158.328 33.4222 158.102 33.6089C157.875 33.7955 157.708 34.0555 157.602 34.3889C157.508 34.7089 157.462 35.0889 157.462 35.5289L156.742 35.1089C156.742 34.3755 156.875 33.7289 157.142 33.1689C157.422 32.5955 157.775 32.1422 158.202 31.8089C158.642 31.4755 159.095 31.3089 159.562 31.3089C159.895 31.3089 160.208 31.3622 160.502 31.4689C160.795 31.5622 161.042 31.7355 161.242 31.9889L160.202 33.8089ZM162.044 27.8489C162.044 27.4755 162.177 27.1622 162.444 26.9089C162.724 26.6555 163.044 26.5289 163.404 26.5289C163.791 26.5289 164.111 26.6555 164.364 26.9089C164.631 27.1622 164.764 27.4755 164.764 27.8489C164.764 28.2089 164.631 28.5222 164.364 28.7889C164.111 29.0422 163.791 29.1689 163.404 29.1689C163.044 29.1689 162.724 29.0422 162.444 28.7889C162.177 28.5222 162.044 28.2089 162.044 27.8489ZM162.344 31.5089H164.464V40.7089H162.344V31.5089ZM170.837 40.9089C169.903 40.9089 169.077 40.7089 168.357 40.3089C167.65 39.9089 167.103 39.3489 166.717 38.6289C166.33 37.9089 166.137 37.0689 166.137 36.1089C166.137 35.1355 166.33 34.2889 166.717 33.5689C167.117 32.8489 167.677 32.2955 168.397 31.9089C169.117 31.5089 169.963 31.3089 170.937 31.3089C171.91 31.3089 172.737 31.4955 173.417 31.8689C174.097 32.2422 174.617 32.7822 174.977 33.4889C175.35 34.1822 175.537 35.0222 175.537 36.0089C175.537 36.1155 175.53 36.2289 175.517 36.3489C175.517 36.4689 175.51 36.5555 175.497 36.6089H167.417V35.1289H173.657L172.997 36.0489C173.037 35.9689 173.077 35.8622 173.117 35.7289C173.17 35.5822 173.197 35.4622 173.197 35.3689C173.197 34.8755 173.097 34.4489 172.897 34.0889C172.71 33.7289 172.443 33.4489 172.097 33.2489C171.763 33.0489 171.37 32.9489 170.917 32.9489C170.37 32.9489 169.903 33.0689 169.517 33.3089C169.13 33.5489 168.837 33.8955 168.637 34.3489C168.437 34.8022 168.33 35.3622 168.317 36.0289C168.317 36.6955 168.417 37.2622 168.617 37.7289C168.817 38.1822 169.11 38.5289 169.497 38.7689C169.897 39.0089 170.377 39.1289 170.937 39.1289C171.523 39.1289 172.037 39.0089 172.477 38.7689C172.917 38.5289 173.283 38.1622 173.577 37.6689L175.437 38.4289C174.957 39.2555 174.337 39.8755 173.577 40.2889C172.817 40.7022 171.903 40.9089 170.837 40.9089ZM177.418 37.6889C177.712 38.0089 178.005 38.2889 178.298 38.5289C178.605 38.7555 178.912 38.9289 179.218 39.0489C179.525 39.1555 179.832 39.2089 180.138 39.2089C180.525 39.2089 180.825 39.1222 181.038 38.9489C181.265 38.7755 181.378 38.5355 181.378 38.2289C181.378 37.9622 181.292 37.7355 181.118 37.5489C180.945 37.3489 180.705 37.1822 180.398 37.0489C180.092 36.9022 179.732 36.7555 179.318 36.6089C178.905 36.4489 178.492 36.2622 178.078 36.0489C177.678 35.8222 177.345 35.5289 177.078 35.1689C176.825 34.8089 176.698 34.3555 176.698 33.8089C176.698 33.2489 176.838 32.7822 177.118 32.4089C177.412 32.0355 177.798 31.7622 178.278 31.5889C178.772 31.4022 179.298 31.3089 179.858 31.3089C180.365 31.3089 180.838 31.3822 181.278 31.5289C181.732 31.6755 182.138 31.8689 182.498 32.1089C182.858 32.3489 183.165 32.6222 183.418 32.9289L182.218 34.2089C181.912 33.8489 181.545 33.5555 181.118 33.3289C180.692 33.1022 180.252 32.9889 179.798 32.9889C179.492 32.9889 179.238 33.0555 179.038 33.1889C178.838 33.3222 178.738 33.5155 178.738 33.7689C178.738 33.9822 178.825 34.1755 178.998 34.3489C179.185 34.5089 179.425 34.6555 179.718 34.7889C180.025 34.9222 180.365 35.0622 180.738 35.2089C181.245 35.4089 181.712 35.6289 182.138 35.8689C182.565 36.1089 182.905 36.4022 183.158 36.7489C183.425 37.0955 183.558 37.5489 183.558 38.1089C183.558 38.9755 183.258 39.6755 182.658 40.2089C182.072 40.7289 181.272 40.9889 180.258 40.9889C179.632 40.9889 179.052 40.8955 178.518 40.7089C177.998 40.5089 177.538 40.2555 177.138 39.9489C176.752 39.6289 176.425 39.2955 176.158 38.9489L177.418 37.6889Z" fill="#171718"/>
<path opacity="0.5" d="M33.12 201.852H34.31V211.652H33.12V201.852ZM33.778 202.972V201.852H35.78C36.4147 201.852 36.9793 201.973 37.474 202.216C37.978 202.449 38.3747 202.785 38.664 203.224C38.9627 203.663 39.112 204.185 39.112 204.792C39.112 205.389 38.9627 205.912 38.664 206.36C38.3747 206.799 37.978 207.139 37.474 207.382C36.9793 207.615 36.4147 207.732 35.78 207.732H33.778V206.612H35.78C36.4147 206.612 36.928 206.458 37.32 206.15C37.7213 205.842 37.922 205.389 37.922 204.792C37.922 204.185 37.7213 203.733 37.32 203.434C36.928 203.126 36.4147 202.972 35.78 202.972H33.778ZM41.1465 205.212V211.652H40.0265V205.212H41.1465ZM43.0925 206.444C42.9432 206.332 42.8078 206.253 42.6865 206.206C42.5652 206.15 42.4112 206.122 42.2245 206.122C41.9445 206.122 41.7252 206.192 41.5665 206.332C41.4078 206.472 41.2958 206.663 41.2305 206.906C41.1745 207.149 41.1465 207.424 41.1465 207.732H40.6425C40.6425 207.219 40.7312 206.766 40.9085 206.374C41.0952 205.973 41.3332 205.655 41.6225 205.422C41.9118 205.189 42.2058 205.072 42.5045 205.072C42.7378 205.072 42.9525 205.105 43.1485 205.17C43.3538 205.226 43.5405 205.343 43.7085 205.52L43.0925 206.444ZM43.6402 208.432C43.6402 207.779 43.7849 207.2 44.0742 206.696C44.3729 206.192 44.7742 205.795 45.2782 205.506C45.7822 205.217 46.3469 205.072 46.9722 205.072C47.6069 205.072 48.1716 205.217 48.6662 205.506C49.1702 205.795 49.5669 206.192 49.8562 206.696C50.1549 207.2 50.3042 207.779 50.3042 208.432C50.3042 209.076 50.1549 209.655 49.8562 210.168C49.5669 210.672 49.1702 211.069 48.6662 211.358C48.1716 211.647 47.6069 211.792 46.9722 211.792C46.3469 211.792 45.7822 211.647 45.2782 211.358C44.7742 211.069 44.3729 210.672 44.0742 210.168C43.7849 209.655 43.6402 209.076 43.6402 208.432ZM44.7742 208.432C44.7742 208.88 44.8676 209.277 45.0542 209.622C45.2502 209.967 45.5116 210.243 45.8382 210.448C46.1742 210.644 46.5522 210.742 46.9722 210.742C47.3922 210.742 47.7656 210.644 48.0922 210.448C48.4282 210.243 48.6896 209.967 48.8762 209.622C49.0722 209.277 49.1702 208.88 49.1702 208.432C49.1702 207.984 49.0722 207.587 48.8762 207.242C48.6896 206.887 48.4282 206.612 48.0922 206.416C47.7656 206.22 47.3922 206.122 46.9722 206.122C46.5522 206.122 46.1742 206.22 45.8382 206.416C45.5116 206.612 45.2502 206.887 45.0542 207.242C44.8676 207.587 44.7742 207.984 44.7742 208.432ZM56.2528 200.732H57.3728V211.652H56.2528V200.732ZM50.8628 208.432C50.8628 207.732 51.0075 207.135 51.2968 206.64C51.5861 206.136 51.9735 205.749 52.4588 205.478C52.9441 205.207 53.4761 205.072 54.0548 205.072C54.5961 205.072 55.0675 205.207 55.4688 205.478C55.8701 205.749 56.1828 206.136 56.4068 206.64C56.6401 207.135 56.7568 207.732 56.7568 208.432C56.7568 209.123 56.6401 209.72 56.4068 210.224C56.1828 210.728 55.8701 211.115 55.4688 211.386C55.0675 211.657 54.5961 211.792 54.0548 211.792C53.4761 211.792 52.9441 211.657 52.4588 211.386C51.9735 211.115 51.5861 210.728 51.2968 210.224C51.0075 209.72 50.8628 209.123 50.8628 208.432ZM51.9968 208.432C51.9968 208.927 52.0948 209.347 52.2908 209.692C52.4961 210.037 52.7668 210.299 53.1028 210.476C53.4388 210.653 53.8028 210.742 54.1948 210.742C54.5215 210.742 54.8435 210.653 55.1608 210.476C55.4781 210.299 55.7395 210.037 55.9448 209.692C56.1501 209.347 56.2528 208.927 56.2528 208.432C56.2528 207.937 56.1501 207.517 55.9448 207.172C55.7395 206.827 55.4781 206.565 55.1608 206.388C54.8435 206.211 54.5215 206.122 54.1948 206.122C53.8028 206.122 53.4388 206.211 53.1028 206.388C52.7668 206.565 52.4961 206.827 52.2908 207.172C52.0948 207.517 51.9968 207.937 51.9968 208.432ZM60.1072 209.132C60.1072 209.645 60.2239 210.042 60.4572 210.322C60.6905 210.602 61.0312 210.742 61.4792 210.742C61.8059 210.742 62.0905 210.677 62.3332 210.546C62.5852 210.406 62.7765 210.215 62.9072 209.972C63.0472 209.729 63.1172 209.449 63.1172 209.132V205.212H64.2372V211.652H63.1172V210.644C62.9025 211.027 62.6365 211.316 62.3192 211.512C62.0019 211.699 61.6285 211.792 61.1992 211.792C60.5272 211.792 59.9905 211.563 59.5892 211.106C59.1879 210.649 58.9872 210.037 58.9872 209.272V205.212H60.1072V209.132ZM66.4267 208.432C66.4267 208.88 66.52 209.277 66.7067 209.622C66.9027 209.967 67.164 210.243 67.4907 210.448C67.8267 210.644 68.2047 210.742 68.6247 210.742C68.97 210.742 69.292 210.691 69.5907 210.588C69.8987 210.476 70.1647 210.331 70.3887 210.154C70.6127 209.967 70.7713 209.771 70.8647 209.566V210.966C70.6407 211.227 70.3187 211.433 69.8987 211.582C69.488 211.722 69.0633 211.792 68.6247 211.792C67.9993 211.792 67.4347 211.647 66.9307 211.358C66.4267 211.069 66.0253 210.672 65.7267 210.168C65.4373 209.655 65.2927 209.076 65.2927 208.432C65.2927 207.779 65.4373 207.2 65.7267 206.696C66.0253 206.192 66.4267 205.795 66.9307 205.506C67.4347 205.217 67.9993 205.072 68.6247 205.072C69.0633 205.072 69.488 205.147 69.8987 205.296C70.3187 205.436 70.6407 205.637 70.8647 205.898V207.298C70.7713 207.083 70.6127 206.887 70.3887 206.71C70.1647 206.533 69.8987 206.393 69.5907 206.29C69.292 206.178 68.97 206.122 68.6247 206.122C68.2047 206.122 67.8267 206.22 67.4907 206.416C67.164 206.612 66.9027 206.887 66.7067 207.242C66.52 207.587 66.4267 207.984 66.4267 208.432ZM71.2082 205.212H74.4282V206.262H71.2082V205.212ZM72.2582 202.972H73.3782V211.652H72.2582V202.972Z" fill="#171718"/>
<path opacity="0.5" d="M100.82 206.752C100.82 207.508 100.988 208.175 101.324 208.754C101.669 209.333 102.117 209.785 102.668 210.112C103.219 210.439 103.816 210.602 104.46 210.602C104.927 210.602 105.351 210.541 105.734 210.42C106.126 210.299 106.481 210.131 106.798 209.916C107.115 209.692 107.386 209.435 107.61 209.146V210.714C107.199 211.078 106.751 211.349 106.266 211.526C105.781 211.703 105.179 211.792 104.46 211.792C103.779 211.792 103.139 211.671 102.542 211.428C101.954 211.176 101.436 210.826 100.988 210.378C100.54 209.921 100.19 209.384 99.938 208.768C99.686 208.152 99.56 207.48 99.56 206.752C99.56 206.024 99.686 205.352 99.938 204.736C100.19 204.12 100.54 203.588 100.988 203.14C101.436 202.683 101.954 202.333 102.542 202.09C103.139 201.838 103.779 201.712 104.46 201.712C105.179 201.712 105.781 201.801 106.266 201.978C106.751 202.155 107.199 202.426 107.61 202.79V204.358C107.386 204.069 107.115 203.817 106.798 203.602C106.481 203.378 106.126 203.205 105.734 203.084C105.351 202.963 104.927 202.902 104.46 202.902C103.816 202.902 103.219 203.065 102.668 203.392C102.117 203.719 101.669 204.171 101.324 204.75C100.988 205.319 100.82 205.987 100.82 206.752ZM108.654 208.432C108.654 207.779 108.799 207.2 109.088 206.696C109.387 206.192 109.788 205.795 110.292 205.506C110.796 205.217 111.361 205.072 111.986 205.072C112.621 205.072 113.185 205.217 113.68 205.506C114.184 205.795 114.581 206.192 114.87 206.696C115.169 207.2 115.318 207.779 115.318 208.432C115.318 209.076 115.169 209.655 114.87 210.168C114.581 210.672 114.184 211.069 113.68 211.358C113.185 211.647 112.621 211.792 111.986 211.792C111.361 211.792 110.796 211.647 110.292 211.358C109.788 211.069 109.387 210.672 109.088 210.168C108.799 209.655 108.654 209.076 108.654 208.432ZM109.788 208.432C109.788 208.88 109.881 209.277 110.068 209.622C110.264 209.967 110.525 210.243 110.852 210.448C111.188 210.644 111.566 210.742 111.986 210.742C112.406 210.742 112.779 210.644 113.106 210.448C113.442 210.243 113.703 209.967 113.89 209.622C114.086 209.277 114.184 208.88 114.184 208.432C114.184 207.984 114.086 207.587 113.89 207.242C113.703 206.887 113.442 206.612 113.106 206.416C112.779 206.22 112.406 206.122 111.986 206.122C111.566 206.122 111.188 206.22 110.852 206.416C110.525 206.612 110.264 206.887 110.068 207.242C109.881 207.587 109.788 207.984 109.788 208.432ZM120.567 207.732C120.567 207.2 120.45 206.799 120.217 206.528C119.983 206.257 119.643 206.122 119.195 206.122C118.868 206.122 118.579 206.192 118.327 206.332C118.084 206.463 117.893 206.649 117.753 206.892C117.622 207.135 117.557 207.415 117.557 207.732V211.652H116.437V205.212H117.557V206.22C117.771 205.828 118.037 205.539 118.355 205.352C118.681 205.165 119.055 205.072 119.475 205.072C120.156 205.072 120.693 205.301 121.085 205.758C121.486 206.206 121.687 206.817 121.687 207.592V211.652H120.567V207.732ZM122.392 205.212H125.612V206.262H122.392V205.212ZM123.442 202.972H124.562V211.652H123.442V202.972ZM128.807 211.792C128.21 211.792 127.678 211.652 127.211 211.372C126.754 211.083 126.395 210.686 126.133 210.182C125.881 209.678 125.755 209.095 125.755 208.432C125.755 207.76 125.886 207.172 126.147 206.668C126.418 206.164 126.791 205.772 127.267 205.492C127.753 205.212 128.313 205.072 128.947 205.072C129.582 205.072 130.123 205.207 130.571 205.478C131.029 205.739 131.379 206.117 131.621 206.612C131.864 207.107 131.985 207.695 131.985 208.376C131.985 208.441 131.981 208.511 131.971 208.586C131.971 208.651 131.971 208.693 131.971 208.712H126.469V207.76H131.089L130.641 208.404C130.669 208.357 130.697 208.287 130.725 208.194C130.753 208.091 130.767 208.007 130.767 207.942C130.767 207.559 130.688 207.228 130.529 206.948C130.38 206.668 130.17 206.449 129.899 206.29C129.629 206.131 129.311 206.052 128.947 206.052C128.518 206.052 128.149 206.145 127.841 206.332C127.543 206.509 127.309 206.771 127.141 207.116C126.983 207.452 126.899 207.867 126.889 208.362C126.889 208.866 126.969 209.295 127.127 209.65C127.286 210.005 127.519 210.275 127.827 210.462C128.135 210.649 128.509 210.742 128.947 210.742C129.386 210.742 129.773 210.649 130.109 210.462C130.445 210.266 130.73 209.972 130.963 209.58L131.873 210.154C131.537 210.695 131.113 211.106 130.599 211.386C130.095 211.657 129.498 211.792 128.807 211.792ZM137.23 207.732C137.23 207.2 137.114 206.799 136.88 206.528C136.647 206.257 136.306 206.122 135.858 206.122C135.532 206.122 135.242 206.192 134.99 206.332C134.748 206.463 134.556 206.649 134.416 206.892C134.286 207.135 134.22 207.415 134.22 207.732V211.652H133.1V205.212H134.22V206.22C134.435 205.828 134.701 205.539 135.018 205.352C135.345 205.165 135.718 205.072 136.138 205.072C136.82 205.072 137.356 205.301 137.748 205.758C138.15 206.206 138.35 206.817 138.35 207.592V211.652H137.23V207.732ZM139.056 205.212H142.276V206.262H139.056V205.212ZM140.106 202.972H141.226V211.652H140.106V202.972Z" fill="#171718"/>
<path opacity="0.5" d="M167.778 202.972V201.852H172.16V202.972H167.778ZM167.778 206.892V205.772H172.02V206.892H167.778ZM167.12 201.852H168.31V211.652H167.12V201.852ZM173.63 202.552C173.63 202.337 173.705 202.155 173.854 202.006C174.013 201.857 174.195 201.782 174.4 201.782C174.615 201.782 174.797 201.857 174.946 202.006C175.095 202.155 175.17 202.337 175.17 202.552C175.17 202.757 175.095 202.939 174.946 203.098C174.797 203.247 174.615 203.322 174.4 203.322C174.195 203.322 174.013 203.247 173.854 203.098C173.705 202.939 173.63 202.757 173.63 202.552ZM173.84 205.212H174.96V211.652H173.84V205.212ZM180.977 207.732C180.977 207.2 180.86 206.799 180.627 206.528C180.393 206.257 180.053 206.122 179.605 206.122C179.278 206.122 178.989 206.192 178.737 206.332C178.494 206.463 178.303 206.649 178.163 206.892C178.032 207.135 177.967 207.415 177.967 207.732V211.652H176.847V205.212H177.967V206.22C178.181 205.828 178.447 205.539 178.765 205.352C179.091 205.165 179.465 205.072 179.885 205.072C180.566 205.072 181.103 205.301 181.495 205.758C181.896 206.206 182.097 206.817 182.097 207.592V211.652H180.977V207.732ZM184.286 209.664C184.286 209.907 184.342 210.117 184.454 210.294C184.576 210.471 184.739 210.607 184.944 210.7C185.159 210.784 185.402 210.826 185.672 210.826C186.018 210.826 186.326 210.756 186.596 210.616C186.876 210.476 187.096 210.28 187.254 210.028C187.422 209.767 187.506 209.468 187.506 209.132L187.73 209.972C187.73 210.383 187.604 210.723 187.352 210.994C187.11 211.265 186.806 211.465 186.442 211.596C186.088 211.727 185.733 211.792 185.378 211.792C184.986 211.792 184.618 211.713 184.272 211.554C183.936 211.386 183.666 211.148 183.46 210.84C183.255 210.532 183.152 210.159 183.152 209.72C183.152 209.095 183.372 208.595 183.81 208.222C184.258 207.839 184.879 207.648 185.672 207.648C186.139 207.648 186.526 207.704 186.834 207.816C187.152 207.919 187.404 208.04 187.59 208.18C187.777 208.311 187.903 208.418 187.968 208.502V209.16C187.642 208.936 187.306 208.777 186.96 208.684C186.615 208.581 186.246 208.53 185.854 208.53C185.49 208.53 185.192 208.577 184.958 208.67C184.734 208.763 184.566 208.894 184.454 209.062C184.342 209.23 184.286 209.431 184.286 209.664ZM184.118 206.696L183.572 205.87C183.815 205.693 184.146 205.515 184.566 205.338C184.996 205.161 185.509 205.072 186.106 205.072C186.61 205.072 187.049 205.151 187.422 205.31C187.805 205.459 188.099 205.679 188.304 205.968C188.519 206.257 188.626 206.612 188.626 207.032V211.652H187.506V207.186C187.506 206.962 187.469 206.78 187.394 206.64C187.32 206.491 187.212 206.374 187.072 206.29C186.942 206.206 186.788 206.145 186.61 206.108C186.433 206.071 186.246 206.052 186.05 206.052C185.733 206.052 185.444 206.089 185.182 206.164C184.93 206.239 184.716 206.327 184.538 206.43C184.361 206.533 184.221 206.621 184.118 206.696ZM194.232 207.732C194.232 207.2 194.116 206.799 193.882 206.528C193.649 206.257 193.308 206.122 192.86 206.122C192.534 206.122 192.244 206.192 191.992 206.332C191.75 206.463 191.558 206.649 191.418 206.892C191.288 207.135 191.222 207.415 191.222 207.732V211.652H190.102V205.212H191.222V206.22C191.437 205.828 191.703 205.539 192.02 205.352C192.347 205.165 192.72 205.072 193.14 205.072C193.822 205.072 194.358 205.301 194.75 205.758C195.152 206.206 195.352 206.817 195.352 207.592V211.652H194.232V207.732ZM197.542 208.432C197.542 208.88 197.635 209.277 197.822 209.622C198.018 209.967 198.279 210.243 198.606 210.448C198.942 210.644 199.32 210.742 199.74 210.742C200.085 210.742 200.407 210.691 200.706 210.588C201.014 210.476 201.28 210.331 201.504 210.154C201.728 209.967 201.887 209.771 201.98 209.566V210.966C201.756 211.227 201.434 211.433 201.014 211.582C200.603 211.722 200.179 211.792 199.74 211.792C199.115 211.792 198.55 211.647 198.046 211.358C197.542 211.069 197.141 210.672 196.842 210.168C196.553 209.655 196.408 209.076 196.408 208.432C196.408 207.779 196.553 207.2 196.842 206.696C197.141 206.192 197.542 205.795 198.046 205.506C198.55 205.217 199.115 205.072 199.74 205.072C200.179 205.072 200.603 205.147 201.014 205.296C201.434 205.436 201.756 205.637 201.98 205.898V207.298C201.887 207.083 201.728 206.887 201.504 206.71C201.28 206.533 201.014 206.393 200.706 206.29C200.407 206.178 200.085 206.122 199.74 206.122C199.32 206.122 198.942 206.22 198.606 206.416C198.279 206.612 198.018 206.887 197.822 207.242C197.635 207.587 197.542 207.984 197.542 208.432ZM205.795 211.792C205.198 211.792 204.666 211.652 204.199 211.372C203.742 211.083 203.383 210.686 203.121 210.182C202.869 209.678 202.743 209.095 202.743 208.432C202.743 207.76 202.874 207.172 203.135 206.668C203.406 206.164 203.779 205.772 204.255 205.492C204.741 205.212 205.301 205.072 205.935 205.072C206.57 205.072 207.111 205.207 207.559 205.478C208.017 205.739 208.367 206.117 208.609 206.612C208.852 207.107 208.973 207.695 208.973 208.376C208.973 208.441 208.969 208.511 208.959 208.586C208.959 208.651 208.959 208.693 208.959 208.712H203.457V207.76H208.077L207.629 208.404C207.657 208.357 207.685 208.287 207.713 208.194C207.741 208.091 207.755 208.007 207.755 207.942C207.755 207.559 207.676 207.228 207.517 206.948C207.368 206.668 207.158 206.449 206.887 206.29C206.617 206.131 206.299 206.052 205.935 206.052C205.506 206.052 205.137 206.145 204.829 206.332C204.531 206.509 204.297 206.771 204.129 207.116C203.971 207.452 203.887 207.867 203.877 208.362C203.877 208.866 203.957 209.295 204.115 209.65C204.274 210.005 204.507 210.275 204.815 210.462C205.123 210.649 205.497 210.742 205.935 210.742C206.374 210.742 206.761 210.649 207.097 210.462C207.433 210.266 207.718 209.972 207.951 209.58L208.861 210.154C208.525 210.695 208.101 211.106 207.587 211.386C207.083 211.657 206.486 211.792 205.795 211.792Z" fill="#171718"/>
<path opacity="0.5" d="M236.12 201.852H237.31V211.652H236.12V201.852ZM239.06 211.652H236.778V210.462H239.06C239.611 210.462 240.115 210.378 240.572 210.21C241.029 210.033 241.421 209.785 241.748 209.468C242.075 209.141 242.327 208.749 242.504 208.292C242.681 207.835 242.77 207.321 242.77 206.752C242.77 206.183 242.681 205.669 242.504 205.212C242.327 204.755 242.075 204.367 241.748 204.05C241.421 203.723 241.029 203.476 240.572 203.308C240.115 203.131 239.611 203.042 239.06 203.042H236.778V201.852H239.06C240.012 201.852 240.857 202.057 241.594 202.468C242.331 202.879 242.91 203.453 243.33 204.19C243.75 204.918 243.96 205.772 243.96 206.752C243.96 207.732 243.75 208.591 243.33 209.328C242.91 210.056 242.331 210.625 241.594 211.036C240.857 211.447 240.012 211.652 239.06 211.652ZM247.638 211.792C247.04 211.792 246.508 211.652 246.042 211.372C245.584 211.083 245.225 210.686 244.964 210.182C244.712 209.678 244.586 209.095 244.586 208.432C244.586 207.76 244.716 207.172 244.978 206.668C245.248 206.164 245.622 205.772 246.098 205.492C246.583 205.212 247.143 205.072 247.778 205.072C248.412 205.072 248.954 205.207 249.402 205.478C249.859 205.739 250.209 206.117 250.452 206.612C250.694 207.107 250.816 207.695 250.816 208.376C250.816 208.441 250.811 208.511 250.802 208.586C250.802 208.651 250.802 208.693 250.802 208.712H245.3V207.76H249.92L249.472 208.404C249.5 208.357 249.528 208.287 249.556 208.194C249.584 208.091 249.598 208.007 249.598 207.942C249.598 207.559 249.518 207.228 249.36 206.948C249.21 206.668 249 206.449 248.73 206.29C248.459 206.131 248.142 206.052 247.778 206.052C247.348 206.052 246.98 206.145 246.672 206.332C246.373 206.509 246.14 206.771 245.972 207.116C245.813 207.452 245.729 207.867 245.72 208.362C245.72 208.866 245.799 209.295 245.958 209.65C246.116 210.005 246.35 210.275 246.658 210.462C246.966 210.649 247.339 210.742 247.778 210.742C248.216 210.742 248.604 210.649 248.94 210.462C249.276 210.266 249.56 209.972 249.794 209.58L250.704 210.154C250.368 210.695 249.943 211.106 249.43 211.386C248.926 211.657 248.328 211.792 247.638 211.792ZM252.197 209.678C252.327 209.874 252.477 210.056 252.645 210.224C252.813 210.392 253.004 210.527 253.219 210.63C253.443 210.723 253.685 210.77 253.947 210.77C254.264 210.77 254.511 210.7 254.689 210.56C254.875 210.411 254.969 210.21 254.969 209.958C254.969 209.734 254.894 209.547 254.745 209.398C254.605 209.239 254.423 209.109 254.199 209.006C253.975 208.894 253.737 208.791 253.485 208.698C253.205 208.586 252.92 208.455 252.631 208.306C252.351 208.147 252.113 207.947 251.917 207.704C251.73 207.452 251.637 207.139 251.637 206.766C251.637 206.383 251.735 206.066 251.931 205.814C252.136 205.562 252.397 205.375 252.715 205.254C253.041 205.133 253.377 205.072 253.723 205.072C254.068 205.072 254.39 205.128 254.689 205.24C254.997 205.352 255.267 205.501 255.501 205.688C255.734 205.875 255.916 206.089 256.047 206.332L255.151 206.906C254.973 206.663 254.749 206.463 254.479 206.304C254.217 206.145 253.919 206.066 253.583 206.066C253.349 206.066 253.149 206.117 252.981 206.22C252.813 206.323 252.729 206.481 252.729 206.696C252.729 206.864 252.794 207.013 252.925 207.144C253.055 207.275 253.223 207.391 253.429 207.494C253.634 207.597 253.849 207.695 254.073 207.788C254.446 207.937 254.787 208.101 255.095 208.278C255.403 208.446 255.645 208.651 255.823 208.894C256.009 209.137 256.103 209.449 256.103 209.832C256.103 210.392 255.897 210.859 255.487 211.232C255.085 211.605 254.553 211.792 253.891 211.792C253.461 211.792 253.074 211.717 252.729 211.568C252.383 211.409 252.089 211.209 251.847 210.966C251.613 210.723 251.436 210.476 251.315 210.224L252.197 209.678ZM257.157 202.552C257.157 202.337 257.232 202.155 257.381 202.006C257.54 201.857 257.722 201.782 257.927 201.782C258.142 201.782 258.324 201.857 258.473 202.006C258.623 202.155 258.697 202.337 258.697 202.552C258.697 202.757 258.623 202.939 258.473 203.098C258.324 203.247 258.142 203.322 257.927 203.322C257.722 203.322 257.54 203.247 257.381 203.098C257.232 202.939 257.157 202.757 257.157 202.552ZM257.367 205.212H258.487V211.652H257.367V205.212ZM259.94 212.072H261.074C261.074 212.38 261.158 212.665 261.326 212.926C261.494 213.197 261.732 213.411 262.04 213.57C262.348 213.738 262.712 213.822 263.132 213.822C263.459 213.822 263.781 213.743 264.098 213.584C264.415 213.425 264.677 213.173 264.882 212.828C265.097 212.492 265.204 212.053 265.204 211.512V205.212H266.324V211.512C266.324 212.249 266.17 212.865 265.862 213.36C265.554 213.864 265.157 214.242 264.672 214.494C264.187 214.746 263.673 214.872 263.132 214.872C262.507 214.872 261.951 214.755 261.466 214.522C260.99 214.289 260.617 213.957 260.346 213.528C260.075 213.108 259.94 212.623 259.94 212.072ZM259.814 208.432C259.814 207.732 259.959 207.135 260.248 206.64C260.537 206.136 260.925 205.749 261.41 205.478C261.895 205.207 262.427 205.072 263.006 205.072C263.547 205.072 264.019 205.207 264.42 205.478C264.821 205.749 265.134 206.136 265.358 206.64C265.591 207.135 265.708 207.732 265.708 208.432C265.708 209.123 265.591 209.72 265.358 210.224C265.134 210.728 264.821 211.115 264.42 211.386C264.019 211.657 263.547 211.792 263.006 211.792C262.427 211.792 261.895 211.657 261.41 211.386C260.925 211.115 260.537 210.728 260.248 210.224C259.959 209.72 259.814 209.123 259.814 208.432ZM260.948 208.432C260.948 208.927 261.046 209.347 261.242 209.692C261.447 210.037 261.718 210.299 262.054 210.476C262.39 210.653 262.754 210.742 263.146 210.742C263.473 210.742 263.795 210.653 264.112 210.476C264.429 210.299 264.691 210.037 264.896 209.692C265.101 209.347 265.204 208.927 265.204 208.432C265.204 208.059 265.143 207.732 265.022 207.452C264.901 207.163 264.737 206.92 264.532 206.724C264.336 206.528 264.117 206.379 263.874 206.276C263.631 206.173 263.389 206.122 263.146 206.122C262.754 206.122 262.39 206.211 262.054 206.388C261.718 206.565 261.447 206.827 261.242 207.172C261.046 207.517 260.948 207.937 260.948 208.432ZM272.068 207.732C272.068 207.2 271.952 206.799 271.718 206.528C271.485 206.257 271.144 206.122 270.696 206.122C270.37 206.122 270.08 206.192 269.828 206.332C269.586 206.463 269.394 206.649 269.254 206.892C269.124 207.135 269.058 207.415 269.058 207.732V211.652H267.938V205.212H269.058V206.22C269.273 205.828 269.539 205.539 269.856 205.352C270.183 205.165 270.556 205.072 270.976 205.072C271.658 205.072 272.194 205.301 272.586 205.758C272.988 206.206 273.188 206.817 273.188 207.592V211.652H272.068V207.732Z" fill="#171718"/>
<line opacity="0.1" x1="27.5566" y1="67.4398" x2="281.291" y2="67.4398" stroke="url(#paint0_linear_1672_1552)" stroke-width="1.33544"/>
<line opacity="0.1" x1="27.5566" y1="107.503" x2="281.291" y2="107.503" stroke="url(#paint1_linear_1672_1552)" stroke-width="1.33544"/>
<line opacity="0.1" x1="27.5566" y1="147.566" x2="281.291" y2="147.566" stroke="url(#paint2_linear_1672_1552)" stroke-width="1.33544"/>
<path d="M27.5566 145.563C27.5566 139.663 32.3398 134.88 38.2402 134.88H70.2908C76.1912 134.88 80.9743 139.663 80.9743 145.563V188.297H27.5566V145.563Z" fill="#FDDED9"/>
<path d="M94.3291 104.165C94.3291 98.2641 99.1123 93.481 105.013 93.481H137.063C142.964 93.481 147.747 98.2641 147.747 104.164V188.297H94.3291V104.165Z" fill="#FFDBEA"/>
<path d="M161.101 126.867C161.101 120.967 165.884 116.183 171.784 116.183H203.835C209.735 116.183 214.518 120.967 214.518 126.867V188.297H161.101V126.867Z" fill="#FADDFF"/>
<path d="M227.873 89.4747C227.873 83.5743 232.656 78.7911 238.557 78.7911H270.607C276.508 78.7911 281.291 83.5743 281.291 89.4747V188.297H227.873V89.4747Z" fill="url(#paint3_linear_1672_1552)"/>
<path opacity="0.5" d="M42.834 179.052C42.834 179.5 42.9273 179.897 43.114 180.242C43.31 180.578 43.5713 180.844 43.898 181.04C44.234 181.236 44.612 181.334 45.032 181.334C45.452 181.334 45.8253 181.236 46.152 181.04C46.488 180.844 46.7493 180.578 46.936 180.242C47.132 179.897 47.23 179.5 47.23 179.052C47.23 178.604 47.132 178.207 46.936 177.862C46.7493 177.507 46.488 177.232 46.152 177.036C45.8253 176.84 45.452 176.742 45.032 176.742C44.612 176.742 44.234 176.84 43.898 177.036C43.5713 177.232 43.31 177.507 43.114 177.862C42.9273 178.207 42.834 178.604 42.834 179.052ZM45.62 172.472H47.118L44.052 176.518L43.968 176.448C44.1547 176.215 44.3693 176.061 44.612 175.986C44.864 175.911 45.1487 175.874 45.466 175.874C45.8673 175.874 46.2407 175.953 46.586 176.112C46.9407 176.271 47.2487 176.495 47.51 176.784C47.7807 177.073 47.9907 177.414 48.14 177.806C48.2893 178.189 48.364 178.604 48.364 179.052C48.364 179.724 48.2147 180.312 47.916 180.816C47.6267 181.32 47.23 181.712 46.726 181.992C46.2313 182.272 45.6667 182.412 45.032 182.412C44.4067 182.412 43.842 182.272 43.338 181.992C42.834 181.712 42.4327 181.32 42.134 180.816C41.8447 180.312 41.7 179.724 41.7 179.052C41.7 178.651 41.756 178.277 41.868 177.932C41.98 177.587 42.1293 177.283 42.316 177.022L45.62 172.472ZM55.9824 179.052C55.9824 179.612 55.8937 180.102 55.7164 180.522C55.5391 180.942 55.2917 181.292 54.9744 181.572C54.6571 181.852 54.2931 182.062 53.8824 182.202C53.4717 182.342 53.0284 182.412 52.5524 182.412C51.9551 182.412 51.4324 182.319 50.9844 182.132C50.5457 181.945 50.1677 181.698 49.8504 181.39C49.5424 181.073 49.2811 180.727 49.0664 180.354L50.0744 179.668C50.2237 179.948 50.4197 180.214 50.6624 180.466C50.9144 180.709 51.2037 180.909 51.5304 181.068C51.8571 181.217 52.1977 181.292 52.5524 181.292C53.0191 181.292 53.4157 181.199 53.7424 181.012C54.0691 180.825 54.3164 180.564 54.4844 180.228C54.6617 179.892 54.7504 179.5 54.7504 179.052C54.7504 178.604 54.6524 178.212 54.4564 177.876C54.2697 177.54 54.0084 177.279 53.6724 177.092C53.3457 176.905 52.9724 176.812 52.5524 176.812C52.2444 176.812 51.9597 176.84 51.6984 176.896C51.4464 176.943 51.1897 177.031 50.9284 177.162C50.6764 177.283 50.3824 177.461 50.0464 177.694L51.3344 172.472H55.9544V173.522H52.2584L51.6004 176.112C51.8337 175.991 52.0717 175.902 52.3144 175.846C52.5664 175.781 52.8137 175.748 53.0564 175.748C53.6164 175.748 54.1157 175.888 54.5544 176.168C55.0024 176.448 55.3524 176.835 55.6044 177.33C55.8564 177.825 55.9824 178.399 55.9824 179.052ZM56.6187 174.572C56.6187 174.152 56.7074 173.774 56.8847 173.438C57.0714 173.102 57.3327 172.836 57.6687 172.64C58.0047 172.435 58.3921 172.332 58.8307 172.332C59.2787 172.332 59.6661 172.435 59.9928 172.64C60.3288 172.836 60.5854 173.102 60.7628 173.438C60.9494 173.774 61.0428 174.152 61.0428 174.572C61.0428 174.983 60.9494 175.361 60.7628 175.706C60.5854 176.042 60.3288 176.313 59.9928 176.518C59.6661 176.714 59.2787 176.812 58.8307 176.812C58.3921 176.812 58.0047 176.714 57.6687 176.518C57.3327 176.313 57.0714 176.042 56.8847 175.706C56.7074 175.361 56.6187 174.983 56.6187 174.572ZM57.6127 174.572C57.6127 174.805 57.6594 175.025 57.7527 175.23C57.8554 175.435 57.9954 175.599 58.1728 175.72C58.3594 175.841 58.5787 175.902 58.8307 175.902C59.0921 175.902 59.3114 175.841 59.4887 175.72C59.6661 175.599 59.8014 175.435 59.8948 175.23C59.9974 175.025 60.0487 174.805 60.0487 174.572C60.0487 174.329 59.9974 174.11 59.8948 173.914C59.8014 173.709 59.6661 173.545 59.4887 173.424C59.3114 173.303 59.0921 173.242 58.8307 173.242C58.5787 173.242 58.3594 173.303 58.1728 173.424C57.9954 173.545 57.8554 173.709 57.7527 173.914C57.6594 174.11 57.6127 174.329 57.6127 174.572ZM61.7287 180.172C61.7287 179.752 61.8174 179.374 61.9948 179.038C62.1814 178.702 62.4428 178.436 62.7788 178.24C63.1148 178.035 63.5021 177.932 63.9408 177.932C64.3888 177.932 64.7761 178.035 65.1028 178.24C65.4388 178.436 65.6954 178.702 65.8728 179.038C66.0594 179.374 66.1528 179.752 66.1528 180.172C66.1528 180.583 66.0594 180.961 65.8728 181.306C65.6954 181.642 65.4388 181.913 65.1028 182.118C64.7761 182.314 64.3888 182.412 63.9408 182.412C63.5021 182.412 63.1148 182.314 62.7788 182.118C62.4428 181.913 62.1814 181.642 61.9948 181.306C61.8174 180.961 61.7287 180.583 61.7287 180.172ZM62.7228 180.172C62.7228 180.405 62.7694 180.625 62.8628 180.83C62.9654 181.035 63.1054 181.199 63.2828 181.32C63.4694 181.441 63.6888 181.502 63.9408 181.502C64.2021 181.502 64.4214 181.441 64.5988 181.32C64.7761 181.199 64.9114 181.035 65.0047 180.83C65.1074 180.625 65.1588 180.405 65.1588 180.172C65.1588 179.929 65.1074 179.71 65.0047 179.514C64.9114 179.309 64.7761 179.145 64.5988 179.024C64.4214 178.903 64.2021 178.842 63.9408 178.842C63.6888 178.842 63.4694 178.903 63.2828 179.024C63.1054 179.145 62.9654 179.309 62.8628 179.514C62.7694 179.71 62.7228 179.929 62.7228 180.172ZM64.0108 172.472H65.0608L58.7607 182.272H57.7107L64.0108 172.472Z" fill="#171718"/>
<path opacity="0.5" d="M108.42 173.592V172.472H115.28L110.59 182.272H109.344L113.502 173.592H108.42ZM121.165 175.692C121.165 175.244 121.067 174.852 120.871 174.516C120.685 174.171 120.423 173.9 120.087 173.704C119.761 173.508 119.387 173.41 118.967 173.41C118.547 173.41 118.169 173.508 117.833 173.704C117.507 173.9 117.245 174.171 117.049 174.516C116.863 174.852 116.769 175.244 116.769 175.692C116.769 176.14 116.863 176.537 117.049 176.882C117.245 177.227 117.507 177.503 117.833 177.708C118.169 177.904 118.547 178.002 118.967 178.002C119.387 178.002 119.761 177.904 120.087 177.708C120.423 177.503 120.685 177.227 120.871 176.882C121.067 176.537 121.165 176.14 121.165 175.692ZM118.379 182.272H116.881L119.947 178.226L120.031 178.296C119.845 178.529 119.625 178.683 119.373 178.758C119.131 178.833 118.851 178.87 118.533 178.87C118.132 178.87 117.754 178.791 117.399 178.632C117.054 178.473 116.746 178.249 116.475 177.96C116.214 177.671 116.009 177.335 115.859 176.952C115.71 176.56 115.635 176.14 115.635 175.692C115.635 175.02 115.78 174.432 116.069 173.928C116.368 173.424 116.769 173.032 117.273 172.752C117.777 172.472 118.342 172.332 118.967 172.332C119.602 172.332 120.167 172.472 120.661 172.752C121.165 173.032 121.562 173.424 121.851 173.928C122.15 174.432 122.299 175.02 122.299 175.692C122.299 176.093 122.243 176.467 122.131 176.812C122.019 177.157 121.87 177.461 121.683 177.722L118.379 182.272ZM123.072 174.572C123.072 174.152 123.161 173.774 123.338 173.438C123.525 173.102 123.786 172.836 124.122 172.64C124.458 172.435 124.845 172.332 125.284 172.332C125.732 172.332 126.119 172.435 126.446 172.64C126.782 172.836 127.039 173.102 127.216 173.438C127.403 173.774 127.496 174.152 127.496 174.572C127.496 174.983 127.403 175.361 127.216 175.706C127.039 176.042 126.782 176.313 126.446 176.518C126.119 176.714 125.732 176.812 125.284 176.812C124.845 176.812 124.458 176.714 124.122 176.518C123.786 176.313 123.525 176.042 123.338 175.706C123.161 175.361 123.072 174.983 123.072 174.572ZM124.066 174.572C124.066 174.805 124.113 175.025 124.206 175.23C124.309 175.435 124.449 175.599 124.626 175.72C124.813 175.841 125.032 175.902 125.284 175.902C125.545 175.902 125.765 175.841 125.942 175.72C126.119 175.599 126.255 175.435 126.348 175.23C126.451 175.025 126.502 174.805 126.502 174.572C126.502 174.329 126.451 174.11 126.348 173.914C126.255 173.709 126.119 173.545 125.942 173.424C125.765 173.303 125.545 173.242 125.284 173.242C125.032 173.242 124.813 173.303 124.626 173.424C124.449 173.545 124.309 173.709 124.206 173.914C124.113 174.11 124.066 174.329 124.066 174.572ZM128.182 180.172C128.182 179.752 128.271 179.374 128.448 179.038C128.635 178.702 128.896 178.436 129.232 178.24C129.568 178.035 129.955 177.932 130.394 177.932C130.842 177.932 131.229 178.035 131.556 178.24C131.892 178.436 132.149 178.702 132.326 179.038C132.513 179.374 132.606 179.752 132.606 180.172C132.606 180.583 132.513 180.961 132.326 181.306C132.149 181.642 131.892 181.913 131.556 182.118C131.229 182.314 130.842 182.412 130.394 182.412C129.955 182.412 129.568 182.314 129.232 182.118C128.896 181.913 128.635 181.642 128.448 181.306C128.271 180.961 128.182 180.583 128.182 180.172ZM129.176 180.172C129.176 180.405 129.223 180.625 129.316 180.83C129.419 181.035 129.559 181.199 129.736 181.32C129.923 181.441 130.142 181.502 130.394 181.502C130.655 181.502 130.875 181.441 131.052 181.32C131.229 181.199 131.365 181.035 131.458 180.83C131.561 180.625 131.612 180.405 131.612 180.172C131.612 179.929 131.561 179.71 131.458 179.514C131.365 179.309 131.229 179.145 131.052 179.024C130.875 178.903 130.655 178.842 130.394 178.842C130.142 178.842 129.923 178.903 129.736 179.024C129.559 179.145 129.419 179.309 129.316 179.514C129.223 179.71 129.176 179.929 129.176 180.172ZM130.464 172.472H131.514L125.214 182.272H124.164L130.464 172.472Z" fill="#171718"/>
<path opacity="0.5" d="M175.28 180.312L180.712 172.472H181.202V182.272H180.012V179.808V179.654V175.118L177.24 179.262H180.502H180.74H182.742V180.312H175.28ZM183.862 174.838C183.862 174.371 183.979 173.951 184.212 173.578C184.455 173.195 184.777 172.892 185.178 172.668C185.589 172.444 186.051 172.332 186.564 172.332C187.077 172.332 187.535 172.444 187.936 172.668C188.347 172.892 188.669 173.195 188.902 173.578C189.145 173.951 189.266 174.371 189.266 174.838C189.266 175.221 189.201 175.566 189.07 175.874C188.939 176.173 188.753 176.429 188.51 176.644C188.277 176.859 187.992 177.022 187.656 177.134C187.329 177.246 186.965 177.302 186.564 177.302C186.163 177.302 185.794 177.246 185.458 177.134C185.131 177.022 184.847 176.859 184.604 176.644C184.371 176.429 184.189 176.173 184.058 175.874C183.927 175.566 183.862 175.221 183.862 174.838ZM184.996 174.978C184.996 175.286 185.066 175.557 185.206 175.79C185.355 176.023 185.547 176.205 185.78 176.336C186.023 176.467 186.284 176.532 186.564 176.532C186.844 176.532 187.101 176.467 187.334 176.336C187.577 176.205 187.768 176.023 187.908 175.79C188.057 175.557 188.132 175.286 188.132 174.978C188.132 174.67 188.062 174.395 187.922 174.152C187.791 173.909 187.609 173.723 187.376 173.592C187.143 173.452 186.872 173.382 186.564 173.382C186.265 173.382 185.995 173.452 185.752 173.592C185.519 173.723 185.332 173.909 185.192 174.152C185.061 174.395 184.996 174.67 184.996 174.978ZM183.512 179.612C183.512 179.164 183.591 178.767 183.75 178.422C183.918 178.067 184.142 177.773 184.422 177.54C184.711 177.297 185.038 177.115 185.402 176.994C185.775 176.873 186.163 176.812 186.564 176.812C186.965 176.812 187.348 176.873 187.712 176.994C188.085 177.115 188.412 177.297 188.692 177.54C188.981 177.773 189.205 178.067 189.364 178.422C189.532 178.767 189.616 179.164 189.616 179.612C189.616 179.995 189.537 180.354 189.378 180.69C189.229 181.026 189.014 181.325 188.734 181.586C188.463 181.847 188.141 182.053 187.768 182.202C187.404 182.342 187.003 182.412 186.564 182.412C186.125 182.412 185.719 182.342 185.346 182.202C184.982 182.053 184.66 181.847 184.38 181.586C184.109 181.325 183.895 181.026 183.736 180.69C183.587 180.354 183.512 179.995 183.512 179.612ZM184.646 179.472C184.646 179.873 184.735 180.214 184.912 180.494C185.099 180.774 185.337 180.989 185.626 181.138C185.925 181.287 186.237 181.362 186.564 181.362C186.891 181.362 187.199 181.287 187.488 181.138C187.787 180.989 188.025 180.774 188.202 180.494C188.389 180.214 188.482 179.873 188.482 179.472C188.482 179.117 188.389 178.8 188.202 178.52C188.025 178.231 187.787 178.002 187.488 177.834C187.199 177.666 186.891 177.582 186.564 177.582C186.237 177.582 185.925 177.666 185.626 177.834C185.337 178.002 185.099 178.231 184.912 178.52C184.735 178.8 184.646 179.117 184.646 179.472ZM190.455 174.572C190.455 174.152 190.543 173.774 190.721 173.438C190.907 173.102 191.169 172.836 191.505 172.64C191.841 172.435 192.228 172.332 192.667 172.332C193.115 172.332 193.502 172.435 193.829 172.64C194.165 172.836 194.421 173.102 194.599 173.438C194.785 173.774 194.879 174.152 194.879 174.572C194.879 174.983 194.785 175.361 194.599 175.706C194.421 176.042 194.165 176.313 193.829 176.518C193.502 176.714 193.115 176.812 192.667 176.812C192.228 176.812 191.841 176.714 191.505 176.518C191.169 176.313 190.907 176.042 190.721 175.706C190.543 175.361 190.455 174.983 190.455 174.572ZM191.449 174.572C191.449 174.805 191.495 175.025 191.589 175.23C191.691 175.435 191.831 175.599 192.009 175.72C192.195 175.841 192.415 175.902 192.667 175.902C192.928 175.902 193.147 175.841 193.325 175.72C193.502 175.599 193.637 175.435 193.731 175.23C193.833 175.025 193.885 174.805 193.885 174.572C193.885 174.329 193.833 174.11 193.731 173.914C193.637 173.709 193.502 173.545 193.325 173.424C193.147 173.303 192.928 173.242 192.667 173.242C192.415 173.242 192.195 173.303 192.009 173.424C191.831 173.545 191.691 173.709 191.589 173.914C191.495 174.11 191.449 174.329 191.449 174.572ZM195.565 180.172C195.565 179.752 195.653 179.374 195.831 179.038C196.017 178.702 196.279 178.436 196.615 178.24C196.951 178.035 197.338 177.932 197.777 177.932C198.225 177.932 198.612 178.035 198.939 178.24C199.275 178.436 199.531 178.702 199.709 179.038C199.895 179.374 199.989 179.752 199.989 180.172C199.989 180.583 199.895 180.961 199.709 181.306C199.531 181.642 199.275 181.913 198.939 182.118C198.612 182.314 198.225 182.412 197.777 182.412C197.338 182.412 196.951 182.314 196.615 182.118C196.279 181.913 196.017 181.642 195.831 181.306C195.653 180.961 195.565 180.583 195.565 180.172ZM196.559 180.172C196.559 180.405 196.605 180.625 196.699 180.83C196.801 181.035 196.941 181.199 197.119 181.32C197.305 181.441 197.525 181.502 197.777 181.502C198.038 181.502 198.257 181.441 198.435 181.32C198.612 181.199 198.747 181.035 198.841 180.83C198.943 180.625 198.995 180.405 198.995 180.172C198.995 179.929 198.943 179.71 198.841 179.514C198.747 179.309 198.612 179.145 198.435 179.024C198.257 178.903 198.038 178.842 197.777 178.842C197.525 178.842 197.305 178.903 197.119 179.024C196.941 179.145 196.801 179.309 196.699 179.514C196.605 179.71 196.559 179.929 196.559 180.172ZM197.847 172.472H198.897L192.597 182.272H191.547L197.847 172.472Z" fill="#171718"/>
<path opacity="0.5" d="M248.23 175.692C248.23 175.244 248.132 174.852 247.936 174.516C247.749 174.171 247.488 173.9 247.152 173.704C246.825 173.508 246.452 173.41 246.032 173.41C245.612 173.41 245.234 173.508 244.898 173.704C244.571 173.9 244.31 174.171 244.114 174.516C243.927 174.852 243.834 175.244 243.834 175.692C243.834 176.14 243.927 176.537 244.114 176.882C244.31 177.227 244.571 177.503 244.898 177.708C245.234 177.904 245.612 178.002 246.032 178.002C246.452 178.002 246.825 177.904 247.152 177.708C247.488 177.503 247.749 177.227 247.936 176.882C248.132 176.537 248.23 176.14 248.23 175.692ZM245.444 182.272H243.946L247.012 178.226L247.096 178.296C246.909 178.529 246.69 178.683 246.438 178.758C246.195 178.833 245.915 178.87 245.598 178.87C245.197 178.87 244.819 178.791 244.464 178.632C244.119 178.473 243.811 178.249 243.54 177.96C243.279 177.671 243.073 177.335 242.924 176.952C242.775 176.56 242.7 176.14 242.7 175.692C242.7 175.02 242.845 174.432 243.134 173.928C243.433 173.424 243.834 173.032 244.338 172.752C244.842 172.472 245.407 172.332 246.032 172.332C246.667 172.332 247.231 172.472 247.726 172.752C248.23 173.032 248.627 173.424 248.916 173.928C249.215 174.432 249.364 175.02 249.364 175.692C249.364 176.093 249.308 176.467 249.196 176.812C249.084 177.157 248.935 177.461 248.748 177.722L245.444 182.272ZM253.188 177.442V176.672C253.506 176.672 253.786 176.63 254.028 176.546C254.271 176.453 254.476 176.331 254.644 176.182C254.812 176.023 254.938 175.841 255.022 175.636C255.116 175.431 255.162 175.211 255.162 174.978C255.162 174.67 255.106 174.399 254.994 174.166C254.882 173.923 254.714 173.737 254.49 173.606C254.276 173.475 254.005 173.41 253.678 173.41C253.221 173.41 252.834 173.555 252.516 173.844C252.199 174.124 252.04 174.479 252.04 174.908H250.906C250.906 174.395 251.023 173.947 251.256 173.564C251.499 173.181 251.826 172.883 252.236 172.668C252.656 172.444 253.132 172.332 253.664 172.332C254.224 172.332 254.705 172.453 255.106 172.696C255.517 172.939 255.83 173.256 256.044 173.648C256.268 174.04 256.38 174.469 256.38 174.936C256.38 175.393 256.245 175.813 255.974 176.196C255.704 176.579 255.33 176.882 254.854 177.106C254.378 177.33 253.823 177.442 253.188 177.442ZM253.608 182.412C253.132 182.412 252.703 182.342 252.32 182.202C251.938 182.062 251.611 181.871 251.34 181.628C251.07 181.376 250.86 181.087 250.71 180.76C250.561 180.424 250.486 180.065 250.486 179.682H251.69C251.69 179.99 251.77 180.265 251.928 180.508C252.096 180.751 252.325 180.942 252.614 181.082C252.904 181.222 253.235 181.292 253.608 181.292C253.982 181.292 254.304 181.222 254.574 181.082C254.854 180.933 255.069 180.727 255.218 180.466C255.368 180.205 255.442 179.897 255.442 179.542C255.442 179.243 255.382 178.982 255.26 178.758C255.148 178.525 254.99 178.333 254.784 178.184C254.579 178.025 254.341 177.909 254.07 177.834C253.8 177.759 253.506 177.722 253.188 177.722V176.952C253.664 176.952 254.108 177.003 254.518 177.106C254.938 177.209 255.307 177.372 255.624 177.596C255.951 177.811 256.203 178.091 256.38 178.436C256.567 178.781 256.66 179.197 256.66 179.682C256.66 180.233 256.525 180.713 256.254 181.124C255.993 181.535 255.634 181.852 255.176 182.076C254.719 182.3 254.196 182.412 253.608 182.412ZM257.359 174.572C257.359 174.152 257.448 173.774 257.625 173.438C257.812 173.102 258.073 172.836 258.409 172.64C258.745 172.435 259.132 172.332 259.571 172.332C260.019 172.332 260.406 172.435 260.733 172.64C261.069 172.836 261.326 173.102 261.503 173.438C261.69 173.774 261.783 174.152 261.783 174.572C261.783 174.983 261.69 175.361 261.503 175.706C261.326 176.042 261.069 176.313 260.733 176.518C260.406 176.714 260.019 176.812 259.571 176.812C259.132 176.812 258.745 176.714 258.409 176.518C258.073 176.313 257.812 176.042 257.625 175.706C257.448 175.361 257.359 174.983 257.359 174.572ZM258.353 174.572C258.353 174.805 258.4 175.025 258.493 175.23C258.596 175.435 258.736 175.599 258.913 175.72C259.1 175.841 259.319 175.902 259.571 175.902C259.832 175.902 260.052 175.841 260.229 175.72C260.406 175.599 260.542 175.435 260.635 175.23C260.738 175.025 260.789 174.805 260.789 174.572C260.789 174.329 260.738 174.11 260.635 173.914C260.542 173.709 260.406 173.545 260.229 173.424C260.052 173.303 259.832 173.242 259.571 173.242C259.319 173.242 259.1 173.303 258.913 173.424C258.736 173.545 258.596 173.709 258.493 173.914C258.4 174.11 258.353 174.329 258.353 174.572ZM262.469 180.172C262.469 179.752 262.558 179.374 262.735 179.038C262.922 178.702 263.183 178.436 263.519 178.24C263.855 178.035 264.242 177.932 264.681 177.932C265.129 177.932 265.516 178.035 265.843 178.24C266.179 178.436 266.436 178.702 266.613 179.038C266.8 179.374 266.893 179.752 266.893 180.172C266.893 180.583 266.8 180.961 266.613 181.306C266.436 181.642 266.179 181.913 265.843 182.118C265.516 182.314 265.129 182.412 264.681 182.412C264.242 182.412 263.855 182.314 263.519 182.118C263.183 181.913 262.922 181.642 262.735 181.306C262.558 180.961 262.469 180.583 262.469 180.172ZM263.463 180.172C263.463 180.405 263.51 180.625 263.603 180.83C263.706 181.035 263.846 181.199 264.023 181.32C264.21 181.441 264.429 181.502 264.681 181.502C264.942 181.502 265.162 181.441 265.339 181.32C265.516 181.199 265.652 181.035 265.745 180.83C265.848 180.625 265.899 180.405 265.899 180.172C265.899 179.929 265.848 179.71 265.745 179.514C265.652 179.309 265.516 179.145 265.339 179.024C265.162 178.903 264.942 178.842 264.681 178.842C264.429 178.842 264.21 178.903 264.023 179.024C263.846 179.145 263.706 179.309 263.603 179.514C263.51 179.71 263.463 179.929 263.463 180.172ZM264.751 172.472H265.801L259.501 182.272H258.451L264.751 172.472Z" fill="#171718"/>
<defs>
<linearGradient id="paint0_linear_1672_1552" x1="27.5566" y1="68.6075" x2="281.291" y2="68.6075" gradientUnits="userSpaceOnUse">
<stop stop-color="#198BD8"/>
<stop offset="1" stop-color="#F03DCE"/>
</linearGradient>
<linearGradient id="paint1_linear_1672_1552" x1="27.5566" y1="108.671" x2="281.291" y2="108.671" gradientUnits="userSpaceOnUse">
<stop stop-color="#198BD8"/>
<stop offset="1" stop-color="#F03DCE"/>
</linearGradient>
<linearGradient id="paint2_linear_1672_1552" x1="27.5566" y1="148.734" x2="281.291" y2="148.734" gradientUnits="userSpaceOnUse">
<stop stop-color="#198BD8"/>
<stop offset="1" stop-color="#F03DCE"/>
</linearGradient>
<linearGradient id="paint3_linear_1672_1552" x1="254.582" y1="78.7911" x2="254.582" y2="188.297" gradientUnits="userSpaceOnUse">
<stop stop-color="#D37DCB"/>
<stop offset="1" stop-color="#FB8EAB"/>
</linearGradient>
</defs>
</svg>
